<?xml version="1.0" encoding="UTF-8" standalone="no"?>
<!-- Created with Inkscape (http://www.inkscape.org/) -->
<svg xmlns:dc="http://purl.org/dc/elements/1.1/" xmlns:cc="http://web.resource.org/cc/" xmlns:rdf="http://www.w3.org/1999/02/22-rdf-syntax-ns#" xmlns:svg="http://www.w3.org/2000/svg" xmlns="http://www.w3.org/2000/svg" xmlns:sodipodi="http://sodipodi.sourceforge.net/DTD/sodipodi-0.dtd" xmlns:inkscape="http://www.inkscape.org/namespaces/inkscape" height="971.34125" width="1441.5117" id="svg3922" sodipodi:version="0.32" inkscape:version="0.44" version="1.0" sodipodi:docbase="D:\dokumenty\kot\do wiki" sodipodi:docname="POL Łódź flag.svg">
  <defs id="defs3924">
    <marker orient="auto" markerHeight="3" markerWidth="4" markerUnits="strokeWidth" refY="5" refX="10" viewBox="0 0 10 10" id="ArrowStart">
      <path id="path3981" d="M 10,0 L 0,5 L 10,10 L 10,0 z "/>
    </marker>
    <marker orient="auto" markerHeight="3" markerWidth="4" markerUnits="strokeWidth" refY="5" refX="0" viewBox="0 0 10 10" id="ArrowEnd">
      <path id="path3978" d="M 0,0 L 10,5 L 0,10 L 0,0 z "/>
    </marker>
  </defs>
  <sodipodi:namedview id="base" pagecolor="#ffffff" bordercolor="#666666" borderopacity="1.0" inkscape:pageopacity="0.0" inkscape:pageshadow="2" inkscape:cx="720.75584" inkscape:cy="485.67062" inkscape:zoom="0.50033909" inkscape:document-units="px" inkscape:current-layer="layer1" inkscape:window-width="1024" inkscape:window-height="682" inkscape:window-x="-4" inkscape:window-y="-4"/>
  <metadata id="metadata3927">
    <rdf:RDF>
      <cc:Work rdf:about="">
        <dc:format>image/svg+xml</dc:format>
        <dc:type rdf:resource="http://purl.org/dc/dcmitype/StillImage"/>
      </cc:Work>
    </rdf:RDF>
  </metadata>
  <g inkscape:groupmode="layer" inkscape:label="Warstwa 1" id="layer1" transform="translate(229.476,-11.80712)">
    <rect style="opacity:1;fill:#ffc905;fill-opacity:1;stroke:none;stroke-width:5;stroke-linecap:round;stroke-linejoin:round;stroke-miterlimit:4;stroke-dasharray:none;stroke-dashoffset:0;stroke-opacity:1" id="rect4145" width="1441.5117" height="971.34125" x="-229.47603" y="11.807117"/>
    <path style="fill:#fe0000;fill-opacity:1;stroke:none;stroke-width:5;stroke-linecap:round;stroke-linejoin:round;stroke-miterlimit:4;stroke-dashoffset:0;stroke-opacity:1" d="M 1212.0357,493.3848 L 1212.0357,983.14838 L -229.47603,983.14838 L -229.47603,491.37272 L 1212.0357,493.3848 z " id="rect5044" sodipodi:nodetypes="ccccc"/>
    <g id="g1931" transform="translate(0,-12.53968)">
      <path style="fill:white;fill-opacity:1;fill-rule:evenodd;stroke:none" d="M 304.47019,275.79163 L 674.61465,275.79163 L 674.61465,675.57425 C 674.43026,701.85825 657.58122,716.12707 620.62287,715.89413 L 542.7876,716.04048 C 514.83985,716.18376 496.90458,725.29247 489.97582,744.2463 C 480.91194,725.44268 462.91385,716.04048 435.98195,716.04048 L 358.70064,716.10639 C 326.74169,716.08262 304.7031,706.42296 304.48227,675.57117 L 304.48227,275.78855" id="path4109"/>
      <path id="path3985" d="M 315.98033,286.55394 L 663.10446,286.55394 L 663.10446,665.37031 C 662.93156,690.27587 647.13049,703.79637 612.47062,703.57563 L 539.47614,703.71432 C 513.26652,703.85009 496.44673,712.48111 489.94892,730.44091 C 481.44865,712.62343 464.56997,703.71432 439.313,703.71432 L 366.83804,703.77677 C 336.86671,703.75425 316.19874,694.60118 315.99166,665.3674 L 315.99166,286.55102" style="fill:#ec2a32;fill-rule:evenodd;stroke:none"/>
      <path id="path3987" d="M 465.8436,498.60301 C 459.02192,498.60301 453.45716,493.04117 453.45716,486.21666 C 453.45716,484.39563 453.85441,482.66319 454.56664,481.10282 L 392.27626,481.35841 L 345.74431,381.11534 L 337.30352,364.86621 L 332.02806,367.16065 L 340.11712,386.41361 L 341.1722,390.12029 L 387.85468,489.49277 L 446.85996,488.79501 C 448.12549,498.12887 456.16334,505.36434 465.83772,505.36434 C 475.66542,505.36434 483.80839,497.89653 484.87216,488.3441 L 575.60486,487.27167 L 642.4421,385.88066 L 647.53557,377.90458 L 642.70276,374.19499 L 629.72684,391.70026 L 570.8171,480.6178 L 477.07251,481.00335 C 477.8102,482.58622 478.22404,484.35352 478.22404,486.21085 C 478.22404,493.03246 472.66227,498.5972 465.83772,498.5972" style="fill:#ffc905;fill-rule:evenodd;stroke:none"/>
      <path id="path3989" d="M 629.73559,391.70026 L 570.82585,480.6178 L 477.08126,481.00335 C 477.81817,482.58622 478.23278,484.35352 478.23278,486.21085 C 478.23278,493.03246 472.67024,498.5972 465.84647,498.5972 C 459.02493,498.5972 453.46016,493.03536 453.46016,486.21085 C 453.46016,484.38982 453.85728,482.65738 454.56964,481.09702 L 392.27918,481.35259 L 345.74713,381.10953 L 390.85532,465.19131 L 575.4176,465.19131 L 629.73846,391.69735" style="fill:#b57969;fill-rule:evenodd;stroke:none"/>
      <path id="path3991" d="M 446.86284,488.80081 C 448.1285,498.13468 456.16621,505.37015 465.8406,505.37015 C 475.66829,505.37015 483.81139,497.90234 484.87503,488.34991 L 575.60787,487.27748 L 642.44498,385.88575 C 635.45928,400.02196 629.31875,428.19202 623.27407,457.95004 C 615.39528,502.34091 593.87039,529.54382 562.06989,543.7904 C 549.1739,549.94255 534.33984,551.88557 518.62953,551.91389 L 429.98716,551.91389 C 383.96357,552.46062 360.63507,523.16514 354.00951,471.90183 L 341.1722,390.1232 L 387.85468,489.49568 L 446.85996,488.79791" style="fill:#a07164;fill-rule:evenodd;stroke:none"/>
      <path id="path3993" d="M 446.76999,488.97072 C 448.03474,498.26829 456.11254,505.47544 465.76446,505.47544 C 475.85268,505.47544 483.97619,498.03811 485.03984,488.52272 C 515.29378,488.1684 545.55137,487.81334 575.80897,487.4561 C 597.67443,454.23464 619.54199,421.01608 641.40667,387.79463 C 634.65041,401.72682 628.70015,429.02848 622.84352,457.83967 C 614.98066,502.05193 593.50736,529.14084 561.77803,543.3337 C 548.90959,549.46043 534.11261,551.39474 518.43704,551.42595 C 488.95644,551.42595 459.4765,551.42595 429.9959,551.42595 C 384.07684,551.97051 360.80206,522.79338 354.19104,471.73773 C 349.98771,444.98282 345.78118,418.2279 341.57496,391.47082 C 356.93056,424.20144 372.28879,456.93496 387.64484,489.66558 C 407.35344,489.43613 427.06315,489.20306 446.77208,488.97362" style="fill:#a47564;fill-rule:evenodd;stroke:none"/>
      <path id="path3995" d="M 446.67844,489.14063 C 447.9411,498.40116 456.06096,505.57709 465.69042,505.57709 C 476.04007,505.57709 484.14609,498.17172 485.20399,488.69263 C 515.47321,488.3412 545.74451,487.98686 576.01373,487.62891 C 597.46667,454.98614 618.91751,422.34338 640.37123,389.70062 C 633.84521,403.43094 628.08443,429.86276 622.41219,457.72931 C 614.56683,501.75932 593.14145,528.74077 561.48616,542.87408 C 548.64593,548.9754 533.88317,550.90389 518.24103,550.93222 C 488.8286,550.93222 459.41408,550.93222 430.00165,550.93222 C 384.18721,551.47387 360.96399,522.41654 354.36675,471.56709 C 350.23676,445.31754 346.10459,419.06509 341.97205,392.8119 C 357.1237,425.15188 372.275,457.49115 387.42629,489.83041 C 407.17493,489.60023 426.92668,489.37079 446.67622,489.14063" style="fill:#a97864;fill-rule:evenodd;stroke:none"/>
      <path id="path3997" d="M 446.58847,489.31415 C 447.84747,498.53475 456.01016,505.68528 465.61925,505.68528 C 476.23021,505.68528 484.31598,498.30749 485.37388,488.87125 C 515.65472,488.51982 545.93765,488.16548 576.22059,487.81334 C 597.25982,455.74926 618.2997,423.68228 639.34167,391.61532 C 633.04509,405.14452 627.47445,430.70501 621.98673,457.62403 C 614.15874,501.47614 592.78129,528.34723 561.19639,542.42318 C 548.38828,548.49836 533.6566,550.41886 518.05076,550.44719 C 488.70376,550.44719 459.35675,550.44719 430.00962,550.44719 C 384.30047,550.98594 361.13099,522.04768 354.54826,471.40591 C 350.49234,445.65808 346.4335,419.91026 342.37765,394.16243 C 357.32483,426.10743 372.27209,458.05532 387.21936,490.00321 C 407.01078,489.77377 426.79962,489.5436 446.59056,489.31706" style="fill:#ac7a64;fill-rule:evenodd;stroke:none"/>
      <path id="path3999" d="M 446.49693,489.48406 C 447.75384,498.66836 455.95936,505.78693 465.54586,505.78693 C 476.41761,505.78693 484.48366,498.44109 485.53868,489.04188 C 515.83337,488.69263 546.12714,488.33829 576.4247,487.98978 C 597.04996,456.50076 617.6781,425.01248 638.30624,393.52419 C 632.23988,406.85155 626.85951,431.54147 621.5554,457.51656 C 613.74713,501.18934 592.41825,527.95005 560.90452,541.96647 C 548.12397,548.01914 533.42637,549.93093 517.8584,549.95926 C 488.57957,549.95926 459.30008,549.95926 430.01837,549.95926 C 384.41156,550.49511 361.29581,521.67592 354.7298,471.24399 C 350.7472,446.0008 346.76243,420.75542 342.78041,395.50932 C 357.52306,427.06295 372.26338,458.61949 387.0066,490.17312 C 406.83722,489.94658 426.6689,489.71642 446.4998,489.48697" style="fill:#b07d63;fill-rule:evenodd;stroke:none"/>
      <path id="path4001" d="M 446.40395,489.65687 C 447.6572,498.80413 455.90556,505.89221 465.46894,505.89221 C 476.59912,505.89221 484.64781,498.57469 485.70349,489.21468 C 516.00901,488.86616 546.31741,488.51401 576.6258,488.16548 C 596.84011,457.25517 617.05441,426.34267 637.26871,395.43018 C 631.43454,408.55641 626.24091,432.37575 621.1242,457.40256 C 613.33316,500.89455 592.05234,527.54707 560.61266,541.50759 C 547.86031,547.53411 533.19693,549.43719 517.66239,549.46551 C 488.45172,549.46551 459.23765,549.46551 430.02411,549.46551 C 384.52194,550.00209 361.45701,521.29836 354.9055,471.07408 C 350.99698,446.33552 347.08844,421.59187 343.17743,396.85113 C 357.7133,428.0134 372.25249,459.17568 386.78805,490.33794 C 406.65858,490.11068 426.53244,489.88413 446.40395,489.65397" style="fill:#b58162;fill-rule:evenodd;stroke:none"/>
      <path id="path4003" d="M 446.31319,489.83041 C 447.56357,498.93773 455.85111,505.99967 465.39268,505.99967 C 476.78286,505.99967 484.81549,498.71337 485.86476,489.3933 C 516.18478,489.04477 546.5048,488.69553 576.82469,488.34991 C 596.6245,458.01539 616.42785,427.68158 636.22753,397.34778 C 630.62281,410.26926 625.62009,433.22092 620.68777,457.30382 C 612.91358,500.61645 591.68421,527.15571 560.31426,541.05886 C 547.59391,547.0607 532.96174,548.95798 517.46416,548.98629 C 488.31813,548.98629 459.17301,548.98629 430.02712,548.98629 C 384.6294,549.51997 361.61602,520.93531 355.08122,470.91798 C 351.24674,446.68187 347.41227,422.44575 343.57453,398.20674 C 357.90644,428.97765 372.23797,459.74566 386.57241,490.51656 C 406.48581,490.29219 426.3995,490.06275 446.31032,489.8384" style="fill:#b88561;fill-rule:evenodd;stroke:none"/>
      <path id="path4005" d="M 446.22243,490.00032 C 447.46994,499.07061 455.80031,506.10205 465.32151,506.10205 C 476.973,506.10205 484.98538,498.84698 486.03531,489.56321 C 516.3663,489.21758 546.70003,488.87125 577.03454,488.52272 C 596.42039,458.76688 615.80912,429.00887 635.19797,399.25376 C 629.82334,411.9741 625.01012,434.05446 620.26231,457.19055 C 612.50758,500.32457 591.32327,526.75274 560.02815,540.59997 C 547.33534,546.57858 532.73739,548.46496 517.27676,548.49328 C 488.19916,548.49328 459.11856,548.49328 430.03874,548.49328 C 384.7463,549.02333 361.78665,520.55848 355.26565,470.74735 C 351.50451,447.01659 347.7441,423.28221 343.98296,399.54855 C 358.11045,429.92519 372.23797,460.30475 386.36547,490.68139 C 406.31879,490.45702 426.27178,490.22976 446.22543,490.00611" style="fill:#be8861;fill-rule:evenodd;stroke:none"/>
      <path id="path4007" d="M 446.13167,490.17312 C 447.37618,499.20421 455.74663,506.20661 465.24812,506.20661 C 477.16039,506.20661 485.15319,498.97985 486.19946,489.73674 C 516.54481,489.3933 546.8903,489.04769 577.23565,488.70134 C 596.21054,459.52129 615.18543,430.34196 634.16032,401.16192 C 629.01526,413.68187 624.39152,434.88874 619.82811,457.07946 C 612.09087,500.03195 590.95801,526.35266 559.73341,540.14035 C 547.06894,546.09355 532.50507,547.97122 517.08075,547.99954 C 488.07132,547.99954 459.05614,547.99954 430.04383,547.99954 C 384.85666,548.52668 361.95075,520.18091 355.44426,470.57744 C 351.7601,447.34842 348.07011,424.11939 344.38288,400.88964 C 358.3036,430.87492 372.22634,460.8602 386.14983,490.84548 C 406.14236,490.62112 426.13819,490.39749 446.13167,490.17312" style="fill:#c28c5f;fill-rule:evenodd;stroke:none"/>
      <path id="path4009" d="M 446.04091,490.34375 C 447.28333,499.33709 455.69792,506.31189 465.17407,506.31189 C 477.34766,506.31189 485.32308,499.11635 486.36714,489.90954 C 516.72346,489.56611 547.08344,489.22339 577.44263,488.87705 C 596.00369,460.27642 614.56683,431.67216 633.13076,403.06791 C 628.21515,415.386 623.78232,435.72518 619.40252,456.96909 C 611.68213,499.74297 590.5972,525.95332 559.4465,539.68365 C 546.81403,545.61143 532.28359,547.48329 516.89127,547.51161 C 487.94647,547.51161 459.00233,547.51161 430.05532,547.51161 C 384.96993,548.03948 362.11847,519.80988 355.62579,470.41261 C 352.01277,447.68895 348.39903,424.96166 344.78564,402.23726 C 358.50183,431.82827 372.22126,461.42219 385.93998,491.01538 C 405.97247,490.79175 426.00813,490.56738 446.04392,490.34375" style="fill:#c6915c;fill-rule:evenodd;stroke:none"/>
      <path id="path4011" d="M 445.94728,490.51366 C 447.18382,499.47068 455.64125,506.41354 465.09781,506.41354 C 477.53218,506.41354 485.48789,499.24923 486.52841,490.08236 C 516.89701,489.74255 547.2707,489.39911 577.64165,489.05567 C 595.79096,461.03083 613.94027,433.00526 632.08958,404.9797 C 627.40406,417.09667 623.16085,436.56455 618.9691,456.86091 C 611.26529,499.45616 590.23194,525.55615 559.14889,539.22694 C 546.54463,545.12931 532.04827,546.99246 516.69225,547.02077 C 487.81641,547.02077 458.93704,547.02077 430.05833,547.02077 C 385.07811,547.54573 362.27676,519.43522 355.80149,470.24562 C 352.26182,448.02586 348.72504,425.80101 345.18267,403.58198 C 358.69497,432.7809 372.20966,461.98055 385.72143,491.18021 C 405.79683,490.95874 425.87166,490.73511 445.94728,490.51075" style="fill:#ca945a;fill-rule:evenodd;stroke:none"/>
      <path id="path4013" d="M 445.85652,490.68647 C 447.09019,499.60428 455.59045,506.51882 465.02377,506.51882 C 477.71657,506.51882 485.65778,499.38283 486.69609,490.25589 C 517.07853,489.91536 547.46319,489.57482 577.84563,489.23139 C 595.5811,461.78524 613.31579,434.33546 631.05414,406.88567 C 626.59807,418.79861 622.54513,437.39882 618.53776,456.75053 C 610.85433,499.16428 589.86603,525.15606 558.8569,538.77023 C 546.28032,544.64719 531.81817,546.50453 516.49702,546.53284 C 487.68582,546.53284 458.87462,546.53284 430.0612,546.53284 C 385.18557,547.0549 362.43577,519.06346 355.97503,470.0808 C 352.51159,448.36349 349.04597,426.64618 345.57977,404.92597 C 358.88738,433.73426 372.19512,462.53964 385.50361,491.3472 C 405.61818,491.12647 425.73585,490.90502 445.85077,490.68139" style="fill:#d09a57;fill-rule:evenodd;stroke:none"/>
      <path id="path4015" d="M 445.76576,490.86001 C 446.99643,499.74006 455.53965,506.62628 464.95051,506.62628 C 477.90605,506.62628 485.82546,499.52152 486.86024,490.43161 C 517.2543,490.09107 547.65346,489.75344 578.04961,489.4129 C 595.37125,462.54255 612.69498,435.67146 630.0187,408.80037 C 625.79286,420.51145 621.93006,438.24109 618.10656,456.64598 C 610.4405,498.8811 589.503,524.7618 558.56438,538.31642 C 546.01966,544.17015 531.58873,546.0166 516.30388,546.04564 C 487.56085,546.04564 458.81507,546.04564 430.06995,546.04564 C 385.29885,546.56406 362.60349,518.69243 356.15655,469.9196 C 352.76718,448.70403 349.37489,427.49135 345.98253,406.27576 C 359.08633,434.68979 372.19004,463.10672 385.29377,491.52074 C 405.45038,491.29928 425.60813,491.07783 445.76289,490.86001" style="fill:#d49d53;fill-rule:evenodd;stroke:none"/>
      <path id="path4017" d="M 445.675,491.0299 C 446.9028,499.87366 455.48807,506.72867 464.87646,506.72867 C 478.09044,506.72867 485.99248,499.65511 487.02791,490.60442 C 517.43582,490.26678 547.8466,489.92916 578.25372,489.58934 C 595.16361,463.29696 612.07416,437.00166 628.98405,410.70926 C 624.98766,422.21849 621.31433,439.07463 617.67523,456.53779 C 610.02588,498.5943 589.13709,524.36173 558.27251,537.86262 C 545.75614,543.69093 531.35929,545.5323 516.11139,545.56061 C 487.436,545.56061 458.75552,545.56061 430.07791,545.56061 C 385.40994,546.07686 362.76759,518.32357 356.33808,469.75769 C 353.02204,449.04746 349.70381,428.33652 346.38559,407.62629 C 359.28455,435.64895 372.18133,463.67088 385.08102,491.69355 C 405.27761,491.475 425.47454,491.25427 445.67213,491.03281" style="fill:#daa14e;fill-rule:evenodd;stroke:none"/>
      <path id="path4019" d="M 445.58137,491.19981 C 446.80629,500.00654 455.43139,506.83395 464.8002,506.83395 C 478.27496,506.83395 486.16028,499.78871 487.18906,490.77723 C 517.60859,490.4425 548.03321,490.1056 578.45561,489.76796 C 594.95154,464.05135 611.44968,438.33476 627.94574,412.61815 C 624.17879,423.92625 620.69652,439.91182 617.24468,456.43033 C 609.61204,498.30531 588.77405,523.96456 557.98052,537.40591 C 545.49183,543.20881 531.12906,545.04145 515.91538,545.06978 C 487.30607,545.06978 458.69597,545.06978 430.08366,545.06978 C 385.52031,545.58602 362.93242,517.94891 356.51379,469.59069 C 353.2718,449.3851 350.02691,429.17659 346.78493,408.97028 C 359.47769,436.60158 372.17262,464.22997 384.86537,491.86128 C 405.10183,491.64273 425.3416,491.42417 445.57837,491.20271" style="fill:#dda74a;fill-rule:evenodd;stroke:none"/>
      <path id="path4021" d="M 445.49061,491.37335 C 446.71253,500.14014 455.3806,506.93851 464.72616,506.93851 C 478.46223,506.93851 486.32731,499.92449 487.35687,490.95076 C 517.79011,490.61604 548.22635,490.2784 578.65959,489.94368 C 594.74103,464.80576 610.82599,439.66495 626.91031,414.52704 C 623.37358,425.63402 620.0808,440.74827 616.81334,456.31924 C 609.20108,498.0156 588.40801,523.56521 557.688,536.9492 C 545.23117,542.72668 530.89962,544.55352 515.72224,544.57893 C 487.18109,544.57893 458.63643,544.57893 430.09241,544.57893 C 385.63357,545.09228 363.09652,517.57497 356.69532,469.42296 C 353.52739,449.71909 350.35874,430.01886 347.18791,410.31499 C 359.67591,437.55202 372.16463,464.79124 384.65553,492.02828 C 404.93416,491.80972 425.21088,491.59117 445.49061,491.37335" style="fill:#dfa845;fill-rule:evenodd;stroke:none"/>
      <path id="path4023" d="M 445.39985,491.54616 C 446.6189,500.27591 455.3298,507.04379 464.65211,507.04379 C 478.64962,507.04379 486.4942,500.06027 487.52089,491.12357 C 517.96875,490.79175 548.41361,490.45702 578.86357,490.1223 C 594.53404,465.56307 610.20452,440.99804 625.87788,416.43592 C 622.57347,427.33814 619.46794,441.58473 616.38501,456.20888 C 608.78934,497.72662 588.04785,523.16514 557.39901,536.48958 C 544.97052,542.24456 530.67526,544.05978 515.53275,544.08811 C 487.05625,544.08811 458.57975,544.08811 430.10325,544.08811 C 385.74757,544.59854 363.26423,517.20032 356.87974,469.25597 C 353.78516,450.05673 350.69056,430.85822 347.59379,411.65898 C 359.87776,438.50465 372.16173,465.35033 384.4457,492.19527 C 404.76426,491.98035 425.08317,491.7618 445.40273,491.54616" style="fill:#e3ae3f;fill-rule:evenodd;stroke:none"/>
      <path id="path4025" d="M 445.30909,491.71606 C 446.52592,500.40952 455.27821,507.14835 464.57872,507.14835 C 478.83689,507.14835 486.66488,500.19386 487.68869,491.29928 C 518.1474,490.96747 548.6061,490.63564 579.06833,490.30092 C 594.32419,466.31748 609.58371,442.33114 624.84322,418.34699 C 621.76813,429.04881 618.85287,442.42481 615.95368,456.1036 C 608.3755,497.43982 587.68194,522.77087 557.10414,536.03869 C 544.70333,541.76825 530.44295,543.57766 515.33661,543.60307 C 486.92841,543.60307 458.51733,543.60307 430.10625,543.60307 C 385.85503,544.11061 363.42543,516.83146 357.05255,469.09695 C 354.03202,450.40307 351.0115,431.70629 347.99096,413.00951 C 360.07017,439.46091 372.15011,465.9145 384.22715,492.36881 C 404.58562,492.15317 424.94736,491.93752 445.30909,491.71896" style="fill:#e9b437;fill-rule:evenodd;stroke:none"/>
      <path id="path4027" d="M 445.21834,491.88959 C 446.43229,500.54312 455.22454,507.25363 464.50468,507.25363 C 479.02062,507.25363 486.8319,500.33037 487.85349,491.47209 C 518.32304,491.14317 548.79624,490.81135 579.26943,490.47954 C 594.11433,467.07189 608.95923,443.66424 623.80492,420.25588 C 620.96005,430.75584 618.23428,443.26126 615.52313,455.99322 C 607.96376,497.15083 587.31603,522.37079 556.81162,535.57907 C 544.43981,541.28322 530.21272,543.08392 515.14138,543.11224 C 486.79782,543.11224 458.45491,543.11224 430.112,543.11224 C 385.9654,543.6176 363.58735,516.45753 357.23116,468.92995 C 354.28398,450.7378 351.33751,432.54564 348.39032,414.3535 C 360.26331,440.41354 372.1385,466.47359 384.01439,492.53581 C 404.41507,492.32017 424.81664,492.10451 445.21834,491.88959" style="fill:#eeb82d;fill-rule:evenodd;stroke:none"/>
      <path id="path4029" d="M 445.12457,492.0595 C 446.33578,500.676 455.17074,507.35528 464.42841,507.35528 C 479.20502,507.35528 486.9967,500.46324 488.01764,491.64273 C 518.50168,491.3138 548.9865,490.98416 579.47354,490.65234 C 593.90448,467.82339 608.33842,444.99153 622.76948,422.16185 C 620.15406,432.4607 617.61855,444.09482 615.0918,455.88286 C 607.54992,496.86112 586.953,521.97071 556.51963,535.12308 C 544.17902,540.8011 529.98328,542.59672 514.94824,542.62213 C 486.67363,542.62213 458.39536,542.62213 430.12075,542.62213 C 386.0794,543.12677 363.75434,516.08287 357.41269,468.76223 C 354.54247,451.07543 351.66643,433.385 348.7933,415.69821 C 360.46153,441.3669 372.1334,467.03485 383.80165,492.70354 C 404.24221,492.49079 424.68383,492.27515 445.12457,492.0595" style="fill:#f1be27;fill-rule:evenodd;stroke:none"/>
      <path id="path4031" d="M 445.03381,492.23231 C 446.24202,500.8125 455.11994,507.46347 464.35437,507.46347 C 479.39241,507.46347 487.1666,500.59975 488.18245,491.82135 C 518.68098,491.49533 549.17677,491.16569 579.67465,490.83676 C 593.69175,468.58651 607.71185,446.32971 621.73117,424.07655 C 619.34597,434.17063 617.00074,444.93781 614.65759,455.77758 C 607.13308,496.57504 586.58696,521.57355 556.22489,534.67145 C 543.91262,540.32478 529.75096,542.11169 514.75223,542.1371 C 486.54578,542.1371 458.33581,542.1371 430.12362,542.1371 C 386.18395,542.63884 363.91336,515.71401 357.5855,468.60031 C 354.78933,451.41814 351.98954,434.23308 349.19046,417.04801 C 360.65467,442.32243 372.11888,467.59902 383.58601,492.87634 C 404.06649,492.6636 424.55024,492.45086 445.03094,492.23521" style="fill:#f8c318;fill-rule:evenodd;stroke:none"/>
      <path id="path4033" d="M 444.94305,492.40293 C 446.14839,500.94246 455.06836,507.56512 464.28098,507.56512 C 479.57967,507.56512 487.33427,500.73262 488.34947,491.99124 L 579.88229,491.0103 L 620.69861,425.98253 L 614.22926,455.66721 C 606.72147,496.28534 586.22392,521.1742 555.93524,534.21257 C 543.65118,539.84266 529.52374,541.61795 514.55974,541.64627 L 430.13159,541.64627 C 386.29722,542.14509 364.07819,515.33935 357.76702,468.4333 L 349.59344,418.39273 L 383.37327,493.04335 L 444.94305,492.40585" style="fill:#ffc905;fill-rule:evenodd;stroke:none"/>
      <path id="path4035" d="M 554.60207,371.21077 L 439.42047,512.26799 C 418.23394,537.45673 412.14708,534.19514 395.58578,547.97413 L 355.16109,595.90977 L 381.9465,617.42886 L 420.42312,569.24925 C 434.70962,547.72725 427.07699,545.03855 450.13316,517.15747 L 561.78678,377.43117 L 569.67132,384.25786 L 576.16913,376.52355 L 552.87177,357.73311 L 546.75736,364.4153 L 554.59632,371.20569" style="fill:#ffc905;fill-rule:evenodd;stroke:none"/>
      <path id="path4037" d="M 439.4176,512.26799 C 431.52718,521.93659 423.49809,533.09512 415.33762,545.71381 C 412.89287,549.09739 410.51342,555.47898 408.00051,558.73186 L 375.98749,598.72046 L 410.08509,559.70772 C 414.76472,554.50893 417.84544,553.03134 422.32619,548.33427 C 428.45,542.78042 434.56219,537.27012 440.69697,529.52422 C 443.11051,525.99833 446.16797,521.95111 450.13029,517.15747 L 561.78378,377.43117 L 569.66844,384.25786 L 573.06936,380.2818 L 562.04443,370.84772 L 439.56568,523.25009 C 433.03378,532.01978 425.01265,541.71742 412.86741,553.97815 C 422.49686,538.28811 433.52675,522.59516 443.85682,506.90147 L 439.40963,512.26509" style="fill:#a07164;fill-rule:evenodd;stroke:none"/>
      <path id="path4039" d="M 546.75958,364.41822 L 554.63615,371.23981 L 557.18915,368.04865 L 549.39746,361.53636 L 546.75958,364.41822" style="fill:#a07164;fill-rule:evenodd;stroke:none"/>
      <path id="path4041" d="M 351.89079,413.03201 L 345.73581,413.03201 L 345.44363,411.18267 L 351.0115,411.18267 L 351.89079,413.03201 z M 363.19017,437.0779 L 349.82869,437.0779 L 349.5339,435.22854 L 362.35663,435.22854 L 363.19309,437.0779 L 363.19017,437.0779 z M 374.20058,460.38679 L 353.46204,460.38679 L 353.17814,458.53744 L 373.32129,458.53744 L 374.20058,460.38679 z M 383.93452,481.10282 L 356.57043,481.10282 L 356.90806,482.95217 L 384.72597,482.95217 L 383.93452,481.10282 z M 624.52798,413.03201 L 633.27519,413.03201 L 633.75445,411.18267 L 625.79574,411.18267 L 624.52511,413.03201 L 624.52798,413.03201 z M 608.72692,437.0779 L 627.62554,437.0779 L 628.03363,435.22854 L 609.9692,435.22854 L 608.72404,437.0779 L 608.72692,437.0779 z M 593.33746,460.38679 L 622.85149,460.38679 L 623.17822,458.53744 L 594.54279,458.53744 L 593.33459,460.38679 L 593.33746,460.38679 z M 578.44398,482.95507 L 616.77626,482.95507 L 617.44866,481.10573 L 579.64409,481.10573 L 578.44686,482.95507 L 578.44398,482.95507 z M 478.72589,504.78275 L 606.55445,504.78275 L 605.42538,506.6321 L 473.00494,506.6321 C 475.27404,506.16159 476.96216,505.54586 478.72589,504.78275 z M 421.50139,530.30984 C 422.23543,529.73115 422.99049,529.11834 423.76449,528.4605 L 376.05864,528.4605 L 377.58706,530.30984 L 421.49839,530.30984 L 421.50139,530.30984 z M 441.44041,528.4605 C 440.99759,529.09001 440.575,529.70865 440.16979,530.30984 L 584.3296,530.30984 L 586.56449,528.4605 L 441.44041,528.4605 z M 445.52979,504.78275 L 445.21533,505.16902 L 444.02384,506.6292 L 363.67811,506.6292 L 362.98614,504.77984 L 445.53553,504.77984" style="fill:#a07164;fill-rule:evenodd;stroke:none"/>
    </g>
  </g>
</svg>