<?xml version="1.0" encoding="UTF-8" standalone="no"?>
<!-- Created with Inkscape (http://www.inkscape.org/) -->
<svg xmlns:dc="http://purl.org/dc/elements/1.1/" xmlns:cc="http://web.resource.org/cc/" xmlns:rdf="http://www.w3.org/1999/02/22-rdf-syntax-ns#" xmlns:svg="http://www.w3.org/2000/svg" xmlns="http://www.w3.org/2000/svg" xmlns:sodipodi="http://sodipodi.sourceforge.net/DTD/sodipodi-0.dtd" xmlns:inkscape="http://www.inkscape.org/namespaces/inkscape" height="585.71436" width="868.57141" id="svg2" sodipodi:version="0.32" inkscape:version="0.44" version="1.0" sodipodi:docbase="D:\dokumenty\kot\do wiki" sodipodi:docname="POL Toruń flag.svg">
  <defs id="defs4">
    <marker orient="auto" markerHeight="3" markerWidth="4" markerUnits="strokeWidth" refY="5" refX="10" viewBox="0 0 10 10" id="ArrowStart">
      <path id="path10" d="M 10,0 L 0,5 L 10,10 L 10,0 z "/>
    </marker>
    <marker orient="auto" markerHeight="3" markerWidth="4" markerUnits="strokeWidth" refY="5" refX="0" viewBox="0 0 10 10" id="ArrowEnd">
      <path id="path7" d="M 0,0 L 10,5 L 0,10 L 0,0 z "/>
    </marker>
  </defs>
  <sodipodi:namedview id="base" pagecolor="#ffffff" bordercolor="#666666" borderopacity="1.0" inkscape:pageopacity="0.0" inkscape:pageshadow="2" inkscape:cx="355.5145" inkscape:cy="520" inkscape:zoom="0.35" inkscape:document-units="px" inkscape:current-layer="layer1" showguides="true" inkscape:guide-bbox="true" inkscape:window-width="1024" inkscape:window-height="682" inkscape:window-x="-4" inkscape:window-y="-4"/>
  <metadata id="metadata7">
    <rdf:RDF>
      <cc:Work rdf:about="">
        <dc:format>image/svg+xml</dc:format>
        <dc:type rdf:resource="http://purl.org/dc/dcmitype/StillImage"/>
      </cc:Work>
    </rdf:RDF>
  </metadata>
  <g inkscape:groupmode="layer" inkscape:label="Warstwa 1" id="layer1" transform="translate(0,4.780674)">
    <rect style="fill:white;fill-opacity:1;stroke:none;stroke-width:1;stroke-linecap:round;stroke-linejoin:round;stroke-miterlimit:4;stroke-dasharray:none;stroke-dashoffset:0;stroke-opacity:1" id="rect2037" width="868.57141" height="585.71429" x="0" y="-4.7806745"/>
    <rect y="292.36218" x="0" height="288.5715" width="868.57141" id="rect3833" style="fill:#09c;fill-opacity:1;stroke:none;stroke-width:1;stroke-linecap:round;stroke-linejoin:round;stroke-miterlimit:4;stroke-dasharray:none;stroke-dashoffset:0;stroke-opacity:1"/>
    <g id="g2013" transform="matrix(0.728413,0,0,0.728413,235.5013,50.89563)">
      <path style="fill:#e6e6e8;fill-rule:evenodd;stroke:none" d="M 7.51871,275.054 L 11.8195,230.726 L 21.1242,182.171 L 16.7414,167.753 L 40.1203,120.999 L 45.1867,112.339 L 45.3234,100.523 L 71.9601,64.1791 L 78.8078,56.7842 L 78.1789,45.5541 L 94.7956,31.5771 L 115.855,17.9991 L 140.367,7.71417 L 161.152,14.2342 L 174.601,32.5742 L 184.789,78.2181 L 201.089,112.863 L 221.058,130.792 L 348.629,120.199 L 364.929,106.343 L 379.246,87.6832 L 388.316,57.1711 L 399.406,20.6172 L 415.742,7.73419 L 437.519,4.24518 L 462.343,14.1321 L 481.445,35.7382 L 488.851,54.9211 L 515.894,93.1602 L 519.371,110.773 L 529.3,137.542 L 545.613,168.976 L 542.406,185.085 L 546.242,199.933 L 553.578,288.605 L 552.269,360.214 L 547.062,407.206 L 538.593,449.683 L 525.144,492.796 L 507.621,524.956 L 496.601,533.745 L 478.211,513.46 L 486.785,475.179 L 486.39,465.597 L 473.722,456.398 L 479.449,397.335 L 462.648,386.777 L 459.711,337.37 L 441.503,330.566 L 440.382,305.21 L 424.683,303.843 L 421.621,291.355 L 417.14,286.152 L 406.972,282.367 L 398.769,262.449 L 242.261,237.589 L 233.648,246.714 L 223.933,240.484 L 214.511,246.437 L 205.023,243.472 L 197.449,254.671 L 188.14,253.73 L 179.703,267.925 L 166.769,270.046 L 161.226,280.839 L 142.019,293.421 L 35.0109,293.421 L 33.1281,449.499 L 16.9015,402.402 L 4.97181,324.269 L 7.52261,275.085" id="path14"/>
      <path style="fill:#fff101;fill-rule:evenodd;stroke:none" d="M 459.687,498.37 L 453.316,472.128 L 440.789,455.066 L 431.285,453.554 L 422.539,456.683 L 422,467.16 L 435.605,471.91 L 444.136,493.402 L 444.996,534.984 L 454.066,548.808 L 461.515,545.031 L 465.941,519.976 L 459.679,498.374" id="path16"/>
      <path style="fill:#fffdfd;fill-rule:evenodd;stroke:none" d="M 203.921,553.456 L 208.722,553.456 L 208.722,524.91 L 214.589,528.363 L 214.589,553.452 L 220.191,553.452 L 220.191,531.058 L 225.257,535.07 L 225.257,553.449 L 230.324,553.449 L 230.324,540.66 L 236.191,546.234 L 236.191,553.449 L 241.527,553.449 L 241.527,559.316 L 236.191,559.316 L 236.191,571.585 L 243.125,571.585 L 243.125,576.921 L 236.191,576.921 L 236.191,590.261 L 230.324,590.261 L 230.324,576.921 L 225.257,576.921 L 225.257,590.574 L 220.191,590.574 L 220.191,576.921 L 214.589,576.921 L 214.589,591.058 L 208.722,591.058 L 208.722,576.921 L 203.921,576.921 L 203.921,571.585 L 208.722,571.585 L 208.722,559.316 L 203.921,559.316 L 203.921,553.449 L 203.921,553.456 z M 230.336,559.324 L 225.269,559.324 L 225.269,571.593 L 230.336,571.593 L 230.336,559.324 z M 220.199,559.324 L 214.597,559.324 L 214.597,571.593 L 220.199,571.593" id="path18"/>
      <path style="fill:#fff101;fill-rule:evenodd;stroke:none" d="M 249.214,661.976 C 261.843,663.687 274.468,661.066 287.097,652.109 L 287.097,525.386 C 268.781,529.562 256.152,540.859 249.214,559.265 L 249.214,661.98 L 249.214,661.976 z M 160.105,559.796 C 166.644,540.617 179.496,528.433 199.32,523.468 L 199.32,667.316 L 160.105,667.316 L 160.105,559.8" id="path20"/>
      <path style="fill:#ec2a32;fill-rule:evenodd;stroke:none" d="M 36.2726,490.492 L 47.9601,490.468 L 47.9601,476.534 L 65.2844,476.534 L 65.2844,490.468 L 73.4875,490.468 L 73.4875,381.148 L 68.9289,381.148 L 68.9289,334.113 L 80.7804,334.113 L 80.7804,351.097 L 94.9136,351.097 L 94.9136,334.113 L 107.679,334.113 L 107.679,351.097 L 121.812,351.097 L 121.812,334.113 L 133.664,334.113 L 133.664,381.148 L 130.929,381.148 L 130.929,490.468 L 143.695,490.468 L 143.695,476.534 L 161.019,476.534 L 161.019,490.468 L 170.593,490.468 L 170.593,381.148 L 166.035,381.148 L 166.035,334.113 L 177.886,334.113 L 177.886,351.097 L 192.019,351.097 L 192.019,334.113 L 204.785,334.113 L 204.785,351.097 L 218.918,351.097 L 218.918,334.113 L 230.769,334.113 L 230.769,381.148 L 228.035,381.148 L 228.035,490.468 L 240.343,490.468 L 240.343,476.534 L 257.668,476.534 L 257.668,490.468 L 269.062,490.468 L 269.062,381.148 L 264.503,381.148 L 264.503,334.113 L 276.355,334.113 L 276.355,351.097 L 290.488,351.097 L 290.488,334.113 L 303.253,334.113 L 303.253,351.097 L 317.386,351.097 L 317.386,334.113 L 329.238,334.113 L 329.238,381.148 L 326.503,381.148 L 326.503,490.468 L 337.445,490.468 L 337.445,476.534 L 354.769,476.534 L 354.769,490.468 L 365.472,492.331 C 367.054,534.273 359.937,561.452 348.609,585.148 C 336.882,609.679 320.73,634.121 287.05,650.261 L 287,525.886 C 267.773,530.402 253.457,545.648 248.449,565.144 C 243.23,557.843 239.996,549.824 234.457,543.46 C 224.914,532.492 212.75,524.91 202.218,523.351 L 187.07,528.105 L 168.324,542.554 L 161.418,555.91 L 159.238,565.081 L 159.152,663.621 C 117.019,654.96 83.2296,627.46 61.3195,592.824 C 44.2804,565.89 35.5656,540.179 36.2492,490.48" id="path22"/>
      <path style="fill:#fffdfd;fill-rule:evenodd;stroke:none" d="M 369.207,301.23 L 369.515,489.722 L 354.812,489.742 L 354.812,476.171 L 337.488,476.171 L 337.488,489.765 L 326.546,489.781 L 326.546,384.378 L 329.281,376.324 L 329.281,334.413 L 317.429,333.523 L 317.429,350.667 L 302.851,351.335 L 303.296,332.851 L 290.586,332.851 L 290.753,350.218 L 276.175,350.218 L 276.398,334.413 L 264.546,333.523 L 264.546,376.327 L 269.105,384.16 L 269.105,489.867 L 257.711,489.878 L 257.711,476.175 L 240.386,476.175 L 240.386,489.906 L 228.078,489.921 L 228.078,382.82 L 230.812,376.327 L 230.812,333.335 L 218.738,334.226 L 218.961,350.222 L 205.05,350.222 L 204.828,333.558 L 191.617,333.558 L 192.062,349.777 L 178.597,350.222 L 178.597,333.781 L 166.078,333.781 L 166.078,376.327 L 170.636,381.929 L 170.636,490.007 L 161.062,490.019 L 161.062,476.179 L 143.738,476.179 L 143.738,490.046 L 130.972,490.062 L 130.972,382.374 L 133.707,376.327 L 133.707,334.226 L 121.41,334.671 L 122.078,350.445 L 107.5,350.667 L 107.722,333.781 L 94.9566,333.781 L 95.4016,350.445 L 80.6008,350.222 L 80.8234,333.523 L 68.9718,333.523 L 68.9718,376.327 L 73.5304,381.929 L 73.5304,490.144 L 65.3273,490.156 L 65.3273,476.179 L 48.0031,476.179 L 48.0031,490.179 L 34.7961,490.195 L 34.6672,300.515 L 369.253,301.23" id="path24"/>
      <path style="fill:#209fd9;fill-rule:evenodd;stroke:none" d="M 370.136,254.96 L 363.011,226.015 L 366.25,196.206 L 386.984,213.378 L 377.265,235.195 L 372.73,261.117 L 369.492,276.992 L 379.535,278.609 L 388.929,287.031 L 390.222,308.413 L 387.957,328.933 L 379.859,340.593 L 368.843,345.777 L 370.543,515.515 L 353.593,580.058 L 347.679,590.242 L 368.086,603.499 L 384.07,605.96 L 412.148,593.648 L 421.218,584.902 L 428.992,584.902 L 445.191,569.027 L 448.429,556.714 L 442.601,476.249 L 428.996,469.445 L 420.25,462.534 L 428.347,391.574 L 420.574,333.792 L 393.035,280.007 L 408.91,253.331 L 423.812,203.324 L 419.277,192.956 L 399.191,170.277 L 352.964,132.585 L 313.867,129.023 L 312.25,147.492 L 286.652,159.585 L 261.488,155.265 L 246.261,136.152 L 229.089,136.472 L 202.304,148.136 L 173.468,173.839 L 141.824,205.269 L 99.8116,256.14 L 106.507,264.347 L 117.523,275.363 L 228.445,187.12 L 244.968,233.452 L 278.988,279.894 L 282.121,293.824 L 332.992,290.91 L 335.257,288.32 L 342.925,286.378 L 354.589,284.761 L 368.843,272.773 L 370.136,254.952" id="path26"/>
      <path sodipodi:nodetypes="cccccccccccccccccccccccccccccccccccccccccccccc" style="fill:#fde6dc;fill-rule:evenodd;stroke:none" d="M 306.855,40.5272 L 258.253,65.4762 L 259.441,113.968 L 248.101,136.648 L 255.875,150.687 L 276.933,159.324 L 298.75,157.706 L 313.546,146.042 L 318.945,124.55 L 340.328,88.1522 L 338.816,50.6752 L 306.847,40.5232 L 306.855,40.5272 z M 100.668,260.863 L 72.3703,264.855 L 63.860893,269.74576 L 55.206686,279.05417 L 52.534943,290.04276 L 56.489878,295.20821 L 67.9992,299.163 L 81.1945,308.077 L 93.8786,318.714 L 105.441,309.534 L 118.347,299.73 L 116.976,274.57 L 109.308,264.202 L 100.668,260.855 L 100.668,260.863 z M 390.238,291.753 L 381.277,280.413 L 372.207,277.499 L 356.98,283.98 L 339.593,287.109 L 333.007,290.671 L 338.406,296.503 L 354.496,296.718 L 358.445,302.003 L 358.921,309.242 L 353.953,333.757 L 356.652,339.37 L 360.324,341.636 L 362.804,347.468 L 378.14,341.636 L 386.671,333.32 L 391.636,316.257 L 390.234,291.742" id="path28"/>
      <path style="fill:#222;fill-rule:evenodd;stroke:none" d="M 380.144,129.949 C 376.359,123.64 373.367,126.421 369.601,129.546 C 365.925,132.601 361.855,135.05 369.171,138.41 C 375.402,141.269 386.246,140.113 380.144,129.949 z M 382.039,150.105 C 392.718,161.495 390.23,148.839 388.804,145.992 C 382.66,141.425 374.226,145.691 382.039,150.105 z M 189.863,132.085 C 185.652,128.882 179.14,137.402 182.746,140.406 C 184.285,141.945 189.859,141.253 192.32,141.253 C 195.304,141.253 195.562,136.925 193.398,135.378 C 191.699,133.679 191.664,133.89 189.863,132.085 z M 31.7258,167.343 C 35.8351,162.206 49.8508,132.714 53.0187,127.476 C 57.9172,119.367 48.0695,113.683 44.4562,121.718 C 41.3234,128.687 26.4718,157.062 22.7765,161.574 C 14.2648,171.972 24.1515,176.816 31.7258,167.347 L 31.7258,167.343 z M 44.8859,289.331 C 52.7687,289.492 50.2023,278.32 56.7218,274.878 C 59.8273,273.242 60.1008,269.632 58.3156,267.956 C 55.9367,265.726 54.5929,267.999 53.0617,269.699 C 51.4718,271.464 33.8859,289.101 44.8859,289.331 z M 98.4876,322.952 C 103.261,324.57 113.617,315.042 113.718,310.554 C 113.921,301.66 109.246,311.316 103.519,315.038 C 98.3506,318.398 93.1826,321.148 98.4916,322.949 L 98.4876,322.952 z M 99.0146,313.39 C 100.062,312.546 102.785,309.652 104.992,307.949 C 108.925,304.913 106.109,300.156 102.605,302.273 C 100.691,303.429 94.7956,308.499 93.4956,309.449 C 88.8976,312.788 93.1356,318.324 99.0186,313.394 L 99.0146,313.39 z M 90.3936,308.249 C 91.2496,307.238 95.7886,304.179 99.3386,300.695 C 104.296,295.827 97.5066,292.656 94.2136,295.945 C 90.4716,298.445 87.8586,300.445 84.9406,303.773 C 81.9094,306.66 86.4326,311.749 90.3896,308.249 L 90.3936,308.249 z M 86.0856,298.37 C 88.9446,296.706 89.9016,295.163 92.4996,293.085 C 96.5536,290.253 90.5966,285.222 85.9206,288.265 C 82.3196,291.148 78.7492,292.984 75.9484,295.792 C 71.9054,297.827 77.4211,306.218 86.0856,298.37 z M 66.4875,293.031 C 69.1008,297.827 74.6164,293.21 76.3742,291.773 C 78.6476,289.91 80.3156,289.038 81.0344,287.581 C 83.3936,282.784 80.0304,279.308 75.2844,282.015 C 71.6594,284.081 63.8429,288.187 66.4875,293.034 L 66.4875,293.031 z M 398.617,119.089 L 394.3,115.07 C 390.648,111.667 390.027,109.726 385.461,113.581 C 380.398,117.855 380.414,120.343 384.035,124.706 C 390.328,132.281 400.8,132.249 398.617,119.093 L 398.617,119.089 z M 405.171,115.031 C 407.793,117.675 411.515,117.538 414.007,113.472 C 418.054,107.265 413.91,103.867 409.113,100.644 C 399.41,94.1241 400.105,95.4131 396.554,99.6832 C 392.379,104.702 389.332,106.878 394.535,108.956 C 397.05,109.96 403.328,113.167 405.175,115.031 L 405.171,115.031 z M 408.683,80.1752 C 405.066,85.4022 401.64,89.8632 407.226,90.8082 C 413.117,91.8002 417.816,98.1402 419.961,99.7612 C 422.953,102.023 428.621,97.4842 430.75,94.8082 C 433.015,88.2881 428.546,84.1241 422.941,80.7382 C 414.019,75.3472 414.41,71.9062 408.687,80.1752 L 408.683,80.1752 z M 419.523,61.5771 C 411.453,73.1362 423.046,69.6172 429.73,76.5112 C 433.41,80.3122 441.98,88.1442 447.211,84.5972 C 449.632,82.9562 451.328,79.6522 450.984,75.0742 C 447.441,68.6952 441.125,60.5702 433.824,56.4681 C 424.668,51.3242 424.558,54.3592 419.519,61.5742 L 419.523,61.5771 z M 468.418,58.8202 C 473.324,64.6522 473.691,67.9802 464.539,69.9601 C 455.437,71.9291 452.507,64.4102 450.129,60.5931 C 447.222,55.9291 441.664,53.0541 435.621,49.5461 C 431.679,47.2612 430.418,43.1711 436.726,42.4211 C 439.332,42.1132 442.777,40.7222 446.711,41.4332 C 458.55,43.5622 460.796,49.7612 468.418,58.8242 L 468.418,58.8202 z M 403.617,144.015 C 398.531,136.042 398.562,134.609 390.839,136.925 C 385.203,138.613 392.812,147.144 395.968,148.16 C 402.207,150.163 408.269,151.3 403.617,144.019 L 403.617,144.015 z M 416.562,146.8 C 413.234,145.492 410.832,143.324 408.757,140.601 C 405.742,136.636 401.086,127.011 409.011,125.324 C 411.015,124.898 413.48,124.96 416.07,125.464 C 418.75,128.347 421.832,132.488 424.363,135.699 C 430.882,143.968 425.933,150.488 416.554,146.796 L 416.562,146.8 z M 437.503,140.722 C 432.23,139.019 431.129,132.745 426.843,129.999 C 420.457,125.91 418.554,119.167 421.957,113.109 C 425.511,106.769 429.113,105.507 434.25,115.16 C 436.265,120.202 442.957,124.398 445.972,131.144 C 449.336,138.66 446.793,143.718 437.503,140.718 L 437.503,140.722 z M 472.902,131.64 C 477.796,127.109 474.882,122.034 467.918,114.847 C 460.828,107.534 451.129,85.1012 438.082,96.4562 C 434.394,99.6672 435.183,105.41 438.543,109.046 C 439.273,111.972 446.261,119.55 451.968,126.574 C 457.519,133.41 465.375,134.507 472.902,131.64 z M 481.171,89.8122 C 477.339,82.8431 475.41,77.9452 467.328,77.4412 C 459.898,76.9802 457.617,80.0851 458.406,90.1752 C 458.656,95.0502 466.226,99.8782 471.379,107.472 C 476.246,114.644 482.441,121.437 490.132,120.316 C 499.121,119.007 499.89,114.351 496.82,110.386 C 490.867,102.702 486.574,99.6202 481.175,89.8082 L 481.171,89.8122 z M 518.308,119.402 C 522.41,132.21 524.5,146.48 535.425,156.07 C 545.972,165.324 543.375,178.456 531.277,173.859 C 526.39,172.156 519.011,160.831 512.921,148.589 C 507.66,138.015 495.656,128.831 503.289,119.8 C 508.152,114.046 514.527,107.605 518.308,119.406 L 518.308,119.402 z M 478.48,67.5192 C 477.832,75.4922 482.066,76.6952 485.879,83.2422 C 496.343,101.195 507.726,111.91 512.277,101.406 C 516.011,97.4452 512.058,91.0032 505.207,83.8632 C 497.941,76.2961 493.507,69.8002 487.496,59.6282 C 473.699,44.1321 478.984,61.3512 478.48,67.5152 L 478.48,67.5192 z M 182.156,161.609 C 186.148,156.101 204.23,149.851 202.179,146.074 C 200.562,142.62 182.785,146.917 177.921,153.398 C 172.386,164.488 179.64,160.71 182.152,161.609 L 182.156,161.609 z M 174.836,150.05 C 176.847,147.867 178.132,141.695 176.371,138.429 C 170.222,135.406 168.078,141.038 167.445,142.12 C 149.91,155.761 162.496,163.441 174.836,150.05 z M 150.32,196.109 L 174.277,170.742 C 174.355,168.503 174.375,167.027 174.277,166.062 C 173.625,159.949 162.386,167.71 160.593,169.695 C 154.703,176.214 149.359,187.347 150.324,196.109 L 150.32,196.109 z M 139.097,196.117 C 143.253,190.945 149.039,179.304 152.304,170.39 C 162.593,163.413 158.789,155.507 150.211,158.132 C 137.718,161.952 134.543,172.851 130.277,183.859 C 128.402,188.699 125.562,193.074 125.445,195.863 C 125.086,204.234 133.429,203.167 139.097,196.113 L 139.097,196.117 z M 114.144,197.171 C 121.629,190.913 132.121,171.128 134.523,160.374 C 135.601,145.945 123.964,147.425 120.507,152.992 C 114.82,163.324 110.011,182.12 104.773,186.742 C 94.8896,195.456 104.597,205.152 114.144,197.167 L 114.144,197.171 z M 97.7376,142.757 C 98.6636,152.558 83.1826,171.57 77.2883,184.402 C 71.2453,197.558 89.0306,196.042 94.9526,188.695 C 102.738,179.027 107.648,159.093 114.011,147.913 C 115.953,139.706 103.894,135.199 97.7376,142.761 L 97.7376,142.757 z M 393.886,160.972 C 398.851,167.468 407.035,177.656 413.898,183.925 C 428.808,199.374 413.816,168.296 402.316,159.148 C 398,156.667 392.808,157.085 393.89,160.968 L 393.886,160.972 z M 409.726,157.011 C 412.492,161.367 416.41,167.765 420.863,173.351 C 424.718,178.191 431.816,190.101 437.652,186.445 C 439.511,185.281 440.871,182.695 437.586,178.226 C 435.496,172.718 431.062,166.292 421.828,156.511 C 414.836,152.96 404.195,151.347 409.73,157.015 L 409.726,157.011 z M 430.472,154.804 C 436.441,164.105 442.265,173.972 450.242,182.058 C 456.832,186.054 463.043,185.081 461.418,177.085 C 456.64,167.3 452.027,159.222 441.089,149.175 C 436.445,145.503 429.285,149.292 430.472,154.8 L 430.472,154.804 z M 462.714,165.097 C 469.535,172.339 468.597,184.574 480.48,185.425 C 486.07,185.824 490.543,183.62 488.046,176.472 C 485.363,170.913 477.949,163.468 476.097,154.269 C 474.078,144.222 463.101,135.077 452.519,144.476 C 445.796,150.449 458.961,161.113 462.714,165.101 L 462.714,165.097 z M 478.781,143.171 C 486.078,161.425 491.461,170.363 504.699,182.894 C 509.375,185.382 513.445,185.648 516.23,184.218 C 527.207,178.601 511.269,158.39 507.195,152.296 C 502.515,145.3 495.339,120.937 483.425,131.445 C 478.668,135.64 475.234,140.12 478.785,143.163 L 478.781,143.171 z M 92.8896,137.007 C 85.3586,154.992 77.0539,174.183 65.9679,185.859 C 59.0578,190.07 55.3547,189.589 54.6008,183.761 C 59.2531,165.695 70.925,151.288 79.8586,133.46 C 85.5816,127.199 94.2956,127.398 92.8936,137.007 L 92.8896,137.007 z M 60.8039,126.894 C 54.925,138.984 47.2336,155.941 39.1281,166.101 C 25.132,183.648 40.4718,189.898 49.5109,175.101 C 56.3625,163.882 64.7414,146.515 71.5148,133.226 C 75.2922,122.519 65.9875,112.613 60.8039,126.894 z M 64.3195,78.7612 C 57.2179,89.3202 58.1008,84.5232 47.4562,103.656 C 46.882,106.089 51.6515,110.613 56.4836,112.46 C 65.2804,115.82 78.8195,93.4601 83.4136,85.8632 C 85.3426,82.6672 83.7726,75.8122 85.7686,72.8702 C 89.2296,66.3702 87.3276,64.3162 83.6046,63.3122 C 73.4172,60.5702 68.9484,71.8862 64.3234,78.7612 L 64.3195,78.7612 z M 141.582,151.534 C 152.23,153.839 170.566,133.527 159.214,129.398 C 154.871,127.82 151.246,126.495 145.703,134.023 C 139.441,141.042 137.589,147.753 141.586,151.534 L 141.582,151.534 z M 120.882,140.609 C 133.265,142.863 136.441,136.757 142.543,128.089 C 147.859,117.32 135.281,111.941 127.269,120.097 C 121.007,127.117 116.886,136.831 120.882,140.609 z M 109.957,130.492 C 116.14,128.367 118.109,121.335 122.382,115.359 C 126.168,107.492 122.058,99.2342 116.828,99.3862 C 114.453,99.4562 112.32,103.652 109.757,106.214 C 105.007,111.855 99.6596,118.589 98.5966,123.687 C 96.7296,132.648 102.332,133.113 109.961,130.488 L 109.957,130.492 z M 75.7844,118.73 C 87.6906,127.226 96.1086,113.284 104.675,99.5622 C 109.543,87.1482 94.4636,82.1562 88.4996,92.5032 C 81.3703,101.034 71.2492,114.089 75.7883,118.734 L 75.7844,118.73 z M 165.457,129.734 C 159.746,127.081 172.203,114.324 178.058,117.042 C 180.261,118.066 183.906,123.355 182.793,125.667 C 180.937,129.519 168.964,131.359 165.457,129.73 L 165.457,129.734 z M 150.187,119.949 C 147.363,118.171 148,113.675 150.941,108.886 C 153.23,105.163 156.953,102.421 159.195,99.1442 C 166.078,89.0702 173.644,102.421 170.113,109.382 C 167.718,114.105 155.953,123.577 150.183,119.949 L 150.187,119.949 z M 129.14,105.96 C 140.023,115.96 151.496,97.2772 157.308,90.2881 C 161.425,85.3351 161.421,79.6321 157.953,76.8431 C 154.64,74.1791 151.726,72.1912 147.679,75.9172 C 142.578,80.6132 119.152,96.7881 129.14,105.964 L 129.14,105.96 z M 113.82,88.4172 C 119.519,93.8672 128.73,84.8632 132.402,80.9102 C 136.382,76.6202 145.343,71.3862 147.929,66.8741 C 149.48,64.1711 146.566,61.4802 144.687,59.8202 C 140.593,56.1992 131.433,62.9521 125.879,67.8431 C 117.761,74.9882 108.16,83.0032 113.824,88.4211 L 113.82,88.4172 z M 109.773,74.5381 C 105.129,78.9131 97.7726,78.6791 95.7646,77.2302 C 93.4486,75.5582 95.8076,65.3351 102.949,61.3592 C 107.121,59.0342 113.23,56.9102 118.25,55.6562 C 127.394,53.3741 129.109,53.7302 122.199,61.6522 C 118.109,66.3392 112.386,72.0771 109.773,74.5381 z M 81.9756,46.0272 C 109.804,20.8672 130.461,10.5461 144.929,13.0702 C 160.328,15.7532 168.836,32.5972 175.632,47.9131 C 180.601,73.1832 187.078,112.284 211.707,127.945 C 217.214,132.046 220.129,138.636 209.226,137.988 C 176.394,111.636 151.074,24.0422 113.379,50.5032 C 107.476,52.2452 99.7216,56.4681 94.0106,56.9022 C 83.1046,57.7262 76.4523,52.6912 81.9836,46.0272 L 81.9756,46.0272 z M 351.429,121.87 C 388.804,101.245 386.957,55.2922 403.753,23.8431 C 412.66,7.30414 433.183,3.70215 445.457,8.30017 C 460.265,13.8472 473.136,29.4062 476.75,33.7772 C 489.043,50.7142 471.851,50.3312 463.308,42.6562 C 454.574,38.0192 449.996,34.9952 443.355,35.1832 C 402.769,36.3392 396.043,115.867 358.664,129.648 C 349.484,132.023 348.296,124.144 351.429,121.878 L 351.429,121.87 z M 412.281,251.722 L 407.421,264.683 C 405.148,267.98 405.32,273.972 406.703,278.109 C 408.468,283.398 414.746,285.753 416.246,278.734 C 416.726,276.472 416.859,273.831 416.488,271.808 C 416.168,264.464 414.007,255.39 412.277,251.718 L 412.281,251.722 z M 437.015,294.167 C 437.898,299.284 436.379,303.734 429.367,302.148 C 425.476,301.273 423.054,297.574 423.082,288.749 C 423.121,275.101 422.003,260.148 415.632,247.507 L 424.593,222.234 C 430.75,237.351 438.199,268.89 437.015,294.163 L 437.015,294.167 z M 450.195,331.644 C 447.992,330.863 442.703,328.769 443.48,320.488 C 444.375,310.921 443.476,297.413 442.828,287.23 C 440.992,258.523 434.511,231.265 426.765,210.671 C 426.765,207.531 423.425,198.952 423.707,196.988 C 425.066,187.445 430.699,192.175 438.492,205.484 C 447.671,240.511 457.972,268.999 458.269,311.456 C 458.308,317.445 461.332,335.605 450.199,331.648 L 450.195,331.644 z M 478.621,380.507 C 480.043,380.367 474.293,397.406 466.695,385.894 C 464.05,381.886 463.875,373.347 464.058,365.312 C 464.379,351.062 464.867,337.249 464.699,323.034 C 464.16,278.187 452.582,231.558 446.722,207.269 C 440.769,196.894 439.621,189.382 447.609,190.898 C 452.277,191.781 459.035,195.464 462.039,207.605 C 472.191,247.999 486.937,313.218 478.621,380.507 z M 499.351,385.499 C 504.472,324.003 498.265,266.163 490.066,216.296 C 486.191,201.671 485.328,194.628 471.66,190.57 C 468.539,189.644 465.261,188.952 464.957,191.82 C 464.339,197.679 471.168,213.46 472.664,219.64 C 486.164,281.956 491.218,331.081 482.039,403.449 C 481.285,408.312 480.543,425.484 478.195,439.077 C 477.652,442.226 477.191,445.273 476.945,447.941 C 476.527,452.456 476.765,456.589 480.402,458.542 C 485.304,461.167 488.793,456.464 491.031,450.199 C 497.019,433.41 497.816,403.902 499.351,385.492 L 499.351,385.499 z M 495.39,502.413 C 534.421,422.273 527.824,328.538 519.597,255.968 C 517.293,235.601 518.304,211.878 506.339,194.488 C 502.769,189.292 492.191,185.101 490.593,190.702 C 489.66,193.972 492.019,199.62 494.129,205.128 C 498.453,216.437 498.718,229.558 500.082,241.531 C 508.043,311.429 512.89,388.507 494.839,461.202 C 492.503,470.617 490.023,479.945 486.863,489.109 C 478.25,514.07 483.629,526.581 495.394,502.413 L 495.39,502.413 z M 509.453,514.945 C 550.781,433.702 552.5,326.687 547.918,250.894 C 546.808,232.499 542.66,215.41 541.281,201.507 C 537.371,180.679 531.621,176.515 524.832,187.429 C 524.304,188.281 522.98,189.253 521.597,190.464 C 519.824,192.023 517.957,193.972 517.574,196.558 C 517.046,200.132 520.597,205.07 520.929,209.265 C 530.031,272.175 539.367,352.472 526.191,432.187 C 522.41,455.077 514.671,476.261 505.425,497.511 C 503.293,502.413 501.613,505.726 499.347,510.656 C 496.937,515.91 492.375,521.898 492.828,524.91 C 494.343,535.062 503.062,527.503 509.461,514.933 L 509.453,514.945 z M 368.324,203.656 C 368.324,212.077 370.265,230.214 374.48,238.855 C 373.761,232.015 390.961,213.41 368.324,203.656 z M 233.203,211.433 C 232.839,220.542 235.625,225.968 238.582,231.398 C 240.296,234.546 239.699,233.773 239.73,236.886 C 239.753,239.472 239.832,239.784 237.824,241.417 C 233.839,244.652 229.089,244.96 227.156,239.109 C 226.617,231.66 227.371,213.16 233.203,211.429 L 233.203,211.433 z M 223.16,203.007 C 213.98,208.191 207.933,210.027 207.718,224.824 L 207.418,239.855 C 209.863,244.281 212.238,243.624 215.488,243.339 C 218.55,243.07 221.132,240.308 223.164,236.163 L 223.164,203.007 L 223.16,203.007 z M 191.082,226.449 C 190.867,223.21 196.48,215.218 203.5,214.245 L 203.5,241.031 C 201.711,245.402 199.91,248.683 198.257,250.784 C 194.617,255.41 191.675,254.331 191.086,246.648 L 191.086,226.452 L 191.082,226.449 z M 169.394,265.296 C 169.07,257.699 167.644,241.277 174.23,235.628 L 186.109,225.37 L 186.109,249.995 C 183.578,266.495 172.82,268.937 169.394,265.3 L 169.394,265.296 z M 163.644,266.195 L 164.183,247.62 C 159.972,248.589 143.554,257.23 146.148,263.062 L 146.148,286.71 C 153.699,283.394 163.086,282.054 163.644,266.195 z M 122.062,289.417 L 140.961,289.417 L 140.961,263.605 C 131.351,266.843 121.089,275.05 122.062,289.417 z M 134.711,203.534 C 136.761,202.242 145.07,198.074 141.398,205.738 C 140.211,208.003 135.011,211.777 132.746,214.261 C 127.238,215.23 127.023,213.3 129.722,207.683 L 134.711,203.534 z M 94.8586,258.124 C 99.1706,254.48 103.003,250.038 106.679,246.066 C 116.066,235.921 122.746,225.531 121.425,214.816 C 121.257,209.452 122.066,206.577 120.66,204.929 C 117.558,201.304 110.629,204.769 107.804,208.847 C 101.214,218.202 99.6906,228.347 97.7766,238.89 C 96.7766,244.41 96.8666,252.445 94.8626,258.124 L 94.8586,258.124 z M 74.2765,261.273 C 74.3195,261.339 86.0346,260.386 86.8276,260.234 L 91.3586,228.253 C 92.3316,221.382 92.1476,217.511 96.1086,211.816 C 98.6086,208.218 100.8,204.542 97.2956,201.312 C 95.5656,199.722 88.0026,200.347 83.9206,203.636 C 79.7179,207.031 74.7492,221.917 73.2179,227.742 C 71.2883,235.093 70.4797,242.663 69.3195,250.156 C 68.5812,254.917 71.7062,257.492 74.2765,261.273 z M 62.6515,247.062 C 63.9953,248.495 67.9992,220.124 68.382,217.57 C 69.2883,211.538 71.4758,208.335 72.9718,202.753 C 74.3195,197.706 73.3898,193.945 68.9836,193.058 C 66.9758,192.656 57.7492,196.57 52.7687,199.511 C 50.0031,202.386 43.1984,226.327 45.0695,228.32 L 62.6554,247.062 L 62.6515,247.062 z M 22.382,194.226 C 23.6242,188.581 25.4836,178.05 32.1281,187.726 C 35.7804,193.046 35.2258,192.312 41.8078,192.003 C 44.6047,191.874 47.2922,191.999 47.6242,193.577 C 47.9172,194.972 47.0734,197.109 45.8312,199.519 C 39.0656,212.62 40.4562,216.98 37.7765,230.827 C 36.8195,235.784 34.7922,248.956 31.5851,252.687 C 27.7062,257.199 18.2648,262.851 17.7804,266.417 C 16.9172,272.835 29.5265,277.89 28.9758,283.706 C 28.382,289.984 28.007,295.937 28.0148,301.589 L 28.175,412.288 C 20.9484,390.144 15.8859,382.038 13.2453,358.495 C 8.98361,320.468 8.64761,279.777 13.2922,241.449 C 15.2726,225.109 18.8703,210.109 22.3781,194.214 L 22.382,194.226 z M 428.375,456.722 C 441.011,450.999 454.187,473.57 455.375,497.007 C 457.425,498.624 463.257,514.179 461.527,530.273 C 456.343,567.21 443.816,521.636 448.566,495.929 C 449.211,487.722 446.515,457.589 426.101,465.796 C 426.101,464.394 424.265,458.562 428.367,456.726 L 428.375,456.722 z M 392.625,296.113 C 422.324,341.906 440.886,387.964 386.019,545.226 L 390.234,553.855 L 418.281,481.667 C 419.035,467.195 431.394,465.683 436.683,481.667 C 445.105,504.562 434.418,514.499 436.683,530.593 C 455.8,551.976 440.785,574.445 425.453,584.163 C 421.89,579.628 435.605,573.472 432.472,568.722 C 419.597,572.027 415.664,582.519 410.535,588.261 C 405.093,594.351 390.082,603.769 381.152,604.202 C 369.734,604.753 363.144,597.062 350.89,589.964 C 364.968,558.347 373.082,526.648 374.367,491.855 L 374.367,373.988 C 390.351,367.077 394.886,348.066 391.105,340.398 C 387.218,348.82 384.195,357.999 374.367,360.269 L 374.367,344.933 C 396.398,336.62 393.375,313.613 392.617,296.117 L 392.625,296.113 z M 98.5186,264.464 C 104.793,264.062 106.125,267.636 108.941,269.691 C 111.699,271.702 113.816,288.37 111.546,292.589 C 110.75,294.07 109.007,294.652 107.511,294.968 C 104.242,295.656 101.722,292.156 102.5,287.921 C 103.074,284.804 103,276.441 97.5496,279.691 C 93.6006,282.042 94.1316,281.113 89.6946,281.382 C 87.2106,281.531 85.6046,281.765 85.0856,279.351 C 84.4526,276.417 82.0226,275.964 78.9953,276.245 C 73.9953,276.71 69.1633,280.917 65.1867,283.734 C 58.1672,288.788 51.4601,285.335 56.882,279.91 C 66.4367,272.859 63.0773,268.417 98.5346,264.46 L 98.5186,264.464 z M 366.164,282.288 C 378.367,277.429 383.011,282.074 383.984,290.062 C 383.015,297.835 389.058,303.667 388.629,314.468 C 388.629,326.671 384.418,334.663 379.019,338.66 C 373.187,344.921 370.812,339.847 374.16,336.07 C 377.398,331.644 378.371,328.835 380.207,323.437 L 378.804,321.495 C 375.457,329.378 374.593,333.05 369.41,340.07 C 362.933,350.327 359.152,341.472 362.933,337.046 C 367.574,328.839 370.816,319.874 372.437,312.097 C 372.222,309.292 371.359,311.128 370.82,310.046 C 368.769,318.253 367.148,325.058 361.964,334.886 C 359.156,337.91 353.543,336.503 356.132,331.648 C 359.804,321.066 359.804,312.964 361.531,303.675 C 362.394,288.663 349.652,298.277 343.711,295.687 C 338.527,296.441 331.293,289.425 340.472,287.695 C 357.535,290.284 357.644,284.023 366.175,282.296 L 366.164,282.288 z M 304.058,74.4802 C 299.742,70.3782 302.546,77.1791 296.609,78.4722 C 292.722,79.1172 291.211,73.6132 285.164,72.5342 C 288.293,69.7262 291.425,70.6992 295.316,71.6711 C 296.828,68.3242 286.675,68.4332 283.328,67.7842 L 282.464,66.3821 C 289.699,67.0272 300.609,63.5771 303.957,68.7571 C 305.574,70.0502 307.519,73.8312 304.062,74.4802 L 304.058,74.4802 z M 330.629,78.5851 L 330.308,79.8782 C 328.367,77.3982 319.617,73.1832 320.05,77.7222 C 321.668,78.0422 322.425,78.9102 323.503,79.5582 C 322.535,82.0381 327.496,82.0381 328.687,85.2812 C 326.961,85.0662 325.664,86.0342 323.289,84.9601 C 317.968,88.0622 315.539,84.0422 312.273,81.0742 C 311.953,79.9952 314,79.9952 314.214,76.9722 L 316.804,73.4102 C 322.097,72.3312 326.414,72.7612 330.629,78.5931 L 330.629,78.5851 z M 303.625,97.2692 C 310.211,94.1402 310.859,96.8392 312.265,99.2101 C 312.695,96.2961 312.91,93.9211 311.511,92.1912 C 307.734,91.0032 303.953,91.3271 300.496,93.2692 C 299.742,95.9681 300.816,97.2612 303.625,97.2612 L 303.625,97.2692 z M 292.933,103.101 C 295.742,106.773 295.742,110.55 302.652,110.335 C 307.187,111.628 309.023,108.179 312.261,107.097 C 308.05,106.343 308.808,101.16 304.054,104.722 C 301.25,100.081 296.605,103.105 292.929,103.105 L 292.933,103.101 z M 248.218,242.542 C 256.535,258.093 271.332,268.031 273.168,289.417 L 153.82,289.417 C 157.234,287.343 164.414,284.288 167.437,274.296 C 168.398,271.124 167.14,270.886 170.003,271.242 C 175.886,271.968 184.687,271.14 187.441,259.714 C 188.183,256.617 186.906,254.902 190.336,255.995 C 196.253,257.874 199.675,257.585 204.023,247.656 C 204.574,246.394 206.468,247.441 207.328,247.734 C 211.441,249.144 218.3,248.413 221.843,244.855 C 223.175,243.515 223.988,241.988 225.16,243.609 C 229.543,249.702 234.496,248.3 241.511,243.288 C 243.117,242.14 246.097,243.613 248.195,242.558 L 248.218,242.542 z M 241.843,138.745 C 261.824,181.515 321.66,168.769 318.527,133.347 C 372.421,126.976 419.621,200.632 419.621,202.472 C 415.086,238.003 398.129,255.827 387.437,282.613 C 382.468,275.808 377.503,273.972 371.562,273.542 C 377.933,253.023 379.23,236.605 389.273,217.058 C 392.402,208.851 384.738,206.257 382.578,200.964 C 367.351,194.163 357.953,172.019 337.109,180.66 C 345.207,189.73 359.359,203.449 357.953,223.863 C 357.523,226.667 366.593,242.546 366.16,247.624 C 366.16,254.859 371.125,260.8 367.129,269.222 C 356.113,288.988 342.074,283.261 329.761,289.527 L 286.343,289.527 C 276.086,257.343 243.683,225.265 239.144,207.011 C 239.574,196.644 235.472,186.601 227.265,176.554 C 222.3,185.624 220.464,191.132 205.992,199.343 C 196.058,208.847 171.972,217.488 166.57,226.667 L 157.5,223.429 L 160.199,231.202 C 145.621,245.781 128.445,257.988 116.675,269.87 C 113.437,263.066 110.304,259.394 104.363,257.558 C 110.734,248.054 191.523,133.781 241.855,138.749 L 241.843,138.745 z M 273.707,65.5152 C 269.929,68.9681 258.371,86.1442 264.636,101.48 C 272.41,116.492 259.347,135.933 253.082,137.769 C 251.894,144.679 274.25,160.124 292.394,152.886 C 306.757,147.488 321.769,136.577 289.91,131.503 L 290.879,127.187 C 297.464,127.831 304.269,127.187 308.375,120.925 C 322.738,111.531 330.515,99.0032 328.679,86.1482 C 349.847,52.3431 305.566,24.8002 273.707,65.5192 L 273.707,65.5152 z M 285.511,527.492 L 285.511,650.042 C 275.086,654.183 263.062,658.746 250.863,660.683 L 250.863,630.992 L 264.621,630.992 L 264.644,642.437 L 278.91,622.664 L 265.046,605.523 L 265.07,613.972 L 250.855,613.941 L 250.855,586.316 L 264.89,586.316 L 264.984,597.593 L 278.617,578.359 L 265.156,562.05 L 265.156,570.218 L 250.855,570.175 L 250.855,560.331 C 258.148,543.312 269.699,532.37 285.503,527.507 L 285.511,527.492 z M 221.199,572.632 L 213.964,572.632 L 213.964,558.499 L 221.199,558.499 L 221.199,572.632 z M 231.636,572.632 L 225.242,572.632 L 225.242,558.499 L 231.636,558.499 L 231.636,572.632 z M 235.675,547.253 C 234.343,545.601 232.996,544.058 231.636,542.62 L 231.636,554.96 L 225.242,554.96 L 225.242,536.644 C 223.906,535.546 222.558,534.523 221.203,533.566 L 221.203,554.964 L 213.968,554.964 L 213.968,529.066 C 212.629,528.331 211.281,527.644 209.929,526.988 L 209.929,554.968 L 204.82,554.968 L 204.82,558.507 L 209.929,558.507 L 209.929,572.64 L 204.82,572.64 L 204.82,576.179 L 209.929,576.179 L 209.929,589.96 L 213.968,589.96 L 213.968,576.179 L 221.203,576.179 L 221.203,589.96 L 225.242,589.96 L 225.242,576.179 L 231.636,576.179 L 231.636,589.96 L 235.675,589.96 L 235.675,576.179 L 242.238,576.179 L 242.238,572.64 L 235.675,572.64 L 235.675,558.507 L 240.824,558.507 L 240.824,554.968 L 235.675,554.968 L 235.675,547.265 L 235.675,547.253 z M 197.058,665.425 C 185.218,665.203 173.695,663.203 161.886,661.281 L 161.5,630.996 L 175.632,630.996 L 175.632,641.48 L 188.855,622.789 L 175.632,605.921 L 175.632,614.124 L 161.5,614.124 L 161.5,586.769 L 175.632,586.769 L 175.632,597.253 L 188.855,578.562 L 175.632,561.695 L 175.632,569.898 L 161.5,569.898 L 161.5,561.238 C 166.511,543.23 179.886,532.742 197.062,525.675 L 197.062,665.429 L 197.058,665.425 z M 195.496,522.331 C 177.168,529.031 158.121,544.898 157.191,565.886 C 157.054,568.976 157.39,572.656 157.39,575.234 L 157.39,660.757 C 79.1476,638.589 40.9406,586.148 37.7218,494.839 L 37.7218,302.245 L 71.1359,302.245 C 72.2297,304.296 72.4211,306.058 74.6086,306.558 C 78.8976,307.538 79.5109,308.886 80.05,311.347 C 80.6906,314.269 85.4016,314.82 85.8506,315.136 C 89.7106,317.863 86.0776,320.91 85.5926,323.124 C 84.2646,329.167 89.4716,332.827 94.3706,335.066 C 104.117,339.519 115.558,330.019 121.957,323.367 C 128.05,317.027 131.171,309.87 125.683,302.14 L 357.242,302.234 C 357.398,308.699 356.062,318.523 353.726,324.402 C 349.3,336.171 352,341.355 359.449,342.87 C 358.695,348.378 363.226,350.429 365.386,348.917 L 365.386,461.37 C 365.386,476.07 365.722,490.847 365.007,505.531 C 363.23,541.882 354.246,577.394 331.808,606.816 C 318.203,624.66 301.793,638.05 289.144,643.093 L 289.144,522.113 C 283.976,523.363 279.046,524.593 274.336,527.226 C 261.742,534.191 254.355,544.077 247.656,556.199 C 239.531,542.773 226.8,528.945 211.793,523.433 C 205.609,521.163 201.496,520.12 195.488,522.316 L 195.496,522.331 z M 227.371,128.16 C 214.519,116.39 211.171,99.3242 218.3,88.8472 C 204.046,52.3431 241.953,42.7302 255.453,42.7302 C 255.617,24.8942 307.246,15.8702 319.984,24.0461 C 323.851,26.5272 321.64,31.9802 326.726,30.5662 C 341.468,26.4722 353.07,51.2491 348.546,62.2772 C 348.867,69.6202 345.632,78.4762 348.546,86.3592 C 356.32,89.3821 353.836,103.206 354.375,111.413 C 392.285,79.5541 379.296,50.9211 395.714,21.9762 C 404.461,-4.4848 449.769,-6.00482 465.753,11.8162 C 472.16,18.1052 477.398,25.6052 483.886,32.1202 C 491.207,39.4762 487.175,43.7342 490.523,50.9521 C 495.543,61.7812 501.269,69.6832 507.75,76.8271 C 517.125,87.1631 522.554,91.1092 522.464,105.456 C 522.441,109.23 522.613,113.296 524.472,117.554 C 528.496,126.777 533.312,139.66 538.023,149.191 C 541.214,155.66 548.773,162.296 548.742,170.527 C 548.722,175.691 545.457,180.933 546.605,185.976 C 551.664,208.171 556.484,231.034 557.144,254.222 C 559.472,336.031 552.394,419.964 532.035,480.581 C 525.629,499.66 519.816,514.718 509.746,527.273 C 497.699,542.296 489.41,535.929 484.214,529.257 C 476.105,518.835 474.562,519.464 475.355,504.96 C 475.472,502.812 476.879,500.226 477.402,497.269 C 479.039,488.054 489.246,465.339 477.3,463.081 C 469.175,461.546 471.105,453.769 471.367,446.816 C 472.199,424.71 482.41,399.066 465.57,394.398 C 457.086,392.046 455.293,373.32 457.066,362.034 C 459.379,347.331 455.777,335.855 446.671,337.206 C 441.019,338.042 436.687,327.628 437.336,321.597 C 438.879,307.292 435.453,307.304 426.293,306.429 C 423.515,306.167 421.031,301.687 420.398,297.566 C 418.527,285.39 419.55,292.011 409.914,287.515 C 406.589,285.964 404.753,283.167 401.355,277.284 L 397.808,282.288 C 408.285,293.628 445.437,325.921 427.187,451.749 C 455.265,439.765 462.289,497.437 461.207,500.999 C 467.144,510.827 476.976,550.14 454.511,551.546 C 450.3,555.109 452.894,583.73 419.195,589.347 C 400.214,609.57 386.664,612.453 375.543,610.968 C 364.152,609.452 354.277,600.753 347.41,595.773 C 316.73,648.109 262.632,672.386 204.66,671.48 C 88.5226,669.664 35.2336,604.906 30.1789,490.91 L 30.2023,442.242 C 0.815613,379.378 -3.60629,331.347 2.22181,270.39 C 4.88201,242.542 2.08901,207.027 15.8273,186.777 C 19.9289,180.73 18.0578,177.992 15.6945,175.71 C 5.49921,165.902 19.7531,154.085 24.9718,144.972 C 29.7414,136.644 39.7336,117.956 40.5031,108.019 C 40.714,105.3 40.8429,102.589 41.9758,100.417 C 49.3976,86.2262 61.089,74.6172 70.632,61.5112 C 75.0187,55.4882 70.5929,48.5032 74.9211,43.1172 C 80.132,36.6402 112.109,14.1172 120.898,9.81219 C 147.25,-3.08984 169.57,10.8242 177.144,31.3942 C 186.214,41.5461 182.437,110.886 227.367,128.167" id="path30"/>
      <path style="fill:#fffdfd;fill-rule:evenodd;stroke:none" d="M 161.64,572.718 L 177.55,572.718 L 177.55,567.363 L 186.152,578.499 L 177.562,590.949 L 177.55,583.706 L 161.64,583.706 L 161.64,572.722" id="path32"/>
      <path style="fill:none;stroke:#fffdfd;stroke-width:0.29653513" d="M 161.64,572.718 L 177.55,572.718 L 177.55,567.363 L 186.152,578.499 L 177.562,590.949 L 177.55,583.706 L 161.64,583.706 L 161.64,572.722 L 161.64,572.718 z " id="path34"/>
      <path style="fill:#fffdfd;fill-rule:evenodd;stroke:none" d="M 161.785,616.812 L 177.695,616.812 L 177.695,611.457 L 186.296,622.593 L 177.707,635.042 L 177.695,627.8 L 161.785,627.8 L 161.785,616.816" id="path36"/>
      <path style="fill:none;stroke:#fffdfd;stroke-width:0.29653513" d="M 161.785,616.812 L 177.695,616.812 L 177.695,611.457 L 186.296,622.593 L 177.707,635.042 L 177.695,627.8 L 161.785,627.8 L 161.785,616.816 L 161.785,616.812 z " id="path38"/>
      <path style="fill:#fffdfd;fill-rule:evenodd;stroke:none" d="M 250.961,572.718 L 266.871,572.718 L 266.871,567.363 L 275.472,578.499 L 266.882,590.949 L 266.871,583.706 L 250.961,583.706 L 250.961,572.722" id="path40"/>
      <path style="fill:none;stroke:#fffdfd;stroke-width:0.29653513" d="M 250.961,572.718 L 266.871,572.718 L 266.871,567.363 L 275.472,578.499 L 266.882,590.949 L 266.871,583.706 L 250.961,583.706 L 250.961,572.722 L 250.961,572.718 z " id="path42"/>
      <path style="fill:#fffdfd;fill-rule:evenodd;stroke:none" d="M 251.109,616.812 L 267.019,616.812 L 267.019,611.457 L 275.621,622.593 L 267.031,635.042 L 267.019,627.8 L 251.109,627.8 L 251.109,616.816" id="path44"/>
      <path style="fill:none;stroke:#fffdfd;stroke-width:0.29653513" d="M 251.109,616.812 L 267.019,616.812 L 267.019,611.457 L 275.621,622.593 L 267.031,635.042 L 267.019,627.8 L 251.109,627.8 L 251.109,616.816 L 251.109,616.812 z " id="path46"/>
      <path style="fill:#222;fill-rule:evenodd;stroke:none" d="M 136.773,658.128 L 157.543,658.16 L 157.543,654.167 L 136.593,654.167 L 136.773,658.128 z M 128.816,651.82 L 128.816,642.183 L 157.543,642.183 L 157.543,638.191 L 151.015,638.191 L 151.015,627.207 L 157.543,627.207 L 157.543,623.214 L 128.816,623.214 L 128.816,612.73 L 157.543,612.73 L 157.543,608.738 L 147.824,608.738 L 147.824,596.257 L 157.543,596.257 L 157.543,592.265 L 128.816,592.265 L 128.816,581.781 L 157.543,581.781 L 157.543,577.788 L 147.824,577.788 L 147.824,565.808 L 157.781,565.808 L 159.035,561.816 L 128.812,561.816 L 128.812,550.331 C 140.605,550.331 152.402,550.257 164.199,550.261 L 166.64,546.343 L 147.816,546.343 L 147.816,535.359 L 177.406,535.359 L 184.23,531.367 L 167.742,531.367 L 167.742,521.882 L 240.113,521.882 L 240.113,531.367 L 218.656,531.367 L 225.39,535.359 L 259.804,535.359 L 259.761,543.277 L 265.3,538.117 L 265.3,535.363 L 268.937,535.363 L 275.457,531.37 L 245.601,531.37 L 245.601,521.886 L 279.039,521.886 L 279.039,529.613 L 284.535,527.417 L 284.535,521.89 L 317.972,521.89 L 317.972,531.374 L 288.527,531.374 L 288.527,535.367 L 298.961,535.367 L 298.961,546.351 L 288.238,546.351 L 288.238,550.441 L 317.968,550.347 L 317.968,561.831 L 288.621,561.831 L 288.621,565.824 L 298.961,565.824 L 298.961,577.804 L 288.718,577.804 L 288.718,581.796 L 317.972,581.796 L 317.972,592.281 L 288.242,592.281 L 288.242,596.273 L 298.964,596.273 L 298.964,608.753 L 288.339,608.753 L 288.339,612.746 L 317.976,612.746 L 317.976,623.23 L 288.722,623.23 L 288.722,627.222 L 302.156,627.222 L 302.156,638.207 L 288.339,638.207 L 288.339,642.199 L 299.347,642.199 L 307.652,637.203 L 307.652,627.222 L 321.043,627.222 L 325.453,623.23 L 323.468,623.23 L 323.468,612.746 L 335.144,612.746 L 343.617,600.613 L 343.617,596.269 L 346.23,596.269 L 354.457,577.796 L 343.613,577.796 L 343.613,565.816 L 358.207,565.816 L 359.144,561.824 L 353.457,561.824 L 353.457,550.339 L 361.82,550.339 C 359.898,559.964 363.605,538.765 362.543,546.347 L 343.609,546.347 L 343.609,535.363 L 364.136,535.363 L 364.425,531.37 L 353.457,531.37 L 353.457,521.886 L 365.332,521.886 L 365.519,517.894 L 343.609,517.894 L 343.609,506.91 L 365.519,506.91 L 365.519,501.421 L 353.457,501.421 L 353.457,491.437 L 365.519,491.437 L 365.519,487.445 L 357.961,487.445 L 357.961,474.859 L 335.98,474.859 L 335.98,487.445 L 328.355,487.445 L 328.355,386.878 L 331.621,381.702 L 331.621,331.324 L 312.742,331.324 L 312.742,348.577 L 305.117,348.577 L 305.117,331.324 L 286.597,331.324 L 286.597,348.577 L 278.972,348.577 L 278.972,331.324 L 261.906,331.324 L 261.906,381.702 L 267.714,386.878 L 267.714,487.445 L 260.234,487.445 L 260.234,474.859 L 238.253,474.859 L 238.253,487.445 L 229.957,487.445 L 229.957,386.878 L 233.222,381.702 L 233.222,331.324 L 214.339,331.324 L 214.339,348.577 L 206.714,348.577 L 206.714,331.324 L 188.195,331.324 L 188.195,348.577 L 180.57,348.577 L 180.57,331.324 L 163.503,331.324 L 163.503,381.702 L 169.312,386.878 L 169.312,487.445 L 163.027,487.445 L 163.027,474.859 L 141.043,474.859 L 141.043,487.445 L 133.367,487.445 L 133.367,386.878 L 136.632,381.702 L 136.632,331.324 L 117.75,331.324 L 117.75,348.577 L 110.125,348.577 L 110.125,331.324 L 91.6046,331.324 L 91.6046,348.577 L 83.9796,348.577 L 83.9796,331.324 L 66.9133,331.324 L 66.9133,381.702 L 72.7218,386.878 L 72.7218,487.445 L 67.9211,487.445 L 67.9211,474.859 L 45.9406,474.859 L 45.9406,487.445 L 37.8625,487.445 L 37.8625,491.437 L 45.4328,491.437 L 45.4328,501.421 L 37.8625,501.421 L 37.964,506.91 L 63.9797,506.91 L 63.9797,517.894 L 38.3742,517.894 L 38.4914,521.886 L 45.425,521.886 L 45.425,531.37 L 39.1945,531.37 L 39.5461,535.363 L 63.9758,535.363 L 63.9758,546.347 L 41.0148,546.347 L 41.5422,550.339 L 45.4211,550.339 L 45.4211,561.824 L 44.0109,561.824 L 44.8898,565.816 L 63.9718,565.816 L 63.9718,577.796 L 48.6515,577.796 L 50.9172,581.788 L 84.3546,581.788 L 84.3546,592.273 L 54.9367,592.273 L 57.1086,596.265 L 63.964,596.265 L 63.964,607.202 L 68.2687,612.738 L 84.3426,612.738 L 84.3426,623.222 L 78.507,623.214 L 82.6046,627.214 L 106.312,627.214 L 106.312,638.199 L 98.0576,638.199 L 105.519,642.191 L 123.273,642.191 L 123.273,649.867 L 128.765,651.824 L 128.816,651.82 z M 256.933,546.312 L 237.753,546.312 L 246.007,556.933 L 245.625,550.308 L 253.769,550.308 L 256.933,546.316 L 256.933,546.312 z M 50.9445,501.37 L 84.3816,501.37 L 84.3816,491.386 L 50.9445,491.386 L 50.9445,501.37 z M 89.8786,501.37 L 123.316,501.37 L 123.316,491.386 L 89.8786,491.386 L 89.8786,501.37 z M 128.816,501.37 L 162.253,501.37 L 162.253,491.386 L 128.816,491.386 L 128.816,501.37 z M 167.75,501.37 L 201.187,501.37 L 201.187,491.386 L 167.75,491.386 L 167.75,501.37 z M 206.683,501.37 L 240.121,501.37 L 240.121,491.386 L 206.683,491.386 L 206.683,501.37 z M 245.621,501.37 L 279.058,501.37 L 279.058,491.386 L 245.621,491.386 L 245.621,501.37 z M 284.554,501.37 L 317.992,501.37 L 317.992,491.386 L 284.554,491.386 L 284.554,501.37 z M 323.492,501.37 L 347.996,501.37 L 347.996,491.386 L 323.492,491.386 L 323.492,501.37 z M 338.148,506.863 L 304.48,506.863 L 304.48,517.847 L 338.148,517.847 L 338.148,506.863 z M 298.984,506.863 L 265.316,506.863 L 265.316,517.847 L 298.984,517.847 L 298.984,506.863 z M 259.82,506.863 L 226.152,506.863 L 226.152,517.847 L 259.82,517.847 L 259.82,506.863 z M 220.656,506.863 L 186.988,506.863 L 186.988,517.847 L 220.656,517.847 L 220.656,506.863 z M 181.492,506.863 L 147.824,506.863 L 147.824,517.847 L 181.492,517.847 L 181.492,506.863 z M 142.328,506.863 L 108.66,506.863 L 108.66,517.847 L 142.328,517.847 L 142.328,506.863 z M 103.164,506.863 L 69.4953,506.863 L 69.4953,517.847 L 103.164,517.847 L 103.164,506.863 z M 84.3816,521.843 L 50.9445,521.843 L 50.9445,531.327 L 84.3816,531.327 L 84.3816,521.843 z M 123.32,521.843 L 89.8816,521.843 L 89.8816,531.327 L 123.32,531.327 L 123.32,521.843 z M 162.253,521.843 L 128.816,521.843 L 128.816,531.327 L 162.253,531.327 L 162.253,521.843 z M 347.996,521.843 L 323.492,521.843 L 323.492,531.327 L 347.996,531.327 L 347.996,521.843 z M 304.48,546.312 L 338.148,546.312 L 338.148,535.327 L 304.48,535.327 L 304.48,546.312 z M 108.66,546.312 L 142.328,546.312 L 142.328,535.327 L 108.66,535.327 L 108.66,546.312 z M 69.4953,546.312 L 103.164,546.312 L 103.164,535.327 L 69.4953,535.327 L 69.4953,546.312 z M 84.3816,550.304 L 50.9445,550.304 L 50.9445,561.788 L 84.3816,561.788 L 84.3816,550.304 z M 123.32,550.304 L 89.8816,550.304 L 89.8816,561.788 L 123.32,561.788 L 123.32,550.304 z M 347.996,550.304 L 323.492,550.304 L 323.492,561.788 L 347.996,561.788 L 347.996,550.304 z M 304.48,577.769 L 338.148,577.769 L 338.148,565.788 L 304.48,565.788 L 304.48,577.769 z M 108.66,577.769 L 142.328,577.769 L 142.328,565.788 L 108.66,565.788 L 108.66,577.769 z M 69.4953,577.769 L 103.164,577.769 L 103.164,565.788 L 69.4953,565.788 L 69.4953,577.769 z M 123.32,581.761 L 89.8816,581.761 L 89.8816,592.245 L 123.32,592.245 L 123.32,581.761 z M 347.996,581.761 L 323.492,581.761 L 323.492,592.245 L 347.996,592.245 L 347.996,581.761 z M 304.48,608.726 L 338.148,608.726 L 338.148,596.245 L 304.48,596.245 L 304.48,608.726 z M 108.66,608.726 L 142.328,608.726 L 142.328,596.245 L 108.66,596.245 L 108.66,608.726 z M 69.4953,608.726 L 103.164,608.726 L 103.164,596.245 L 69.4953,596.245 L 69.4953,608.726 z M 145.519,627.203 L 111.851,627.203 L 111.851,638.187 L 145.519,638.187 L 145.519,627.203 z M 89.8786,623.207 L 123.316,623.207 L 123.316,612.722 L 89.8786,612.722 L 89.8786,623.207 z M 316.125,477.113 L 324.246,477.113 L 324.246,486.484 L 316.125,486.484 L 316.125,477.113 z M 316.125,445.132 L 324.246,445.132 L 324.246,454.503 L 316.125,454.503 L 316.125,445.132 z M 316.125,385.089 L 324.246,385.089 L 324.246,394.46 L 316.125,394.46 L 316.125,385.089 z M 300.316,461.949 L 324.246,461.949 L 324.246,471.32 L 300.316,471.32 L 300.316,461.949 z M 308.781,429.972 L 324.25,429.972 L 324.25,439.343 L 308.781,439.343 L 308.781,429.972 z M 308.781,414.445 L 324.25,414.445 L 324.25,423.816 L 308.781,423.816 L 308.781,414.445 z M 308.781,398.917 L 324.25,398.917 L 324.25,408.288 L 308.781,408.288 L 308.781,398.917 z M 298.613,367.515 L 326.933,367.515 L 326.933,376.886 L 298.613,376.886 L 298.613,367.515 z M 314.953,353.367 L 326.933,353.367 L 326.933,362.738 L 314.953,362.738 L 314.953,353.367 z M 319.312,335.675 L 326.937,335.675 L 326.937,345.046 L 319.312,345.046 L 319.312,335.675 z M 284.941,477.113 L 311.046,477.113 L 311.046,486.484 L 284.941,486.484 L 284.941,477.113 z M 284.941,445.132 L 311.046,445.132 L 311.046,454.503 L 284.941,454.503 L 284.941,445.132 z M 284.941,385.089 L 311.046,385.089 L 311.046,394.46 L 284.941,394.46 L 284.941,385.089 z M 273.339,477.113 L 280.879,477.113 L 280.879,486.484 L 273.339,486.484 L 273.339,477.113 z M 273.339,445.132 L 280.879,445.132 L 280.879,454.503 L 273.339,454.503 L 273.339,445.132 z M 273.339,385.089 L 280.879,385.089 L 280.879,394.46 L 273.339,394.46 L 273.339,385.089 z M 273.339,461.949 L 296.109,461.949 L 296.109,471.32 L 273.339,471.32 L 273.339,461.949 z M 273.339,429.972 L 288.078,429.972 L 288.078,439.343 L 273.339,439.343 L 273.339,429.972 z M 273.339,414.445 L 288.078,414.445 L 288.078,423.816 L 273.339,423.816 L 273.339,414.445 z M 273.339,398.917 L 288.078,398.917 L 288.078,408.288 L 273.339,408.288 L 273.339,398.917 z M 267.019,367.515 L 293.168,367.515 L 293.168,376.886 L 267.019,376.886 L 267.019,367.515 z M 284.816,353.367 L 308.054,353.367 L 308.054,362.738 L 284.816,362.738 L 284.816,353.367 z M 267.019,353.367 L 278.636,353.367 L 278.636,362.738 L 267.019,362.738 L 267.019,353.367 z M 267.019,335.675 L 274.281,335.675 L 274.281,345.046 L 267.019,345.046 L 267.019,335.675 z M 292.078,335.675 L 300.429,335.675 L 300.429,345.046 L 292.078,345.046 L 292.078,335.675 z M 217.718,477.113 L 225.839,477.113 L 225.839,486.484 L 217.718,486.484 L 217.718,477.113 z M 217.718,445.132 L 225.839,445.132 L 225.839,454.503 L 217.718,454.503 L 217.718,445.132 z M 217.718,385.089 L 225.839,385.089 L 225.839,394.46 L 217.718,394.46 L 217.718,385.089 z M 217.718,414.769 L 225.839,414.769 L 225.839,424.14 L 217.718,424.14 L 217.718,414.769 z M 201.91,461.949 L 225.839,461.949 L 225.839,471.32 L 201.91,471.32 L 201.91,461.949 z M 201.91,429.972 L 225.839,429.972 L 225.839,439.343 L 201.91,439.343 L 201.91,429.972 z M 201.91,398.917 L 225.839,398.917 L 225.839,408.288 L 201.91,408.288 L 201.91,398.917 z M 200.203,367.515 L 228.523,367.515 L 228.523,376.886 L 200.203,376.886 L 200.203,367.515 z M 216.543,353.367 L 228.523,353.367 L 228.523,362.738 L 216.543,362.738 L 216.543,353.367 z M 220.902,335.675 L 228.527,335.675 L 228.527,345.046 L 220.902,345.046 L 220.902,335.675 z M 186.535,477.113 L 212.64,477.113 L 212.64,486.484 L 186.535,486.484 L 186.535,477.113 z M 186.535,445.132 L 212.64,445.132 L 212.64,454.503 L 186.535,454.503 L 186.535,445.132 z M 186.535,385.089 L 212.64,385.089 L 212.64,394.46 L 186.535,394.46 L 186.535,385.089 z M 186.535,414.769 L 212.64,414.769 L 212.64,424.14 L 186.535,424.14 L 186.535,414.769 z M 174.929,477.113 L 182.468,477.113 L 182.468,486.484 L 174.929,486.484 L 174.929,477.113 z M 174.929,445.132 L 182.468,445.132 L 182.468,454.503 L 174.929,454.503 L 174.929,445.132 z M 174.929,385.089 L 182.468,385.089 L 182.468,394.46 L 174.929,394.46 L 174.929,385.089 z M 174.929,414.769 L 182.468,414.769 L 182.468,424.14 L 174.929,424.14 L 174.929,414.769 z M 174.929,461.949 L 197.699,461.949 L 197.699,471.32 L 174.929,471.32 L 174.929,461.949 z M 174.929,429.972 L 197.699,429.972 L 197.699,439.343 L 174.929,439.343 L 174.929,429.972 z M 174.929,398.917 L 197.699,398.917 L 197.699,408.288 L 174.929,408.288 L 174.929,398.917 z M 168.613,367.515 L 194.761,367.515 L 194.761,376.886 L 168.613,376.886 L 168.613,367.515 z M 186.406,353.367 L 209.644,353.367 L 209.644,362.738 L 186.406,362.738 L 186.406,353.367 z M 168.613,353.367 L 180.23,353.367 L 180.23,362.738 L 168.613,362.738 L 168.613,353.367 z M 168.613,335.675 L 175.875,335.675 L 175.875,345.046 L 168.613,345.046 L 168.613,335.675 z M 193.668,335.675 L 202.019,335.675 L 202.019,345.046 L 193.668,345.046 L 193.668,335.675 z M 121.125,477.113 L 129.246,477.113 L 129.246,486.484 L 121.125,486.484 L 121.125,477.113 z M 121.125,445.132 L 129.246,445.132 L 129.246,454.503 L 121.125,454.503 L 121.125,445.132 z M 121.125,385.089 L 129.246,385.089 L 129.246,394.46 L 121.125,394.46 L 121.125,385.089 z M 105.316,461.949 L 129.246,461.949 L 129.246,471.32 L 105.316,471.32 L 105.316,461.949 z M 113.777,429.972 L 129.246,429.972 L 129.246,439.343 L 113.777,439.343 L 113.777,429.972 z M 113.777,414.445 L 129.246,414.445 L 129.246,423.816 L 113.777,423.816 L 113.777,414.445 z M 113.777,398.917 L 129.246,398.917 L 129.246,408.288 L 113.777,408.288 L 113.777,398.917 z M 103.609,367.515 L 131.929,367.515 L 131.929,376.886 L 103.609,376.886 L 103.609,367.515 z M 119.953,353.367 L 131.933,353.367 L 131.933,362.738 L 119.953,362.738 L 119.953,353.367 z M 124.308,335.675 L 131.933,335.675 L 131.933,345.046 L 124.308,345.046 L 124.308,335.675 z M 89.9406,477.113 L 116.046,477.113 L 116.046,486.484 L 89.9406,486.484 L 89.9406,477.113 z M 89.9406,445.132 L 116.046,445.132 L 116.046,454.503 L 89.9406,454.503 L 89.9406,445.132 z M 89.9406,385.089 L 116.046,385.089 L 116.046,394.46 L 89.9406,394.46 L 89.9406,385.089 z M 78.3351,477.113 L 85.8746,477.113 L 85.8746,486.484 L 78.3351,486.484 L 78.3351,477.113 z M 78.3351,445.132 L 85.8746,445.132 L 85.8746,454.503 L 78.3351,454.503 L 78.3351,445.132 z M 78.3351,385.089 L 85.8746,385.089 L 85.8746,394.46 L 78.3351,394.46 L 78.3351,385.089 z M 78.3351,461.949 L 101.105,461.949 L 101.105,471.32 L 78.3351,471.32 L 78.3351,461.949 z M 78.3351,429.972 L 93.0736,429.972 L 93.0736,439.343 L 78.3351,439.343 L 78.3351,429.972 z M 78.3351,414.445 L 93.0736,414.445 L 93.0736,423.816 L 78.3351,423.816 L 78.3351,414.445 z M 78.3351,398.917 L 93.0736,398.917 L 93.0736,408.288 L 78.3351,408.288 L 78.3351,398.917 z M 72.0148,367.515 L 98.1636,367.515 L 98.1636,376.886 L 72.0148,376.886 L 72.0148,367.515 z M 89.8116,353.367 L 113.05,353.367 L 113.05,362.738 L 89.8116,362.738 L 89.8116,353.367 z M 72.0148,353.367 L 83.6316,353.367 L 83.6316,362.738 L 72.0148,362.738 L 72.0148,353.367 z M 72.0148,335.675 L 79.2765,335.675 L 79.2765,345.046 L 72.0148,345.046 L 72.0148,335.675 z M 97.0736,335.675 L 105.425,335.675 L 105.425,345.046 L 97.0736,345.046 L 97.0736,335.675 z M 341.195,477.402 L 352.746,477.402 L 352.746,487.386 L 341.195,487.386 L 341.195,477.402 z M 243.461,477.402 L 255.011,477.402 L 255.011,487.386 L 243.461,487.386 L 243.461,477.402 z M 146.246,477.402 L 157.796,477.402 L 157.796,487.386 L 146.246,487.386 L 146.246,477.402 z M 51.1359,477.402 L 62.6867,477.402 L 62.6867,487.386 L 51.1359,487.386" id="path48"/>
      <path style="fill:#fff101;fill-rule:evenodd;stroke:none" d="M 46.6984,239.281 L 66.2726,261.089 C 67.3703,262.253 67.257,263.187 66.4992,264.015 L 63.1789,266.687 C 62.1203,267.39 61.1437,267.253 60.2492,266.277 L 40.5422,243.343 C 39.6633,242.191 39.7179,241.206 40.6906,240.39 L 43.5578,238.128 C 44.6984,237.374 45.7218,238.015 46.6945,239.284 L 46.6984,239.281 z M 112.711,298.433 L 116.523,295.765 L 122.972,303.546 C 124.918,308.312 124.812,312.773 121.882,316.788 C 117.07,322.972 112.07,327.339 105.753,331.644 C 101.918,333.277 96.0226,333.3 92.6476,330.367 C 87.9096,326.242 89.4206,319.949 92.0656,320.37 C 93.2646,320.562 92.2026,320.593 95.7376,325.57 C 96.8036,327.07 99.4716,327.656 101.718,327.034 C 103.933,326.421 108.843,322.214 110.496,320.745 C 116.855,315.093 119.308,309.73 116.343,304.753 C 114.453,301.581 112.566,302.784 112.714,298.437 L 112.711,298.433 z M 35.3547,278.675 L 33.5344,276.894 C 32.6672,276.027 32.6164,274.855 33.8,273.796 L 39.882,267.179 L 36.2492,263.593 L 30.339,269.488 C 29.2961,270.527 28.0851,270.531 26.8664,269.663 L 25.1945,267.671 C 24.6281,266.687 24.8,265.792 26.1242,264.46 L 33.1398,258.257 C 33.8742,257.691 34.6125,257.402 35.3508,257.398 L 45.7414,257.308 C 47.1008,257.12 47.714,257.585 47.5812,258.71 L 47.1789,266.644 C 47.1242,267.605 46.7844,268.57 46.1672,269.534 L 38.6164,277.968 C 37.7453,279.234 36.8,279.476 35.3625,278.683" id="path50"/>
      <path style="fill:none;stroke:#fff101;stroke-width:0.29653513" d="M 46.6984,239.281 L 66.2726,261.089 C 67.3703,262.253 67.257,263.187 66.4992,264.015 L 63.1789,266.687 C 62.1203,267.39 61.1437,267.253 60.2492,266.277 L 40.5422,243.343 C 39.6633,242.191 39.7179,241.206 40.6906,240.39 L 43.5578,238.128 C 44.6984,237.374 45.7218,238.015 46.6945,239.284 L 46.6984,239.281 z M 112.711,298.433 L 116.523,295.765 L 122.972,303.546 C 124.918,308.312 124.812,312.773 121.882,316.788 C 117.07,322.972 112.07,327.339 105.753,331.644 C 101.918,333.277 96.0226,333.3 92.6476,330.367 C 87.9096,326.242 89.4206,319.949 92.0656,320.37 C 93.2646,320.562 92.2026,320.593 95.7376,325.57 C 96.8036,327.07 99.4716,327.656 101.718,327.034 C 103.933,326.421 108.843,322.214 110.496,320.745 C 116.855,315.093 119.308,309.73 116.343,304.753 C 114.453,301.581 112.566,302.784 112.714,298.437 L 112.711,298.433 z M 35.3547,278.675 L 33.5344,276.894 C 32.6672,276.027 32.6164,274.855 33.8,273.796 L 39.882,267.179 L 36.2492,263.593 L 30.339,269.488 C 29.2961,270.527 28.0851,270.531 26.8664,269.663 L 25.1945,267.671 C 24.6281,266.687 24.8,265.792 26.1242,264.46 L 33.1398,258.257 C 33.8742,257.691 34.6125,257.402 35.3508,257.398 L 45.7414,257.308 C 47.1008,257.12 47.714,257.585 47.5812,258.71 L 47.1789,266.644 C 47.1242,267.605 46.7844,268.57 46.1672,269.534 L 38.6164,277.968 C 37.7453,279.234 36.8,279.476 35.3625,278.683 L 35.3547,278.675 z " id="path52"/>
    </g>
  </g>
</svg>