<?xml version="1.0" encoding="UTF-8" standalone="no"?>
<!-- Created with Inkscape (http://www.inkscape.org/) -->
<svg xmlns:svg="http://www.w3.org/2000/svg" xmlns="http://www.w3.org/2000/svg" version="1.0" width="1000" height="450" id="svg2">
  <defs id="defs4"/>
  <g id="layer1">
    <rect width="1000" height="225" x="0" y="225" id="rect2430" style="opacity:1;fill:#3466b9;fill-opacity:1;fill-rule:nonzero;stroke:none;stroke-width:3.5;stroke-miterlimit:4;stroke-dasharray:none;stroke-opacity:1"/>
    <rect width="1000" height="225" x="0" y="0" id="rect2432" style="opacity:1;fill:#f4c204;fill-opacity:1;fill-rule:nonzero;stroke:none;stroke-width:3.5;stroke-miterlimit:4;stroke-dasharray:none;stroke-opacity:1"/>
    <g transform="matrix(0.2974727,0,0,0.2974723,640.23713,124.70934)" id="g2434">
      <path d="M -594.19026,584.66264 C -713.61397,584.71015 -809.25404,584.85621 -809.58593,585.06655 C -809.594,585.07222 -809.61483,585.09716 -809.62265,585.10327 C -810.08407,585.50356 -810.08899,586.78506 -809.65937,591.63931 C -807.11047,620.43822 -799.46354,641.04796 -784.87381,658.39508 C -767.55508,678.98693 -741.97865,690.15737 -707.2124,692.32375 C -702.42632,692.62201 -672.03832,692.83644 -630.10177,692.83782 C -558.95427,692.84006 -556.1012,692.91279 -544.69258,694.82067 C -509.7987,700.65587 -481.34496,716.705 -469.27105,737.37839 C -468.26729,739.09696 -467.18236,740.51163 -466.77413,740.68313 C -466.76771,740.68529 -466.74347,740.68168 -466.73741,740.68313 C -466.73175,740.68386 -466.70596,740.68313 -466.70069,740.68313 C -466.69778,740.68265 -466.66704,740.68386 -466.66398,740.68313 C -466.62224,740.66581 -466.54092,740.623 -466.48038,740.57297 C -465.909,740.07591 -464.60293,738.30984 -463.32252,736.24009 C -450.23949,715.09167 -422.87137,698.93526 -388.59865,692.14016 C -376.2701,689.6958 -380.27758,689.84841 -308.44032,689.49636 C -237.23934,689.14745 -239.66846,689.21806 -226.33587,686.88929 C -199.92836,682.27676 -178.76252,671.8081 -161.93014,655.0169 C -147.7233,640.8448 -138.19911,623.77498 -132.26091,601.88401 C -131.22476,598.06429 -129.99677,592.82985 -129.54368,590.24398 C -128.99664,587.12205 -128.8689,585.96284 -129.10305,585.43374 C -129.13868,585.36158 -129.19922,585.2662 -129.24993,585.21343 C -129.28767,585.17724 -129.35147,585.1337 -129.3968,585.10327 C -129.95095,584.75268 -395.15073,584.58343 -594.19026,584.66264 z" id="path1387" style="fill:#3466b9"/>
      <path d="M -810.35704,441.89247 C -810.35704,441.89247 -810.62681,565.85169 -810.62421,565.85169 L -127.86243,566.23565 L -128.18506,441.89247 L -810.35704,441.89247 z" id="path1385" style="fill:#634632"/>
      <path d="M -111.47776,-106.73661 L -825.15281,-106.46723 C -825.15281,-106.46723 -825.28202,396.23487 -825.15281,398.33106 C -825.15182,398.33301 -825.15406,398.36762 -825.15281,398.36954 C -825.13912,398.38082 -825.09918,398.39717 -825.07585,398.40802 L -111.74714,398.71588 L -111.47776,-106.73661 z" id="path1391" style="fill:#f4c204"/>
      <path d="M -470.01049,785.70705 C -482.62079,761.05409 -501.26411,741.8799 -522.1726,732.05976 C -530.72366,728.04355 -538.1563,725.69167 -549.48387,723.41767 C -551.58433,722.99601 -573.75352,722.75991 -633.95302,722.51806 C -722.65948,722.16166 -717.15268,722.33386 -732.56872,719.4344 C -753.01498,715.58887 -771.39693,707.59794 -787.62119,695.50224 C -793.19774,691.34473 -802.24673,682.65165 -807.34596,676.55323 C -814.83031,667.60238 -822.62095,654.70349 -827.15167,643.76112 C -833.84852,627.58723 -838.06593,608.38762 -838.69624,591.20474 C -838.85837,586.78509 -839.17335,583.05632 -839.39618,582.91858 C -839.61902,582.78086 -839.80135,425.31466 -839.80135,232.99368 L -839.80135,-116.68084 L -471.42862,-116.68084 L -103.05581,-116.68084 L -103.05581,235.86598 C -103.05581,429.76672 -103.23912,588.52604 -103.46296,588.66443 C -103.68692,588.80278 -104.00958,590.56628 -104.18007,592.58326 C -105.99031,613.99871 -114.46478,637.87932 -126.75818,656.20776 C -149.71053,690.42785 -185.33875,711.3698 -231.59138,717.82783 C -238.5106,718.79393 -241.28282,718.84204 -307.70735,719.1478 C -382.77966,719.49334 -377.77702,719.30372 -388.84993,722.22404 C -411.9743,728.32284 -435.28832,745.6161 -453.55587,770.21995 C -457.4124,775.41423 -463.97782,785.58414 -465.50864,788.73507 C -466.10496,789.96238 -466.75651,790.96655 -466.9565,790.96655 C -467.15648,790.96655 -468.53079,788.59983 -470.01049,785.70705 z M -463.33215,736.2412 C -450.24914,715.09282 -422.8833,698.94484 -388.61058,692.14974 C -376.28204,689.70541 -380.26277,689.83764 -308.42552,689.48559 C -237.22454,689.13669 -239.65812,689.21377 -226.32553,686.885 C -199.91804,682.27246 -178.76593,671.80216 -161.93355,655.01097 C -147.72675,640.83884 -138.19076,623.76789 -132.25257,601.87692 C -131.21644,598.0572 -129.99794,592.81629 -129.54486,590.23042 C -128.83033,586.1528 -128.8127,585.47081 -129.4122,585.09153 C -130.29887,584.53056 -808.68358,584.5018 -809.56861,585.06271 C -810.10091,585.40007 -810.1181,586.54477 -809.66735,591.63775 C -807.11845,620.43664 -799.46458,641.04483 -784.87485,658.39195 C -767.55612,678.98377 -741.96297,690.16656 -707.19672,692.33294 C -702.41065,692.63118 -672.02329,692.82603 -630.08675,692.82741 C -558.93924,692.82966 -556.08833,692.89563 -544.6797,694.80351 C -509.78582,700.63873 -481.33779,716.69495 -469.26388,737.36834 C -468.1932,739.20149 -467.04145,740.70135 -466.70434,740.70135 C -466.36722,740.70135 -464.84969,738.69424 -463.33215,736.2412 z M -128.18853,503.97576 L -128.18853,443.17869 L -469.27434,443.17869 L -810.36025,443.17869 L -810.48339,503.49704 C -810.55112,536.67212 -810.50396,564.0848 -810.3786,564.41411 C -810.19644,564.89264 -741.70374,564.98876 -469.16964,564.89282 L -128.18853,564.77282 L -128.18853,503.97576 z M -723.71419,549.98975 C -724.76832,549.695 -726.43933,549.06606 -727.42753,548.59209 C -728.41574,548.11811 -732.27371,546.98154 -736.00079,546.06638 C -743.13874,544.31369 -746.88504,542.66528 -748.16303,540.71485 C -749.80533,538.20838 -763.10662,532.93814 -767.79028,532.93814 C -769.15229,532.93814 -770.02766,532.64267 -770.62672,531.98071 C -771.10328,531.45411 -772.00527,531.02327 -772.63116,531.02327 C -776.02964,531.02327 -781.85546,526.07449 -782.83602,522.35466 C -783.14084,521.19827 -784.36314,518.42105 -785.55224,516.18303 C -787.53936,512.44307 -787.69521,511.90101 -787.47924,509.48101 C -787.00186,504.13182 -784.07399,497.82903 -780.48822,494.43153 C -779.67205,493.65821 -779.00428,492.62078 -779.00428,492.12617 C -779.00428,491.63152 -778.75516,490.76135 -778.45069,490.19244 C -777.75781,488.89775 -777.09289,486.42614 -776.68534,483.63028 C -776.3777,481.51972 -776.33252,481.47323 -774.45646,481.33708 C -771.32883,481.11008 -766.92768,479.43716 -763.45162,477.15406 C -761.65902,475.9767 -759.90984,475.01338 -759.56455,475.01338 C -759.21926,475.01338 -758.16146,474.17544 -757.21388,473.15131 C -756.2663,472.12714 -754.24645,470.73068 -752.72532,470.04803 C -750.19005,468.91026 -738.42703,465.43904 -737.10676,465.43904 C -736.7962,465.43904 -735.70195,464.836 -734.67509,464.09897 C -733.32222,463.12799 -731.77754,462.60102 -729.06593,462.18548 C -726.84756,461.84555 -724.50838,461.13599 -723.32132,460.44291 C -722.21997,459.7999 -719.40786,458.72159 -717.07217,458.04669 C -714.25347,457.2322 -712.27937,456.34012 -711.20142,455.39369 C -708.27723,452.82619 -706.84084,452.33771 -701.59159,452.12544 L -696.70454,451.92783 L -695.6566,454.08483 C -694.24394,456.99251 -694.62009,457.77956 -697.42249,457.77956 C -698.69631,457.77956 -700.38984,458.1735 -701.38693,458.70172 C -702.34432,459.20887 -704.39012,459.99985 -705.93318,460.45943 C -707.47624,460.91894 -710.04513,462.13934 -711.64185,463.17131 C -713.23856,464.20333 -715.07318,465.24851 -715.71877,465.494 C -716.36436,465.73943 -718.64246,467.19397 -720.78123,468.7263 C -730.7542,475.87139 -731.89654,476.49793 -736.08499,477.11993 C -738.2621,477.44325 -740.61615,478.11135 -741.40712,478.63043 C -743.03364,479.69786 -745.97121,482.538 -745.97607,483.04783 C -745.97786,483.23654 -746.78245,483.92948 -747.76401,484.58771 C -750.62289,486.50489 -756.68723,491.98639 -757.37331,493.27351 C -757.71946,493.92293 -758.61212,494.68429 -759.35699,494.96545 C -762.39795,496.11331 -763.37853,500.2861 -762.65555,509.00228 C -762.26487,513.71224 -762.01941,514.76805 -760.95637,516.31105 C -759.26458,518.76663 -756.21894,521.44893 -755.12247,521.44893 C -753.49883,521.44893 -746.27532,525.40509 -743.98171,527.55051 C -741.74827,529.63963 -739.02761,531.30609 -734.00487,533.66162 C -732.55675,534.34073 -729.86397,535.63571 -728.0209,536.53938 C -726.17785,537.44305 -721.99804,538.84507 -718.73245,539.65492 C -710.67606,541.65289 -707.67544,543.29298 -707.67544,545.69848 C -707.67544,546.45069 -708.01879,546.88202 -708.75255,547.05157 C -709.34496,547.18844 -711.2299,547.61723 -712.94132,548.00442 C -714.65273,548.3916 -716.90636,549.14538 -717.94939,549.67954 C -720.03029,550.74516 -720.85391,550.78945 -723.71419,549.98975 z M -533.42245,549.85307 C -536.79999,549.32112 -542.13701,548.07387 -544.81993,547.18954 C -547.33892,546.35925 -548.07312,545.85507 -549.24613,544.15017 C -550.01959,543.02599 -550.85909,541.56261 -551.11169,540.89824 C -551.77666,539.1492 -553.35198,538.35473 -556.87958,537.98927 C -561.05419,537.55679 -567.84966,535.23564 -577.84691,530.82738 C -586.81359,526.87356 -592.81678,524.91915 -597.33116,524.48413 C -598.91093,524.33191 -600.63432,523.91187 -601.1609,523.55078 C -601.68749,523.18968 -603.93824,521.65354 -606.16255,520.13706 C -609.2948,518.00159 -610.48226,516.86363 -611.42844,515.09075 C -612.42713,513.21945 -613.13069,512.58084 -615.28306,511.592 C -616.73117,510.92668 -619.26239,509.50795 -620.90798,508.43927 C -624.31994,506.22348 -624.35251,506.10198 -623.3899,499.18107 C -622.83429,495.18637 -622.24143,494.38299 -617.53483,491.247 C -614.96271,489.5332 -610.32603,484.7634 -609.47553,482.95634 C -608.77483,481.46758 -608.75123,481.45078 -604.75128,479.59226 C -599.73609,477.26201 -596.84367,475.48505 -594.93758,473.5633 C -593.8844,472.50146 -590.61157,469.4121 -587.66464,466.69816 L -582.30655,461.76364 L -571.43056,461.44711 C -552.99192,460.91047 -552.43536,460.93475 -551.22448,462.32738 C -550.65215,462.98561 -549.96703,463.52417 -549.70199,463.52417 C -549.00165,463.52417 -549.10967,465.91847 -549.81851,466.1068 C -553.62241,467.11757 -556.22886,467.63524 -562.01643,468.52949 C -566.80043,469.26872 -569.11419,469.84046 -569.78739,470.44967 C -570.31463,470.92686 -572.74236,472.31045 -575.18233,473.52433 C -579.56068,475.70263 -579.61767,475.75333 -579.54468,477.40696 C -579.504,478.32849 -579.31094,479.70825 -579.11566,480.4731 C -578.78419,481.77129 -578.83684,481.84161 -579.9077,481.53154 C -583.72225,480.42709 -583.80547,480.45285 -588.13011,484.07569 C -592.35326,487.61345 -596.23903,492.6247 -597.1077,495.65364 C -597.36226,496.54118 -597.57053,498.91902 -597.57053,500.93768 L -597.57053,504.6079 L -593.68754,507.82038 C -589.98721,510.88172 -589.21593,511.2694 -577.29149,516.06158 C -565.54687,520.78149 -564.48442,521.31135 -559.99125,524.68946 C -557.3583,526.66895 -554.36361,528.6685 -553.33639,529.13291 C -552.1417,529.67305 -551.24863,530.50065 -550.85801,531.42969 C -550.22857,532.92669 -547.84656,534.67252 -544.91166,535.78793 C -543.99013,536.13812 -542.05133,536.91843 -540.60321,537.5219 C -539.0787,538.15721 -535.91157,538.8559 -533.08014,539.18147 C -528.33257,539.7274 -528.16386,539.7881 -527.29325,541.26365 C -526.69644,542.27518 -525.33888,543.30422 -523.23438,544.34026 C -520.23778,545.81547 -519.07978,547.12568 -519.77636,548.25282 C -519.94055,548.51846 -520.43915,548.73905 -520.88438,548.74302 C -521.32961,548.74695 -522.55558,549.06065 -523.60876,549.44008 C -525.37832,550.0776 -530.60134,550.29737 -533.42245,549.85307 z M -610.8122,549.03284 C -612.6976,548.73781 -614.63641,548.14544 -615.12066,547.71642 C -616.58038,546.42321 -618.71709,545.51154 -623.45792,544.15921 C -630.59207,542.12414 -630.85692,542.08239 -640.01339,541.55006 C -648.00357,541.08552 -650.8527,540.63863 -654.77721,539.23437 C -655.56709,538.95173 -657.56101,538.46688 -659.20812,538.15687 C -662.80555,537.47987 -667.23816,534.99705 -670.32682,531.92899 C -672.1411,530.12682 -672.97845,529.65845 -674.90174,529.37001 C -678.8496,528.77799 -685.0545,526.46081 -693.43443,522.44911 C -697.82676,520.34635 -702.21109,518.47762 -703.17738,518.29634 C -705.43108,517.87353 -706.90667,516.47285 -706.29783,515.33432 C -706.05467,514.87959 -705.84784,512.13788 -705.83818,509.24165 C -705.8132,501.74608 -704.74727,498.0794 -699.66304,487.99992 L -695.46815,479.68355 L -691.16099,478.03877 C -688.79205,477.13415 -686.41626,475.98292 -685.88147,475.48051 C -684.42573,474.11291 -681.53748,473.25165 -675.51694,472.38996 C -668.03391,471.31893 -665.77562,470.5954 -662.32465,468.16337 C -659.54149,466.20197 -659.07154,466.03955 -655.35329,465.7537 C -650.57868,465.38672 -647.15322,464.42798 -645.68361,463.04737 C -644.96016,462.36768 -643.53944,461.88193 -641.38133,461.57632 C -638.82537,461.21436 -637.59636,460.7252 -635.43691,459.21041 C -633.93966,458.16015 -632.55107,457.30085 -632.35117,457.30085 C -632.15127,457.30085 -629.68327,455.9691 -626.86672,454.34142 C -621.22813,451.08285 -620.99184,451.04244 -615.04369,452.32128 C -610.0804,453.38839 -609.53845,453.68907 -609.53845,455.37574 C -609.53845,456.44638 -609.76104,456.82213 -610.39531,456.82213 C -610.86657,456.82213 -612.5361,457.1501 -614.10536,457.55098 C -616.30296,458.11242 -617.2702,458.6605 -618.31483,459.93633 C -619.44754,461.31973 -620.46728,461.83842 -624.50146,463.08331 C -627.9053,464.13372 -629.73953,464.98163 -630.71233,465.95443 C -631.4716,466.71371 -632.81183,467.67614 -633.69062,468.09314 C -634.56942,468.51015 -636.11893,469.54289 -637.13399,470.38811 C -643.95186,476.06512 -646.99707,477.60993 -654.19785,479.04436 C -658.0849,479.81869 -659.39564,480.32843 -661.00053,481.68975 C -661.52712,482.13645 -664.32761,482.9923 -667.22384,483.5916 C -670.12009,484.19096 -672.74729,484.7567 -673.06208,484.84886 C -673.37685,484.94101 -674.38046,486.63112 -675.2923,488.60468 C -676.20414,490.57824 -678.04696,493.54844 -679.38745,495.20514 C -681.77789,498.15939 -681.82471,498.27916 -681.82471,501.43731 C -681.82471,504.13795 -681.54901,505.23813 -680.1153,508.25865 C -679.17513,510.23939 -678.23528,511.96544 -678.02675,512.09432 C -677.81822,512.22319 -677.37239,513.31155 -677.03604,514.5129 C -676.51824,516.36227 -675.90263,517.10477 -673.02095,519.3553 C -669.5802,522.04254 -664.72688,524.79994 -663.43791,524.79994 C -663.05205,524.79994 -662.02265,525.54315 -661.15036,526.45147 C -659.59429,528.07183 -659.45787,528.11267 -653.91897,528.61436 C -643.61573,529.54757 -634.70355,531.68064 -631.07504,534.08184 C -630.14972,534.69421 -628.85691,535.3591 -628.20213,535.55945 C -627.54734,535.75979 -626.68849,536.18595 -626.29355,536.50649 C -625.22784,537.37148 -619.15637,538.98572 -612.65011,540.13392 C -605.54899,541.38711 -601.92414,542.90143 -600.73361,545.1121 C -599.57497,547.26354 -599.87731,548.29404 -601.87898,549.01604 C -603.89595,549.74354 -606.24217,549.74799 -610.8122,549.03284 z M -247.62839,545.18798 C -247.62839,542.29892 -240.21061,538.46736 -222.49579,532.20598 C -214.1353,529.25096 -198.30861,521.41948 -195.53334,518.86424 L -193.40115,516.90111 L -181.24581,516.89465 L -169.09059,516.88814 L -166.35209,514.03408 L -163.61359,511.18002 L -163.65895,505.663 C -163.75072,494.49405 -167.41349,486.81088 -173.51712,484.98333 C -175.01092,484.53612 -176.3495,483.54445 -178.36043,481.3954 C -179.8889,479.76197 -182.69872,477.23118 -184.6046,475.77138 C -186.51036,474.31163 -188.69637,472.28411 -189.46236,471.26575 C -191.43099,468.64864 -193.22513,467.71242 -197.54086,467.05001 C -200.70495,466.5644 -201.55919,466.22925 -202.86957,464.95917 C -204.99012,462.90385 -210.08183,461.13197 -214.82327,460.79936 C -217.85576,460.58667 -219.5996,460.75638 -223.09329,461.60422 C -225.5284,462.19515 -228.00569,462.56061 -228.5986,462.41637 C -232.71317,461.41508 -233.85999,461.03082 -235.34051,460.15726 C -236.40308,459.53033 -237.68785,459.21179 -238.87203,459.28168 C -242.09816,459.47202 -242.55995,458.58797 -240.91668,455.36693 L -239.94952,453.47112 L -236.24915,453.4738 C -231.78396,453.47701 -229.88208,453.9617 -226.89071,455.85871 C -225.64002,456.6519 -224.36525,457.30085 -224.05774,457.30085 C -223.75036,457.30085 -222.78755,456.61145 -221.91815,455.76881 L -220.33752,454.23677 L -213.99653,454.29833 C -206.53692,454.37071 -198.45196,455.71223 -196.41965,457.21487 C -195.68961,457.75458 -192.64114,458.99225 -189.64543,459.96525 C -182.58157,462.25945 -180.04553,463.56754 -178.19346,465.87228 C -177.36214,466.90664 -176.13683,467.88984 -175.47036,468.05709 C -174.804,468.22435 -173.01844,469.20347 -171.50255,470.23291 C -168.21438,472.46589 -164.06938,474.12852 -162.66782,473.7767 C -161.35191,473.44644 -159.0712,475.22823 -159.04876,476.60396 C -159.03948,477.17728 -158.72398,478.18488 -158.34763,478.84312 C -157.97139,479.50135 -157.65589,480.39761 -157.64661,480.83482 C -157.62088,482.03831 -153.89677,488.38389 -151.83955,490.72942 C -149.58422,493.30094 -148.80024,496.44636 -149.10457,501.70276 C -149.25521,504.30554 -149.64097,506.10949 -150.31849,507.37977 C -154.01733,514.31418 -155.23453,516.88474 -155.50702,518.33736 C -155.94742,520.68504 -161.57282,526.45952 -164.38652,527.45223 C -169.30844,529.18878 -178.04282,530.56336 -187.14041,531.03317 C -197.26813,531.55613 -203.69842,532.49437 -206.37535,533.83961 C -207.34275,534.3258 -208.89612,534.86152 -209.82721,535.03013 C -210.75829,535.19878 -213.19587,535.98196 -215.24381,536.7706 C -217.99053,537.82828 -219.19563,538.08238 -219.83696,537.73909 C -220.74172,537.25492 -222.25679,537.72043 -239.16003,543.67566 C -243.32277,545.14226 -246.93102,546.34221 -247.17848,546.34221 C -247.42593,546.34221 -247.62839,545.82281 -247.62839,545.18798 z M -459.70005,543.82708 C -460.88482,543.27804 -463.89263,542.54249 -466.38391,542.1926 C -469.84599,541.70632 -471.834,541.10663 -474.81902,539.64832 C -480.27087,536.98483 -487.87818,534.5293 -493.74282,533.53993 C -496.8914,533.00879 -498.97882,532.41045 -499.43355,531.9088 C -499.82848,531.47302 -507.53284,527.40958 -516.5544,522.87895 C -526.70865,517.77946 -533.31877,514.18177 -533.90629,513.43486 C -536.07972,510.67181 -536.22705,506.12606 -534.33045,500.34876 C -531.66282,492.22273 -530.77836,490.54166 -527.37046,487.12023 C -524.59499,484.33371 -523.08155,483.31099 -517.90685,480.7248 C -514.51892,479.03164 -510.86073,476.86692 -509.77736,475.91428 C -508.15678,474.48928 -507.1949,474.07887 -504.35089,473.59921 C -502.43596,473.27621 -500.36863,472.60285 -499.71626,472.08961 C -499.06847,471.58007 -497.63965,470.84605 -496.54112,470.45849 C -495.4426,470.07092 -493.54365,469.02272 -492.32128,468.12919 C -491.09879,467.23567 -488.59059,465.70961 -486.74758,464.73806 C -484.90444,463.76645 -482.96566,462.58732 -482.43913,462.1177 C -481.91249,461.64812 -479.56927,460.01742 -477.23192,458.4939 C -473.12817,455.81912 -472.87319,455.72434 -469.81179,455.73612 C -466.27722,455.74976 -462.82019,456.9006 -462.06278,458.31588 C -461.6574,459.0734 -460.99715,459.21964 -457.88805,459.24051 C -451.72684,459.28193 -436.34643,463.89039 -433.35753,466.59069 C -431.97818,467.83683 -430.01907,468.70101 -424.66427,470.4254 C -419.92671,471.95103 -417.30149,473.06266 -416.3207,473.95843 C -415.53355,474.67732 -413.83248,475.80953 -412.54043,476.47447 C -411.02171,477.25597 -409.11842,478.94622 -407.15684,481.25523 C -405.48796,483.21973 -403.0565,486.01191 -401.75363,487.46002 L -399.3848,490.09296 L -399.38327,493.73078 C -399.38245,495.73158 -399.25014,498.96292 -399.08951,500.91154 C -398.82866,504.07284 -398.90609,504.57842 -399.80757,505.60483 C -400.36323,506.23756 -400.81785,507.05152 -400.81785,507.41367 C -400.81785,508.29546 -403.52521,513.66872 -404.8746,515.46497 C -405.58126,516.40574 -406.7524,517.13563 -408.26982,517.58099 C -409.81615,518.03486 -411.23956,518.93298 -412.55088,520.28235 C -413.68255,521.44672 -416.3308,523.22262 -418.79693,524.47078 C -423.68807,526.94647 -428.59154,530.29591 -430.06255,532.16601 C -430.61527,532.86867 -431.90133,533.86895 -432.92043,534.38884 C -433.95538,534.91687 -436.17029,537.00311 -437.93846,539.1154 C -441.04721,542.8292 -441.15637,542.90622 -444.0589,543.4308 C -453.5178,545.14039 -456.69247,545.22082 -459.70005,543.82708 z M -452.24714,532.7095 C -449.36493,531.84599 -445.4446,528.24518 -443.68783,524.84797 C -443.27857,524.0565 -441.92072,522.71552 -440.67038,521.86805 C -439.42016,521.02053 -437.74787,519.66398 -436.95427,518.85346 C -435.37986,517.24556 -431.93447,512.64992 -431.93447,512.15794 C -431.93447,511.65644 -428.90985,507.43846 -427.44037,505.89062 C -426.69048,505.10074 -425.26447,503.59279 -424.27146,502.53961 C -421.27787,499.36452 -420.29109,496.89472 -420.25525,492.48654 C -420.22881,489.2429 -420.40189,488.36379 -421.38656,486.74195 C -424.40624,481.76779 -426.14209,480.54802 -434.76967,477.33774 C -437.80874,476.20696 -439.29173,475.33336 -440.79117,473.79059 C -442.02365,472.52242 -443.94998,471.2576 -445.85468,470.46595 C -447.54554,469.76315 -450.1086,468.61863 -451.55035,467.92252 C -453.88664,466.79467 -454.85627,466.63698 -460.46146,466.47316 C -467.37328,466.27119 -467.15284,466.20757 -471.66797,469.70704 C -473.93035,471.46053 -474.57132,472.02101 -480.1462,477.12136 C -482.04468,478.85819 -484.03011,480.27926 -484.55828,480.27926 C -485.36011,480.27926 -491.07705,483.64129 -498.95485,488.74552 C -503.39266,491.62098 -504.23856,492.47817 -505.68747,495.56785 C -507.05214,498.47784 -507.13639,498.95703 -506.82748,502.05677 C -506.55687,504.77163 -506.12517,506.02189 -504.54112,508.67758 C -503.46704,510.47822 -502.0287,512.24086 -501.34484,512.59453 C -500.66086,512.94821 -497.31229,514.02346 -493.90332,514.984 C -490.44289,515.95905 -487.0646,517.21913 -486.25466,517.83686 C -485.45682,518.4454 -483.19479,519.62684 -481.22804,520.46224 C -479.26118,521.29766 -477.00561,522.5931 -476.21576,523.341 C -475.42592,524.0889 -473.48713,525.34745 -471.90732,526.13768 C -470.32751,526.92794 -468.21118,528.23201 -467.20419,529.03553 C -466.04785,529.95836 -464.54877,530.61827 -463.1351,530.82694 C -461.88417,531.01154 -460.2999,531.65565 -459.54365,532.28708 C -457.94774,533.61949 -455.71568,533.74875 -452.24714,532.7095 z M -387.89252,543.46991 C -388.28745,543.21465 -389.08258,543.00254 -389.6594,542.99852 C -390.97777,542.98933 -391.415,542.30366 -391.04439,540.82691 C -390.82666,539.95938 -390.25337,539.54755 -388.72538,539.16098 C -383.027,537.71928 -375.82437,534.81049 -366.9061,530.34913 C -361.46611,527.62778 -352.16819,523.29783 -346.24409,520.72707 C -337.84752,517.08331 -334.9981,515.61581 -333.31877,514.07032 C -332.13388,512.97994 -330.25185,511.35983 -329.1364,510.47008 C -328.02096,509.58033 -326.6745,507.95639 -326.14445,506.86132 C -322.65782,499.65893 -329.75458,489.23261 -339.33992,487.47505 C -340.63584,487.23742 -342.88107,486.61657 -344.32928,486.09535 C -345.77737,485.57412 -349.43956,484.7952 -352.46746,484.36435 C -358.9692,483.43927 -362.07665,482.52148 -363.30196,481.16437 C -363.79371,480.61978 -365.09222,479.75235 -366.18769,479.23671 C -367.28304,478.72114 -371.01772,475.99815 -374.48697,473.18563 C -383.89675,465.55714 -386.41858,463.68272 -389.44837,462.06523 C -392.67426,460.34299 -392.94487,459.33731 -390.73701,457.2749 L -389.27317,455.90745 L -375.05908,462.06576 C -367.24133,465.45287 -359.87267,468.66214 -358.68425,469.19749 C -357.49596,469.73284 -354.1676,470.72752 -351.2881,471.40793 C -348.40848,472.08832 -345.15356,473.14743 -344.0548,473.76158 C -342.60283,474.5731 -339.71921,475.24762 -333.49913,476.23061 C -327.18011,477.22926 -324.58978,477.83925 -323.59819,478.56211 C -322.85957,479.10052 -321.36894,479.86872 -320.28557,480.26921 C -318.7913,480.8216 -318.05609,481.48879 -317.23945,483.03347 C -315.59419,486.14513 -313.51923,488.54628 -310.4751,490.86082 C -305.46059,494.67357 -305.02513,495.26139 -304.56358,498.84051 C -303.7265,505.33196 -303.85587,506.01968 -306.67744,510.07337 C -309.2559,513.77782 -311.28081,516.33919 -313.93377,519.25238 C -315.12677,520.56234 -316.08476,521.00057 -319.53227,521.81328 C -321.81979,522.35251 -324.18217,523.13741 -324.7819,523.55749 C -325.38163,523.97756 -326.66334,524.32123 -327.63026,524.32123 C -331.39714,524.32123 -336.24691,526.38967 -344.89341,531.68404 C -349.64847,534.59564 -353.6386,536.1971 -357.10703,536.58601 C -359.00257,536.7986 -360.7255,537.4015 -362.52046,538.48029 C -365.67597,540.37683 -371.38586,542.26397 -376.91033,543.2362 C -381.50383,544.0446 -386.82796,544.15788 -387.89252,543.46991 z M -319.63696,542.85007 C -324.55254,541.31478 -320.6201,539.56075 -307.1149,537.26454 C -303.41712,536.63584 -300.44878,535.83902 -299.06649,535.10405 C -297.8621,534.46366 -294.62645,531.79132 -291.8762,529.16551 C -286.03365,523.58726 -282.11872,520.88854 -278.14081,519.69696 C -276.07948,519.07947 -274.95792,518.41971 -274.13459,517.34029 C -273.06743,515.94129 -272.73044,515.81946 -269.084,515.51538 C -266.93501,515.33614 -261.98677,514.54593 -258.0877,513.7593 C -252.35549,512.60281 -250.24081,511.93768 -247.03959,510.28433 C -243.13112,508.26569 -243.0578,508.19412 -241.29445,504.67153 C -240.31202,502.70907 -239.50419,500.80809 -239.49926,500.44709 C -239.48751,499.59205 -244.07431,491.57278 -245.90828,489.24205 C -246.69084,488.24746 -248.42129,486.82553 -249.75365,486.08222 C -254.14481,483.63253 -257.64954,481.51934 -262.84547,478.18837 C -265.66611,476.38016 -269.05098,474.38166 -270.36748,473.74722 C -271.68397,473.11277 -273.46964,472.07678 -274.33575,471.44497 C -275.27823,470.75739 -277.75999,469.87488 -280.51764,469.24665 C -285.8433,468.03345 -287.52992,467.39445 -289.50595,465.84154 C -290.89494,464.74983 -291.14545,464.72475 -299.22148,464.86817 L -307.51124,465.01538 L -308.82173,463.61236 C -309.76175,462.60609 -311.34615,461.83937 -314.42517,460.90066 C -317.97161,459.81943 -319.02008,459.26479 -320.4563,457.71015 C -321.91215,456.13426 -322.75241,455.69749 -325.62498,455.02331 C -329.00656,454.22973 -329.05321,454.19766 -328.91315,452.76759 C -328.77638,451.37189 -328.61669,451.27772 -324.70188,450.28329 C -319.02548,448.84134 -317.50736,448.88256 -315.03183,450.54558 C -312.9981,451.91174 -310.50189,453.39351 -307.70735,454.89348 C -306.9175,455.31743 -305.31618,456.30181 -304.14904,457.08098 C -302.05186,458.48084 -301.95927,458.49577 -296.34021,458.3423 C -291.55107,458.21146 -290.4516,458.31941 -289.3727,459.02634 C -287.7433,460.09393 -282.55818,460.07382 -273.87925,458.96631 L -267.69231,458.17681 L -265.91827,459.51075 C -264.94253,460.24439 -261.0417,463.41694 -257.2498,466.56087 C -251.69184,471.16904 -249.60395,472.59189 -246.47863,473.90108 C -240.52387,476.39553 -239.85728,476.79214 -234.59261,480.97393 C -228.78543,485.58647 -225.32195,489.33702 -223.13958,493.37586 C -221.74578,495.95538 -221.55002,496.75694 -221.5445,499.90666 C -221.53956,502.78724 -221.77492,503.97025 -222.73514,505.89062 C -224.42447,509.26936 -229.9084,514.61233 -232.11109,515.0255 C -233.08353,515.20795 -235.30761,516.47463 -237.25556,517.95535 C -244.01756,523.09561 -249.75893,525.55167 -256.24527,526.07894 C -258.73808,526.28152 -260.43281,526.71539 -261.78878,527.498 C -262.8631,528.11798 -265.00222,529.05886 -266.54255,529.58879 C -268.083,530.11878 -269.68138,530.84777 -270.09475,531.20881 C -271.45895,532.40059 -273.93049,533.44032 -277.5479,534.34432 C -279.51077,534.83482 -282.14481,535.86238 -283.40149,536.62785 C -285.8225,538.10249 -288.02543,539.03034 -295.73943,541.82465 L -300.52669,543.55876 L -305.82297,542.96817 C -308.73596,542.64336 -311.85963,542.52789 -312.76439,542.71152 C -316.0971,543.38796 -317.80452,543.42237 -319.63696,542.85007 z M -730.74959,398.32292 C -730.31786,397.8912 -730.17513,391.706 -730.17513,373.42964 L -730.17513,349.11081 L -726.11708,349.11081 C -722.43218,349.11081 -721.9956,349.01177 -721.36945,348.03369 C -720.99018,347.44128 -716.54275,334.03122 -711.48629,318.23356 C -706.42982,302.4359 -702.096,289.13355 -701.85557,288.67279 C -701.50392,287.99887 -700.77642,287.83504 -698.13547,287.83504 C -695.58344,287.83504 -694.78782,287.66643 -694.56193,287.07781 C -694.40212,286.66133 -694.27136,277.61358 -694.27136,266.97169 L -694.27136,247.62281 L -666.26642,247.62281 L -638.26147,247.62281 L -638.26147,267.19159 C -638.26147,282.62279 -638.13042,286.86912 -637.64168,287.27474 C -637.3008,287.55765 -635.41586,287.85331 -633.45291,287.93175 L -629.88393,288.07439 L -619.82066,318.13765 C -614.28587,334.67244 -609.43885,348.40234 -609.04952,348.64853 C -608.6602,348.89472 -606.99526,349.09945 -605.34967,349.10348 L -602.3577,349.11081 L -602.3577,373.46678 C -602.3577,393.73925 -602.24552,397.91581 -601.68865,398.37797 C -601.25366,398.73897 -599.36955,398.88507 -596.30308,398.7956 L -591.58657,398.65802 L -591.28843,393.39213 C -591.12446,390.49589 -590.96289,378.8421 -590.92939,367.49479 L -590.86849,346.86333 L -587.8765,343.31957 C -575.83199,329.05387 -565.01775,313.90032 -550.15926,290.46797 C -546.34462,284.45216 -538.42582,269.97011 -533.66819,260.30881 C -522.97623,238.59666 -516.56039,220.42384 -513.27046,202.53197 C -512.39777,197.78619 -512.22622,194.25322 -511.88053,173.90039 C -511.66362,161.13061 -511.46704,128.87106 -511.44377,102.21251 L -511.40147,53.74242 L -504.20883,53.74242 L -497.0163,53.74242 L -496.54935,52.51446 C -496.27252,51.78626 -496.07828,42.77555 -496.07206,30.3738 C -496.06219,10.74151 -496.00485,9.33634 -495.13662,7.42351 C -493.66903,4.19017 -491.89275,2.19235 -488.48437,-0.05851 C -482.35606,-4.1056 -474.1227,-5.94954 -464.27616,-5.4802 C -454.92007,-5.03424 -447.75598,-2.37019 -442.93511,2.45572 C -438.57215,6.82331 -438.63654,6.40226 -438.63654,30.57876 C -438.63654,42.87501 -438.44689,51.7853 -438.16959,52.51446 L -437.70275,53.74242 L -428.66133,53.74242 L -419.61992,53.74242 L -419.3452,125.66965 C -419.06331,199.45796 -419.01784,201.18599 -417.03875,213.15518 C -412.11765,242.91815 -396.52891,278.90295 -375.97724,307.94115 C -367.11971,320.45612 -352.22682,336.6729 -343.25214,343.57518 L -339.06332,346.79669 L -339.06332,372.30972 C -339.06332,393.19202 -338.94558,397.92042 -338.41459,398.36112 C -337.93753,398.75706 -309.9118,398.86755 -232.49849,398.77876 L -127.23113,398.65802 L -127.10552,380.76228 C -127.01375,367.68948 -127.13019,362.68554 -127.53722,362.19501 C -127.95752,361.68862 -129.16603,361.55707 -132.44997,361.66014 L -136.80542,361.79681 L -136.93643,370.0484 C -137.0873,379.55683 -136.40156,378.55157 -143.02879,378.97945 C -146.63081,379.21206 -161.4465,378.48503 -161.87691,378.05457 C -161.98584,377.94556 -161.62381,373.8217 -161.07226,368.89034 C -160.39533,362.83831 -160.22531,359.73646 -160.54914,359.34633 C -160.81293,359.02845 -162.14893,358.63322 -163.51794,358.46805 C -177.54861,356.77523 -194.77404,351.89909 -210.75618,345.09596 C -216.64138,342.59074 -218.28676,342.06395 -218.75653,342.53448 C -219.08177,342.86028 -220.85711,346.4659 -222.70177,350.54696 C -224.57698,354.6954 -226.371,358.03376 -226.77075,358.11834 C -228.31308,358.44463 -241.65659,351.47893 -245.61076,348.28338 L -247.66211,346.62551 L -245.64637,342.96131 C -240.85323,334.24829 -239.99347,332.5494 -239.98148,331.76802 C -239.97349,331.24255 -241.84542,329.6857 -245.11514,327.4985 C -255.38316,320.62986 -267.24451,310.99195 -277.94153,300.82553 C -281.58068,297.36687 -284.892,294.53707 -285.29985,294.53707 C -285.7077,294.53707 -288.78989,297.12214 -292.14904,300.28167 C -295.5083,303.4412 -298.47957,306.02628 -298.75194,306.02628 C -299.71287,306.02628 -313.69137,288.30571 -313.69137,287.08763 C -313.69137,286.58224 -311.6614,284.88023 -304.7154,279.56201 C -303.06978,278.30205 -301.72344,276.94 -301.72344,276.53524 C -301.72344,276.13048 -302.66534,274.46817 -303.81674,272.84123 C -307.96444,266.97995 -313.46094,257.76185 -317.56952,249.77703 C -321.27764,242.57021 -326.88283,229.63099 -328.52304,224.49119 C -328.84406,223.4854 -329.36436,222.56361 -329.67926,222.44275 C -329.99428,222.32189 -333.77174,223.73722 -338.0736,225.58792 C -342.37558,227.43862 -345.95809,228.95284 -346.03494,228.95284 C -346.72561,228.95284 -352.94487,209.58342 -353.09293,206.97152 L -353.18552,205.33567 L -345.52604,203.47489 C -341.31336,202.45146 -337.67162,201.42013 -337.43356,201.18305 C -337.17541,200.92613 -337.51241,197.69745 -338.26771,193.19047 C -339.64871,184.94995 -341.45695,171.32148 -341.45695,169.15352 C -341.45695,168.40595 -341.7735,167.5316 -342.16031,167.21051 C -342.66334,166.79309 -352.72385,166.23534 -377.46576,165.25323 C -396.49683,164.49782 -412.12153,163.87246 -412.18733,163.86354 C -412.49989,163.8212 -412.26124,85.84626 -411.94798,85.66372 C -411.75058,85.54865 -395.34814,89.71831 -375.49831,94.92965 C -355.64847,100.14099 -339.13805,104.30136 -338.80857,104.1749 C -338.4791,104.04846 -337.73061,101.85874 -337.14533,99.30887 C -334.67779,88.55798 -330.55994,76.22908 -325.94035,65.76078 C -324.73255,63.02394 -323.74436,60.41463 -323.74436,59.96232 C -323.74436,59.35937 -325.85975,58.20342 -331.67256,55.62991 C -336.03306,53.69937 -339.71909,51.92847 -339.86362,51.69456 C -340.25197,51.06633 -330.60365,31.75169 -329.73508,31.41838 C -329.29444,31.24932 -325.99793,32.80869 -321.61957,35.25729 C -317.56423,37.52527 -314.05586,39.38091 -313.8232,39.38091 C -313.59067,39.38091 -311.92284,37.17283 -310.11696,34.47405 C -302.41612,22.96598 -291.4257,9.13927 -280.94676,-2.22406 C -278.41929,-4.96475 -276.35138,-7.51554 -276.35138,-7.89245 C -276.35138,-8.26938 -278.61341,-11.23639 -281.37799,-14.48583 C -284.14258,-17.735274 -286.40449,-20.683554 -286.40449,-21.037544 C -286.40449,-22.436984 -277.29033,-30.534898 -270.92808,-34.788349 C -266.52575,-37.731572 -267.55201,-38.173825 -260.98471,-30.503807 C -258.50965,-27.613248 -256.12225,-25.247712 -255.67939,-25.247065 C -255.23652,-25.246419 -250.82033,-27.384636 -245.86563,-29.998678 C -240.91104,-32.612707 -229.42523,-38.627958 -220.34151,-43.365905 C -207.35262,-50.140795 -203.79266,-52.196044 -203.67069,-52.990357 C -203.58551,-53.545847 -204.51906,-57.201625 -205.74531,-61.114297 C -206.97156,-65.026969 -207.903,-68.716846 -207.81522,-69.314026 C -207.68597,-70.193199 -206.92679,-70.663218 -203.8258,-71.78421 C -199.25051,-73.438143 -185.87245,-77.002904 -185.38094,-76.699103 C -185.19035,-76.581319 -184.00076,-72.797863 -182.73738,-68.291407 C -181.39927,-63.518186 -180.16362,-59.991625 -179.77715,-59.843361 C -179.41243,-59.703393 -176.27266,-60.143238 -172.79989,-60.820801 C -158.65301,-63.581014 -147.6848,-64.941158 -136.56606,-65.314038 C -132.22167,-65.459741 -128.28571,-65.777184 -127.81946,-66.019461 C -127.04477,-66.421952 -126.98284,-67.274428 -127.1014,-75.892441 L -127.23113,-85.32487 L -468.55628,-85.32487 L -809.88153,-85.32487 L -810.00169,156.13824 C -810.09031,334.25366 -809.98074,397.77134 -809.58403,398.24934 C -808.83821,399.14803 -731.64671,399.22003 -730.74959,398.32292 z M -669.61743,209.84622 L -693.55328,206.65253 L -693.88501,203.80021 C -694.06748,202.23145 -694.44448,196.96258 -694.72279,192.09163 C -695.85559,172.26585 -699.22293,151.48079 -704.17505,133.74705 C -705.10317,130.42347 -706.18925,126.51937 -706.58859,125.07125 C -707.28838,122.53363 -707.24391,121.96167 -705.36043,109.27359 C -703.83267,98.98189 -703.5325,95.983 -703.98497,95.53211 C -704.30331,95.21489 -708.6568,93.85768 -713.6594,92.5161 C -718.66199,91.17454 -722.89593,89.92613 -723.06814,89.74186 C -723.38213,89.4059 -718.46795,59.10948 -718.02813,58.66966 C -717.89938,58.54091 -710.87908,59.01576 -702.42745,59.72487 C -693.97582,60.434 -686.78148,60.90699 -686.44005,60.77597 C -686.09861,60.64495 -680.5766,49.15321 -674.1689,35.23878 C -667.76122,21.32435 -662.28471,9.68997 -661.9989,9.38459 C -661.23817,8.5718 -611.01148,16.33955 -610.42996,17.35993 C -610.20488,17.75487 -608.93664,28.31057 -607.61163,40.81705 C -606.28662,53.32355 -605.08383,64.14872 -604.93877,64.87304 C -604.76879,65.72172 -604.3056,66.26558 -603.63603,66.40265 C -603.06459,66.51962 -584.07071,67.28813 -561.42739,68.11044 C -538.78408,68.93276 -519.98845,69.69178 -519.65933,69.79716 C -518.81737,70.06672 -518.7773,145.65608 -519.61912,145.65608 C -519.92612,145.65608 -538.20626,141.0245 -560.24165,135.36367 C -582.27704,129.70284 -600.63687,125.07125 -601.04126,125.07125 C -602.17469,125.07125 -602.3577,126.11506 -602.3577,132.57955 L -602.3577,138.57339 L -605.40003,143.19185 C -619.0769,163.95412 -631.68153,186.6604 -641.38112,208.00897 C -643.28839,212.20683 -643.90008,213.14455 -644.70042,213.09754 C -645.24006,213.06583 -656.45272,211.60273 -669.61743,209.84622 z M -127.04794,276.2544 C -127.01704,255.7988 -127.15628,238.96071 -127.35744,238.8364 C -127.55849,238.71211 -130.77675,238.49204 -134.50908,238.34737 C -141.91158,238.06043 -150.57817,236.54376 -156.63633,234.47507 C -158.59133,233.8075 -160.56348,233.26129 -161.01868,233.26129 C -161.474,233.26129 -163.75201,234.75791 -166.08101,236.5871 C -168.41002,238.4163 -173.16415,242.10402 -176.64561,244.78207 L -182.97567,249.65123 L -186.93807,247.63171 C -192.58792,244.75215 -198.64114,240.54757 -205.2619,234.90407 C -210.47441,230.46094 -212.63127,228.37437 -216.68203,223.85598 L -218.03248,222.3495 L -213.42312,213.56357 C -210.88801,208.7313 -207.91898,203.01286 -206.82515,200.85592 L -204.83667,196.9342 L -207.28376,192.23901 C -214.40778,178.56975 -217.62146,166.23049 -218.26702,150.06741 L -218.5784,142.27146 L -228.91457,135.448 C -234.59954,131.69509 -240.07725,128.11916 -241.08718,127.50147 C -243.24569,126.18142 -243.25121,126.32031 -240.69084,117.42498 C -238.47734,109.73487 -235.60513,102.58853 -231.35402,94.19401 L -227.71769,87.01326 L -225.34603,87.15705 C -224.04165,87.23614 -217.60748,88.36711 -211.04782,89.67031 C -204.48804,90.97352 -198.75759,92.03977 -198.31343,92.03977 C -197.86927,92.03977 -195.14593,89.7144 -192.26138,86.87229 C -184.40285,79.12912 -175.50737,72.95404 -165.54908,68.32897 C -161.33875,66.37351 -152.8765,63.31675 -151.6734,63.31675 C -150.25527,63.31675 -149.37777,60.86321 -146.03331,47.54598 C -141.90218,31.09607 -143.2652,32.77025 -133.81781,32.54202 C -130.59497,32.46415 -127.73862,32.18106 -127.47048,31.91292 C -127.14887,31.59143 -127.02514,23.0397 -127.10704,6.79982 L -127.23113,-17.825774 L -129.62464,-17.979554 C -132.81012,-18.184194 -143.3048,-17.297824 -151.88502,-16.09948 C -170.39122,-13.51483 -188.10745,-8.09855 -203.08577,-0.44623 C -209.99312,3.08273 -215.55437,6.5662 -215.55437,7.36395 C -215.55437,7.66926 -214.31566,9.42848 -212.80177,11.27332 C -211.28775,13.11814 -209.29516,15.55048 -208.37359,16.6785 C -207.45202,17.80652 -204.61658,21.27565 -202.07255,24.38768 C -196.6415,31.03112 -194.16091,34.0821 -187.35227,42.49257 C -184.58134,45.91539 -179.97491,51.51639 -177.11562,54.93921 C -174.25644,58.36204 -171.7204,61.52144 -171.47999,61.9601 C -171.12373,62.61044 -171.6828,63.17647 -174.50907,65.02641 C -183.03137,70.60483 -191.21608,76.86762 -196.29686,81.69801 L -199.29962,84.55286 L -206.33458,83.47013 C -210.2038,82.87463 -213.71581,82.20212 -214.13894,81.97564 C -214.56206,81.74918 -216.39838,79.88179 -218.21954,77.82589 C -220.04071,75.76999 -225.30597,69.88715 -229.92003,64.75291 C -234.5341,59.61867 -241.23852,52.07888 -244.81868,47.99782 C -248.39885,43.91675 -251.79195,40.16397 -252.3589,39.65829 C -253.38211,38.74546 -253.40008,38.74889 -254.86087,40.137 C -257.32688,42.48027 -264.23012,51.28455 -267.96832,56.85408 C -277.59713,71.20013 -285.27882,88.93912 -290.04258,107.82969 C -291.90428,115.21214 -292.03565,116.75777 -290.83266,117.12259 C -290.37182,117.26231 -280.83936,119.76921 -269.64942,122.69349 C -243.26425,129.58869 -241.32935,130.13937 -239.15991,131.37094 C -235.28717,133.56931 -231.01668,138.50682 -229.65847,142.35603 C -225.88772,153.04349 -230.04388,164.22456 -239.38575,168.52557 C -243.15662,170.26161 -246.55431,170.34778 -272.02543,169.35326 C -286.65571,168.78202 -293.34391,168.68033 -293.68749,169.02392 C -294.27829,169.6148 -293.63943,174.56406 -291.82379,183.46033 C -289.26096,196.01742 -285.42264,207.07197 -279.43533,219.13915 C -274.7819,228.51803 -270.97155,234.69745 -269.84189,234.69745 C -269.41418,234.69745 -267.20338,233.22743 -264.92866,231.43073 C -262.65418,229.63403 -255.08447,223.75039 -248.10709,218.35599 C -241.12983,212.96157 -230.36713,204.6322 -224.18993,199.8463 C -218.01286,195.06039 -212.82127,191.30386 -212.65313,191.49846 C -211.86774,192.40723 -210.76722,196.13627 -210.76722,197.88848 C -210.76722,199.54172 -211.23805,200.46316 -213.8809,203.98244 C -219.42464,211.36456 -221.93801,217.29128 -221.9326,222.96888 C -221.93002,225.5175 -221.66564,226.83572 -220.8282,228.47412 C -219.18388,231.69126 -215.91498,235.74614 -211.30103,240.292 L -207.17683,244.35546 L -208.61294,245.5084 C -211.97232,248.20526 -230.99447,263.28143 -235.02431,266.44098 C -237.43898,268.33417 -239.55542,270.20627 -239.72756,270.60122 C -240.6268,272.66512 -217.70876,289.00883 -204.54385,295.69195 C -183.22713,306.51336 -163.19646,311.70725 -136.98143,313.21068 C -132.49662,313.46788 -128.62963,313.80041 -128.38817,313.94963 C -128.1467,314.09887 -127.91358,316.20092 -127.87022,318.62085 L -127.79137,323.02073 L -127.4478,318.23356 C -127.25874,315.60062 -127.07884,296.70999 -127.04794,276.2544 z M -127.23113,194.48522 L -127.23113,190.89484 L -131.30022,190.56605 C -139.5371,189.9005 -144.96816,188.2235 -151.55202,184.31271 C -163.88772,176.98533 -171.99112,162.47084 -171.99112,147.70312 C -171.99112,135.55458 -165.75389,122.52193 -156.28265,114.88031 C -149.32489,109.26661 -142.09735,106.32851 -132.97568,105.4057 C -130.07949,105.1127 -127.54826,104.77328 -127.35074,104.65144 C -127.15334,104.5296 -126.99177,103.06876 -126.99177,101.40512 C -126.99177,97.21683 -127.25204,97.06078 -133.08954,97.74883 C -146.19158,99.29307 -155.39997,103.68922 -163.8916,112.45386 C -170.98801,119.77846 -175.25051,127.42159 -177.809,137.40921 C -179.15827,142.67661 -179.233,143.43683 -179.01774,149.72518 C -178.73832,157.89044 -177.4431,163.12446 -173.86892,170.53156 C -166.93596,184.89911 -155.2209,193.9835 -139.67775,197.0449 C -134.39334,198.08572 -133.39128,198.19964 -130.10334,198.13343 L -127.23113,198.07559 L -127.23113,194.48522 z M -463.47539,134.16745 C -457.17176,132.9986 -450.3852,128.0023 -447.33967,122.28827 C -443.44801,114.98694 -443.45224,107.38219 -447.35177,100.06588 C -451.51851,92.24828 -461.06707,87.05252 -469.65117,87.93198 C -478.0522,88.7927 -485.14238,93.76742 -488.68354,101.28582 C -492.31035,108.98599 -491.76256,116.86108 -487.10455,123.98791 C -481.99885,131.79963 -472.58261,135.85616 -463.47539,134.16745 z M -471.00608,126.56113 C -478.26911,124.68473 -483.15601,118.55735 -483.15684,111.32609 C -483.15754,104.94441 -480.32316,100.02742 -474.91772,97.03271 C -472.59142,95.74395 -471.99756,95.63019 -467.59888,95.63053 C -463.33333,95.63086 -462.55088,95.76978 -460.4181,96.90563 C -450.80187,102.02692 -448.80939,114.65929 -456.41775,122.26766 C -457.4869,123.33678 -459.50335,124.73422 -460.8988,125.37309 C -463.64635,126.63097 -468.5188,127.2037 -471.00608,126.56113 z" id="path1379" style="fill:#000000"/>
    </g>
  </g>
</svg>