<svg xmlns="http://www.w3.org/2000/svg" width="800" height="600" xml:space="preserve">
  <path fill="#FF0018" style="fill:#e10000;fill-opacity:1" d="M0 0h800v600H0z"/>
  <path fill="#FFF" stroke="#323232" stroke-width="3" stroke-linecap="round" stroke-linejoin="round" d="M191.62 253.71c5.532 5.92 10.944 12.011 11.824 24.133v26.902h-26.989c-10.405.358-17.561-5.124-24.045-11.825v47.255c7.086-9.534 15.387-11.729 24.045-11.825h26.989v26.946c.358 10.405-5.124 17.604-11.824 24.089h47.254c-9.534-7.086-11.728-15.431-11.824-24.089V328.35h26.594c9.96.308 17.635 5.211 24.44 11.825V292.92c-5.92 5.532-12.01 10.945-24.133 11.825H227.05V278.15c.307-9.959 5.21-17.635 11.824-24.44H191.62zm0 137.82c5.532 5.92 10.944 12.01 11.824 24.133v26.901h-26.989c-10.405.358-17.561-5.124-24.045-11.824v47.254c7.086-9.534 15.387-11.729 24.045-11.824h26.989v26.945c.358 10.405-5.124 17.604-11.824 24.089h47.254c-9.534-7.086-11.728-15.43-11.824-24.089V466.17h26.594c9.96.307 17.635 5.21 24.44 11.824V430.74c-5.92 5.532-12.01 10.944-24.133 11.824H227.05V415.97c.307-9.96 5.21-17.635 11.824-24.44H191.62z"/>
  <g stroke="#323232">
    <path fill="none" stroke-width="2" d="M326.033 138.175c-6.25 1.502-14.136.021-17.085-4.599 1.07-1.852 3.845-2.283 5.857-2.879-4.325-.445-9.366-2.317-9.097-5.879.993-5.326 4.759-5.054 9.117-4.199-.96-2.239-1.209-3.534-.25-5.773 5.461-1 9.771-.418 13.991 1.699-1.481-8.128-1.236-14.753 3.395-19.805 3.188.759 5.763 2.042 6.193 4.929-.56-4.341 1.642-8.269 3.904-11.042 2.126 2.051 3.742 4.271 3.959 6.958l-4.544 11.382M93.199 137.053l2.789.602c6.25 1.502 13.487.54 16.437-4.079-1.071-1.852-4.286-2.47-6.299-3.065 4.325-.445 9.807-2.131 9.537-5.692-.993-5.326-5.019-5.508-9.117-4.199.96-2.239 1.08-4.118.12-6.358-5.461-1-9.823-.367-14.045 1.751 1.481-8.128 1.16-14.934-3.471-19.986-3.188.76-5.94 2.534-6.371 5.42.56-4.341-1.204-8.045-3.467-10.818-2.126 2.051-3.742 4.271-3.959 6.958l4.616 13.195"/>
    <path fill="#FFE402" stroke-width="2" stroke-miterlimit="10" d="m74.841 97.978 4.298 11.718 14.931 28.199c5.639.835 11.757 2.135 17.516-3.959-.192-2.163-2.918-2.494-5.759-3.479 4.999-.274 9.565-2.054 9.357-5.879-.778-3.947-4.465-4.687-9.478-3.479.94-2.159 1.163-4.439.24-6.238-8.071-.783-11.688.122-14.037 2.519 1.726-9.043.963-16.558-3.119-20.274-3.244-.18-4.629 2.118-5.998 4.438.581-4.337-1.197-7.252-3.479-10.317-2.05 1.445-4.31 3.734-4.472 6.751z"/>
    <g stroke-width="2">
      <path fill="none" d="M345.611 98.0723c-.217-2.687-1.832-4.907-3.959-6.958-2.262 2.773-4.398 5.856-3.839 10.197-.431-2.886-2.812-4.04-5.998-4.799-4.632 5.052-5.201 11.547-3.72 19.675-4.222-2.117-8.335-2.439-13.796-1.439-.96 2.239-.84 4.119.12 6.358-4.1-1.309-8.125-1.127-9.118 4.199-.27 3.562 3.473 5.434 7.798 5.879-2.013.596-3.488 1.027-4.559 2.879 2.949 4.619 10.187 5.581 16.436 4.079"/>
      <path fill="#FFE402" stroke-miterlimit="10" d="m346.125 98.4653-4.298 11.718-14.931 28.198c-5.639.836-11.757 2.136-17.516-3.959.191-2.163 2.917-2.493 5.759-3.479-4.999-.274-9.565-2.054-9.358-5.879.778-3.948 4.466-4.687 9.479-3.479-.941-2.16-1.164-4.439-.24-6.238 8.07-.783 11.688.122 14.036 2.519-1.726-9.044-.962-16.558 3.119-20.274 3.244-.18 4.63 2.118 5.999 4.438-.582-4.337 1.196-7.253 3.479-10.317 2.048 1.446 4.31 3.735 4.472 6.752z"/>
    </g>
    <path fill="none" stroke-width="2" d="M210.204 135.965c-9.361 2.852-18.707 3.031-25.162 3.076-.535-2.819 1.185-5.64 3.106-8.46-5.38-.274-8.485-.08-9.475-4.307.78-3.478 3.061-5.029 9.009-5.077-2.112-2.023-3.374-4.386-3.417-7.229 5.54-1.161 11.079-.021 16.619 1.23-2.736-7.332-1.84-14.664-1.863-21.997 3.231-1.697 4.733 1.172 6.834 2.461-.024-7.723 1.789-11.288 4.893-12.459 3.104 1.171 4.916 4.736 4.893 12.459 2.101-1.289 3.603-4.158 6.834-2.461-.023 7.333.873 14.665-1.864 21.997 5.54-1.251 11.08-2.392 16.62-1.23-.043 2.844-1.305 5.206-3.417 7.229 5.948.048 8.228 1.6 9.009 5.077-.989 4.227-4.096 4.032-9.475 4.307 1.922 2.82 3.642 5.641 3.106 8.46-6.455-.045-16.888-.072-26.25-3.076z"/>
    <path fill="#FFE301" stroke-miterlimit="10" d="M210.302 135.716c-8.959 2.756-17.902 2.929-24.079 2.974-.513-2.726 1.134-5.45 2.973-8.176-5.148-.266-8.12-.077-9.066-4.161.747-3.36 2.929-4.86 8.621-4.905-2.022-1.956-3.229-4.238-3.271-6.986 5.302-1.122 10.603-.02 15.904 1.189-2.619-7.085-1.762-14.171-1.783-21.256 3.092-1.641 4.529 1.132 6.54 2.379-.023-7.463 1.712-10.908 4.682-12.04 2.97 1.132 4.705 4.577 4.682 12.04 2.011-1.247 3.448-4.02 6.54-2.379-.021 7.085.836 14.171-1.783 21.256 5.302-1.209 10.603-2.312 15.904-1.189-.041 2.748-1.248 5.03-3.271 6.986 5.692.045 7.874 1.545 8.621 4.905-.946 4.084-3.919 3.896-9.066 4.161 1.839 2.726 3.485 5.45 2.973 8.176-6.178-.046-16.163-.07-25.121-2.974z"/>
    <path fill="none" stroke-width="2" d="M173.064 166.624c-9.362 2.852-18.708 3.031-25.162 3.077-.536-2.82 1.184-5.64 3.105-8.46-5.379-.275-8.485-.08-9.474-4.307.78-3.477 3.06-5.029 9.009-5.077-2.113-2.024-3.374-4.385-3.417-7.229 5.54-1.161 11.08-.02 16.62 1.231-2.737-7.333-1.84-14.665-1.864-21.998 3.232-1.698 4.734 1.172 6.835 2.462-.025-7.724 1.789-11.289 4.892-12.461 3.103 1.172 4.916 4.737 4.892 12.461 2.101-1.29 3.603-4.16 6.835-2.462-.024 7.333.873 14.665-1.864 21.998 5.54-1.251 11.08-2.392 16.62-1.231-.043 2.844-1.305 5.206-3.417 7.229 5.948.048 8.228 1.6 9.009 5.077-.989 4.227-4.095 4.032-9.475 4.307 1.923 2.82 3.643 5.64 3.107 8.46-6.456-.046-16.889-.071-26.251-3.077z" transform="matrix(.94874 0 0 .95598 -20.80651 -10.96514)"/>
    <path fill="#FFE301" stroke-miterlimit="10" d="M173.162 166.376c-8.959 2.755-17.903 2.929-24.08 2.973-.513-2.725 1.134-5.45 2.974-8.175-5.149-.266-8.12-.077-9.067-4.162.747-3.36 2.928-4.859 8.621-4.905-2.022-1.955-3.229-4.237-3.27-6.985 5.302-1.123 10.603-.019 15.905 1.189-2.62-7.085-1.762-14.171-1.784-21.255 3.092-1.641 4.53 1.131 6.539 2.378-.023-7.463 1.713-10.908 4.682-12.04 2.97 1.132 4.705 4.576 4.682 12.04 2.009-1.247 3.447-4.019 6.54-2.378-.023 7.084.835 14.17-1.784 21.255 5.301-1.208 10.602-2.312 15.904-1.189-.041 2.748-1.249 5.03-3.27 6.985 5.692.046 7.874 1.546 8.621 4.905-.946 4.085-3.919 3.896-9.066 4.162 1.839 2.725 3.485 5.45 2.973 8.175-6.177-.044-16.162-.07-25.12-2.973z" transform="matrix(.94874 0 0 .95598 -20.80651 -10.96514)"/>
    <path fill="none" stroke-width="2" d="M213.416 166.624c-9.362 2.852-18.708 3.031-25.163 3.077-.535-2.82 1.185-5.64 3.107-8.46-5.379-.275-8.485-.08-9.474-4.307.78-3.477 3.06-5.029 9.009-5.077-2.113-2.024-3.374-4.385-3.417-7.229 5.54-1.161 11.08-.02 16.62 1.231-2.737-7.333-1.84-14.665-1.864-21.998 3.232-1.698 4.734 1.172 6.835 2.462-.025-7.724 1.789-11.289 4.892-12.461 3.103 1.172 4.916 4.737 4.892 12.461 2.1-1.29 3.603-4.16 6.834-2.462-.023 7.333.873 14.665-1.863 21.998 5.54-1.251 11.08-2.392 16.619-1.231-.043 2.844-1.305 5.206-3.417 7.229 5.948.048 8.228 1.6 9.009 5.077-.989 4.227-4.095 4.032-9.475 4.307 1.922 2.82 3.643 5.64 3.107 8.46-6.456-.046-16.889-.071-26.251-3.077z" transform="matrix(.94874 0 0 .95598 73.33999 -10.96514)"/>
    <path fill="#FFE301" stroke-miterlimit="10" d="M213.514 166.376c-8.959 2.755-17.903 2.929-24.08 2.973-.513-2.725 1.134-5.45 2.973-8.175-5.148-.266-8.119-.077-9.066-4.162.746-3.36 2.928-4.859 8.621-4.905-2.022-1.955-3.229-4.237-3.27-6.985 5.302-1.123 10.603-.019 15.904 1.189-2.619-7.085-1.761-14.171-1.783-21.255 3.092-1.641 4.53 1.131 6.539 2.378-.023-7.463 1.713-10.908 4.682-12.04 2.97 1.132 4.705 4.576 4.682 12.04 2.009-1.247 3.447-4.019 6.539-2.378-.022 7.084.836 14.17-1.783 21.255 5.301-1.208 10.602-2.312 15.904-1.189-.041 2.748-1.249 5.03-3.27 6.985 5.692.046 7.874 1.546 8.621 4.905-.947 4.085-3.919 3.896-9.066 4.162 1.839 2.725 3.485 5.45 2.973 8.175-6.177-.044-16.162-.07-25.12-2.973z" transform="matrix(.94874 0 0 .95598 73.33999 -10.96514)"/>
    <path fill="#FFE200" stroke-width="2" d="M209.711 105.016c-1.474 3.772-.96 19.755-13.896 20.873 3.691 2.225 6.974 4.313 8.946 5.964 1.298 4.055 1.646 7.95-.497 11.431-13.428 23.631-43.01 19.934-55.663 5.467 2.059-3.786 5.809-6.361 9.595-9.572-7.884-2.971-11.117-12.793-13.44-19.253-2.298 6.758-4.207 15.615-13.549 18.886 3.73 2.96 7.465 5.92 8.946 9.442-6.868 6.367-16.457 15.839-26.838 14.91-15.53-.079-27.066-25.607-12.425-36.777-13.292-2.104-16.049-10.982-21.867-17.892l32.305 110.332c32.921-5.65 66.406-8.483 99.139-8.371 32.732-.112 66.218 2.721 99.14 8.371l32.304-110.332c-5.818 6.909-8.575 15.787-21.867 17.892 14.643 11.17 3.105 36.698-12.425 36.777-10.381.929-19.97-8.543-26.838-14.91 1.481-3.522 5.216-6.482 8.946-9.442-9.342-3.271-11.251-12.128-13.548-18.886-2.323 6.46-5.558 16.282-13.441 19.253 3.786 3.211 7.536 5.786 9.595 9.572-12.653 14.467-42.234 18.164-55.663-5.467-2.144-3.48-1.795-7.376-.497-11.431 1.974-1.651 5.255-3.739 8.946-5.964-12.937-1.119-12.423-17.101-15.408-20.873z"/>
    <path fill="none" stroke-width="2" stroke-linecap="round" stroke-linejoin="round" d="m144.744 185.448 19.168-1.621c4.604-.389 8.822 3.089 9.425 7.769h0c.603 4.68-2.64 8.788-7.243 9.178l-19.168 1.62c-4.603.389-8.822-3.089-9.425-7.769h0c-.603-4.679 2.64-8.788 7.243-9.177zM278.703 185.447l-19.168-1.62c-4.604-.39-8.822 3.089-9.425 7.769h0c-.603 4.679 2.64 8.788 7.243 9.177l19.168 1.621c4.603.389 8.822-3.089 9.425-7.769h0c.603-4.68-2.641-8.788-7.243-9.178z"/>
    <path fill="none" stroke-width="2" d="M191.76 190.574c-.117 0-.234 0 0 0zM192.112 190.925l18.274-10.894 18.273 10.894-18.977 10.191-17.57-10.191zM103.553 188.816l17.571 8.435-10.895 13.003M317.219 188.816l-17.571 8.435 10.894 13.003"/>
    <path fill="#FFE200" stroke-width="2" d="M307.38 218.336c-65.817 20.928-134.603 19.061-196.095.352 63.386-10.475 130.027-10.773 196.095-.352z"/>
    <path fill="none" stroke-width="2" d="M109.837 211.868c67.876-10.237 134.563-10.962 199.789 0M101.885 183.043c73.063-10.688 145.447-10.519 217.185 0"/>
    <path fill="none" stroke-width="2" d="M99.896 176.582c73.224-11.364 147.44-10.502 221.161-.497"/>
    <path fill="none" stroke-width="2" d="M92.298 123.577c-4.543 6.706-7.449 41.859 20.314 46.681 12.987.73 23.565-6.013 30.688-16.425 7.096 7.313 15.776 13.903 31.12 13.399 17.249-.51 29.699-8.161 35.447-21.611 5.748 13.45 18.197 21.102 35.446 21.611 15.345.504 24.025-6.087 31.121-13.399 7.122 10.412 17.7 17.155 30.688 16.425 29.892-5.672 24.857-37.422 20.315-46.681"/>
    <path fill="none" stroke-width="2" stroke-linecap="round" stroke-linejoin="round" d="M216.802 126.143c0 3.35-2.773 6.065-6.195 6.065-3.422.001-6.197-2.714-6.197-6.063-.001-3.35 2.773-6.064 6.195-6.065 3.403-.001 6.17 2.686 6.197 6.016M282.334 138.909c0 3.35-2.773 6.065-6.195 6.065-3.423.001-6.197-2.714-6.197-6.063-.001-3.35 2.772-6.064 6.195-6.065 3.402 0 6.17 2.686 6.197 6.016M150.845 138.909c.001 3.35-2.773 6.065-6.195 6.065-3.422.001-6.196-2.714-6.197-6.063s2.773-6.064 6.195-6.065c3.403 0 6.17 2.686 6.197 6.016"/>
  </g>
  <path fill="#A1B2B1" d="M1029.738-500.026c-.086.042-.122.147-.078.233.055.114 1.409 2.801 5.34 5.249.083.051.19.025.241-.057.052-.082.026-.19-.056-.24-3.84-2.392-5.199-5.08-5.213-5.106-.042-.085-.146-.121-.234-.079zM1030.627-522.401c-.322.322-4.926 2.239-7.752 3.372-.09.034-.133.137-.098.228.036.089.139.133.228.097.755-.303 7.391-2.97 7.87-3.447.068-.069.068-.181 0-.249-.071-.068-.18-.068-.248-.001z"/>
</svg>