<?xml version="1.0" encoding="UTF-8"?>
<!-- Generator: Adobe Illustrator 13.0.1, SVG Export Plug-In . SVG Version: 6.00 Build 14948)  -->
<!DOCTYPE svg PUBLIC "-//W3C//DTD SVG 1.1//EN" "http://www.w3.org/Graphics/SVG/1.1/DTD/svg11.dtd">
<svg version="1.1" id="svg2" xmlns:svg="http://www.w3.org/2000/svg" xmlns="http://www.w3.org/2000/svg" xmlns:xlink="http://www.w3.org/1999/xlink" x="0px" y="0px" width="779.497px" height="443.389px" viewBox="0 0 779.497 443.389" enable-background="new 0 0 779.497 443.389" xml:space="preserve">
<rect x="0.551" y="0.547" fill="#FCFEFB" width="778.399" height="320.162"/>
<rect x="0.551" y="289.024" fill="#007CBA" width="778.399" height="19.51"/>
<rect x="0.551" y="319.538" fill="#007CBA" width="778.399" height="123.3"/>
<g>
	<g id="g11_1_" transform="matrix(61.986054,0,0,61.986054,-214.27153,-484.53755)">
		<path id="_156457552_1_" fill="#E02A2C" d="M8.058,8.372v1.962c0,0.811-0.661,1.472-1.471,1.472c-0.811,0-1.472-0.661-1.472-1.472    V8.372H8.058L8.058,8.372z"/>
	</g>
	<g id="g28_1_" transform="matrix(61.986054,0,0,61.986054,-214.27153,-484.53755)">
		<path id="path30_1_" fill="#FFFFFF" d="M6.589,8.384c0.115,0,0.211,0.098,0.211,0.218c0,0.087-0.051,0.165-0.121,0.199    l0.008,0.476c0.141-0.01,0.53,0.08,0.684,0.195l-0.143,0.22c-0.166-0.177-0.52-0.381-0.647-0.238    C6.468,9.338,6.185,9.467,5.936,9.69L5.795,9.479C6.003,9.377,6.249,9.289,6.48,9.285l0.012-0.488    C6.425,8.76,6.378,8.687,6.378,8.601C6.378,8.481,6.472,8.384,6.589,8.384L6.589,8.384z"/>
	</g>
	<path fill="#FFFFFF" d="M194.535,102.24l-0.46,16.91c-0.128,0.255-0.383,0.255-0.613,0l-0.459-16.757   c-2.171-2.043-5.39-2.631-9.221-2.069l0.459,145.063c7.714,0.996,11.904,0.996,19.618,0.025l0.511-145.345   C200.359,99.404,196.859,99.941,194.535,102.24z"/>
	<path fill="#F5E12A" d="M216.759,130.258c-0.456,2.055-0.065,4.052,1.794,5.211c-1.893,1.374-4.028,2.407-5.812,3.93   c-1.032-0.493-2.042-0.997-2.973-1.478C211.002,134.616,213.884,132.169,216.759,130.258z"/>
	<g>
		<path fill="#F5E12A" d="M156.786,145.541l0.358-0.889c-0.297-0.75-0.425-1.962-0.925-2.153c-1.505,1.741-2.835,1.008-3.624-0.494    c-1.545,2.323-2.391,1.979-2.945-0.04c-0.914,1.661-2.249,1.777-2.678-0.222h8.729c0.324-0.145,0.15-0.25,0-0.407h-9.751    c-1.229-0.401-1.408-1.567-0.83-3.282c1.633-5.383,4.979-10.097,9.93-12.838c4.13-2.222,8.784-3.082,13.734-3.171    c6.426,10.421,8.324,21.164-1.056,30.272l-13.97-0.721c-2.466-0.153-7.153-0.794-7.772-3.878h9.715c0.324-0.145,0.15-0.25,0-0.407    h-9.67c0.313-1.059,1.712-0.985,2.171-0.42c1.044-1.543,1.825-3.082,2.938-0.393c1.083-1.985,1.907-1.901,2.938-0.137    C154.493,145.033,155.648,145.242,156.786,145.541L156.786,145.541z"/>
		<path fill="#E02A2C" d="M163.141,127.244c2.061,0,3.757,1.766,3.757,3.911c0,2.271-1.697,4.038-3.757,4.038    s-3.757-1.767-3.757-4.038C159.383,129.01,161.08,127.244,163.141,127.244L163.141,127.244z"/>
		<path fill="#F5E12A" d="M170.095,122.079c11.401,0.186,22.255,4.855,31.033,10.821l3.134,1.916    c1.757-7.31,6.475-11.659,13.158-14.043c-2.203,2.686-2.95,5.7-0.038,7.881l-0.015,0.038c-3.602,1.964-7.002,4.847-8.586,8.712    c-1.936-1.025-3.385-1.872-3.733-2.154c-0.623-0.482-1.171,0.386-0.668,0.896c5.301,2.94,10.804,6.524,16.891,7.564    c0.768,0.058,0.798-0.987,0.094-1.136c-2.65-0.431-5.13-1.557-7.555-2.673c1.696-1.169,3.481-2.2,5.177-3.369l0.002,0.005    c0.087,1.041,1.448,5.25,2.863,5.883c1.068,0.477,2.788,0.13,4.182,0.196c5.162,0.112,8.19-3.874,4.294-7.177    c-2.993-2.277-5.504-4.746-9.682-6.55l0.339-1.176c3.32,0.509,4.859-0.547,6.517-3.569c4.147,1.512,6.077,0.29,8.966-3.02    c3.458,2.745,6.373,0.753,9.042-1.726l0.942,0.667c-2.25,3.761-4.177,7.702-5.99,11.687c-0.971,2.786-0.681,5.781-1.055,8.667    c-1.349,12.16-19.507,11.649-29.761,11.765c-10.009-0.135-20.018-0.216-30.025-0.274l3.428,2.432    c-0.439,1.033-0.879,2.065-1.318,3.098c-0.014,0.043-0.028,0.084-0.043,0.127c-1.683-1.509-3.45-2.981-4.869-4.749    c-0.406-0.68-1.224-0.083-0.933,0.581c1.64,1.938,3.497,3.708,5.457,5.324c-0.299,1.159-0.404,2.222-0.29,3.62l-0.904,0.667    c-5.742-4.239-8.727-6.097-7.572-10.471l-3.321-0.151C178.234,143.779,175.944,131.8,170.095,122.079L170.095,122.079z"/>
		<path fill="#E02A2C" d="M228.315,124.912c1.989,3.018,4.553,5.691,6.124,8.968c0.24,0.739-0.731,1.038-1.035,0.354    c-1.629-3.133-4.036-5.773-5.997-8.697C226.989,124.894,227.845,124.331,228.315,124.912L228.315,124.912z"/>
		<path fill="#E02A2C" d="M237.125,122.484c0.222,3.683,0.322,7.377,0.372,11.068c-0.002,0.786-1.01,0.738-1.09,0    c-0.163-3.622-0.031-7.272-0.355-10.886C235.927,121.895,236.929,121.766,237.125,122.484z"/>
		<path fill="#E02A2C" d="M187.179,126.271c0.189,0.434,0.728,1.461,1.375,2.684c1.043-0.412,2.046-0.782,2.784-1.024    c0.741-0.228,0.978,0.782,0.328,1.082c-0.689,0.227-1.612,0.565-2.579,0.945c0.809,1.523,1.681,3.168,2.252,4.338    c1.323-0.77,2.67-1.498,4.025-2.209c-0.196-0.657-0.37-1.236-0.503-1.68c-0.226-0.743,0.749-1.026,1.04-0.337    c0.123,0.41,0.279,0.932,0.453,1.51c0.411-0.206,0.758-0.372,1-0.477c0.721-0.295,1.037,0.689,0.417,1.047    c-0.257,0.111-0.638,0.295-1.092,0.524c0.357,1.2,0.707,2.401,1.042,3.607c1.145-0.558,2.322-1.047,3.516-1.49    c-0.061-0.224-0.118-0.409-0.173-0.539c-0.308-0.709,0.629-1.109,0.997-0.457c0.07,0.163,0.141,0.388,0.213,0.656    c0.14-0.04,0.27-0.073,0.387-0.099c0.757-0.155,0.903,0.873,0.226,1.108c-0.108,0.024-0.228,0.054-0.357,0.091    c0.334,1.537,0.527,3.1,0.815,4.645c0.183,0.757-0.805,0.973-1.056,0.27c-0.27-1.523-0.504-3.051-0.799-4.57    c-1.186,0.437-2.335,0.938-3.474,1.48c0.089,0.347,0.157,0.633,0.196,0.834c0.149,0.766-0.85,0.936-1.069,0.222    c-0.026-0.138-0.069-0.322-0.124-0.542c-0.185,0.106-0.305,0.19-0.341,0.24c-0.474,0.635-1.223-0.051-0.869-0.679    c0.111-0.153,0.448-0.385,0.922-0.654c-0.333-1.209-0.686-2.412-1.041-3.615c-1.306,0.688-2.602,1.394-3.881,2.129    c0.075,0.181,0.128,0.325,0.151,0.424c0.223,0.637-0.931,0.929-1.093,0.158c-0.89,0.526-1.298-0.651-0.462-1.025    c-0.558-1.138-1.485-2.886-2.332-4.48c-0.003-0.006-0.007-0.014-0.01-0.02c-1.251,0.526-2.517,1.033-3.701,1.702    c0.476,1.069,0.813,1.976,0.882,2.51c0.1,0.776-0.904,0.87-1.078,0.146c-1.186-3.653-3.161-7.054-5.077-10.372    c-0.399-0.656,0.471-1.194,0.925-0.599c1.374,2.39,2.683,4.818,3.88,7.302c1.167-0.655,2.403-1.178,3.639-1.69    c-0.628-1.187-1.146-2.181-1.344-2.632C185.873,126.03,186.806,125.622,187.179,126.271L187.179,126.271z"/>
		<g id="g3231_3_">
			<g id="g34_3_" transform="matrix(61.986054,0,0,61.986054,-214.27153,-484.53755)">
				<path id="path36_3_" fill="#F5E12A" d="M6.045,9.926c-0.006,0.008,0.002,0.03,0.008,0.037c0.006,0.008,0.027-0.01,0.027-0.01      S6.047,9.926,6.045,9.926z"/>
			</g>
		</g>
	</g>
	<g>
		<path fill="#F5E12A" d="M231.321,190.116c1.137-0.298,2.292-0.507,2.707,0.823c1.031-1.764,1.856-1.848,2.938,0.137    c1.114-2.689,1.895-1.15,2.938,0.393c0.458-0.565,1.858-0.639,2.171,0.42h-9.669c-0.15,0.157-0.325,0.263,0,0.407h9.714    c-0.619,3.084-5.306,3.726-7.772,3.879l-13.969,0.721c-9.38-9.108-7.481-19.852-1.055-30.273c4.95,0.089,9.604,0.95,13.734,3.171    c4.95,2.742,8.296,7.456,9.93,12.838c0.577,1.715,0.399,2.881-0.831,3.282h-9.75c-0.151,0.156-0.325,0.263,0,0.407h8.729    c-0.429,1.999-1.763,1.882-2.679,0.221c-0.554,2.019-1.399,2.363-2.944,0.041c-0.789,1.501-2.121,2.234-3.625,0.493    c-0.5,0.191-0.628,1.403-0.926,2.153L231.321,190.116L231.321,190.116z"/>
		<path fill="#E02A2C" d="M224.965,171.82c2.061,0,3.757,1.767,3.757,3.911c0,2.271-1.696,4.038-3.757,4.038    s-3.757-1.767-3.757-4.038C221.208,173.587,222.905,171.82,224.965,171.82L224.965,171.82z"/>
		<path fill="#F5E12A" d="M218.011,166.655c-5.85,9.722-8.14,21.701,0.84,30.311l-3.321,0.15c1.154,4.375-1.829,6.232-7.572,10.471    l-0.903-0.666c0.114-1.398,0.008-2.462-0.29-3.621c1.959-1.615,3.816-3.386,5.456-5.323c0.292-0.663-0.526-1.261-0.933-0.581    c-1.419,1.768-3.186,3.24-4.87,4.749c-0.013-0.042-0.028-0.084-0.042-0.126c-0.439-1.033-0.879-2.066-1.318-3.1l3.428-2.431    c-10.007,0.058-20.016,0.14-30.025,0.274c-10.254-0.116-28.411,0.395-29.761-11.766c-0.375-2.886-0.084-5.881-1.055-8.667    c-1.813-3.985-3.74-7.927-5.99-11.687l0.942-0.667c2.669,2.479,5.583,4.471,9.041,1.726c2.89,3.309,4.819,4.532,8.966,3.019    c1.658,3.022,3.197,4.079,6.517,3.569l0.339,1.176c-4.178,1.803-6.688,4.273-9.682,6.551c-3.896,3.303-0.868,7.288,4.294,7.176    c1.395-0.065,3.113,0.282,4.181-0.196c1.416-0.633,2.776-4.842,2.863-5.882l0.002-0.006c1.696,1.168,3.481,2.199,5.177,3.368    c-2.425,1.116-4.904,2.242-7.555,2.673c-0.704,0.148-0.674,1.193,0.094,1.136c6.087-1.04,11.59-4.625,16.892-7.563    c0.502-0.511-0.047-1.378-0.669-0.896c-0.349,0.283-1.798,1.129-3.734,2.155c-1.584-3.865-4.984-6.748-8.586-8.713l-0.015-0.038    c2.912-2.181,2.166-5.194-0.038-7.881c6.683,2.384,11.4,6.733,13.158,14.043l3.133-1.916    C195.756,171.51,206.609,166.841,218.011,166.655L218.011,166.655z"/>
		<path fill="#E02A2C" d="M159.792,169.489c0.47-0.582,1.326-0.019,0.907,0.625c-1.961,2.924-4.367,5.565-5.997,8.697    c-0.303,0.684-1.275,0.384-1.036-0.354C155.238,175.18,157.802,172.507,159.792,169.489L159.792,169.489z"/>
		<path fill="#E02A2C" d="M152.055,167.243c-0.324,3.614-0.193,7.264-0.355,10.886c-0.08,0.738-1.089,0.787-1.091,0    c0.05-3.69,0.15-7.384,0.372-11.067C151.177,166.342,152.179,166.471,152.055,167.243z"/>
		<path fill="#E02A2C" d="M200.927,170.847c0.372-0.649,1.306-0.241,0.993,0.466c-0.197,0.451-0.715,1.445-1.344,2.631    c1.236,0.512,2.472,1.035,3.639,1.69c1.197-2.483,2.506-4.912,3.88-7.302c0.455-0.595,1.324-0.057,0.924,0.599    c-1.915,3.319-3.891,6.72-5.076,10.373c-0.174,0.724-1.178,0.63-1.079-0.146c0.068-0.534,0.406-1.44,0.882-2.51    c-1.184-0.668-2.45-1.176-3.702-1.702c-0.003,0.006-0.006,0.013-0.01,0.02c-0.847,1.595-1.775,3.342-2.332,4.48    c0.835,0.375,0.428,1.553-0.462,1.025c-0.163,0.771-1.316,0.48-1.093-0.158c0.024-0.099,0.077-0.243,0.151-0.424    c-1.279-0.735-2.576-1.441-3.881-2.129c-0.355,1.202-0.708,2.405-1.042,3.614c0.475,0.269,0.813,0.501,0.922,0.654    c0.354,0.627-0.395,1.313-0.868,0.679c-0.037-0.05-0.157-0.134-0.341-0.241c-0.054,0.221-0.097,0.405-0.124,0.542    c-0.218,0.715-1.218,0.544-1.069-0.221c0.039-0.201,0.107-0.488,0.196-0.834c-1.139-0.541-2.289-1.043-3.474-1.48    c-0.295,1.52-0.53,3.048-0.799,4.571c-0.251,0.703-1.24,0.487-1.057-0.27c0.289-1.545,0.482-3.108,0.816-4.645    c-0.13-0.037-0.25-0.068-0.357-0.092c-0.677-0.235-0.531-1.263,0.226-1.108c0.117,0.026,0.248,0.06,0.387,0.099    c0.073-0.269,0.144-0.494,0.213-0.656c0.367-0.653,1.304-0.253,0.997,0.456c-0.056,0.13-0.113,0.315-0.173,0.54    c1.193,0.443,2.371,0.932,3.516,1.489c0.335-1.206,0.686-2.407,1.042-3.607c-0.455-0.229-0.835-0.412-1.092-0.524    c-0.619-0.357-0.304-1.341,0.417-1.046c0.243,0.105,0.59,0.271,1.001,0.477c0.173-0.578,0.33-1.101,0.452-1.51    c0.292-0.69,1.266-0.405,1.04,0.337c-0.133,0.443-0.307,1.022-0.503,1.679c1.355,0.712,2.702,1.439,4.025,2.209    c0.571-1.171,1.443-2.815,2.252-4.338c-0.967-0.38-1.89-0.718-2.579-0.945c-0.65-0.301-0.414-1.311,0.328-1.082    c0.738,0.242,1.74,0.611,2.784,1.023C200.2,172.309,200.738,171.28,200.927,170.847L200.927,170.847z"/>
		<g id="g3231_2_">
			<g id="g34_2_" transform="matrix(61.986054,0,0,61.986054,-214.27153,-484.53755)">
				<path id="path36_2_" fill="#F5E12A" d="M7.094,10.671c0,0,0.021,0.018,0.027,0.01c0.006-0.006,0.014-0.028,0.008-0.037      C7.128,10.645,7.094,10.671,7.094,10.671z"/>
			</g>
		</g>
	</g>
</g>
</svg>