<?xml version="1.0" encoding="UTF-8" standalone="no"?>
<!-- Created with Inkscape (http://www.inkscape.org/) -->
<svg xmlns:svg="http://www.w3.org/2000/svg" xmlns="http://www.w3.org/2000/svg" version="1.0" width="737" height="908" id="svg2">
  <defs id="defs4"/>
  <path d="M 245.73832,701.34348 C 126.31461,701.39099 30.674539,701.53705 30.34265,701.74739 C 30.334585,701.75306 30.313746,701.778 30.305931,701.78411 C 29.844514,702.1844 29.839592,703.4659 30.269211,708.32015 C 32.818107,737.11906 40.465042,757.7288 55.054768,775.07592 C 72.373503,795.66777 97.949927,806.83821 132.71618,809.00459 C 137.50226,809.30285 167.89026,809.51728 209.82681,809.51866 C 280.97431,809.5209 283.82738,809.59363 295.236,811.50151 C 330.12988,817.33671 358.58362,833.38584 370.65753,854.05923 C 371.66129,855.7778 372.74622,857.19247 373.15445,857.36397 C 373.16087,857.36613 373.18511,857.36252 373.19117,857.36397 C 373.19683,857.3647 373.22262,857.36397 373.22789,857.36397 C 373.2308,857.36349 373.26154,857.3647 373.2646,857.36397 C 373.30634,857.34665 373.38766,857.30384 373.4482,857.25381 C 374.01958,856.75675 375.32565,854.99068 376.60606,852.92093 C 389.68909,831.77251 417.05721,815.6161 451.32993,808.821 C 463.65848,806.37664 459.651,806.52925 531.48826,806.1772 C 602.68924,805.82829 600.26012,805.8989 613.59271,803.57013 C 640.00022,798.9576 661.16606,788.48894 677.99844,771.69774 C 692.20528,757.52564 701.72947,740.45582 707.66767,718.56485 C 708.70382,714.74513 709.93181,709.51069 710.3849,706.92482 C 710.93194,703.80289 711.05968,702.64368 710.82553,702.11458 C 710.7899,702.04242 710.72936,701.94704 710.67865,701.89427 C 710.64091,701.85808 710.57711,701.81454 710.53178,701.78411 C 709.97763,701.43352 444.77785,701.26427 245.73832,701.34348 z" id="path1387" style="fill:#3466b9"/>
  <path d="M 29.571544,558.57331 C 29.571544,558.57331 29.301771,682.53253 29.304373,682.53253 L 712.06615,682.91649 L 711.74352,558.57331 L 29.571544,558.57331 z" id="path1385" style="fill:#634632"/>
  <path d="M 728.45082,9.9442328 L 14.775769,10.213606 C 14.775769,10.213606 14.646563,512.91571 14.775769,515.0119 C 14.776762,515.01385 14.774521,515.04846 14.775769,515.05038 C 14.789456,515.06166 14.829404,515.07801 14.852732,515.08886 L 728.18144,515.39672 L 728.45082,9.9442328 z" id="path1391" style="fill:#f4c204"/>
  <path d="M 369.91809,902.38789 C 357.30779,877.73493 338.66447,858.56074 317.75598,848.7406 C 309.20492,844.72439 301.77228,842.37251 290.44471,840.09851 C 288.34425,839.67685 266.17506,839.44075 205.97556,839.1989 C 117.2691,838.8425 122.7759,839.0147 107.35986,836.11524 C 86.913599,832.26971 68.531649,824.27878 52.307393,812.18308 C 46.730838,808.02557 37.681852,799.33249 32.582622,793.23407 C 25.098268,784.28322 17.307633,771.38433 12.776913,760.44196 C 6.0800556,744.26807 1.8626544,725.06846 1.2323389,707.88558 C 1.0702098,703.46593 0.7552342,699.73716 0.5324036,699.59942 C 0.3095612,699.4617 0.1272335,541.9955 0.1272335,349.67452 L 0.1272335,0 L 368.49996,0 L 736.87277,0 L 736.87277,352.54682 C 736.87277,546.44756 736.68946,705.20688 736.46562,705.34527 C 736.24166,705.48362 735.919,707.24712 735.74851,709.2641 C 733.93827,730.67955 725.4638,754.56016 713.1704,772.8886 C 690.21805,807.10869 654.58983,828.05064 608.3372,834.50867 C 601.41798,835.47477 598.64576,835.52288 532.22123,835.82864 C 457.14892,836.17418 462.15156,835.98456 451.07865,838.90488 C 427.95428,845.00368 404.64026,862.29694 386.37271,886.90079 C 382.51618,892.09507 375.95076,902.26498 374.41994,905.41591 C 373.82362,906.64322 373.17207,907.64739 372.97208,907.64739 C 372.7721,907.64739 371.39779,905.28067 369.91809,902.38789 z M 376.59643,852.92204 C 389.67944,831.77366 417.04528,815.62568 451.318,808.83058 C 463.64654,806.38625 459.66581,806.51848 531.50306,806.16643 C 602.70404,805.81753 600.27046,805.89461 613.60305,803.56584 C 640.01054,798.9533 661.16265,788.483 677.99503,771.69181 C 692.20183,757.51968 701.73782,740.44873 707.67601,718.55776 C 708.71214,714.73804 709.93064,709.49713 710.38372,706.91126 C 711.09825,702.83364 711.11588,702.15165 710.51638,701.77237 C 709.62971,701.2114 31.245004,701.18264 30.359968,701.74355 C 29.827672,702.08091 29.810482,703.22561 30.261231,708.31859 C 32.810129,737.11748 40.464003,757.72567 55.05373,775.07279 C 72.372457,795.66461 97.965607,806.8474 132.73186,809.01378 C 137.51793,809.31202 167.90529,809.50687 209.84183,809.50825 C 280.98934,809.5105 283.84025,809.57647 295.24888,811.48435 C 330.14276,817.31957 358.59079,833.37579 370.6647,854.04918 C 371.73538,855.88233 372.88713,857.38219 373.22424,857.38219 C 373.56136,857.38219 375.07889,855.37508 376.59643,852.92204 z M 711.74005,620.6566 L 711.74005,559.85953 L 370.65424,559.85953 L 29.568334,559.85953 L 29.445192,620.17788 C 29.377464,653.35296 29.424617,680.76564 29.54998,681.09495 C 29.732143,681.57348 98.224837,681.6696 370.75894,681.57366 L 711.74005,681.45366 L 711.74005,620.6566 z M 116.21439,666.67059 C 115.16026,666.37584 113.48925,665.7469 112.50105,665.27293 C 111.51284,664.79895 107.65487,663.66238 103.92779,662.74722 C 96.789837,660.99453 93.043544,659.34612 91.765546,657.39569 C 90.123246,654.88922 76.82196,649.61898 72.138299,649.61898 C 70.776288,649.61898 69.900922,649.32351 69.301862,648.66155 C 68.825298,648.13495 67.923306,647.70411 67.297421,647.70411 C 63.898944,647.70411 58.073117,642.75533 57.092564,639.0355 C 56.787741,637.87911 55.565439,635.10189 54.376343,632.86387 C 52.389221,629.12391 52.233367,628.58185 52.449335,626.16185 C 52.926722,620.81266 55.854587,614.50987 59.440358,611.11237 C 60.256526,610.33905 60.924301,609.30162 60.924301,608.80701 C 60.924301,608.31236 61.173417,607.44219 61.477888,606.87328 C 62.170773,605.57859 62.835693,603.10698 63.243236,600.31112 C 63.55088,598.20056 63.596059,598.15407 65.472118,598.01792 C 68.599753,597.79092 73.000904,596.118 76.476963,593.8349 C 78.26956,592.65754 80.01874,591.69422 80.364031,591.69422 C 80.709323,591.69422 81.767122,590.85628 82.714704,589.83215 C 83.662275,588.80798 85.682132,587.41152 87.203265,586.72887 C 89.738533,585.5911 101.50155,582.11988 102.82182,582.11988 C 103.13238,582.11988 104.22663,581.51684 105.25349,580.77981 C 106.60636,579.80883 108.15104,579.28186 110.86265,578.86632 C 113.08102,578.52639 115.4202,577.81683 116.60726,577.12375 C 117.70861,576.48074 120.52072,575.40243 122.85641,574.72753 C 125.67511,573.91304 127.64921,573.02096 128.72716,572.07453 C 131.65135,569.50703 133.08774,569.01855 138.33699,568.80628 L 143.22404,568.60867 L 144.27198,570.76567 C 145.68464,573.67335 145.30849,574.4604 142.50609,574.4604 C 141.23227,574.4604 139.53874,574.85434 138.54165,575.38256 C 137.58426,575.88971 135.53846,576.68069 133.9954,577.14027 C 132.45234,577.59978 129.88345,578.82018 128.28673,579.85215 C 126.69002,580.88417 124.8554,581.92935 124.20981,582.17484 C 123.56422,582.42027 121.28612,583.87481 119.14735,585.40714 C 109.17438,592.55223 108.03204,593.17877 103.84359,593.80077 C 101.66648,594.12409 99.312427,594.79219 98.521457,595.31127 C 96.894937,596.3787 93.957368,599.21884 93.952515,599.72867 C 93.950717,599.91738 93.146135,600.61032 92.164571,601.26855 C 89.305691,603.18573 83.241347,608.66723 82.555266,609.95435 C 82.209117,610.60377 81.316455,611.36513 80.571587,611.64629 C 77.530626,612.79415 76.550049,616.96694 77.273026,625.68312 C 77.663709,630.39308 77.90917,631.44889 78.97221,632.99189 C 80.664002,635.44747 83.70964,638.12977 84.806109,638.12977 C 86.42975,638.12977 93.653261,642.08593 95.946867,644.23135 C 98.180307,646.32047 100.90097,647.98693 105.92371,650.34246 C 107.37183,651.02157 110.06461,652.31655 111.90768,653.22022 C 113.75073,654.12389 117.93054,655.52591 121.19613,656.33576 C 129.25252,658.33373 132.25314,659.97382 132.25314,662.37932 C 132.25314,663.13153 131.90979,663.56286 131.17603,663.73241 C 130.58362,663.86928 128.69868,664.29807 126.98726,664.68526 C 125.27585,665.07244 123.02222,665.82622 121.97919,666.36038 C 119.89829,667.426 119.07467,667.47029 116.21439,666.67059 z M 306.50613,666.53391 C 303.12859,666.00196 297.79157,664.75471 295.10865,663.87038 C 292.58966,663.04009 291.85546,662.53591 290.68245,660.83101 C 289.90899,659.70683 289.06949,658.24345 288.81689,657.57908 C 288.15192,655.83004 286.5766,655.03557 283.049,654.67011 C 278.87439,654.23763 272.07892,651.91648 262.08167,647.50822 C 253.11499,643.5544 247.1118,641.59999 242.59742,641.16497 C 241.01765,641.01275 239.29426,640.59271 238.76768,640.23162 C 238.24109,639.87052 235.99034,638.33438 233.76603,636.8179 C 230.63378,634.68243 229.44632,633.54447 228.50014,631.77159 C 227.50145,629.90029 226.79789,629.26168 224.64552,628.27284 C 223.19741,627.60752 220.66619,626.18879 219.0206,625.12011 C 215.60864,622.90432 215.57607,622.78282 216.53868,615.86191 C 217.09429,611.86721 217.68715,611.06383 222.39375,607.92784 C 224.96587,606.21404 229.60255,601.44424 230.45305,599.63718 C 231.15375,598.14842 231.17735,598.13162 235.1773,596.2731 C 240.19249,593.94285 243.08491,592.16589 244.991,590.24414 C 246.04418,589.1823 249.31701,586.09294 252.26394,583.379 L 257.62203,578.44448 L 268.49802,578.12795 C 286.93666,577.59131 287.49322,577.61559 288.7041,579.00822 C 289.27643,579.66645 289.96155,580.20501 290.22659,580.20501 C 290.92693,580.20501 290.81891,582.59931 290.11007,582.78764 C 286.30617,583.79841 283.69972,584.31608 277.91215,585.21033 C 273.12815,585.94956 270.81439,586.5213 270.14119,587.13051 C 269.61395,587.6077 267.18622,588.99129 264.74625,590.20517 C 260.3679,592.38347 260.31091,592.43417 260.3839,594.0878 C 260.42458,595.00933 260.61764,596.38909 260.81292,597.15394 C 261.14439,598.45213 261.09174,598.52245 260.02088,598.21238 C 256.20633,597.10793 256.12311,597.13369 251.79847,600.75653 C 247.57532,604.29429 243.68955,609.30554 242.82088,612.33448 C 242.56632,613.22202 242.35805,615.59986 242.35805,617.61852 L 242.35805,621.28874 L 246.24104,624.50122 C 249.94137,627.56256 250.71265,627.95024 262.63709,632.74242 C 274.38171,637.46233 275.44416,637.99219 279.93733,641.3703 C 282.57028,643.34979 285.56497,645.34934 286.59219,645.81375 C 287.78688,646.35389 288.67995,647.18149 289.07057,648.11053 C 289.70001,649.60753 292.08202,651.35336 295.01692,652.46877 C 295.93845,652.81896 297.87725,653.59927 299.32537,654.20274 C 300.84988,654.83805 304.01701,655.53674 306.84844,655.86231 C 311.59601,656.40824 311.76472,656.46894 312.63533,657.94449 C 313.23214,658.95602 314.5897,659.98506 316.6942,661.0211 C 319.6908,662.49631 320.8488,663.80652 320.15222,664.93366 C 319.98803,665.1993 319.48943,665.41989 319.0442,665.42386 C 318.59897,665.42779 317.373,665.74149 316.31982,666.12092 C 314.55026,666.75844 309.32724,666.97821 306.50613,666.53391 z M 229.11638,665.71368 C 227.23098,665.41865 225.29217,664.82628 224.80792,664.39726 C 223.3482,663.10405 221.21149,662.19238 216.47066,660.84005 C 209.33651,658.80498 209.07166,658.76323 199.91519,658.2309 C 191.92501,657.76636 189.07588,657.31947 185.15137,655.91521 C 184.36149,655.63257 182.36757,655.14772 180.72046,654.83771 C 177.12303,654.16071 172.69042,651.67789 169.60176,648.60983 C 167.78748,646.80766 166.95013,646.33929 165.02684,646.05085 C 161.07898,645.45883 154.87408,643.14165 146.49415,639.12995 C 142.10182,637.02719 137.71749,635.15846 136.7512,634.97718 C 134.4975,634.55437 133.02191,633.15369 133.63075,632.01516 C 133.87391,631.56043 134.08074,628.81872 134.0904,625.92249 C 134.11538,618.42692 135.18131,614.76024 140.26554,604.68076 L 144.46043,596.36439 L 148.76759,594.71961 C 151.13653,593.81499 153.51232,592.66376 154.04711,592.16135 C 155.50285,590.79375 158.3911,589.93249 164.41164,589.0708 C 171.89467,587.99977 174.15296,587.27624 177.60393,584.84421 C 180.38709,582.88281 180.85704,582.72039 184.57529,582.43454 C 189.3499,582.06756 192.77536,581.10882 194.24497,579.72821 C 194.96842,579.04852 196.38914,578.56277 198.54725,578.25716 C 201.10321,577.8952 202.33222,577.40604 204.49167,575.89125 C 205.98892,574.84099 207.37751,573.98169 207.57741,573.98169 C 207.77731,573.98169 210.24531,572.64994 213.06186,571.02226 C 218.70045,567.76369 218.93674,567.72328 224.88489,569.00212 C 229.84818,570.06923 230.39013,570.36991 230.39013,572.05658 C 230.39013,573.12722 230.16754,573.50297 229.53327,573.50297 C 229.06201,573.50297 227.39248,573.83094 225.82322,574.23182 C 223.62562,574.79326 222.65838,575.34134 221.61375,576.61717 C 220.48104,578.00057 219.4613,578.51926 215.42712,579.76415 C 212.02328,580.81456 210.18905,581.66247 209.21625,582.63527 C 208.45698,583.39455 207.11675,584.35698 206.23796,584.77398 C 205.35916,585.19099 203.80965,586.22373 202.79459,587.06895 C 195.97672,592.74596 192.93151,594.29077 185.73073,595.7252 C 181.84368,596.49953 180.53294,597.00927 178.92805,598.37059 C 178.40146,598.81729 175.60097,599.67314 172.70474,600.27244 C 169.80849,600.8718 167.18129,601.43754 166.8665,601.5297 C 166.55173,601.62185 165.54812,603.31196 164.63628,605.28552 C 163.72444,607.25908 161.88162,610.22928 160.54113,611.88598 C 158.15069,614.84023 158.10387,614.96 158.10387,618.11815 C 158.10387,620.81879 158.37957,621.91897 159.81328,624.93949 C 160.75345,626.92023 161.6933,628.64628 161.90183,628.77516 C 162.11036,628.90403 162.55619,629.99239 162.89254,631.19374 C 163.41034,633.04311 164.02595,633.78561 166.90763,636.03614 C 170.34838,638.72338 175.2017,641.48078 176.49067,641.48078 C 176.87653,641.48078 177.90593,642.22399 178.77822,643.13231 C 180.33429,644.75267 180.47071,644.79351 186.00961,645.2952 C 196.31285,646.22841 205.22503,648.36148 208.85354,650.76268 C 209.77886,651.37505 211.07167,652.03994 211.72645,652.24029 C 212.38124,652.44063 213.24009,652.86679 213.63503,653.18733 C 214.70074,654.05232 220.77221,655.66656 227.27847,656.81476 C 234.37959,658.06795 238.00444,659.58227 239.19497,661.79294 C 240.35361,663.94438 240.05127,664.97488 238.0496,665.69688 C 236.03263,666.42438 233.68641,666.42883 229.11638,665.71368 z M 592.30019,661.86882 C 592.30019,658.97976 599.71797,655.1482 617.43279,648.88682 C 625.79328,645.9318 641.61997,638.10032 644.39524,635.54508 L 646.52743,633.58195 L 658.68277,633.57549 L 670.83799,633.56898 L 673.57649,630.71492 L 676.31499,627.86086 L 676.26963,622.34384 C 676.17786,611.17489 672.51509,603.49172 666.41146,601.66417 C 664.91766,601.21696 663.57908,600.22529 661.56815,598.07624 C 660.03968,596.44281 657.22986,593.91202 655.32398,592.45222 C 653.41822,590.99247 651.23221,588.96495 650.46622,587.94659 C 648.49759,585.32948 646.70345,584.39326 642.38772,583.73085 C 639.22363,583.24524 638.36939,582.91009 637.05901,581.64001 C 634.93846,579.58469 629.84675,577.81281 625.10531,577.4802 C 622.07282,577.26751 620.32898,577.43722 616.83529,578.28506 C 614.40018,578.87599 611.92289,579.24145 611.32998,579.09721 C 607.21541,578.09592 606.06859,577.71166 604.58807,576.8381 C 603.5255,576.21117 602.24073,575.89263 601.05655,575.96252 C 597.83042,576.15286 597.36863,575.26881 599.0119,572.04777 L 599.97906,570.15196 L 603.67943,570.15464 C 608.14462,570.15785 610.0465,570.64254 613.03787,572.53955 C 614.28856,573.33274 615.56333,573.98169 615.87084,573.98169 C 616.17822,573.98169 617.14103,573.29229 618.01043,572.44965 L 619.59106,570.91761 L 625.93205,570.97917 C 633.39166,571.05155 641.47662,572.39307 643.50893,573.89571 C 644.23897,574.43542 647.28744,575.67309 650.28315,576.64609 C 657.34701,578.94029 659.88305,580.24838 661.73512,582.55312 C 662.56644,583.58748 663.79175,584.57068 664.45822,584.73793 C 665.12458,584.90519 666.91014,585.88431 668.42603,586.91375 C 671.7142,589.14673 675.8592,590.80936 677.26076,590.45754 C 678.57667,590.12728 680.85738,591.90907 680.87982,593.2848 C 680.8891,593.85812 681.2046,594.86572 681.58095,595.52396 C 681.95719,596.18219 682.27269,597.07845 682.28197,597.51566 C 682.3077,598.71915 686.03181,605.06473 688.08903,607.41026 C 690.34436,609.98178 691.12834,613.1272 690.82401,618.3836 C 690.67337,620.98638 690.28761,622.79033 689.61009,624.06061 C 685.91125,630.99502 684.69405,633.56558 684.42156,635.0182 C 683.98116,637.36588 678.35576,643.14036 675.54206,644.13307 C 670.62014,645.86962 661.88576,647.2442 652.78817,647.71401 C 642.66045,648.23697 636.23016,649.17521 633.55323,650.52045 C 632.58583,651.00664 631.03246,651.54236 630.10137,651.71097 C 629.17029,651.87962 626.73271,652.6628 624.68477,653.45144 C 621.93805,654.50912 620.73295,654.76322 620.09162,654.41993 C 619.18686,653.93576 617.67179,654.40127 600.76855,660.3565 C 596.60581,661.8231 592.99756,663.02305 592.7501,663.02305 C 592.50265,663.02305 592.30019,662.50365 592.30019,661.86882 z M 380.22853,660.50792 C 379.04376,659.95888 376.03595,659.22333 373.54467,658.87344 C 370.08259,658.38716 368.09458,657.78747 365.10956,656.32916 C 359.65771,653.66567 352.0504,651.21014 346.18576,650.22077 C 343.03718,649.68963 340.94976,649.09129 340.49503,648.58964 C 340.1001,648.15386 332.39574,644.09042 323.37418,639.55979 C 313.21993,634.4603 306.60981,630.86261 306.02229,630.1157 C 303.84886,627.35265 303.70153,622.8069 305.59813,617.0296 C 308.26576,608.90357 309.15022,607.2225 312.55812,603.80107 C 315.33359,601.01455 316.84703,599.99183 322.02173,597.40564 C 325.40966,595.71248 329.06785,593.54776 330.15122,592.59512 C 331.7718,591.17012 332.73368,590.75971 335.57769,590.28005 C 337.49262,589.95705 339.55995,589.28369 340.21232,588.77045 C 340.86011,588.26091 342.28893,587.52689 343.38746,587.13933 C 344.48598,586.75176 346.38493,585.70356 347.6073,584.81003 C 348.82979,583.91651 351.33799,582.39045 353.181,581.4189 C 355.02414,580.44729 356.96292,579.26816 357.48945,578.79854 C 358.01609,578.32896 360.35931,576.69826 362.69666,575.17474 C 366.80041,572.49996 367.05539,572.40518 370.11679,572.41696 C 373.65136,572.4306 377.10839,573.58144 377.8658,574.99672 C 378.27118,575.75424 378.93143,575.90048 382.04053,575.92135 C 388.20174,575.96277 403.58215,580.57123 406.57105,583.27153 C 407.9504,584.51767 409.90951,585.38185 415.26431,587.10624 C 420.00187,588.63187 422.62709,589.7435 423.60788,590.63927 C 424.39503,591.35816 426.0961,592.49037 427.38815,593.15531 C 428.90687,593.93681 430.81016,595.62706 432.77174,597.93607 C 434.44062,599.90057 436.87208,602.69275 438.17495,604.14086 L 440.54378,606.7738 L 440.54531,610.41162 C 440.54613,612.41242 440.67844,615.64376 440.83907,617.59238 C 441.09992,620.75368 441.02249,621.25926 440.12101,622.28567 C 439.56535,622.9184 439.11073,623.73236 439.11073,624.09451 C 439.11073,624.9763 436.40337,630.34956 435.05398,632.14581 C 434.34732,633.08658 433.17618,633.81647 431.65876,634.26183 C 430.11243,634.7157 428.68902,635.61382 427.3777,636.96319 C 426.24603,638.12756 423.59778,639.90346 421.13165,641.15162 C 416.24051,643.62731 411.33704,646.97675 409.86603,648.84685 C 409.31331,649.54951 408.02725,650.54979 407.00815,651.06968 C 405.9732,651.59771 403.75829,653.68395 401.99012,655.79624 C 398.88137,659.51004 398.77221,659.58706 395.86968,660.11164 C 386.41078,661.82123 383.23611,661.90166 380.22853,660.50792 z M 387.68144,649.39034 C 390.56365,648.52683 394.48398,644.92602 396.24075,641.52881 C 396.65001,640.73734 398.00786,639.39636 399.2582,638.54889 C 400.50842,637.70137 402.18071,636.34482 402.97431,635.5343 C 404.54872,633.9264 407.99411,629.33076 407.99411,628.83878 C 407.99411,628.33728 411.01873,624.1193 412.48821,622.57146 C 413.2381,621.78158 414.66411,620.27363 415.65712,619.22045 C 418.65071,616.04536 419.63749,613.57556 419.67333,609.16738 C 419.69977,605.92374 419.52669,605.04463 418.54202,603.42279 C 415.52234,598.44863 413.78649,597.22886 405.15891,594.01858 C 402.11984,592.8878 400.63685,592.0142 399.13741,590.47143 C 397.90493,589.20326 395.9786,587.93844 394.0739,587.14679 C 392.38304,586.44399 389.81998,585.29947 388.37823,584.60336 C 386.04194,583.47551 385.07231,583.31782 379.46712,583.154 C 372.5553,582.95203 372.77574,582.88841 368.26061,586.38788 C 365.99823,588.14137 365.35726,588.70185 359.78238,593.8022 C 357.8839,595.53903 355.89847,596.9601 355.3703,596.9601 C 354.56847,596.9601 348.85153,600.32213 340.97373,605.42636 C 336.53592,608.30182 335.69002,609.15901 334.24111,612.24869 C 332.87644,615.15868 332.79219,615.63787 333.1011,618.73761 C 333.37171,621.45247 333.80341,622.70273 335.38746,625.35842 C 336.46154,627.15906 337.89988,628.9217 338.58374,629.27537 C 339.26772,629.62905 342.61629,630.7043 346.02526,631.66484 C 349.48569,632.63989 352.86398,633.89997 353.67392,634.5177 C 354.47176,635.12624 356.73379,636.30768 358.70054,637.14308 C 360.6674,637.9785 362.92297,639.27394 363.71282,640.02184 C 364.50266,640.76974 366.44145,642.02829 368.02126,642.81852 C 369.60107,643.60878 371.7174,644.91285 372.72439,645.71637 C 373.88073,646.6392 375.37981,647.29911 376.79348,647.50778 C 378.04441,647.69238 379.62868,648.33649 380.38493,648.96792 C 381.98084,650.30033 384.2129,650.42959 387.68144,649.39034 z M 452.03606,660.15075 C 451.64113,659.89549 450.846,659.68338 450.26918,659.67936 C 448.95081,659.67017 448.51358,658.9845 448.88419,657.50775 C 449.10192,656.64022 449.67521,656.22839 451.2032,655.84182 C 456.90158,654.40012 464.10421,651.49133 473.02248,647.02997 C 478.46247,644.30862 487.76039,639.97867 493.68449,637.40791 C 502.08106,633.76415 504.93048,632.29665 506.60981,630.75116 C 507.7947,629.66078 509.67673,628.04067 510.79218,627.15092 C 511.90762,626.26117 513.25408,624.63723 513.78413,623.54216 C 517.27076,616.33977 510.174,605.91345 500.58866,604.15589 C 499.29274,603.91826 497.04751,603.29741 495.5993,602.77619 C 494.15121,602.25496 490.48902,601.47604 487.46112,601.04519 C 480.95938,600.12011 477.85193,599.20232 476.62662,597.84521 C 476.13487,597.30062 474.83636,596.43319 473.74089,595.91755 C 472.64554,595.40198 468.91086,592.67899 465.44161,589.86647 C 456.03183,582.23798 453.51,580.36356 450.48021,578.74607 C 447.25432,577.02383 446.98371,576.01815 449.19157,573.95574 L 450.65541,572.58829 L 464.8695,578.7466 C 472.68725,582.13371 480.05591,585.34298 481.24433,585.87833 C 482.43262,586.41368 485.76098,587.40836 488.64048,588.08877 C 491.5201,588.76916 494.77502,589.82827 495.87378,590.44242 C 497.32575,591.25394 500.20937,591.92846 506.42945,592.91145 C 512.74847,593.9101 515.3388,594.52009 516.33039,595.24295 C 517.06901,595.78136 518.55964,596.54956 519.64301,596.95005 C 521.13728,597.50244 521.87249,598.16963 522.68913,599.71431 C 524.33439,602.82597 526.40935,605.22712 529.45348,607.54166 C 534.46799,611.35441 534.90345,611.94223 535.365,615.52135 C 536.20208,622.0128 536.07271,622.70052 533.25114,626.75421 C 530.67268,630.45866 528.64777,633.02003 525.99481,635.93322 C 524.80181,637.24318 523.84382,637.68141 520.39631,638.49412 C 518.10879,639.03335 515.74641,639.81825 515.14668,640.23833 C 514.54695,640.6584 513.26524,641.00207 512.29832,641.00207 C 508.53144,641.00207 503.68167,643.07051 495.03517,648.36488 C 490.28011,651.27648 486.28998,652.87794 482.82155,653.26685 C 480.92601,653.47944 479.20308,654.08234 477.40812,655.16113 C 474.25261,657.05767 468.54272,658.94481 463.01825,659.91704 C 458.42475,660.72544 453.10062,660.83872 452.03606,660.15075 z M 520.29162,659.53091 C 515.37604,657.99562 519.30848,656.24159 532.81368,653.94538 C 536.51146,653.31668 539.4798,652.51986 540.86209,651.78489 C 542.06648,651.1445 545.30213,648.47216 548.05238,645.84635 C 553.89493,640.2681 557.80986,637.56938 561.78777,636.3778 C 563.8491,635.76031 564.97066,635.10055 565.79399,634.02113 C 566.86115,632.62213 567.19814,632.5003 570.84458,632.19622 C 572.99357,632.01698 577.94181,631.22677 581.84088,630.44014 C 587.57309,629.28365 589.68777,628.61852 592.88899,626.96517 C 596.79746,624.94653 596.87078,624.87496 598.63413,621.35237 C 599.61656,619.38991 600.42439,617.48893 600.42932,617.12793 C 600.44107,616.27289 595.85427,608.25362 594.0203,605.92289 C 593.23774,604.9283 591.50729,603.50637 590.17493,602.76306 C 585.78377,600.31337 582.27904,598.20018 577.08311,594.86921 C 574.26247,593.061 570.8776,591.0625 569.5611,590.42806 C 568.24461,589.79361 566.45894,588.75762 565.59283,588.12581 C 564.65035,587.43823 562.16859,586.55572 559.41094,585.92749 C 554.08528,584.71429 552.39866,584.07529 550.42263,582.52238 C 549.03364,581.43067 548.78313,581.40559 540.7071,581.54901 L 532.41734,581.69622 L 531.10685,580.2932 C 530.16683,579.28693 528.58243,578.52021 525.50341,577.5815 C 521.95697,576.50027 520.9085,575.94563 519.47228,574.39099 C 518.01643,572.8151 517.17617,572.37833 514.3036,571.70415 C 510.92202,570.91057 510.87537,570.8785 511.01543,569.44843 C 511.1522,568.05273 511.31189,567.95856 515.2267,566.96413 C 520.9031,565.52218 522.42122,565.5634 524.89675,567.22642 C 526.93048,568.59258 529.42669,570.07435 532.22123,571.57432 C 533.01108,571.99827 534.6124,572.98265 535.77954,573.76182 C 537.87672,575.16168 537.96931,575.17661 543.58837,575.02314 C 548.37751,574.8923 549.47698,575.00025 550.55588,575.70718 C 552.18528,576.77477 557.3704,576.75466 566.04933,575.64715 L 572.23627,574.85765 L 574.01031,576.19159 C 574.98605,576.92523 578.88688,580.09778 582.67878,583.24171 C 588.23674,587.84988 590.32463,589.27273 593.44995,590.58192 C 599.40471,593.07637 600.0713,593.47298 605.33597,597.65477 C 611.14315,602.26731 614.60663,606.01786 616.789,610.0567 C 618.1828,612.63622 618.37856,613.43778 618.38408,616.5875 C 618.38902,619.46808 618.15366,620.65109 617.19344,622.57146 C 615.50411,625.9502 610.02018,631.29317 607.81749,631.70634 C 606.84505,631.88879 604.62097,633.15547 602.67302,634.63619 C 595.91102,639.77645 590.16965,642.23251 583.68331,642.75978 C 581.1905,642.96236 579.49577,643.39623 578.1398,644.17884 C 577.06548,644.79882 574.92636,645.7397 573.38603,646.26963 C 571.84558,646.79962 570.2472,647.52861 569.83383,647.88965 C 568.46963,649.08143 565.99809,650.12116 562.38068,651.02516 C 560.41781,651.51566 557.78377,652.54322 556.52709,653.30869 C 554.10608,654.78333 551.90315,655.71118 544.18915,658.50549 L 539.40189,660.2396 L 534.10561,659.64901 C 531.19262,659.3242 528.06895,659.20873 527.16419,659.39236 C 523.83148,660.0688 522.12406,660.10321 520.29162,659.53091 z M 109.17899,515.00376 C 109.61072,514.57204 109.75345,508.38684 109.75345,490.11048 L 109.75345,465.79165 L 113.8115,465.79165 C 117.4964,465.79165 117.93298,465.69261 118.55913,464.71453 C 118.9384,464.12212 123.38583,450.71206 128.44229,434.9144 C 133.49876,419.11674 137.83258,405.81439 138.07301,405.35363 C 138.42466,404.67971 139.15216,404.51588 141.79311,404.51588 C 144.34514,404.51588 145.14076,404.34727 145.36665,403.75865 C 145.52646,403.34217 145.65722,394.29442 145.65722,383.65253 L 145.65722,364.30365 L 173.66216,364.30365 L 201.66711,364.30365 L 201.66711,383.87243 C 201.66711,399.30363 201.79816,403.54996 202.2869,403.95558 C 202.62778,404.23849 204.51272,404.53415 206.47567,404.61259 L 210.04465,404.75523 L 220.10792,434.81849 C 225.64271,451.35328 230.48973,465.08318 230.87906,465.32937 C 231.26838,465.57556 232.93332,465.78029 234.57891,465.78432 L 237.57088,465.79165 L 237.57088,490.14762 C 237.57088,510.42009 237.68306,514.59665 238.23993,515.05881 C 238.67492,515.41981 240.55903,515.56591 243.6255,515.47644 L 248.34201,515.33886 L 248.64015,510.07297 C 248.80412,507.17673 248.96569,495.52294 248.99919,484.17563 L 249.06009,463.54417 L 252.05208,460.00041 C 264.09659,445.73471 274.91083,430.58116 289.76932,407.14881 C 293.58396,401.133 301.50276,386.65095 306.26039,376.98965 C 316.95235,355.2775 323.36819,337.10468 326.65812,319.21281 C 327.53081,314.46703 327.70236,310.93406 328.04805,290.58123 C 328.26496,277.81145 328.46154,245.5519 328.48481,218.89335 L 328.52711,170.42326 L 335.71975,170.42326 L 342.91228,170.42326 L 343.37923,169.1953 C 343.65606,168.4671 343.8503,159.45639 343.85652,147.05464 C 343.86639,127.42235 343.92373,126.01718 344.79196,124.10435 C 346.25955,120.87101 348.03583,118.87319 351.44421,116.62233 C 357.57252,112.57524 365.80588,110.7313 375.65242,111.20064 C 385.00851,111.6466 392.1726,114.31065 396.99347,119.13656 C 401.35643,123.50415 401.29204,123.0831 401.29204,147.2596 C 401.29204,159.55585 401.48169,168.46614 401.75899,169.1953 L 402.22583,170.42326 L 411.26725,170.42326 L 420.30866,170.42326 L 420.58338,242.35049 C 420.86527,316.1388 420.91074,317.86683 422.88983,329.83602 C 427.81093,359.59899 443.39967,395.58379 463.95134,424.62199 C 472.80887,437.13696 487.70176,453.35374 496.67644,460.25602 L 500.86526,463.47753 L 500.86526,488.99056 C 500.86526,509.87286 500.983,514.60126 501.51399,515.04196 C 501.99105,515.4379 530.01678,515.54839 607.43009,515.4596 L 712.69745,515.33886 L 712.82306,497.44312 C 712.91483,484.37032 712.79839,479.36638 712.39136,478.87585 C 711.97106,478.36946 710.76255,478.23791 707.47861,478.34098 L 703.12316,478.47765 L 702.99215,486.72924 C 702.84128,496.23767 703.52702,495.23241 696.89979,495.66029 C 693.29777,495.8929 678.48208,495.16587 678.05167,494.73541 C 677.94274,494.6264 678.30477,490.50254 678.85632,485.57118 C 679.53325,479.51915 679.70327,476.4173 679.37944,476.02717 C 679.11565,475.70929 677.77965,475.31406 676.41064,475.14889 C 662.37997,473.45607 645.15454,468.57993 629.1724,461.7768 C 623.2872,459.27158 621.64182,458.74479 621.17205,459.21532 C 620.84681,459.54112 619.07147,463.14674 617.22681,467.2278 C 615.3516,471.37624 613.55758,474.7146 613.15783,474.79918 C 611.6155,475.12547 598.27199,468.15977 594.31782,464.96422 L 592.26647,463.30635 L 594.28221,459.64215 C 599.07535,450.92913 599.93511,449.23024 599.9471,448.44886 C 599.95509,447.92339 598.08316,446.36654 594.81344,444.17934 C 584.54542,437.3107 572.68407,427.67279 561.98705,417.50637 C 558.3479,414.04771 555.03658,411.21791 554.62873,411.21791 C 554.22088,411.21791 551.13869,413.80298 547.77954,416.96251 C 544.42028,420.12204 541.44901,422.70712 541.17664,422.70712 C 540.21571,422.70712 526.23721,404.98655 526.23721,403.76847 C 526.23721,403.26308 528.26718,401.56107 535.21318,396.24285 C 536.8588,394.98289 538.20514,393.62084 538.20514,393.21608 C 538.20514,392.81132 537.26324,391.14901 536.11184,389.52207 C 531.96414,383.66079 526.46764,374.44269 522.35906,366.45787 C 518.65094,359.25105 513.04575,346.31183 511.40554,341.17203 C 511.08452,340.16624 510.56422,339.24445 510.24932,339.12359 C 509.9343,339.00273 506.15684,340.41806 501.85498,342.26876 C 497.553,344.11946 493.97049,345.63368 493.89364,345.63368 C 493.20297,345.63368 486.98371,326.26426 486.83565,323.65236 L 486.74306,322.01651 L 494.40254,320.15573 C 498.61522,319.1323 502.25696,318.10097 502.49502,317.86389 C 502.75317,317.60697 502.41617,314.37829 501.66087,309.87131 C 500.27987,301.63079 498.47163,288.00232 498.47163,285.83436 C 498.47163,285.08679 498.15508,284.21244 497.76827,283.89135 C 497.26524,283.47393 487.20473,282.91618 462.46282,281.93407 C 443.43175,281.17866 427.80705,280.5533 427.74125,280.54438 C 427.42869,280.50204 427.66734,202.5271 427.9806,202.34456 C 428.178,202.22949 444.58044,206.39915 464.43027,211.61049 C 484.28011,216.82183 500.79053,220.9822 501.12001,220.85574 C 501.44948,220.7293 502.19797,218.53958 502.78325,215.98971 C 505.25079,205.23882 509.36864,192.90992 513.98823,182.44162 C 515.19603,179.70478 516.18422,177.09547 516.18422,176.64316 C 516.18422,176.04021 514.06883,174.88426 508.25602,172.31075 C 503.89552,170.38021 500.20949,168.60931 500.06496,168.3754 C 499.67661,167.74717 509.32493,148.43253 510.1935,148.09922 C 510.63414,147.93016 513.93065,149.48953 518.30901,151.93813 C 522.36435,154.20611 525.87272,156.06175 526.10538,156.06175 C 526.33791,156.06175 528.00574,153.85367 529.81162,151.15489 C 537.51246,139.64682 548.50288,125.82011 558.98182,114.45678 C 561.50929,111.71609 563.5772,109.1653 563.5772,108.78839 C 563.5772,108.41146 561.31517,105.44445 558.55059,102.19501 C 555.786,98.945566 553.52409,95.997286 553.52409,95.643296 C 553.52409,94.243856 562.63825,86.145942 569.0005,81.892491 C 573.40283,78.949268 572.37657,78.507015 578.94387,86.177033 C 581.41893,89.067592 583.80633,91.433128 584.24919,91.433775 C 584.69206,91.434421 589.10825,89.296204 594.06295,86.682162 C 599.01754,84.068133 610.50335,78.052882 619.58707,73.314935 C 632.57596,66.540045 636.13592,64.484796 636.25789,63.690483 C 636.34307,63.134993 635.40952,59.479215 634.18327,55.566543 C 632.95702,51.653871 632.02558,47.963994 632.11336,47.366814 C 632.24261,46.487641 633.00179,46.017622 636.10278,44.89663 C 640.67807,43.242697 654.05613,39.677936 654.54764,39.981737 C 654.73823,40.099521 655.92782,43.882977 657.1912,48.389433 C 658.52931,53.162654 659.76496,56.689215 660.15143,56.837479 C 660.51615,56.977447 663.65592,56.537602 667.12869,55.860039 C 681.27557,53.099826 692.24378,51.739682 703.36252,51.366802 C 707.70691,51.221099 711.64287,50.903656 712.10912,50.661379 C 712.88381,50.258888 712.94574,49.406412 712.82718,40.788399 L 712.69745,31.35597 L 371.3723,31.35597 L 30.047048,31.35597 L 29.926891,272.81908 C 29.838271,450.9345 29.947841,514.45218 30.344551,514.93018 C 31.090371,515.82887 108.28187,515.90087 109.17899,515.00376 z M 170.31115,326.52706 L 146.3753,323.33337 L 146.04357,320.48105 C 145.8611,318.91229 145.4841,313.64342 145.20579,308.77247 C 144.07299,288.94669 140.70565,268.16163 135.75353,250.42789 C 134.82541,247.10431 133.73933,243.20021 133.33999,241.75209 C 132.6402,239.21447 132.68467,238.64251 134.56815,225.95443 C 136.09591,215.66273 136.39608,212.66384 135.94361,212.21295 C 135.62527,211.89573 131.27178,210.53852 126.26918,209.19694 C 121.26659,207.85538 117.03265,206.60697 116.86044,206.4227 C 116.54645,206.08674 121.46063,175.79032 121.90045,175.3505 C 122.0292,175.22175 129.0495,175.6966 137.50113,176.40571 C 145.95276,177.11484 153.1471,177.58783 153.48853,177.45681 C 153.82997,177.32579 159.35198,165.83405 165.75968,151.91962 C 172.16736,138.00519 177.64387,126.37081 177.92968,126.06543 C 178.69041,125.25264 228.9171,133.02039 229.49862,134.04077 C 229.7237,134.43571 230.99194,144.99141 232.31695,157.49789 C 233.64196,170.00439 234.84475,180.82956 234.98981,181.55388 C 235.15979,182.40256 235.62298,182.94642 236.29255,183.08349 C 236.86399,183.20046 255.85787,183.96897 278.50119,184.79128 C 301.1445,185.6136 319.94013,186.37262 320.26925,186.478 C 321.11121,186.74756 321.15128,262.33692 320.30946,262.33692 C 320.00246,262.33692 301.72232,257.70534 279.68693,252.04451 C 257.65154,246.38368 239.29171,241.75209 238.88732,241.75209 C 237.75389,241.75209 237.57088,242.7959 237.57088,249.26039 L 237.57088,255.25423 L 234.52855,259.87269 C 220.85168,280.63496 208.24705,303.34124 198.54746,324.68981 C 196.64019,328.88767 196.0285,329.82539 195.22816,329.77838 C 194.68852,329.74667 183.47586,328.28357 170.31115,326.52706 z M 712.88064,392.93524 C 712.91154,372.47964 712.7723,355.64155 712.57114,355.51724 C 712.37009,355.39295 709.15183,355.17288 705.4195,355.02821 C 698.017,354.74127 689.35041,353.2246 683.29225,351.15591 C 681.33725,350.48834 679.3651,349.94213 678.9099,349.94213 C 678.45458,349.94213 676.17657,351.43875 673.84757,353.26794 C 671.51856,355.09714 666.76443,358.78486 663.28297,361.46291 L 656.95291,366.33207 L 652.99051,364.31255 C 647.34066,361.43299 641.28744,357.22841 634.66668,351.58491 C 629.45417,347.14178 627.29731,345.05521 623.24655,340.53682 L 621.8961,339.03034 L 626.50546,330.24441 C 629.04057,325.41214 632.0096,319.6937 633.10343,317.53676 L 635.09191,313.61504 L 632.64482,308.91985 C 625.5208,295.25059 622.30712,282.91133 621.66156,266.74825 L 621.35018,258.9523 L 611.01401,252.12884 C 605.32904,248.37593 599.85133,244.8 598.8414,244.18231 C 596.68289,242.86226 596.67737,243.00115 599.23774,234.10582 C 601.45124,226.41571 604.32345,219.26937 608.57456,210.87485 L 612.21089,203.6941 L 614.58255,203.83789 C 615.88693,203.91698 622.3211,205.04795 628.88076,206.35115 C 635.44054,207.65436 641.17099,208.72061 641.61515,208.72061 C 642.05931,208.72061 644.78265,206.39524 647.6672,203.55313 C 655.52573,195.80996 664.42121,189.63488 674.3795,185.00981 C 678.58983,183.05435 687.05208,179.99759 688.25518,179.99759 C 689.67331,179.99759 690.55081,177.54405 693.89527,164.22682 C 698.0264,147.77691 696.66338,149.45109 706.11077,149.22286 C 709.33361,149.14499 712.18996,148.8619 712.4581,148.59376 C 712.77971,148.27227 712.90344,139.72054 712.82154,123.48066 L 712.69745,98.855066 L 710.30394,98.701286 C 707.11846,98.496646 696.62378,99.383016 688.04356,100.58136 C 669.53736,103.16601 651.82113,108.58229 636.84281,116.23461 C 629.93546,119.76357 624.37421,123.24704 624.37421,124.04479 C 624.37421,124.3501 625.61292,126.10932 627.12681,127.95416 C 628.64083,129.79898 630.63342,132.23132 631.55499,133.35934 C 632.47656,134.48736 635.312,137.95649 637.85603,141.06852 C 643.28708,147.71196 645.76767,150.76294 652.57631,159.17341 C 655.34724,162.59623 659.95367,168.19723 662.81296,171.62005 C 665.67214,175.04288 668.20818,178.20228 668.44859,178.64094 C 668.80485,179.29128 668.24578,179.85731 665.41951,181.70725 C 656.89721,187.28567 648.7125,193.54846 643.63172,198.37885 L 640.62896,201.2337 L 633.594,200.15097 C 629.72478,199.55547 626.21277,198.88296 625.78964,198.65648 C 625.36652,198.43002 623.5302,196.56263 621.70904,194.50673 C 619.88787,192.45083 614.62261,186.56799 610.00855,181.43375 C 605.39448,176.29951 598.69006,168.75972 595.1099,164.67866 C 591.52973,160.59759 588.13663,156.84481 587.56968,156.33913 C 586.54647,155.4263 586.5285,155.42973 585.06771,156.81784 C 582.6017,159.16111 575.69846,167.96539 571.96026,173.53492 C 562.33145,187.88097 554.64976,205.61996 549.886,224.51053 C 548.0243,231.89298 547.89293,233.43861 549.09592,233.80343 C 549.55676,233.94315 559.08922,236.45005 570.27916,239.37433 C 596.66433,246.26953 598.59923,246.82021 600.76867,248.05178 C 604.64141,250.25015 608.9119,255.18766 610.27011,259.03687 C 614.04086,269.72433 609.8847,280.9054 600.54283,285.20641 C 596.77196,286.94245 593.37427,287.02862 567.90315,286.0341 C 553.27287,285.46286 546.58467,285.36117 546.24109,285.70476 C 545.65029,286.29564 546.28915,291.2449 548.10479,300.14117 C 550.66762,312.69826 554.50594,323.75281 560.49325,335.81999 C 565.14668,345.19887 568.95703,351.37829 570.08669,351.37829 C 570.5144,351.37829 572.7252,349.90827 574.99992,348.11157 C 577.2744,346.31487 584.84411,340.43123 591.82149,335.03683 C 598.79875,329.64241 609.56145,321.31304 615.73865,316.52714 C 621.91572,311.74123 627.10731,307.9847 627.27545,308.1793 C 628.06084,309.08807 629.16136,312.81711 629.16136,314.56932 C 629.16136,316.22256 628.69053,317.144 626.04768,320.66328 C 620.50394,328.0454 617.99057,333.97212 617.99598,339.64972 C 617.99856,342.19834 618.26294,343.51656 619.10038,345.15496 C 620.7447,348.3721 624.0136,352.42698 628.62755,356.97284 L 632.75175,361.0363 L 631.31564,362.18924 C 627.95626,364.8861 608.93411,379.96227 604.90427,383.12182 C 602.4896,385.01501 600.37316,386.88711 600.20102,387.28206 C 599.30178,389.34596 622.21982,405.68967 635.38473,412.37279 C 656.70145,423.1942 676.73212,428.38809 702.94715,429.89152 C 707.43196,430.14872 711.29895,430.48125 711.54041,430.63047 C 711.78188,430.77971 712.015,432.88176 712.05836,435.30169 L 712.13721,439.70157 L 712.48078,434.9144 C 712.66984,432.28146 712.84974,413.39083 712.88064,392.93524 z M 712.69745,311.16606 L 712.69745,307.57568 L 708.62836,307.24689 C 700.39148,306.58134 694.96042,304.90434 688.37656,300.99355 C 676.04086,293.66617 667.93746,279.15168 667.93746,264.38396 C 667.93746,252.23542 674.17469,239.20277 683.64593,231.56115 C 690.60369,225.94745 697.83123,223.00935 706.9529,222.08654 C 709.84909,221.79354 712.38032,221.45412 712.57784,221.33228 C 712.77524,221.21044 712.93681,219.7496 712.93681,218.08596 C 712.93681,213.89767 712.67654,213.74162 706.83904,214.42967 C 693.737,215.97391 684.52861,220.37006 676.03698,229.1347 C 668.94057,236.4593 664.67807,244.10243 662.11958,254.09005 C 660.77031,259.35745 660.69558,260.11767 660.91084,266.40602 C 661.19026,274.57128 662.48548,279.8053 666.05966,287.2124 C 672.99262,301.57995 684.70768,310.66434 700.25083,313.72574 C 705.53524,314.76656 706.5373,314.88048 709.82524,314.81427 L 712.69745,314.75643 L 712.69745,311.16606 z M 376.45319,250.84829 C 382.75682,249.67944 389.54338,244.68314 392.58891,238.96911 C 396.48057,231.66778 396.47634,224.06303 392.57681,216.74672 C 388.41007,208.92912 378.86151,203.73336 370.27741,204.61282 C 361.87638,205.47354 354.7862,210.44826 351.24504,217.96666 C 347.61823,225.66683 348.16602,233.54192 352.82403,240.66875 C 357.92973,248.48047 367.34597,252.537 376.45319,250.84829 z M 368.9225,243.24197 C 361.65947,241.36557 356.77257,235.23819 356.77174,228.00693 C 356.77104,221.62525 359.60542,216.70826 365.01086,213.71355 C 367.33716,212.42479 367.93102,212.31103 372.3297,212.31137 C 376.59525,212.3117 377.3777,212.45062 379.51048,213.58647 C 389.12671,218.70776 391.11919,231.34013 383.51083,238.9485 C 382.44168,240.01762 380.42523,241.41506 379.02978,242.05393 C 376.28223,243.31181 371.40978,243.88454 368.9225,243.24197 z" id="path1379" style="fill:#000000"/>
</svg>