<?xml version="1.0" encoding="UTF-8" standalone="yes"?>
<svg viewBox="0 0 595.15 752.54" xmlns="http://www.w3.org/2000/svg">
    <g fill-rule="evenodd">
        <path
            d="m0 0h595.15v586.8c-1.368 25.776-14.112 45.504-34.992 60.336-40.032 28.368-108.79 37.224-181.3 57.6-29.52 8.352-62.856 22.176-81.36 47.808-22.392-29.304-54.432-39.24-88.2-49.392-59.544-18-129.82-23.544-178.49-59.4-19.728-14.616-30.24-34.992-30.816-56.952v-586.8z" />
        <path
            d="m6.696 6.624h581.76v575.28c-0.36 7.488-1.728 14.472-4.032 20.88h-573.98c-2.304-6.696-3.6-13.68-3.744-20.88v-575.28z"
            fill="#dc462d" />
        <path
            d="m278.14 487.22v0.072c-0.072 1.08-1.584 1.584-5.472 2.232-5.112 0.864-11.16 0.432-16.704-0.648-1.296-0.288-2.808 1.152-1.656 2.232 1.224 1.08 2.736 2.808 1.944 3.312-0.648 0.36-2.808 0.576-4.896 0.648-4.896 0.144-6.696-1.296-11.16-2.232-3.096-0.648-5.04 0.144-3.672 3.312 1.584 3.6-0.36 3.456-3.24 1.944-3.744-1.872-9-6.048-10.368-7.416-7.704-7.848-9.432-11.376-12.384-21.456-1.512-5.04-7.416-6.984-7.92 0.216-0.288 4.68 2.016 8.64 3.168 10.368 3.96 6.264 1.08 6.768-1.584 12.672-0.72 1.584-0.432 3.96 0.216 5.76 1.152 2.88 0.864 2.016-1.872 1.44-0.432-0.144-0.864-0.216-1.224-0.216v-100.37c1.152-0.432 2.232-0.936 3.384-1.44 2.52-1.296 5.04-2.808 7.704-4.032 3.024-1.368 6.408-2.016 10.08-1.872 5.76 0.216 9.144 0.576 13.608 0.288 2.664-0.216 4.176-1.584 3.384 1.224-0.648 2.376 0.144 4.104 1.512 4.68 0.72 0.36 2.232 0.432 3.744 1.008 2.52 0.936 5.328 2.448 6.264 2.52 3.528 0.216 5.04-0.504 8.208-1.44 2.16-0.648 2.592 1.008 2.448 3.168-0.504 5.904-3.672 8.28-7.272 12.672-1.872 2.232-3.024 4.104-1.008 4.464 2.736 0.576 2.376 2.952-0.288 3.888-4.608 1.512-9.36 4.752-10.44 5.832-2.376 2.448-5.688 2.952-9.216 2.664-2.88-0.216-8.928-2.304-10.728 1.224-0.648 1.152-0.144 3.312 1.872 3.816 9.864 2.304 15.12-4.608 25.056-3.312 7.056 0.936 15.12 3.672 17.064 10.008 1.08 3.744 2.592 9.432 5.904 13.896 2.736 3.528-4.32-0.288-3.168 6.12 0.432 2.52 2.232 3.024 3.24 6.048 1.152 3.456 1.728 10.44 4.32 14.328 0.72 1.008 1.08 1.8 1.152 2.376zm-76.824-112.61v-108.86c5.112-5.616 11.736-8.568 21.384-8.352 7.344 0.144 8.496 1.656 16.776 6.192 7.272 4.032 12.24-0.432 8.28 6.264-2.664 4.464 1.872 3.888 6.552 6.912 3.888 2.448 5.04 6.264 5.544 9.792 0.36 2.376 0.576 3.816 2.088 5.4 6.192 6.264-0.792 3.6-4.104 6.624-3.456 3.24-4.392 3.024-7.704 4.248-1.728 0.648-5.472 0.072-5.472 2.808 0 3.672 3.024 3.816-2.376 4.248-9.216 0.792-12.456 2.304-19.224-1.8-1.872-1.152-4.752-2.808-6.84-2.592-3.168 0.36-3.888 2.664-0.36 5.04 10.44 6.984 15.48 15.12 16.992 22.32 1.08 5.328-0.072 13.896-1.008 19.512-0.432 2.16-0.936 3.816-1.656 3.384-6.408-3.456-6.624-1.728-6.552 1.584 0 3.528-0.072 8.424-4.68 12.024-2.16 1.656-4.032 4.176-4.392 5.832-0.504 2.592-1.44 5.472-5.112 2.088-0.576-0.576-5.04-1.584-8.136-2.664zm0-115.92c7.92-0.792 14.112-7.776 14.112-16.272 0-8.136-5.76-14.904-13.32-16.056-0.072-1.224-0.36-2.376-0.72-3.528 1.44 0.36 2.952 0.576 4.464 0.576 10.152 0 18.432-8.352 18.432-18.504 0-6.912-3.816-12.96-9.432-16.128 0.072-0.576 0.072-1.08 0.072-1.656 0-1.8-0.288-3.528-0.864-5.184 5.616-1.008 10.296-5.256 12.816-11.088 0.504 0.072 1.08 0.072 1.656 0.072 8.928 0 16.2-8.136 16.2-18.216 0-8.568-5.4-15.84-12.6-17.712v-0.36c0-9.288-7.272-16.92-16.272-16.92-1.224 0-2.448 0.144-3.6 0.432-3.24-4.824-8.424-8.496-10.944-10.296v11.52c0.936 0.72 2.016 1.944 3.096 3.312-0.864 0.864-1.584 1.8-2.232 2.88l-0.864-0.432v133.56zm0-150.84v11.52c-2.016-1.512-3.528-1.008-3.096 4.68 1.08 0.288 2.088 0.576 3.096 1.08v133.56c-0.504 0.072-1.008 0.072-1.512 0.072-6.552 0-12.168-4.176-14.472-10.152v-121.25c1.224-1.008 2.592-1.872 4.104-2.52-0.36-5.544-2.016-6.12-4.104-4.536v-32.688c4.608 3.168 8.712 7.992 10.872 12.816 1.224 2.736 1.224 4.32 3.744 6.48 0.288 0.216 0.72 0.504 1.368 0.936zm0 157.9v108.86c-1.008-0.288-1.872-0.648-2.448-0.936-1.656-1.008-3.096-4.032-4.68-5.76-1.224-1.44-2.52-2.088-4.104-0.504-3.384 3.384-3.168 0-3.816-2.88-0.144-0.864-0.504-1.656-0.936-2.232v-88.488c0.864 1.08 1.656 2.16 2.376 2.808 1.296 1.224 3.96 1.512 5.256 0.288 1.512-1.584 3.384-4.464 5.328-7.272 0.936-1.44 1.944-2.736 3.024-3.888zm0 133.34v100.37c-3.168-0.288-4.608 1.584-5.328 4.032-1.296 4.32-2.016 5.904-6.048 9-1.44 1.08-3.096 2.232-4.608 3.384v-100.66c1.944-5.184 4.608-9.936 9.072-12.96 2.088-1.368 4.536-2.232 6.912-3.168zm-15.984-311.47v32.688c-1.296 0.936-2.736 2.664-4.104 4.608 1.296 0.864 2.376 1.944 3.384 3.096 0.216-0.216 0.432-0.432 0.72-0.648v121.25c-0.576-1.368-0.936-2.88-1.08-4.464-7.56-1.224-13.32-7.992-13.32-16.128 0-1.584 0.216-3.096 0.648-4.536-4.824-3.312-7.992-9-7.992-15.48 0-2.664 0.504-5.256 1.512-7.56-1.152-0.72-2.232-1.584-3.24-2.52v-71.064c2.808-2.88 6.624-4.68 10.872-4.68h0.288c1.152-1.728 2.736-3.816 4.536-5.976 2.736-3.384 6.408-7.272 6.984-8.928 1.08-3.096-0.432-6.48-4.32-8.64-4.464-2.448-10.296-2.376-14.184 0.144-1.656 1.08-3.096 2.592-4.176 4.32v-16.272c1.512-0.72 2.88-1.44 3.528-1.728 5.328-2.304 10.944-2.016 16.2 0.3601 1.224 0.5759 2.52 1.2959 3.744 2.1599zm0 186.19v88.488c-1.368-1.8-3.744-1.944-6.12-0.288-1.656 1.152-3.168 2.376-4.896-2.448-4.176-11.952-3.24-20.016 0.504-30.312 0.936-2.592 3.312-6.696 3.456-9.216 0.072-2.16-1.368-3.528-4.464-0.792-3.816 3.384-3.456 8.064-4.896 13.968-1.08 4.248-4.32 6.48-7.056 8.856v-60.264c4.104 0.144 8.424 0.864 13.464 1.512 3.096 0.36 3.96-1.368 2.664-2.88-4.176-4.824-10.152-7.128-16.128-7.776v-13.968c2.736 2.304 7.272 3.456 10.872 5.256 3.816 1.8 7.632 4.536 10.656 7.56 0.648 0.648 1.296 1.44 1.944 2.304zm0 141.41v100.66c-1.08 0.792-2.088 1.656-2.808 2.448-2.232 2.448-1.512 2.952-3.24 0.072-1.368-2.376-3.672-6.552-6.912-9-3.6-2.592-7.416-4.392-7.416-8.064 0-2.52-1.584-3.312-3.096-2.808v-45.504c2.52-2.448 5.544-4.608 9.072-6.696 1.296-0.792 0.36-1.008-1.944-1.368-1.8-0.288-4.32 0.072-7.128 0.792v-9.216c5.616-0.72 7.56-1.224 14.832-1.8 2.016-0.216 2.664-0.504 3.744-3.528 1.584-4.824 2.88-10.656 4.896-15.984zm-23.472 166.68v-39.384c2.52 3.456 3.96 7.056 4.608 10.728 1.08 5.832 0.36 13.608-1.44 19.728-1.008 3.168-2.088 6.12-3.168 8.928zm0-149.11c6.336-7.056 8.136-18 7.272-28.512-0.792-9.216-3.384-17.568-7.272-25.344v53.856zm0-345.96v16.272c-0.432 0.792-0.864 1.656-1.224 2.52-3.528 9.576-7.128 18-13.464 25.776v-75.6c2.088 2.6641 4.176 6.984 5.04 11.808 1.224 6.336 1.584 13.32 2.808 18 0.36 1.296 1.44 2.52 2.952 2.448 1.224-0.072 2.592-0.648 3.888-1.224zm0 40.032c-2.808 2.952-4.608 6.984-4.608 11.448 0 2.52 0.576 4.896 1.584 7.056-6.264 2.016-10.872 8.136-10.872 15.336 0 7.776 5.328 14.328 12.384 15.768-1.944 2.736-3.168 6.12-3.168 9.792 0 4.536 1.8 8.712 4.68 11.664v-71.064zm0 131.83v13.968c-5.472-0.648-10.944 0.144-14.688 1.512v-66.384c8.424 14.976 12.528 29.376 12.24 45.792 0 2.232 0.936 3.888 2.448 5.112zm0 23.112v60.264c-0.36 0.36-0.72 0.648-1.008 1.008-2.232 2.232-2.448 5.04-3.456 0.36-1.296-6.048-4.536-3.24-6.48 0-1.584 2.736-2.376-0.576-3.744-2.808v-55.584c5.256-2.736 9.792-3.456 14.688-3.24zm0 97.128v53.856c-0.576 0.648-1.224 1.296-1.944 1.872-2.808 2.448-1.8 2.376 0.36 2.088 0.576-0.072 1.152-0.144 1.584-0.216v9.216c-4.752 1.296-10.296 3.672-14.688 5.832v-32.76c4.752-10.08 2.664-18.792 0-24.84v-37.656c5.616 7.272 10.8 14.688 14.688 22.608zm0 74.088v45.504c-0.576 0.216-1.224 0.72-1.728 1.368-1.944 2.664-3.096 1.08-3.456-2.592-0.36-4.32-1.728-8.136-2.808-12.168-1.656-6.336-1.656-12.528 0.072-18.864 1.44-5.256 4.032-9.504 7.92-13.248zm0 89.496v39.384c-1.728 4.752-3.456 9.144-4.248 13.392-0.504 2.52-1.008 8.28-0.936 12.384h-0.288c-0.216 4.464 0.288 13.896 0.72 17.352 0.288 2.088 1.008 4.032 2.088 5.688 2.88 4.608-2.664 3.888-4.896 1.152-3.888-4.68-3.456-16.704-3.312-24.192h-3.816v-77.76c2.592 1.728 4.968 3.384 7.056 4.896 3.24 2.52 5.76 5.04 7.632 7.704zm-42.192-324.07 0.144-10.944c-1.944-2.232-4.392-5.328-5.904-9.648-0.144-0.504-0.288-1.008-0.504-1.584v-39.672c1.584-3.168 3.456-6.264 5.184-8.568l0.072-91.08c-1.656-0.072-3.384 0.072-5.256 0.648v-12.312c2.088-0.648 4.32-1.08 6.552-1.44 0.648-4.32 5.256-7.92 12.24-8.712 5.472-0.576 14.328 0.288 14.328 7.344v12.528c0.216 0.216 0.432 0.504 0.648 0.792v75.6c-1.08 1.296-2.16 2.592-3.384 3.816l0.144 67.104c1.152 1.872 2.232 3.672 3.24 5.472v66.384c-0.72 0.216-1.368 0.504-1.944 0.864v11.088c0.648-0.36 1.296-0.72 1.944-1.08v55.584c-0.792-1.224-1.728-2.16-3.168-1.44v13.032c1.08 1.368 2.088 2.736 3.168 4.104v37.656c-0.936-2.232-2.016-4.032-2.808-5.544v35.28c1.152-1.656 2.088-3.312 2.808-4.896v32.76c-1.8 0.864-3.312 1.728-4.536 2.448l0.36 73.296c1.44 0.864 2.88 1.728 4.176 2.592v77.76h-5.256l-0.144 13.824c-0.072 3.528-0.072 7.632 1.152 11.016 0.36 1.152 0.864 2.16 0.72 3.024-0.216 1.368-1.728 2.016-3.24 0.576-3.6-3.456-3.744-8.208-3.744-12.888 0-5.184 0.072-10.368 0.144-15.552h-15.984c0.144 5.112 0.288 10.152 0.216 14.76 0 5.832-1.8 10.728-4.896 12.816-1.152 0.792-2.088 1.152-2.736 1.08v-5.112c0.144-0.144 0.216-0.36 0.36-0.504 0.864-1.152 1.512-2.808 1.584-6.552 0.216-4.824-0.144-10.224-0.36-16.488h-0.144v-1.296c-0.504-0.288-1.008-0.648-1.44-1.008v-37.656c0.576-0.288 1.224-0.648 1.872-0.864v-27c-0.648-0.504-1.224-1.008-1.872-1.512v-34.2c0.648 0.864 1.368 1.656 2.304 2.304v-25.128c-0.864 1.152-1.656 2.52-2.304 4.032v-34.992c0.72-0.792 1.44-1.584 2.16-2.304l-0.216-93.528c-0.72-0.576-1.368-1.08-1.944-1.656v-67.032c1.584-2.664 3.384-5.112 5.544-7.488v-26.352c-2.088 0.504-3.96 0.72-5.544 0.72v-43.632c0.144 0.576 0.648 1.152 1.368 1.728 1.44 1.152 3.96 6.696 4.896 7.632zm-6.264-15.696v5.616c0.072-0.216 0.36-0.432 0.792-0.648 2.592-0.936 1.224-2.88 0-4.176l-0.792-0.792zm0-6.48c-2.592-7.488-6.336-16.344-12.456-20.088v-12.96c3.456 0.72 5.832 1.8 7.056 2.232 2.376 0.72 1.944 0.36 2.52-1.8 0.576-2.016 1.584-4.536 2.88-7.056v39.672zm-12.456-1.296v54.216c1.008-0.216 2.592 0.936 4.032 1.512 2.16 0.864 4.68 2.016 8.424 2.016v-43.632c-0.072-0.216-0.072-0.504 0-0.72v-5.616c-3.672-3.528-7.848-6.048-12.456-7.776zm12.456-149.69v12.312c-2.88 0.936-6.048 2.952-9.576 7.056-0.936 1.08-1.944 2.304-2.88 3.528v-16.992c3.672-2.592 7.848-4.536 12.456-5.904zm0 240.55v67.032c-7.128-6.624-4.824-11.736-9.648-19.296-0.792-1.296-1.728-2.592-2.808-3.672v-15.84c3.24 0.072 2.088 0.432 2.736-2.016 2.088-8.496 4.752-17.928 9.72-26.208zm0 164.52v34.992c-2.592 5.904-3.672 13.824 0 18.792v34.2c-4.464-3.6-8.712-6.984-12.456-10.44v-63.648c3.96-4.752 8.352-9.504 12.456-13.896zm0 117.36v37.656c-4.824-3.528-9.216-7.92-11.52-13.536-0.432-1.08-0.72-2.088-0.936-3.024v-7.704c1.512-5.832 6.48-10.368 12.456-13.392zm0 63.504v5.112c-1.8 0-1.584-2.736 0-5.112zm-12.456-214.56c3.24-3.096 5.256-7.416 5.256-12.24 0-4.32-1.584-8.208-4.248-11.232 6.336-1.8 10.944-7.704 10.944-14.688 0-4.752-2.232-9.072-5.688-11.88 0.504-1.512 0.792-3.168 0.792-4.896 0-5.472-2.808-10.296-7.056-12.96v67.896zm0-321.05v-13.176c0.936-0.792 1.8-1.728 2.304-2.52 1.296-1.8 1.8-3.888 2.808-5.832 1.656-3.024 4.608 0 5.256 4.608 1.008 7.2-4.104 14.472-10.368 16.92zm0 80.568c-1.584-0.936-3.312-1.512-5.112-1.728-3.312-0.36-7.92 0.864-11.016 3.096-1.152 0.936-1.944 1.872-2.376 2.88v-14.328c4.68-2.736 8.784-3.456 12.384-3.528 2.304 0 4.32 0.288 6.12 0.648v12.96zm-18.504 8.424c0.792 2.088 2.592 4.176 4.68 5.76 4.392 3.24 9.36 3.168 11.808 3.96 0.648 0.216 1.296 0.432 2.016 0.648v54.216c-0.576 0.072-0.936 0.504-1.152 1.44-0.72 3.024-2.376 2.232-4.104 0.288-2.376-2.736-3.888-7.704-5.976-4.176-1.152 1.872-2.16 0.504-2.952-1.872-1.872-5.328-1.44-9.144-4.32-13.176v-47.088zm18.504-133.42v16.992c-2.88 3.744-5.544 8.136-5.544 12.456 0 5.04 3.096 3.888 5.544 1.8v13.176c-1.8 0.648-3.6 0.936-5.4 0.72-10.152-1.008-12.672-9.504-11.088-18 2.304-12.384 8.208-21.384 16.488-27.144zm0 262.87v15.84c-2.736-2.88-6.264-4.968-10.296-5.112-2.808-0.072-5.544 0.864-6.768 3.528-1.08 2.448-0.792 4.248 1.296 5.616 5.472 3.528 8.064 7.848 9.936 12.672 2.088 0.288 4.104 1.08 5.832 2.16v67.896c-0.936 0.864-1.944 1.584-3.024 2.232 1.08 2.304 1.728 4.824 1.728 7.56 0 8.424-6.192 15.48-14.256 16.56 0.648 1.872 1.008 3.816 1.008 5.904 0 4.104-1.512 7.92-3.96 10.8v-108.86c1.224-1.224 2.592-2.232 4.104-2.952-1.08-1.584-2.232-3.024-3.312-3.888-0.288-0.216-0.504-0.36-0.792-0.504v-27.504c3.24-1.872 7.128-2.664 10.872-2.448 2.664 0.144 5.4 0.432 7.488 0.504h0.144zm0 150.19v63.648c-1.296-1.152-2.448-2.376-3.6-3.6-3.672-4.032-5.616-8.856-9.216-12.744-1.44-1.512-2.88-2.88-3.96-3.6-0.576-0.504-1.224-0.792-1.728-0.936v-12.096c1.44 0.36 3.024 0.864 4.392 1.728 1.152 0.72 1.512 0.936 1.296-1.296-0.144-2.232 0-4.536 0.288-6.696 0.936-6.48 3.888-13.176 7.704-18.36 1.512-2.016 3.096-4.032 4.824-6.048zm0 116.86v7.704c-0.72-2.808-0.648-5.328 0-7.704zm-18.504-315.07c0.504-2.088 1.008-3.96 1.224-6.984 0.432-5.112 0.432-9.864-1.224-14.544v21.528zm0-85.608c-0.576 1.368-0.504 2.736 0 4.176v47.088c-0.648-0.864-1.44-1.728-2.448-2.664-3.24-2.88-4.032 0.144-3.456 3.456 0.648 3.816 2.736 5.688 4.536 8.928 0.504 1.08 1.008 2.088 1.368 3.096v21.528c-0.144 0.576-0.288 1.152-0.432 1.8-0.288 1.368-0.36 3.384-0.864 5.112-0.576 2.232-1.224 3.528-2.52 0.792-1.512-3.096-2.88-2.376-3.96-0.504-1.584 2.664-3.168 5.688-4.32 8.568-1.152 2.736-2.16 1.872-3.024 0.144-0.792-1.656-1.008-3.168-2.016-3.744-0.144-0.072-0.288-0.144-0.432-0.144v-119.66c1.224 0.504 2.448 0.936 3.528 1.224 3.816 1.152 5.112 4.68 5.112 11.304 0 1.512 0.72 1.296 1.872 0.288 2.52-2.16 4.824-3.888 7.056-5.112v14.328zm0 135.58v27.504c-2.016-1.008-3.744 0.072-4.176 4.896 1.512 0.648 2.88 1.44 4.104 2.52 0-0.072 0.072-0.072 0.072-0.072v108.86c-3.024 3.6-7.632 5.904-12.672 5.904-1.656 0-3.312-0.216-4.896-0.72v-115.34c1.296-0.792 2.664-1.368 4.104-1.728 0.576-4.392-0.216-5.472-3.096-4.32-0.36 0.144-0.648 0.36-1.008 0.576v-10.008c1.152-0.576 2.376-1.152 3.816-1.872 4.32-2.016 5.616-6.552 7.776-10.296 1.512-2.592 3.6-4.536 5.976-5.904zm0 178.92v12.096c-1.008-0.288-1.8-0.072-2.016 0.648-1.152 3.672-2.448 7.56-5.976 9.936-3.528 2.448-6.84 2.952-9.576 2.232v-23.832c1.224-0.576 1.368-0.288 1.44-3.384 0.072-2.52-5.256-11.304 4.32-22.68 1.296-1.512 5.184-4.032 5.328-0.576 0.072 1.224-0.504 2.448-1.008 3.384-0.432 0.792-1.512 3.312-1.512 6.12-0.072 3.816 1.08 8.064 1.44 8.784 0.72 1.656 1.368 5.184 3.312 6.048 1.08 0.504 2.664 0.792 4.248 1.224zm-17.568-336.53v119.66c-1.008-0.288-2.16 0.36-3.6 1.224-4.608 3.024-7.128 5.4-12.96 6.048-2.448 0.288-4.824 0.288-6.408 1.872-2.304 2.16-3.096 1.8-3.168-0.072-0.36-6.912-1.368-12.744-2.448-19.512-0.432-2.448-0.936-3.168-2.808-0.36-2.736 4.248-3.456 2.376-3.672-0.792-0.288-4.104-0.576-8.784-2.016-13.176-1.512-4.392-2.232-8.928-2.088-13.032 0.144-3.528 0.936-8.28 2.88-11.16 2.592-3.744 6.912-6.624 8.568-7.992 1.224-1.008 3.024-1.584 3.816-2.952 0.864-1.656 1.008-3.24 0.432-4.32-2.16-3.96-5.76-2.088-7.56-7.848-1.296-4.032 0.216-6.624-4.68-11.232-1.656-1.584-2.88-4.968-0.936-5.112 0.936-0.072 1.008-1.8 0.864-6.552-0.144-3.24-1.08-9.144 0.288-13.248 0.864-2.448 2.736-4.752 3.888-7.56 0.72-2.016 2.232-5.184 1.584-7.848-1.008-4.32 1.512-3.96 2.952-2.592 2.376 2.16 6.912 3.096 9.432 3.96 2.16 0.792 4.392 3.024 5.976 1.44 3.096-3.024 2.016-7.848 6.264-2.16 0.936 1.296 3.168 2.448 5.4 3.312zm0 175.68v10.008c-1.728 1.152-3.096 3.168-4.248 4.752 0.936 0.576 1.8 1.152 2.592 1.872 0.504-0.432 1.08-0.792 1.656-1.152v115.34c-6.768-2.088-11.736-8.496-11.736-15.984 0-1.872 0.36-3.672 0.864-5.328-7.344-1.872-12.816-8.928-12.816-17.352 0-2.52 0.504-4.968 1.44-7.2-6.408-2.376-10.944-8.496-10.944-15.768 0-3.384 1.008-6.624 2.736-9.216-4.176-3.096-6.84-7.992-6.84-13.608 0-6.84 4.176-12.816 10.152-15.336-0.072-0.72-0.144-1.512-0.144-2.232 0-8.856 6.984-16.128 15.48-16.128 3.816-7.56 6.624-9.936 11.808-12.672zm0 161.93v23.832c-8.136-2.088-11.16-15.48-1.44-22.968 0.648-0.504 1.08-0.72 1.44-0.864z" />
        <path
            d="m226.3 700.78v-93.6h356.47c-5.76 13.464-15.48 24.696-28.512 33.912-39.096 27.864-106.34 36.504-177.26 56.52-48.96 13.824-76.176 38.808-79.488 43.56-18.648-19.224-42.84-30.816-71.208-40.392zm0-212.62v-30.168c3.816 1.8 7.416 3.6 10.656 5.328 2.952 1.584 5.76 3.312 8.64 4.896 3.312 1.944 6.192 2.808 3.24-1.728-3.816-5.976-12.96-12.888-22.536-18.36v-5.976c4.32 0.072 8.784-2.016 13.896-2.88 6.264-1.008 12.96-0.648 15.984 0.792 4.248 2.088 4.824 4.104 6.48 7.92 1.512 3.384 3.096 6.552 4.752 8.928 0.576 0-4.032 1.296-3.888 6.552 0.072 2.664 2.88 5.472 4.32 8.64 1.872 4.248 2.376 9.216 4.392 12.096-1.8 1.296-5.688 2.304-9.432 1.44-7.128-1.584-14.544-1.728-13.896 5.832-4.896-1.944-16.2-5.184-15.696 0.792-2.304-0.36-4.68-1.872-6.912-4.104zm0-33.624c4.32 2.088 8.64 4.176 12.96 6.12-4.104-3.456-8.496-6.48-12.96-8.928v2.808zm0-26.712v-11.448c3.096-1.152 6.192-1.944 9.072-2.232 3.816-0.36 2.592-2.088 0-2.736-2.52-0.576-5.904-0.504-9.072-0.144v-14.328c3.6 0.144 6.768 0.144 8.352-0.36-0.504 3.168 1.152 5.688 5.256 5.472 4.176-0.216 6.336 1.296 7.056 1.8 3.096 1.872 7.992 1.008 10.656 1.152-0.576 0.936-3.312 6.264-7.2 8.712-2.592 1.656-3.744 4.968-1.368 7.848-4.104 1.224-4.968 2.448-8.064 5.184-2.016 1.728-4.32 2.448-8.784 1.728-1.872-0.288-3.888-0.648-5.904-0.648zm0-78.624v-21.24c5.04 9.576 2.016 13.752 1.152 21.744 0.144-0.072-0.36-0.36-1.152-0.504zm0-44.784v-15.84c3.24-0.144 5.832 0.144 8.208-0.144 4.104-0.504 1.512-4.464-0.864-5.04-2.52-0.576-4.968-0.864-7.344-1.08v-19.8c3.168 0.576 6.192 1.872 8.568 3.888 3.312 2.808 5.76 2.088 7.632 2.664-1.656 2.52-0.792 5.112 1.8 6.84 5.184 3.312 7.128 3.6 8.496 5.76 2.52 4.104 1.584 7.2 5.256 11.376-3.312 1.44-6.048 6.336-11.736 6.336-3.456 0-7.416-0.216-6.48 6.552-3.744 0.864-6.552 1.152-10.44-0.216-1.152-0.432-2.16-0.864-3.096-1.296zm0-17.928c0.432-0.072 0.864-0.072 1.296-0.072 2.232 0 4.104-1.08 0.288-1.512-0.504-0.072-1.08-0.144-1.584-0.216v1.8zm0-135.72v-3.096c2.232-1.944 4.032-4.536 4.968-7.56 5.112 1.44 8.856 6.552 8.856 12.6 0 7.2-5.256 13.032-11.592 13.032h-0.144c0.216-1.368 0.36-2.808 0.36-4.32 0-3.888-0.864-7.488-2.448-10.656zm0-10.656v-10.872c0.792 1.656 1.224 3.528 1.224 5.4 0 1.944-0.432 3.816-1.224 5.472zm0-10.872v10.872c-1.944 3.96-5.904 6.696-10.44 6.696-0.432 0-0.936-0.072-1.368-0.144v-23.976c0.432-0.072 0.936-0.144 1.368-0.144 4.536 0 8.496 2.736 10.44 6.696zm0 18.432v3.096c-0.36-0.72-0.792-1.44-1.224-2.088 0.432-0.288 0.792-0.648 1.224-1.008zm0 114.84v19.8c-4.248-0.36-8.28-0.144-11.808 0.36v-19.44c3.744-1.152 7.92-1.44 11.808-0.72zm0 22.176v1.8c-3.816 0.072-7.776 0.432-11.808 1.368v-2.304c3.816-0.72 7.848-1.152 11.808-0.864zm0 3.888v15.84c-2.16-1.008-3.888-2.016-5.4-2.592-1.584-0.576-3.168-0.864-4.608-0.72-0.648 0-1.224 0.144-1.8 0.288v-10.368c4.896-1.8 8.64-2.376 11.808-2.448zm0 39.384v21.24c-2.16-0.36-6.336 0.072-6.48 6.408-0.072 5.328-1.296 6.984-4.608 11.304-0.216 0.288-0.504 0.648-0.72 1.008v-52.848c3.528 2.736 7.488 5.904 9.72 9.36 0.792 1.296 1.512 2.448 2.088 3.528zm0 68.976v14.328c-2.088 0.288-4.176 0.648-5.832 1.08-2.016 0.432-4.032 1.08-5.976 1.8v-16.704c3.024-0.792 6.984-0.792 10.152-0.576 0.576 0 1.08 0 1.656 0.072zm0 19.44v11.448c-1.224 0-2.448 0.072-3.672 0.36-9.288 2.16-6.264 13.464 3.456 13.896 0.072 0 0.144 0 0.216 0.072v5.976c-4.032-2.304-8.064-4.32-11.808-5.904v-19.656c3.6-2.52 7.704-4.68 11.808-6.192zm0 35.352c-3.96-2.232-7.992-4.104-11.808-5.544v3.168c4.032 1.584 7.92 3.384 11.808 5.184v-2.808zm0 6.264v30.168c-3.672-3.672-6.984-9.216-9.216-14.184-0.792-1.944-1.512-4.68-2.592-7.272v-13.752c3.96 1.512 7.992 3.24 11.808 5.04zm0 149.18v93.6c-3.888-1.296-7.848-2.52-11.808-3.744v-89.856h11.808zm-11.808-187.49c2.52-1.512 5.472-3.096 8.928-4.896-3.312 0.576-6.264 1.368-8.928 2.448v2.448zm0-204.84v-19.944c2.736 2.448 4.536 6.048 4.536 10.008s-1.8 7.56-4.536 9.936zm0-39.024v-24.264c0.432 0.072 0.936 0.072 1.368 0.072 1.512 0 2.952-0.216 4.392-0.648 2.16 2.736 3.528 6.408 3.528 10.44 0 6.912-3.96 12.744-9.288 14.4zm0-53.136v23.976c-1.728-0.216-3.384-0.792-4.752-1.728 0.504-1.584 0.792-3.312 0.792-5.112 0-4.392-1.728-8.424-4.536-11.304v-0.216c1.872-3.024 4.896-5.184 8.496-5.616zm0 28.872v24.264c-1.008 0.288-2.016 0.432-3.024 0.432-1.944 0-3.816-0.576-5.472-1.512v-23.544c0.576-0.648 1.152-1.296 1.584-1.944 2.088 1.296 4.392 2.088 6.912 2.304zm0 43.344v19.944c-2.304 2.016-5.256 3.24-8.496 3.24v-16.2c3.24-1.656 5.904-4.392 7.416-7.776 0.36 0.216 0.72 0.504 1.08 0.792zm0 68.328v19.44c-3.168 0.36-6.048 1.008-8.496 1.656v-15.984c2.088-2.304 5.112-4.032 8.496-5.112zm0 22.32v2.304c-2.808 0.648-5.616 1.584-8.496 2.808v-2.88c2.52-0.864 5.4-1.656 8.496-2.232zm0 5.472v10.368c-5.472 1.368-8.28 7.416-2.52 11.808 0.792 0.576 1.656 1.224 2.52 1.872v52.848c-1.584 2.088-2.88 4.248-2.88 6.12-2.304-0.504-4.176-1.08-5.616-1.728v-11.808c1.728 3.888 3.96 3.816 4.104-4.464 0.216-15.768-0.792-25.704-4.104-37.656v-23.4c3.168-1.728 5.976-3.024 8.496-3.96zm0 106.42v16.704c-2.952 1.08-5.832 2.448-8.496 4.104v-15.048c1.512-0.648 2.88-1.944 4.752-3.96 0.792-0.864 2.16-1.44 3.744-1.8zm0 19.8c-3.096 1.224-5.832 2.808-8.496 4.824v3.528c2.448-2.088 5.184-3.96 8.496-5.904v-2.448zm0 5.328v19.656c-3.096-1.296-5.976-2.232-8.496-2.808v-9.864c2.016-1.872 4.032-3.672 5.688-4.968 0.936-0.72 1.8-1.368 2.808-2.016zm0 23.616v3.168c-2.808-1.08-5.616-2.016-8.496-2.88v-3.096c2.736 0.72 5.544 1.656 8.496 2.808zm0 6.768v13.752c-0.72-1.656-1.584-3.168-2.736-4.464-1.656-1.8-3.6-2.736-5.76-2.592v-9.576c2.808 0.792 5.616 1.8 8.496 2.88zm0 154.22v89.856c-1.08-0.36-2.088-0.648-3.168-1.008-1.728-0.504-3.528-1.008-5.328-1.584v-87.264h8.496zm-8.496-258.77c0.576 2.232 1.656 2.592 1.512-0.792-0.144-5.184-0.72-10.152-1.512-15.048v15.84zm0-96.264v-19.368c3.024 2.088 4.968 5.688 4.968 9.648 0 4.032-1.944 7.632-4.968 9.72zm0-55.728c2.736-2.088 4.464-5.472 4.464-9.288 0-1.8-0.432-3.6-1.152-5.112-1.152-0.216-2.232-0.504-3.312-0.936v15.336zm0-55.224c0.072-0.432 0.144-0.864 0.144-1.368 0-0.432-0.072-0.936-0.144-1.368v2.736zm0-20.304v-5.328c1.584 1.152 2.808 2.304 3.384 3.6-1.152 0.504-2.232 1.152-3.168 1.944l-0.216-0.216zm0-5.328v5.328c-0.576-0.864-1.224-1.728-1.944-2.52v-4.176c0.72 0.504 1.368 0.936 1.944 1.368zm0 12.744v0.216c0-0.072 0-0.072-0.072-0.072 0.072-0.072 0.072-0.144 0.072-0.144zm0 10.152v2.736c-0.216 2.016-0.864 3.816-1.944 5.328v-13.32c1.08 1.512 1.728 3.312 1.944 5.256zm0 12.744v23.544c-0.648-0.432-1.296-0.936-1.944-1.512v-20.304c0.72-0.504 1.368-1.08 1.944-1.728zm0 29.88v15.336c-0.576 0.504-1.224 0.936-1.944 1.296v-17.568c0.648 0.36 1.296 0.72 1.944 0.936zm0 20.808v16.2h-0.144c-0.576 0-1.224 0-1.8-0.072v-15.336c0.648-0.216 1.368-0.504 1.944-0.792zm0 30.888v19.368c-0.576 0.432-1.224 0.792-1.944 1.08v-21.528c0.72 0.288 1.368 0.648 1.944 1.08zm0 35.568v15.984c-0.648 0.216-1.296 0.36-1.944 0.576v-14.04c0.432-0.648 0.936-1.224 1.368-1.8 0.216-0.216 0.36-0.504 0.576-0.72zm0 19.44v2.88c-0.648 0.288-1.296 0.648-1.944 0.936v-3.096c0.648-0.288 1.296-0.504 1.944-0.72zm0 7.2v23.4c-0.576-2.16-1.224-4.32-1.944-6.624v-15.696c0.648-0.36 1.296-0.792 1.944-1.08zm0 37.584v15.84c-0.072-0.36-0.144-0.72-0.216-1.152-0.504-3.744-1.08-7.272-1.728-10.656v-13.896c0.792 3.24 1.44 6.48 1.944 9.864zm0 27.936v11.808c-0.72-0.288-1.368-0.648-1.944-1.008v-18.072c0.216 1.08 0.432 2.088 0.648 3.096 0.36 1.656 0.792 3.096 1.296 4.176zm0 42.696v15.048c-0.648 0.36-1.296 0.792-1.944 1.296v-15.84l1.08-0.216c0.288-0.072 0.576-0.144 0.864-0.288zm0 18.864v3.528c-0.648 0.576-1.296 1.224-1.944 1.8v-3.744c0.648-0.576 1.296-1.08 1.944-1.584zm0 7.488v9.864c-0.648-0.216-1.296-0.288-1.944-0.432v-7.416c0.648-0.648 1.296-1.296 1.944-2.016zm0 13.824v3.096c-0.648-0.144-1.296-0.36-1.944-0.504v-3.096c0.648 0.144 1.296 0.288 1.944 0.504zm0 6.696v9.576c-0.648 0-1.296 0.216-1.944 0.432v-10.584c0.648 0.144 1.296 0.36 1.944 0.576zm0 157.1v87.264c-0.648-0.144-1.296-0.36-1.944-0.504v-86.76h1.944zm-1.944-492.98v4.176c-2.088-2.376-4.536-4.104-7.128-2.232-2.16 1.512-2.088 4.752-1.512 7.632h-0.36c-0.576 0-1.224 0-1.8 0.072v-19.872c0.864 1.872 1.656 3.528 2.736 4.608 2.088 2.088 5.256 3.888 8.064 5.616zm0 19.008v13.32c-2.016 2.88-5.256 4.824-9 4.824-0.576 0-1.224-0.072-1.8-0.144v-22.68c0.576-0.144 1.224-0.144 1.8-0.144 3.744 0 6.984 1.872 9 4.824zm0 19.728v20.304c-2.952-2.664-4.896-6.984-4.896-11.808 0-2.304 0.432-4.536 1.224-6.48 1.296-0.504 2.52-1.152 3.672-2.016zm0 27.216v17.568c-1.44 0.72-3.096 1.08-4.752 1.08-2.232 0-4.32-0.648-6.048-1.8v-18.432c0.576-0.648 1.152-1.368 1.656-2.088 1.224-0.576 2.52-0.864 3.888-0.936 1.512 1.872 3.312 3.456 5.256 4.608zm0 22.536v15.336c-2.376-0.36-4.608-1.368-6.408-2.808 0.936-2.232 1.44-4.608 1.44-7.2 0-1.584-0.216-3.096-0.576-4.536h0.792c1.656 0 3.24-0.288 4.752-0.792zm0 29.016v21.528c-1.296 0.576-2.736 0.864-4.248 0.864-2.448 0-4.68-0.792-6.552-2.232v-9.072c4.464-2.232 7.776-6.552 8.712-11.736 0.72 0.144 1.44 0.36 2.088 0.648zm0 39.168v14.04c-2.592 0.792-4.536 1.584-5.688 2.016-1.008 0.36-2.736 1.08-3.528 0.216-0.432-0.504-1.008-1.512-1.584-2.52v-1.728c3.96-2.232 7.488-7.632 10.8-12.024zm0 17.64v3.096c-2.088 1.08-4.176 2.304-6.264 3.816-0.936 0.648-1.296 2.52-0.576 4.536 2.664 7.632 5.04 15.12 6.84 22.752v13.896c-2.664-14.112-6.408-25.272-9.864-34.2-0.36-0.936-0.648-1.512-0.936-1.944v-9.792c0.072 0.144 0.144 0.216 0.144 0.288 0.792 1.224 2.232 2.232 3.672 0.864 0.504-0.504 3.168-1.944 6.984-3.312zm0 7.56-2.16 1.296c-1.8 1.08-1.8 2.952-1.224 4.464 1.296 3.6 2.376 6.84 3.384 9.936v-15.696zm0 57.168c-3.168-15.264-5.616-30.384-10.8-45.216v53.712c2.232 0.36 4.32 1.944 5.976 4.248 1.296 1.656 2.016 3.6 4.824 5.328v-18.072zm0 50.472v15.84c-1.872 1.296-3.672 2.736-5.256 4.32-1.872 1.8-3.456 3.96-5.544 6.48v-21.096c2.52-3.816 5.472-4.464 10.8-5.544zm0 19.944c-3.528 3.024-6.984 6.768-10.8 11.448v9c0.432-0.072 0.936 0.072 2.16 0.216 3.024 0.36 5.832 0.936 8.64 1.656v-3.096c-1.944-0.504-3.888-0.936-5.616-1.224-2.664-0.504-4.968-0.792-2.736-4.032 3.024-4.248 5.544-7.488 8.352-10.224v-3.744zm0 7.92v7.416c-0.36 0-0.792-0.072-1.152-0.144-0.792-0.072-1.656-0.144-2.232-0.36-0.72-0.216-0.576-1.368 0.072-2.52 0.792-1.368 1.944-2.88 3.312-4.392zm0 17.928v10.584c-0.144 0.072-0.36 0.144-0.504 0.288-3.168 1.512-5.256 4.968-5.616 8.784-0.792 8.28 3.384 8.496 4.032 13.752 0.288 1.728 0.504 3.816-0.36 4.896-1.44 1.8-3.096 3.744-2.016 7.272-4.176-0.864-5.616 0.216-6.336 2.232v-49.392c0.576-0.288 1.296-0.36 3.24-0.072 2.376 0.36 4.896 0.936 7.56 1.656zm0 157.68v86.76c-3.6-1.008-7.2-2.016-10.8-2.952v-83.808h10.8zm-10.8-369.79c2.736-2.16 4.536-5.544 4.536-9.36 0-3.096-1.152-5.832-3.024-7.92-0.504 0.576-1.008 1.08-1.512 1.584v15.696zm0-24.912v-8.856c0.504 1.368 0.72 2.88 0.72 4.392 0 1.584-0.216 3.024-0.72 4.464zm0-44.136v-7.488c0.288 1.152 0.432 2.448 0.432 3.744s-0.144 2.592-0.432 3.744zm0-64.368v19.872c-0.432 0.072-0.936 0.144-1.368 0.216-0.504-4.68-2.664-10.44-7.416-6.624-1.512 1.152-3.312 4.104-4.896 6.48-0.936-0.504-2.016-0.936-3.096-1.224 2.952-4.032 7.272-7.992 10.656-12.528 3.888-5.256 2.448-8.064-1.368-12.456-2.592-3.024-5.76-4.392-9.432-4.896v-4.968c0.936 0.072 1.872 0.288 2.808 0.504 3.96 1.224 8.64 5.544 10.8 8.856 1.368 2.16 2.376 4.608 3.312 6.768zm0 24.552v22.68c-5.184-0.936-9.216-5.688-9.216-11.376s4.032-10.44 9.216-11.304zm0 32.328c-0.504-2.16-1.44-4.032-2.664-5.616-2.52-0.792-4.824-2.232-6.624-4.176-0.504-0.144-1.008-0.216-1.584-0.216-1.728 1.512-3.816 2.592-6.048 3.096v22.68c1.656 1.08 3.6 1.728 5.688 1.728 5.328 0 9.864-4.248 11.232-10.008v-7.488zm0 17.712v18.432c-3.096-2.088-5.184-5.76-5.184-9.864 0-1.872 0.504-3.744 1.296-5.328 1.44-0.864 2.736-1.944 3.888-3.24zm0 25.056c-0.216-0.576-0.432-1.224-0.72-1.728-2.736-1.368-4.968-3.528-6.552-6.12-0.072-0.072-0.216-0.072-0.288-0.144-2.232 3.24-5.544 5.688-9.36 6.552v18c1.512 0.72 3.24 1.08 4.968 1.08 5.472 0 10.224-3.672 11.952-8.784v-8.856zm0 18.072v15.696c-1.872 1.44-4.176 2.304-6.696 2.304-4.536 0-8.496-2.952-10.224-7.056v-6.84c1.584 0.504 3.24 0.72 4.968 0.72 4.608 0 8.784-1.8 11.952-4.824zm0 21.096v9.072c-2.376-1.8-4.032-4.536-4.536-7.704 1.584-0.216 3.168-0.72 4.536-1.368zm0 40.104v1.728c-0.216-0.504-0.504-0.936-0.72-1.368 0.216-0.144 0.504-0.288 0.72-0.36zm0 7.776c-4.104-6.408-8.424-14.76-16.92-20.448v3.96c4.896 3.744 9.576 9.216 13.608 17.496 1.224 2.376 1.44 4.32 0.576 4.392-5.472 0.144-10.224 0.864-14.184 1.872v3.312c3.744-0.936 8.424-1.656 14.184-1.656 1.584-0.072 2.232 0.144 2.736 0.864v-9.792zm0 17.352v53.712c-1.224-0.144-2.448 0-3.672 0.576 0.216-4.896-4.896-10.872-10.296-5.256-1.584-1.584-2.52-3.816-2.952-6.48v-9.36c0.576-4.032 1.728-7.848 3.24-10.44 2.736-4.68 4.968-7.56 3.312-12.96-1.08-3.528-3.456-4.824-5.904-4.68-0.216 0-0.432 0-0.648 0.072v-8.712c4.176-0.936 8.496-1.296 12.744-0.936 2.016 0.144 2.664 0.36 3.096 1.512 0.36 1.008 0.72 2.016 1.08 2.952zm0 101.23v21.096c-1.08 1.368-2.376 2.808-3.888 4.32-0.936 1.008-1.8 0.936-3.168 0.792-1.08-0.072-2.16-0.36-3.24-1.008 3.168-2.736 4.248-9.72 6.48-16.416 1.368-4.104 2.52-6.84 3.816-8.784zm0 25.848-2.592 3.24c-0.504 0.648-2.736 1.512-3.456 1.368-2.952-0.432-6.48-1.224-10.872-1.44v3.168c2.88 0.216 6.048 0.648 8.064 1.656 0.576 0.288 0.432 1.08 0.432 1.656-3.456 6.408-6.552 12.672-8.496 19.008v30.6c0.072 0.216 0.216 0.504 0.288 0.72-0.72-14.328-0.216-26.28 6.768-39.312 1.8-3.24 4.968-7.848 7.92-10.296 1.08-0.864 1.44-1.296 1.944-1.368v-9zm0 12.816v49.392c-0.792 2.088-0.792 5.184-2.448 8.136-1.44 2.448-7.056 6.192-8.928 9.432-2.016-3.672-3.888-6.048-5.544-7.776v-7.416l0.864 1.512c1.584 2.664 3.96 2.736 3.096-1.872-2.16-11.088-0.72-23.688 2.664-34.416 1.512-4.752 4.248-10.296 8.712-15.264 0.792-0.864 1.08-1.368 1.584-1.728zm0 159.26v83.808c-5.616-1.44-11.232-2.808-16.92-4.176v-79.632h16.92zm-16.92-151.27v-11.592c1.296-0.072 2.88 0.432 3.744 0.792 2.376 0.936 1.08 1.296 0.288 2.808-0.72 1.512-2.232 4.104-3.312 6.336-0.216 0.576-0.504 1.08-0.72 1.656zm0-161.93v-6.336c2.952 0.072 5.472-0.144 6.264-1.008 1.296 0.648 2.952 4.176 3.528 5.112 1.728 2.52-0.216 1.656-2.304 1.656-2.304-0.072-4.824 0.072-7.488 0.576zm0-96.624v-14.688c1.728 0.792 3.672 1.152 5.688 1.152 0.576 0 1.152 0 1.728-0.072 0.144 0.792 0.288 1.656 0.288 2.52 0 5.184-3.24 9.576-7.704 11.088zm0-48.168v-21.744c2.232 0.792 4.104 2.304 5.4 4.248-1.296 2.448-2.088 5.184-2.088 8.136 0 2.232 0.432 4.32 1.224 6.264-1.224 1.368-2.808 2.448-4.536 3.096zm0-61.344v4.968c-0.792-0.144-1.656-0.216-2.52-0.216-3.168-0.144-6.192 0.576-8.712 1.944v-5.1839c0.936-0.4321 2.016-0.7921 3.096-1.0081 2.592-0.576 5.472-0.792 8.136-0.504zm0 39.6v21.744c-1.152 0.432-2.376 0.648-3.6 0.648-2.952 0-5.688-1.224-7.632-3.24v-16.56c1.944-2.016 4.68-3.24 7.632-3.24 1.224 0 2.448 0.216 3.6 0.648zm0 26.496v22.68c-3.6-2.376-6.048-6.84-6.048-12.024 0-4.104 1.512-7.704 3.888-10.224 0.72-0.072 1.44-0.216 2.16-0.432zm0 28.728c-3.168-1.368-5.904-3.888-7.776-7.128-1.296 0.576-2.52 1.368-3.456 2.376v16.704c2.016 2.088 4.752 3.312 7.776 3.312 1.152 0 2.376-0.216 3.456-0.576v-14.688zm0 19.512v18c-4.536-2.016-7.704-6.696-7.704-12.168 0-2.016 0.432-3.96 1.224-5.688 1.008 0.144 2.016 0.288 3.024 0.288 1.152 0 2.304-0.144 3.456-0.432zm0 23.616v6.84c-0.576-1.44-0.936-2.952-0.936-4.608 0-0.864 0.072-1.656 0.288-2.448 0.216 0.072 0.432 0.144 0.648 0.216zm0 44.424v3.96c-0.072-0.072-0.144-0.144-0.288-0.144-3.6-2.736-7.128-4.464-10.944-5.328v-3.96c4.032 1.368 7.92 3.24 11.232 5.472zm0 17.424v6.336c-3.6 0.648-7.488 1.944-11.232 4.248v-11.376c2.664 0.216 7.344 0.792 11.232 0.792zm0 10.296c-4.752 1.224-8.496 2.808-11.232 4.536v3.168c2.664-1.368 6.192-3.096 11.232-4.392v-3.312zm0 6.552v8.712c-2.808 0.504-6.48 3.744-7.92 6.12-2.376 3.96-1.8 8.784-2.736 11.664-0.144 0.504-0.36 0.936-0.576 1.368v-23.904c3.528-1.728 7.344-3.096 11.232-3.96zm0 36.72v9.36c-0.504-2.88-0.432-6.192 0-9.36zm0 97.056v3.168c-2.088-0.144-4.032-0.144-5.4-0.072-1.872 0.072-3.816 0.36-5.832 0.72v-3.168c4.248-0.72 7.992-0.792 11.232-0.648zm0 6.048v11.592c-3.672 8.28-4.968 15.624-5.112 24.912-0.144 6.048 1.08 11.736 5.112 18.864v7.416c-1.44-1.44-2.808-2.52-4.176-3.6-2.88-2.304-3.888-5.76-4.464-7.344-0.504-1.512-1.368-2.52-2.592-2.736v-36.936c2.16-2.232 4.536-4.104 6.624-5.76 1.944-1.44 3.6-3.312 4.032-6.408h0.576zm0 19.44c-0.144 0.576-0.36 1.08-0.504 1.656-2.52 8.856-3.096 20.304 0.504 28.944v-30.6zm0 143.42v79.632c-3.744-0.864-7.488-1.728-11.232-2.592v-77.04h11.232zm-11.232-435.1v-19.8c1.008 0.648 2.16 1.152 3.312 1.512-1.728 3.096-2.808 6.768-2.808 10.8 0 2.52 0.432 4.896 1.152 7.056-0.576 0.216-1.08 0.36-1.656 0.432zm0-82.728v5.1839c-2.376 1.152-4.464 2.952-6.048 5.04-2.232 2.952-3.096 6.264-4.608 9.792-1.872 4.464-3.888 8.64-6.192 12.744v-14.472c0.576-1.944 0.936-3.888 1.152-5.76 0.36-3.744 0.36-8.6399-1.152-10.44v-24.192c1.152 3.528 1.584 8.28 1.944 12.456 0.288 2.952 1.008 5.616 1.512 8.496 0.504 2.808 0.072 2.808-0.504 2.592-2.304-0.936-2.232 2.52 0.432 3.528 1.296 0.576 3.312 0.864 5.112-0.144 2.376-1.368 4.968-3.456 8.352-4.8239zm0 40.68v16.56c-2.088-2.088-3.384-5.04-3.384-8.28s1.296-6.192 3.384-8.28zm0 22.248v19.8c-0.576 0.072-1.152 0.144-1.656 0.144-6.12 0-11.016-5.184-11.016-11.52 0-5.688 3.888-10.368 9.072-11.304 1.08 1.152 2.232 2.088 3.6 2.88zm0 25.632v16.704c-2.16-2.088-3.456-5.04-3.456-8.352 0-3.24 1.296-6.192 3.456-8.352zm0 86.832v3.96c-2.592-0.576-5.256-0.72-8.28-0.648-2.88 0.144-5.76 0.648-8.568 1.512v-7.416c2.448-0.216 4.968-0.144 7.704 0.288 2.88 0.432 6.048 1.224 9.144 2.304zm0 22.104v11.376c-3.384 2.088-6.696 5.04-9.72 9.144-4.176 5.472-1.656 7.848 2.016 5.4 2.376-1.584 4.968-3.096 7.704-4.32v23.904c-1.656 2.736-4.608 4.032-5.616 7.128-1.944-1.872-1.872-2.304-2.808-3.24-2.232-2.232-3.456-1.224-5.76 1.8-0.288-1.944-1.44-2.592-2.664-2.808v-44.64c1.8-1.8 3.816-2.952 7.2-3.528 2.016-0.36 4.536-0.432 7.776-0.36 0.36 0 1.008 0.072 1.872 0.144zm0 15.624c-1.368 0.864-2.448 1.728-3.312 2.52-2.088 1.944-2.592 3.528 1.368 1.656 0.576-0.288 1.224-0.648 1.944-1.008v-3.168zm0 136.44v3.168c-4.248 0.792-8.712 2.16-13.248 3.6-1.224 0.432-2.376 0.864-3.6 1.296v-2.808c0.864-0.432 1.8-0.936 2.592-1.224 5.328-2.088 10.08-3.312 14.256-4.032zm0 17.568v36.936h-0.288c-1.584-0.072-3.456 0.648-5.472 2.448 0.792-4.968-1.8-13.608-2.592-20.232-0.936-7.632 3.312-14.112 8.352-19.152zm0 150.7v77.04l-16.848-3.888v-106.92c0.36-0.144 0.72-0.288 1.08-0.36 3.816-1.512 7.056-5.328 8.064-9.216 0.144-0.792 0.216-1.656-0.288-2.232-1.296-1.296-2.16 0.792-3.24 1.872-1.44 1.512-3.456 2.88-5.616 4.104v-30.96c7.992 5.112 12.96 11.376 13.536 21.168 1.08 16.848-11.016 30.24-10.8 46.8 0.072 6.624-1.224 21.888 3.312 27.288 2.232 2.736 7.776 3.456 4.896-1.152-1.08-1.656-1.8-3.6-2.088-5.688-0.432-3.6-1.008-13.68-0.648-17.856h8.64zm-16.848-166.18c0.36-0.144 0.72-0.432 1.08-0.72 3.312-2.952 9.216-9.288 11.016-12.888 2.736-5.4 4.104-11.016 4.392-16.488 0.648-12.888-3.672-23.544-9.216-34.776-2.088-4.32-4.896-8.64-7.272-12.096v20.52c4.248 6.984 6.264 14.76 6.12 22.32-0.216 6.552-2.016 12.888-5.544 18.216-0.144 0.288-0.36 0.648-0.576 0.936v14.976zm0-204.05v-18.36c0.792 1.728 1.44 3.672 2.088 5.544 1.512 4.896 2.16 9.936 2.232 12.744-1.44 0-2.88 0-4.32 0.072zm0-169.7v24.192c-0.36-0.36-0.792-0.648-1.296-0.648l-0.288-26.64c0.648 0.792 1.152 1.872 1.584 3.096zm0 40.392v14.472c-2.808 4.896-5.904 9.648-9.36 14.328-0.144 0.144-0.288 0.36-0.432 0.504v-10.512c4.032-6.048 7.848-12.384 9.792-18.792zm0 110.95v18.36c-0.792 0-1.584 0-2.304 0.072-0.216-2.664-0.648-5.976-2.016-8.208l0.216-16.848c1.44 1.44 2.88 3.888 4.104 6.624zm0 43.56v7.416c-3.384 1.152-6.624 2.808-9.792 5.256v-9.792c3.024-1.584 6.264-2.52 9.792-2.88zm0 28.44v44.64c-1.512-0.216-3.168 0.288-3.96 0.432-1.368 0.288-3.24 0.288-5.832 0v-6.912c0.144-0.576 0.144-1.224 0.144-1.8-0.504-10.152 0.72-13.392 3.168-18.648 1.872-3.96 0.864-7.128-2.448-7.2 4.536-4.68 6.552-8.136 8.928-10.512zm0 73.44v20.52c-1.152-1.944-2.52-3.744-4.032-5.544v-20.304c1.008 1.224 2.448 3.096 4.032 5.328zm0 61.992v14.976c-1.008 0.432-1.872 0.144-2.448-0.792-1.368-2.016-4.176-1.44-2.16 2.592 1.224 2.304 2.952 2.088 4.608 1.368v2.808c-3.384 1.224-6.696 2.592-9.792 4.104v-14.832c3.888-3.384 7.344-6.768 9.792-10.224zm0 110.59v30.96c-3.168 1.656-6.768 3.024-9.792 4.032v-8.64c3.24-1.656 5.904-3.744 7.128-5.904 1.152-2.232 1.584-5.472 1.512-7.488-0.144-3.96-3.312-4.176-3.24-0.216 0.072 1.584-0.936 2.592-2.088 2.016-0.792-0.36-1.224-1.512-1.944-2.304-0.432-0.432-0.864-0.864-1.368-1.296v-17.136c3.168 1.872 6.264 3.816 9.36 5.76l0.432 0.216zm0 36.792v106.92c-3.24-0.72-6.552-1.512-9.792-2.304v-44.352c0.504 0.864 1.152 1.728 1.944 2.448 1.512 1.44 3.024 0.792 3.24-0.576 0.144-0.864-0.36-1.872-0.72-3.024-1.224-3.384-1.224-7.488-1.152-11.016l0.432-44.424c-0.144-1.44 0.072-1.512 1.584-2.376 0.576-0.36 2.52-0.72 4.464-1.296zm-9.792-186.62v-47.304c0.072 0 0.144 0 0.216 0.072l-0.216 47.232zm0-93.96c0.432-0.576 0.864-1.008 1.296-1.512l0.072-11.808c-0.432 0.36-0.864 0.792-1.368 1.224v12.096zm0-53.712v-38.232h0.072v38.232h-0.072zm0-67.968v-25.272c0.216-0.216 0.36-0.432 0.504-0.648v25.992c-0.144 0-0.288 0-0.504-0.072zm0-55.584c1.224-2.736 2.304-5.4 2.952-7.632l-0.576-65.088c-0.216-1.008-1.08-1.728-2.376-2.088v74.808zm-9.72 432.22c3.168 2.304 6.192 4.824 7.272 6.336 1.152 1.8 1.872 2.304 0.072 4.032-0.936 0.864-3.96 2.16-7.344 3.528v-13.896zm9.72-507.02v74.808c-2.664 6.048-6.408 12.6-9.72 16.992v-91.152c1.584-0.432 3.312-0.72 4.68-0.864 2.016-0.288 3.744-0.216 5.04 0.216zm0 85.68c-2.304 3.528-4.752 6.984-6.912 10.296-0.864 1.368-1.872 2.808-2.808 4.248v10.152c2.88-4.824 6.264-9.504 9.72-14.184v-10.512zm0 19.44v25.272c-1.872-0.36-3.528-0.864-4.752-1.8-2.448-1.728-4.032-1.512-4.968-0.432v-7.2c2.016-4.464 5.04-9.648 9.72-15.84zm0 55.008v38.232c-1.8 1.512-3.168 3.816-4.68 5.472-0.72 0.792-2.952 1.44-5.04 1.872v-50.832c2.448 2.664 5.472 4.68 8.352 5.04 0.432 0.072 0.864 0.144 1.368 0.216zm0 64.152v9.792c-1.368 1.08-2.808 2.304-4.176 3.672-1.944 2.016-3.816 4.248-5.544 6.624v-12.24c3.024-3.384 6.192-6.048 9.72-7.848zm0 15.696c-3.096 2.952-6.624 7.128-9.72 12.744v144.14c3.312-2.304 6.624-4.968 9.576-8.424l0.144-42.408v-47.304c-1.224-0.504-4.896-0.864-6.768-1.08 0.936-2.592 1.44-6.984 1.44-11.448 0.144-8.712-0.432-11.52 3.744-18 2.808-4.32 0.792-4.68-3.816-6.408 1.152-4.608 3.312-7.272 5.4-9.72v-12.096zm0 48.024v6.912c-0.432-0.072-0.864-0.144-1.368-0.216 0.288-2.592 1.08-4.752 1.368-6.696zm0 107.5v14.832c-2.592 1.296-5.04 2.664-7.128 4.176-0.936 0.648-1.728 1.296-2.592 2.016v-13.176c3.312-2.592 6.696-5.184 9.72-7.848zm0 94.392v17.136c-2.808-2.592-6.264-4.824-9.72-6.696v-16.56c3.168 2.088 6.48 4.104 9.72 6.12zm0 32.328v8.64c-0.504 0.216-1.08 0.36-1.584 0.504-2.808 0.936-5.544 1.872-8.136 2.88v-8.28c2.664-0.936 5.04-1.8 6.552-2.376 1.08-0.432 2.16-0.864 3.168-1.368zm0 70.704v44.352c-3.24-0.72-6.48-1.512-9.72-2.304v-94.536c1.8-0.936 3.6-1.728 5.256-2.592 2.52-1.296 2.952-1.656 2.952 4.32 0.144 13.464-0.288 26.856-0.288 40.32 0 3.6 0.072 7.344 1.8 10.44zm-9.72-116.06c4.608 3.672 9.216 6.984 8.712 6.408l0.072-67.104c-0.432-0.36-4.68 3.384-8.784 7.272v53.424zm0-337.32v-1.512c0.288 0.72 0.432 1.296 0 1.512zm-8.424 384.7v-22.464c1.296 0.504 4.968 2.736 8.424 5.256v13.896c-2.88 1.08-5.976 2.304-8.424 3.312zm8.424-523.58v91.152c-1.44 1.872-2.808 3.384-3.96 4.248l-0.36-92.232c0.576-1.584 2.304-2.52 4.32-3.168zm0 99.576v10.152c-0.72 1.224-1.44 2.52-2.16 3.744-3.168 5.904-5.976 12.888-7.272 22.32v21.168c-3.456-4.104-6.552-20.304-17.136-26.28v-4.968c2.52 1.008 4.968 2.376 7.2 3.816 0.72 0.432 2.952 1.872 5.184 1.8 2.736-0.072 2.952-1.8 3.888-3.888 0.792-1.656-0.144-3.528-1.368-1.656-0.576 0.864-2.376 1.152-1.368-2.304 1.512-4.824 2.88-7.704 5.184-11.736 2.52-4.392 5.256-8.352 7.848-12.168zm0 20.736c-3.528 7.776-3.888 13.392-4.032 18.36 0.576-0.144 1.368-0.072 2.448 0.144 0.792 0.216 1.296 0.216 1.584 0.072v-1.512c-0.216-0.576-0.576-1.224-0.72-1.728-0.432-1.656-0.648-4.032-0.36-5.616 0.216-1.008 0.576-1.872 1.08-2.52v-7.2zm0 33.912c-1.44-1.512-2.664-3.312-3.6-5.184l-0.216 56.304h0.576c0.72 0.072 1.944-0.072 3.24-0.288v-50.832zm0 77.256v12.24c-4.968 6.768-8.784 14.76-11.232 22.896-1.656 5.832-2.952 10.224-2.952 16.056l0.072 20.664c-5.256-5.688-4.104-15.12-12.456-20.952v-4.896c4.392 0.792 9.504 0.792 11.448-3.24 1.728-3.456-0.576-5.184-2.088-3.096-1.224 1.656-3.96 1.296-3.024-1.656 1.008-3.24 2.448-7.128 3.816-10.224 1.44-3.384 3.312-6.912 4.968-10.224 3.6-7.056 7.344-13.032 11.448-17.568zm0 20.592c-4.824 8.64-8.64 20.808-8.496 37.224v112.39c2.448-1.656 5.472-3.384 8.496-5.472v-144.14zm0 150.62v13.176c-4.968 4.104-9.144 9.072-12.888 13.32-5.616 6.552-9.936 15.192-9.936 23.76 0 9.288 3.528 14.472 8.568 19.152 4.464 4.176 9.288 7.704 14.256 11.016v16.56l-3.024-1.512c-3.672-1.8-8.424-4.536-11.304-6.408-4.176-2.736-8.208-6.192-12.24-10.44v-53.496c5.184-7.128 12.168-13.536 19.728-19.656 2.232-1.8 4.536-3.6 6.84-5.472zm0 20.088c-4.104 3.888-7.92 7.92-7.632 8.352l-0.432 38.232c1.656 1.656 4.896 4.32 8.064 6.84v-53.424zm0 102.53v8.28c-4.896 1.944-9 4.176-11.52 7.488-2.88 3.888-2.88 8.352-2.376 13.536 0.36 3.528-0.504 4.32-3.024 1.152-4.824-6.12-10.44-13.968-2.448-20.88 4.464-3.816 12.888-7.2 19.368-9.576zm0 14.472c-2.088 1.008-4.104 2.232-5.976 3.816-2.592 2.232-2.376 3.672-2.304 6.768 0 10.296 0.648 21.312 0.576 30.672 0 5.832-1.8 10.728-4.896 12.816-4.752 3.168-4.968-1.224-2.376-4.536 0.864-1.152 1.512-2.808 1.584-6.552 0.216-4.968-0.216-10.512-0.36-16.992h-12.816v61.272c8.712 2.664 17.568 5.04 26.568 7.272v-94.536zm-26.568-203.4v-3.888c1.152-0.936 2.16-2.016 3.024-3.24 2.088 1.944 3.384 4.824 3.384 7.848 0 4.104-2.304 7.776-5.616 9.576 0.288-1.224 0.432-2.52 0.432-3.888 0-2.232-0.432-4.392-1.224-6.408zm0-10.368v-11.376c1.008 1.656 1.584 3.6 1.584 5.688s-0.576 4.032-1.584 5.688zm0-124.13v-11.448c0.144 0.216 0.216 0.432 0.36 0.72 1.152 2.376 4.032 1.8 4.248-0.648 0.432-4.248-1.656-8.064-4.608-11.304v-20.016c2.52 1.008 5.04 2.232 7.488 3.6-4.248 11.448 5.184 13.32 7.488 23.328 1.656 7.416-1.08 16.2-1.08 21.312-2.088-0.36-5.4 0.36-8.28-1.8-1.872-1.368-3.816-3.096-5.616-3.744zm0-152.57v-5.04c1.296-1.08 2.592-2.592 3.6-4.464 1.368-2.736 2.952-3.096 2.88-1.152-0.072 3.24-3.024 7.992-6.48 10.656zm0-29.88v-6.048c4.968-3.816 10.944-6.192 17.208-6.5519v4.8239c-5.616 0-12.096 3.24-17.208 7.776zm0-6.048v6.048c-3.96 3.528-7.128 7.776-8.712 12.024 0 0.144 0 0.216-0.072 0.288v-9.216c2.376-3.528 5.4-6.624 8.784-9.144zm0 30.888v5.04c-1.368 1.152-2.88 1.872-4.248 2.088-1.512 0.288-3.024 0.072-4.536-0.504v-5.544c0.936 1.152 2.16 1.728 3.744 1.44 1.368-0.216 3.24-1.008 5.04-2.52zm0 81.432v4.968c-2.232-1.224-4.752-2.016-7.632-2.16-0.36 0-0.792-0.072-1.152 0v-4.104c0.504-0.072 1.08-0.072 1.584-0.072 2.448-0.072 4.824 0.504 7.2 1.368zm0 33.48v20.016c-2.736-2.952-6.048-5.472-8.784-7.344v-15.48c2.88 0.72 5.832 1.656 8.784 2.808zm0 31.248v11.448c-1.944-0.648-3.6 0-4.464 3.816-1.728-3.888-2.952-6.336-3.888-6.84-0.144-0.144-0.288-0.216-0.432-0.288v-16.488l1.512 0.864c3.24 1.944 5.688 4.608 7.272 7.488zm0 87.048v4.896c-0.576-0.36-1.152-0.792-1.8-1.08-1.224-0.72-3.96-1.512-6.984-1.8v-3.672c1.584 0.072 3.096 0.288 4.536 0.72 1.152 0.288 2.664 0.72 4.248 0.936zm0 37.152v11.376c-1.8 3.024-5.04 5.112-8.784 5.256v-21.816c3.744 0.144 6.984 2.16 8.784 5.184zm0 17.856v3.888c-0.432-1.008-0.936-1.944-1.584-2.808 0.576-0.36 1.08-0.72 1.584-1.08zm0 95.328v53.496c-2.304-2.376-4.608-5.112-6.984-8.136-0.792-1.008-1.296-1.944-1.8-2.88v-8.496c0.216 0 0.432 0 0.648-0.072 1.296-0.144 2.664-0.72 3.384-2.376 1.008-2.52-1.512-1.944-2.304-1.296-0.432 0.432-1.152 0.288-1.728-0.504v-11.448c1.008-4.104 2.664-8.208 4.32-11.376 1.296-2.376 2.808-4.68 4.464-6.912zm0 137.95v61.272c-2.952-0.936-5.904-1.872-8.784-2.808v-58.464h8.784zm-8.784-174.89v-11.592h0.072c0.936 1.728 1.44 3.672 1.44 5.76 0 2.16-0.504 4.104-1.512 5.832zm0-16.56v-16.128c1.872-0.864 3.528-1.944 4.896-3.312 2.016 2.088 3.168 4.968 3.168 8.136 0 5.256-3.384 9.72-8.064 11.304zm0-21.6v-17.136c0.936 0 1.8-0.144 2.592-0.288 1.728 2.016 2.664 4.68 2.664 7.488 0 4.176-2.088 7.776-5.256 9.936zm0-174.67c1.872 1.008 3.672 2.088 5.472 3.24 3.816 2.448 0.432-2.448-4.68-5.688-0.216-0.216-0.504-0.36-0.792-0.576v3.024zm0-155.52v9.216c-2.088 5.976-1.872 11.088 0 13.608v5.544c-3.888-1.728-6.984-6.552-5.688-14.544 0.864-4.824 2.808-9.576 5.688-13.824zm0 101.88v4.104c-6.408 0.072-11.736 4.464-15.984 9.216v-6.048c3.816-3.6 8.784-6.696 15.984-7.272zm0 31.968v15.48c-1.368-0.936-2.52-1.728-3.312-2.376-2.304-1.728-7.704-5.4-11.232-9-0.504-0.504-0.936-1.08-1.44-1.728v-14.904c0.144-0.144 0.288-0.288 0.288-0.216 1.44 4.464 6.192 10.728 12.096 11.952 1.224 0.216 2.376 0.504 3.6 0.792zm0 18.648c-4.32-2.736-9.216-5.832-11.016-7.056s-3.456-2.592-4.968-4.032v4.464c4.968 4.032 10.584 6.696 15.984 9.648v-3.024zm0 7.056v16.488c-1.296-0.648-2.592-0.936-3.384-0.216-0.144-2.016-0.144-3.672-0.576-5.04-1.584-4.752-4.248-7.776-8.352-10.296-1.224-0.72-2.448-1.224-3.672-1.44v-8.424c5.04 3.24 11.16 6.192 15.984 8.928zm0 93.744v3.672c-0.936-0.072-1.944-0.072-2.952-0.072-4.032 0.288-6.768 1.656-8.928 4.968-2.664 3.96-2.376 7.488 2.16 10.44 2.952 1.944 7.128 6.336 9.072 10.224-1.224 0-2.448 0.144-3.6 0.504-1.728-3.528-4.536-8.496-8.424-8.64-1.512-0.072-2.592 0.72-3.312 1.872v-12.168c0.72-2.016 1.368-4.104 2.808-5.976 2.88-3.672 8.208-5.112 13.176-4.824zm0 33.624v21.816h-0.432c-2.376 0-4.608-0.792-6.408-2.16 1.008-2.16 1.584-4.536 1.584-7.056 0-3.456-1.08-6.696-2.88-9.36 1.944-2.016 4.68-3.312 7.704-3.312 0.144 0 0.288 0 0.432 0.072zm0 26.136v17.136c-1.872 1.296-4.176 2.016-6.552 2.016-3.816 0-7.272-1.8-9.432-4.608v-12.888c2.664-0.864 4.968-2.376 6.768-4.464 2.448 1.8 5.544 2.808 8.784 2.808h0.432zm0 22.608v16.128c-1.152 0.432-2.448 0.648-3.816 0.648-1.44 0-2.88-0.288-4.248-0.792 0.792-2.304 1.296-4.752 1.296-7.344s-0.504-5.112-1.296-7.344c0.504 0.072 1.008 0.072 1.512 0.072 2.304 0 4.536-0.504 6.552-1.368zm0 21.096v11.592c-2.016 3.672-5.904 6.12-10.296 6.12-2.088 0-3.96-0.504-5.688-1.44v-11.52c2.304-1.368 4.248-3.24 5.832-5.616 1.944 0.864 4.104 1.296 6.336 1.296 1.368 0 2.592-0.144 3.816-0.432zm0 66.816v11.448c-0.288-0.36-0.504-0.936-0.648-1.584-0.504-2.952-0.144-6.408 0.648-9.864zm0 15.696c-1.368 0-3.24-0.432-4.392-1.008-3.24-1.512-7.344-3.384-11.592-4.032v3.384c0.864 0.072 1.872 0.216 3.168 0.576 2.448 0.792 5.4 2.016 7.704 3.384 3.24 1.944 3.888 3.888 5.112 6.192v-8.496zm0 103.97v58.464c-5.4-1.8-10.728-3.744-15.984-5.832v-52.632h15.984zm-15.984-149.11v-15.84c0.864 0.288 1.728 0.576 2.664 0.72 1.008 1.728 1.584 3.816 1.584 5.976 0 3.672-1.656 6.912-4.248 9.144zm0-39.168v-20.88c0.36 0.288 0.72 0.504 1.152 0.72 2.016 2.448 3.312 5.832 3.312 9.504 0 4.32-1.728 8.136-4.464 10.656zm0-45.072v-20.808c3.744 1.872 6.336 5.832 6.336 10.44 0 4.536-2.592 8.496-6.336 10.368zm0-109.44v-18.288c0.936 2.232 1.584 4.608 1.656 7.344 0.072 3.96-1.08 7.704-1.656 10.944zm0-91.296v6.048c-0.864 1.008-1.728 2.016-2.52 3.024-1.8 2.16-3.168 4.32-3.888 6.552v-8.424c1.872-2.304 3.96-4.896 6.408-7.2zm0 12.168c-0.648 0.72-2.304 3.168-2.736 5.976-0.504 3.096 0.864 6.408 2.736 8.928v-14.904zm0 20.088v4.464l-1.512-1.296c-2.016-1.8-3.672-4.176-4.896-6.264v-6.624c0.288 1.08 0.792 2.16 1.44 3.312 1.296 2.376 3.024 4.464 4.968 6.408zm0 9.216c-1.872-1.224-3.528-2.52-4.968-3.816-0.504-0.432-1.008-0.936-1.44-1.44v61.416c1.08-3.096 2.448-4.68 6.192-3.672 0-0.864 0.072-1.728 0.216-2.664v-18.288c-2.232-5.544-5.976-9.864-5.976-15.264 0.072-6.408 2.808-8.352 5.976-7.848v-8.424zm0 113.47v12.168c-1.296 2.088-1.584 5.4-1.512 7.488-1.008-0.216-2.088-0.36-3.24-0.36h-0.72c0.144-1.152 0.36-3.168-0.072-4.536-0.288-0.72-0.576-1.296-0.864-1.8v-5.832c0.216-0.144 0.432-0.216 0.648-0.288 3.672-1.296 4.752-3.96 5.76-6.84zm0 24.984v20.808c-1.44 0.72-3.024 1.08-4.752 1.08-0.576 0-1.08 0-1.656-0.144v-22.68c0.576-0.072 1.08-0.144 1.656-0.144 1.728 0 3.312 0.432 4.752 1.08zm0 25.632v12.888c-1.512-2.016-2.448-4.608-2.448-7.344 0-1.8 0.36-3.6 1.152-5.112l1.296-0.432zm0 19.368v20.88c-1.8 1.728-4.032 2.808-6.408 3.024v-23.616c1.008-0.936 1.944-1.944 2.736-3.096 0.288 0.144 0.576 0.216 0.864 0.36 0.864 0.936 1.8 1.728 2.808 2.448zm0 27.432v11.52c-1.728-0.936-3.168-2.304-4.248-3.888 0.792-1.944 1.224-4.104 1.296-6.336 1.008-0.288 2.016-0.792 2.952-1.296zm0 16.776v15.84c-1.8 1.512-3.96 2.52-6.408 2.736v-22.824c1.728 1.872 3.96 3.312 6.408 4.248zm0 55.944v3.384c-0.792-0.072-1.44 0-2.16 0-1.44 0.072-2.88 0.288-4.248 0.864v-4.248c2.088-0.432 4.248-0.36 6.408 0zm0 109.01v52.632c-2.16-0.864-4.32-1.728-6.408-2.664v-49.968h6.408zm-6.408-91.728v-3.96c1.152-1.224 1.296-3.312 1.296-4.752 1.008-0.576 2.448-0.936 4.32-0.36-0.216 3.168-1.656 6.192-3.672 7.992-0.576 0.432-1.224 0.864-1.944 1.08zm0-21.6v-20.736c1.512-2.448 0.936 1.008 0.576 2.664-1.296 5.328-0.288 12.384 2.952 17.928-0.144-0.144-2.232-0.144-3.528 0.144zm0-103.46v-1.08c0.072 0.216 0.144 0.432 0.144 0.576 0 0.216-0.072 0.36-0.144 0.504zm0-210.1v8.424c-0.72 2.16-0.792 4.392 0 6.912v6.624c-0.864-1.44-1.512-2.736-1.944-3.744-1.872-3.816-2.736-1.872-4.536 0.288-0.216 0.288-0.504 0.648-0.72 0.936v-6.408c0.792-1.296 0.864-2.232 0-3.456v-4.32c1.512 0.648 2.376-0.36 3.312-1.152 1.296-1.08 2.592-2.52 3.888-4.104zm0 29.016v61.416c-0.648 1.8-1.224 4.032-2.088 6.552-0.792-3.312-2.448-4.464-4.536-4.536h-0.576v-65.16c0.216-0.432 0.432-0.864 0.648-1.224 1.368-2.592 2.376-3.6 3.24-1.656 0.432 1.152 1.728 2.952 3.312 4.608zm0 125.86v5.832c-1.584-2.232-3.888-1.44-6.624 0.144-0.216 0.144-0.36 0.288-0.576 0.432v-3.24c2.376-1.368 4.896-2.376 7.2-3.168zm0 16.92v22.68c-2.952-0.432-5.544-2.16-7.2-4.536v-13.536c1.656-2.448 4.248-4.104 7.2-4.608zm0 37.224v1.08c-1.368 3.168-3.96 5.616-7.2 6.696v-20.592c1.8 1.368 3.96 2.304 6.264 2.736 0.216 0.36 0.432 0.72 0.576 1.08-0.288 1.224-0.432 2.52-0.432 3.888 0 1.8 0.288 3.528 0.792 5.112zm0 9v23.616c-0.36 0-0.648 0.072-1.008 0.072-2.304 0-4.392-0.792-6.192-2.016v-17.928c2.664-0.648 5.184-1.944 7.2-3.744zm0 39.672v22.824c-0.432 0.072-0.792 0.072-1.224 0.072-2.16 0-4.248-0.648-5.976-1.656v-16.344c2.664-1.08 5.04-2.952 6.84-5.328 0.144 0.144 0.216 0.288 0.36 0.432zm0 35.136v20.736c-0.504 0.072-0.936 0.216-1.008 0.432-0.216-2.376-5.76-8.568 0.36-20.016 0.216-0.504 0.432-0.864 0.648-1.152zm0 25.056v4.248c-2.088 0.792-3.888 2.232-4.896 4.248-1.944 3.816 0.504 6.336 2.808 5.904 0.936-0.144 1.584-0.504 2.088-1.08v3.96c-2.304 0.864-5.184 0.576-7.2-0.72v-12.24c2.016-2.52 4.536-3.816 7.2-4.32zm0 109.01v49.968c-2.448-1.08-4.824-2.16-7.2-3.312v-46.656h7.2zm-7.2-169.92v-11.16c1.8 0.864 3.744 1.296 5.832 1.368-0.36 4.176-2.592 7.776-5.832 9.792zm0-255.96c0.72-0.072 1.368-0.36 1.944-0.864 1.008-0.792 5.4-4.248 4.248-5.544-1.872-2.232-1.512-4.248-1.08-7.128 0.36-2.232-2.304-4.176-5.112-5.256v18.792zm0-18.792v18.792c-3.6 0.432-8.424-3.528-12.456-7.488v-12.168c2.16-0.072 4.536-1.944 5.544-4.824 2.304 3.384 4.248 4.68 6.48 5.472l0.432 0.216zm0 23.04c-0.072 0-0.216-0.072-0.288-0.072-3.168-1.584-6.624-3.672-10.008-6.048-1.224-0.864-1.944-1.224-2.16-1.08v0.36c0.144 0.432 0.792 1.224 1.8 2.304 3.168 3.384 5.544 4.248 9.072 7.272 0.72 0.576 1.224 1.08 1.584 1.584v-4.32zm0 7.776v6.408c-1.8 2.52-3.672 6.048-5.04 8.928-4.536 9.792-5.904 20.88-7.416 31.248v-17.928c1.728-8.496 4.536-16.776 9.144-23.832 1.44-2.16 2.592-3.6 3.312-4.824zm0 14.256c-0.432 0.864-1.008 1.944-1.728 3.168-3.96 7.056-6.336 20.664-7.992 28.944-0.36 1.944-1.44 8.064-2.736 12.672v27.216c3.096-0.936 6.12-1.944 7.056-3.024 1.44-1.584 3.312-3.528 5.4-3.816v-65.16zm0 130.75v3.24c-2.808 1.872-4.248 4.464-5.112 6.336-0.936-0.432-1.944-0.72-2.952-0.864 1.584-4.104 4.68-6.84 8.064-8.712zm0 18.36v13.536c-1.368-1.944-2.16-4.248-2.16-6.768s0.792-4.896 2.16-6.768zm0 19.8v20.592c-1.152 0.36-2.448 0.576-3.744 0.576-3.456 0-6.552-1.512-8.712-3.888v-14.976c0.576 0.072 1.152 0.072 1.728 0.072 3.528 0 6.84-1.224 9.504-3.312 0.36 0.36 0.792 0.72 1.224 0.936zm0 25.56v17.928c-3.384-2.448-5.688-6.768-5.688-11.736 0-2.088 0.36-4.032 1.08-5.832 0.288 0.072 0.576 0.072 0.864 0.072 1.296 0 2.52-0.144 3.744-0.432zm0 24.048c-3.384-1.584-6.192-4.392-7.992-7.848-1.44 0.72-2.952 1.224-4.464 1.512v17.136c1.872 1.296 4.104 2.088 6.48 2.088 2.16 0 4.176-0.648 5.976-1.728v-11.16zm0 16.776v16.344c-3.528-2.088-5.904-5.904-5.904-10.296 0-1.728 0.36-3.384 1.08-4.896 1.656-0.144 3.312-0.504 4.824-1.152zm0 59.616v12.24c-0.72-0.36-1.296-0.936-1.728-1.584-1.368-2.016-1.656-5.256 0.072-8.28 0.504-0.936 1.08-1.728 1.656-2.376zm0 104.69v46.656c-4.248-2.088-8.424-4.248-12.456-6.624v-40.032h12.456zm-12.456-192.31v-14.904c0.936 0.576 2.016 1.08 3.096 1.512-0.72 2.088-1.08 4.392-1.08 6.768 0 1.872 0.216 3.744 0.72 5.472-0.864 0.504-1.8 0.864-2.736 1.152zm0-40.608v-22.752c0.504-0.072 1.152-0.144 1.728-0.144 2.664 0 5.184 1.008 7.056 2.736-1.8 2.592-2.88 5.832-2.88 9.36 0 3.168 0.864 6.12 2.448 8.64-1.872 1.44-4.176 2.304-6.624 2.304-0.576 0-1.224-0.072-1.728-0.144zm0-164.74v-26.64c2.52 3.24 5.4 5.328 6.84 7.056 0.864 1.152 1.08 2.16 0.432 3.456-2.592 5.184-5.112 10.08-7.272 16.128zm0-47.88v12.168c-0.36-0.36-0.72-0.648-1.08-1.008-0.504-0.504-4.968-7.704-3.168 1.296 0.792 3.672 2.376 6.552 4.248 8.784v26.64c-3.456 9.504-5.904 21.816-6.12 42.264-0.072 6.624 2.592 8.28 4.392 5.112 0.576-1.08 1.152-2.664 1.728-4.536v27.216c-2.736 0.864-5.544 1.656-7.416 2.52v-60.48c0.576-0.864 1.08-1.872 1.44-2.88 1.584-4.464 0.432-6.84-1.44-8.64v-51.768c0.648 0.216 1.224 0.288 1.872 0.36 2.232 0.216 3.096 2.808 5.184 2.952h0.36zm0 16.704c-0.144 0-0.144 0.144 0 0.36v-0.36zm0 43.632c-1.728 8.28-2.448 16.848-2.88 24.84-0.072 2.016 0.648 6.336 1.728 0.36 0.36-2.304 0.792-4.752 1.152-7.272v-17.928zm0 129.53v22.752c-3.096-0.576-5.76-2.376-7.416-4.896v-12.96c1.656-2.52 4.32-4.392 7.416-4.896zm0 27.288v14.976c-1.944-2.16-3.168-4.968-3.168-8.064 0-2.592 0.864-5.04 2.304-7.056 0.288 0.072 0.576 0.144 0.864 0.144zm0 21.168v14.904c-1.008 0.216-2.016 0.36-3.024 0.36-1.584 0-3.024-0.288-4.392-0.792v-17.208h0.216c1.224 0 2.376-0.144 3.528-0.36 1.08 1.152 2.304 2.232 3.672 3.096zm0 19.8v17.136c-3.24-2.304-5.4-6.192-5.4-10.656 0-2.232 0.576-4.392 1.584-6.264 0.216 0.072 0.504 0.072 0.792 0.072 1.008 0 2.016-0.144 3.024-0.288zm0 187.42v40.032c-2.52-1.44-4.968-2.952-7.416-4.536v-35.496h7.416zm-7.416-214.78v-2.664c0.216 0.936 0.576 1.8 0.936 2.664h-0.72-0.216zm0-10.728v-5.832c0.648 0.432 1.224 0.792 1.944 1.224-0.864 1.368-1.512 2.952-1.944 4.608zm0-223.34v51.768c-1.296-1.296-2.952-2.304-4.248-3.6-1.368-1.224-2.952-2.808-2.952-5.688-0.072-3.024-0.936-7.704-4.608-8.712 2.16-1.008 2.448-3.816 2.016-6.984-0.936-6.552-3.096-8.64-0.36-15.336 1.44-3.6 5.544-10.44 4.32-13.896 1.872 0.936 3.816 1.944 5.832 2.448zm0 63.288v60.48c-1.296 0.576-2.16 1.152-2.16 1.728 0.432-2.52-0.936-9.504-1.152-15.264-0.216-6.048-2.304-10.512-7.344-4.968 0-7.992-4.896-21.96-1.512-30.168 1.8-4.248 8.568-6.264 12.168-11.808zm0 134.78v12.96c-1.224-1.872-1.872-4.104-1.872-6.48s0.648-4.608 1.872-6.48zm0 19.44v5.832c-0.288 1.296-0.504 2.664-0.504 4.032s0.216 2.736 0.504 4.032v2.664c-6.408-0.072-11.592-5.4-11.592-11.952 0-4.68 2.736-8.784 6.768-10.728 1.08 2.448 2.808 4.536 4.824 6.12zm0 21.384v17.208c-4.392-1.8-7.488-6.12-7.488-11.16 0-2.592 0.792-5.04 2.232-6.984 1.656 0.576 3.456 0.936 5.256 0.936zm0 209.95v35.496c-2.376-1.584-4.752-3.168-7.056-4.896-11.448-8.496-19.8-19.008-24.768-30.6h31.824z"
            fill="#3aac36" />
        <path
            d="m302.62 172.94c-0.936-0.648-2.016 1.296-2.52 1.944-1.872 2.088-4.464 2.808-6.984 1.872-2.304-0.792-4.104-2.736-0.792-4.392 3.024-1.512 0.864-5.184-0.648-8.928-1.008-2.448-1.224-5.688-0.216-10.368-3.672-6.624 1.08-12.024 4.104-15.264 1.008-1.08 2.52-2.232 3.024-3.528 0.36-0.936 0.288-1.584-0.432-2.232-3.96-3.456-4.68-2.952-4.968-8.496-0.072-1.44-0.36-2.232-2.736-2.736-2.16-0.432-3.888-1.8-5.256-3.6-2.592-3.456-0.792-10.512 2.376-12.6 1.368-1.008 1.872-1.08 2.016-2.664 1.08-10.152 7.056-10.368 13.248-11.376 4.464-0.72 7.056-2.304 9.864-4.896 5.04-4.608 11.52-8.64 17.208-13.176 1.152-0.936 1.944-2.376 2.736-5.112 1.872-5.976 6.192-7.92 10.44-9.36 1.296-0.432 2.952-0.7919 2.952-2.232 0-1.944 1.008-4.896 2.016-6.984 2.664-5.616 10.08-13.968 16.272-17.64 1.944-1.152 3.312-1.656 5.616-1.512 0.864 0.072 1.656 0.072 2.664-0.648 1.512-1.008 3.528-3.744 5.904-5.688 1.944-1.512 4.536-2.592 7.056-2.592 1.512 0 3.024 2.664 2.016 4.464-4.032 7.2-9.648 12.24-11.448 20.592-0.288 1.44-0.36 2.664 1.44 2.52h3.744c2.376 0 3.384-1.296 4.968-2.808 7.56-7.272 10.008-9.072 20.808-11.016 3.816-2.664 16.416-9 36.72-4.032 14.4-0.432 28.728 6.624 35.928 29.016 3.816 2.52 8.208 9 9.432 12.312 10.728 5.76 16.92 16.632 18.144 30.744 4.752 5.112 11.232 22.176 9.864 41.472 5.544 14.616 2.376 27.792 1.08 39.312 2.088 10.728 1.584 20.808-0.36 31.896 2.304 4.824 3.744 22.608 1.224 29.448 5.616 7.992 4.68 12.888 5.328 20.304 0.36 4.176 1.728 9.072 4.752 15.696 3.024 6.552 0.288 6.48-4.392 3.96-13.536-7.56-14.904-16.344-15.912-22.68-7.992-9.216-7.416-15.984-6.984-24.264-6.84-8.856-9-18.288-5.256-30.168-5.112-10.656-2.592-25.776-1.872-34.344-1.368-8.136-4.464-21.24-2.52-40.392-0.936-3.672-3.168-6.912-4.032-9.288-0.432-1.08-1.512-1.728-1.44 1.44 0.144 3.456-3.744 10.944-5.472 14.76-0.288 12.96-3.6 21.384-9.792 29.448 0.792 9.864-3.456 26.28-8.856 32.616 2.088 7.776 1.728 15.336-0.936 22.968 2.952 6.048 1.08 14.616 0.504 22.392-0.36 6.048 0.576 10.872 2.52 16.632 0.936 2.736-0.936 5.184-3.672 3.888-13.104-6.264-14.184-26.496-13.608-24.408-7.344-8.136-3.816-22.464-3.816-26.064-4.968-13.536-1.008-21.456 1.944-29.016-1.44-19.008 1.44-22.104 6.408-31.464 1.512-13.032 0-22.968 7.416-34.272-1.152-1.8-1.152-29.376 0.72-32.04-1.512-2.16-2.52-3.672-3.024-5.4-2.88-1.8-8.784-3.168-12.96-5.544-1.8-1.008-1.584-0.792-2.808 1.08-1.44 2.16-4.104 4.896-6.048 6.552-0.936 0.792 0 1.656 0.648 2.952 2.736 5.544 3.528 10.656 3.744 15.12 0.36 6.12-0.144 12.744-0.936 18.504-0.576 4.392-1.584 7.92-1.584 12.528s0.72 9 4.464 8.208c2.16-0.432 4.536-3.024 3.456 1.584-1.152 4.392-2.592 6.552-5.76 7.56-1.296 0.36-2.952 0.792-5.328 0.864-1.512 0-1.944-0.432-1.8 2.088 0.216 4.536-2.16 12.312-4.752 17.928-2.376 4.968-8.28 10.944-3.312 16.128 2.664 2.664 5.4 1.872 8.064 0.432 1.512-0.792 3.312-0.792 1.584 2.736-4.32 8.784-9 9.504-15.048 8.424-1.872-0.288-2.736-0.576-3.096 2.808-0.504 5.472 0.216 11.88 2.592 17.568 2.304 5.472 2.592 10.08 3.816 15.696 0.72 3.24 3.168 6.336 5.112 9.504 7.488 12.168 13.176 24.12 18.792 35.712 5.832 12.024 10.944 25.416 17.568 36.144 9.288 15.048 20.016 29.52 33.264 41.328 5.4 4.824 11.88 11.232 15.48 17.712 2.52 4.464 4.968 11.304 9.216 14.616 3.384 2.664 7.776 3.744 11.016 5.4 6.48 3.168 11.808 7.632 16.128 13.464 4.104 5.544 7.056 12.096 7.488 18.864 0.288 5.76 1.152 12.888 3.024 17.136 2.448 5.544 5.328 4.536 9.288 1.872 2.16-1.44 2.808 0.144 2.304 1.512-2.448 6.912-6.696 9.216-10.584 9.288-1.728 0-1.584 1.008-1.296 2.304 1.512 8.64-1.368 11.88-1.872 16.704-1.008 8.856 1.512 9.36 7.92 9.216 2.016 0 2.16 2.16-1.008 4.464-4.752 3.528-19.296 2.448-19.872-5.256-0.144-2.016-0.648-2.736-2.664-1.656-3.384 1.872-9.072 1.08-12.312-1.368-3.6-2.808-2.232-4.608-0.216-4.824 2.808-0.36 4.752-0.504 6.408-3.024 2.016-3.024 1.368-7.416 0.072-10.512-2.952-7.056-10.152-10.224-12.6-17.352-1.224-3.528-1.224-7.416-0.936-11.376 0.792-9.864 5.904-19.224-2.304-27.36-1.728-1.656-3.024-1.512-2.448 0.864 1.08 5.04-3.96 15.984-5.04 20.736-1.224 5.256-2.736 12.096 4.248 12.384 1.008 0.072 1.944 1.152 0.144 2.88-3.528 3.24-6.48 3.528-9.648 1.728-2.016-1.152-1.728-0.936-1.08 2.16 0.792 3.672 1.44 5.328 3.672 8.208 3.456 4.392 4.392 13.896-1.152 17.064-4.032 2.232-3.744-1.152-3.744-3.384 0-2.736-0.936-5.832-2.664-6.696-1.368-0.72-3.24-0.36-3.888 1.656-0.72 2.592-0.792 7.848 0.072 11.88 1.008 4.896 4.968 9.792 9.144 12.744s10.296 3.528 13.608 7.632c1.584 1.872 2.88 4.248 2.952 7.992 0 4.464 0.36 3.816 2.376 7.848 2.736 5.544-0.72 10.296-3.672 13.968-6.624 8.136-10.584 18.576-12.6 28.872-1.656 8.352-3.024 16.416-6.336 24.408-1.872 4.392-3.456 8.784-3.888 13.176-0.288 2.952 0.288 5.832 0.36 9.072 0.144 4.248 1.152 6.264-3.312 8.928-2.016 1.224-5.688 3.096-8.064 2.952-2.592-0.144-1.152-1.8-4.176-0.936-0.864 0.216-2.232 1.152-3.312 2.16-2.664 2.592-0.216 4.824-1.656 7.92-0.432 1.008-2.016 1.728-1.8 3.312 0.936 7.92-2.52 18.288-8.496 23.688-5.832 5.328-14.688 7.776-22.32 7.344-2.88-0.144-5.4-1.584-6.12-4.32-0.144-0.504-0.504-1.224-1.872-1.296-4.32-0.288-8.568-0.648-10.944-5.112-1.512-2.736 1.296-5.904 3.096-7.848 3.528-3.744 7.776-6.12 9.864-10.512 1.008-2.016 1.44-3.816 1.224-7.416-0.36-8.208 2.808-11.376 7.056-14.616 4.392-3.384 11.448-6.048 16.848-12.744 6.624-8.28 8.784-20.88 12.816-30.528 3.384-8.208 5.04-19.368 2.808-29.304-1.512-6.84-5.184-12.6-10.512-17.424-6.192-5.616-17.784-13.824-22.104-20.736-2.448-3.888-4.464-4.968-6.696-2.736-2.52 2.592-6.192 6.696-6.624 11.016-0.288 3.6 0.648 6.336 2.376 8.928 1.728 2.664 3.744 5.184 3.888 7.992 0.288 5.328-1.44 6.264-3.816 10.656-0.864 1.656-1.224 2.304-1.656 4.68-1.296 7.2-4.032 5.904-11.088 9.216-2.016 0.936-3.312 2.736-4.32 4.536-3.168 5.688-13.248 15.696-18.504 20.664-7.488 7.056-15.048 13.896-19.944 19.584-5.184 6.12-2.808 8.712-4.68 13.536-1.584 4.032-4.752 6.264-8.568 7.776-3.6 1.368-6.624 2.304-6.624-0.504 0-1.512-3.528-0.864-3.744 0.648-0.216 1.44-0.792 3.312-2.664 5.328-0.936 1.008-0.792 2.376-0.936 3.312-1.152 8.496-2.16 13.32-8.28 19.44-4.536 4.536-18.936 7.2-25.2 4.464-1.8-0.72-3.168-2.232-4.176-5.04-0.432-1.08-1.656-2.232-2.808-1.944-1.44 0.432-12.456-4.32-7.56-10.08 3.456-4.032 11.736-5.688 15.336-13.392 1.512-3.312 0-7.128 0.864-10.224 0.72-2.736 2.304-5.544 7.416-8.568 7.416-4.536 18.36-8.496 24.84-14.256 4.176-3.744 4.608-7.344 8.352-11.736 5.328-6.192 14.832-16.92 19.872-28.08 2.952-6.624 3.744-13.608 3.312-18.864-0.432-5.184-2.808-8.568-5.112-13.248-5.616-11.592-8.352-24.696-7.128-37.584s5.688-20.52 13.176-29.088c5.832-6.768 14.328-16.128 15.912-23.4 1.584-7.344-8.784-8.496-8.496-16.488-3.384-2.736-6.264-5.544-9.072-8.352-5.544-5.616-11.736-11.664-19.152-15.984-7.704-4.464-14.256-6.336-21.816-11.304-10.152-6.624-18.36-15.768-24.84-25.92-1.512-2.304-2.52-4.896-3.744-6.984-0.864-1.368-2.16-2.088-3.024-1.008-1.728 2.16-6.336 6.696-4.536 0.072 0.72-2.736 1.152-5.256 0.792-8.136-0.216-1.944-2.808-4.176-3.816-6.048-0.792-1.512-1.224-3.024-1.008-4.68 0.144-1.296 0.504-3.384-1.656-1.944-3.384 2.232-3.6 7.92-3.816 11.448-0.216 2.736-2.52 2.088-3.672 0.36-4.968-7.128-3.456-12.024-2.088-15.552 0.72-1.872 2.736-3.96 3.24-5.832 0.72-2.664-0.936-2.16-2.664-2.736-3.6-1.296-5.976-5.112-8.28-7.92-2.592-3.096-5.04-6.84-8.208-10.584-4.248-5.04-9.288-7.92-14.544-11.736-8.352-6.048-15.912-13.248-23.256-20.52-2.016-2.016-2.736-3.744-4.896-4.176-2.232-0.432-4.464-0.792-6.84-1.8-4.032-1.584-7.632-4.32-11.448-6.264-2.88-1.44-3.528-1.728-8.568-0.576-8.568 1.944-17.496 5.544-25.488 8.568-4.752 1.8-10.296 4.104-13.896 7.488-1.8 1.728-2.808 3.528-3.888 5.112-2.376 3.24-5.904 4.32-8.424 3.528-2.448-0.72-3.24-1.944-6.408-1.872-2.592 0-4.536 2.448-6.408 4.104-6.696 6.12-16.848 7.272-25.992 2.952-3.456-1.584-5.976-4.392-7.2-7.992-0.432-1.224-0.576-2.52 0.504-3.672 0.648-0.72 2.16-0.936 2.448-2.16 0.072-0.648-0.576-1.224-0.936-2.232-1.296-4.032-0.576-8.28 4.032-8.208 3.024 0 5.616 1.224 8.424 1.368 1.8 0.144 7.128-0.864 8.28-2.16 2.088-2.232 3.888-5.832 6.984-6.768 4.752-1.368 10.512-0.72 15.912-1.008 3.888-0.144 7.848-0.936 11.376-2.52 4.968-2.232 10.584-5.76 12.672-6.912 4.896-2.592 9.648-5.688 14.4-8.784 2.664-1.8 9.432-2.952 12.168-4.608 4.32-2.592 4.32-5.472 10.44-5.976 2.664-0.216 5.256 0.144 7.992 0.432 1.224 0.144 2.52-0.072 3.888-0.216 4.392-0.432 7.128 2.952 10.44 6.336 2.952 3.096 7.56 5.976 11.952 7.704 5.256 2.016 4.32 1.008 1.656-2.592-0.864-1.296-2.232-2.88-3.24-4.248-1.8-2.52-2.88-5.112-3.744-7.848-0.072-0.36-1.656-2.16-4.032-3.024-2.232-0.864-4.464-2.88-6.192-4.68s-3.456-3.384-3.744-3.528c-1.944-0.792-4.032-1.224-6.192-1.656-7.632-1.8-23.976-1.872-32.04-1.008-2.376 0.288-4.608 0.864-6.192 1.656-4.176 1.944-8.712 7.2-13.68 7.2-3.6 0-9.576-0.36-7.344-5.4 0.36-0.792 1.008-1.584 1.296-2.232 1.08-2.304-1.224-2.232-2.88-1.872-1.224 0.216-2.232 1.8-3.384 2.448-2.592 1.512-3.24-0.072-4.464 0.72-2.376 1.656-5.832 3.456-9.504 4.248-2.448 0.576-7.848 0.72-11.232 0.216-6.696-0.864-13.824-10.08-13.824-17.064-0.072-3.024 0.576-4.176 3.888-3.384 3.312 0.864 1.224-1.656 0.864-3.168-0.432-1.656-0.648-4.032-0.36-5.616 0.576-2.808 2.304-4.752 6.048-2.088 3.384 2.52 10.368 2.304 14.904 2.448 2.088 0.072 2.16 1.656 3.744 1.152 1.44-0.504 3.168-2.016 5.832-2.736 3.528-1.008 9.072-0.504 12.384 0.72 6.336 2.304 8.496 4.392 14.328 4.464 4.032 0.072 9.864-1.08 13.896-1.872 7.488-1.44 15.264-3.456 22.752-5.472 3.384-0.936 7.056-0.936 10.224-2.232 1.872-0.72 3.96-1.8 5.616-1.728 4.32 0.072 7.92 3.384 12.816 4.968 2.664 0.864 5.616 1.872 7.56 3.096 3.672 2.232 2.88 7.92 4.896 10.728 7.128 10.368 22.464 18.072 32.544 28.44 1.944 1.944 3.456 3.744 4.176 5.616 0.792 1.944 2.016 1.656 2.16-0.432 1.44-14.112 5.904-17.424 13.896-22.896 1.584-1.08 3.528-2.232 3.816-4.176 0.504-2.736 1.872-5.04 3.816-7.56 2.448-3.096 5.544-6.048 8.712-8.28 1.44-1.008 2.448-1.944-0.216-3.024-0.792-0.288-2.736-0.144-4.032 0.216-1.872 0.576-2.448 0.432-2.088-1.08 1.8-7.128 6.84-6.552 11.232-6.696 1.656-0.072 4.104-1.728 5.112-2.664 2.232-2.088 5.184-6.408 7.416-8.208 2.16-1.872 0.864-2.232-1.152-3.528-3.672-2.448-2.088-7.056-0.072-10.224 1.224-1.872 2.232-3.384 3.312 0.288 0.648 2.592 1.728 1.728 3.24 0.792 2.088-1.296 8.496-10.152 4.176-10.872-3.24-0.576-7.128-2.16-9.72-3.384-1.944-1.008-3.384-1.8-4.608-1.368-6.552 2.016-14.76 0.72-18.936 0.072-1.08-0.144-2.376-0.504-3.24 0.072s-1.296 3.456-1.44 4.392c-0.144 1.944 0.36 3.312 1.008 5.256 2.448 7.992 2.376 11.16-1.296 15.264-1.584 1.8-3.816 2.448-5.544 3.672-2.304 1.728-4.968 4.248-5.544 6.768-0.648 2.52 0.792 4.752 1.8 7.416 1.512 4.032 1.584 9.936-1.152 13.536-1.44 1.8-3.744 2.448-5.904 2.592-1.44 0.144-3.024-1.224-1.728-2.592 1.656-1.656 3.312-5.256 0.216-7.344z" />
        <path
            d="m366.91 51.12v-11.16c0.36-0.288 0.792-0.792 1.296-1.512 3.024-4.248 7.632-8.856 11.736-12.096 2.016-1.5841 3.96-1.7281 2.304 0.7199-4.176 6.336-10.224 12.744-11.016 20.664-0.432 3.672-0.432 2.232-4.32 3.384zm0 559.44v-34.848c0.72-0.936 1.512-1.872 2.232-2.808 5.256-6.84 12.816-16.2 17.136-23.688 7.056-12.168 8.136-24.696 1.656-37.152-4.176-8.136-7.848-18.864-8.064-28.728-0.144-5.472 1.296-17.352 3.528-21.816 1.368-2.592 2.88-5.04 4.536-7.344 6.696-9.648 15.408-17.352 18.504-24.336 1.08-2.448 1.872-4.536 2.232-6.336 0.504-2.304 3.096-0.504 4.32 0.216 1.872 1.008 4.176 2.736 4.824 5.76 2.088 9.792 7.56 6.984 11.52 12.384 0.504 0.792 0.216 3.672 0.576 7.56 0.216 2.736 0.576 5.688 1.008 8.28 0.936 6.048 2.736 12.96 4.608 18.72 1.296 3.96 3.384 7.272 5.76 11.808 0.936 1.656 0.576 2.952-0.504 4.248-3.24 3.744-6.696 5.328-8.712 10.728-1.512 4.248-1.152 8.496 0.36 12.528 0.864 2.304 4.32 6.336 4.464 9.144 0.216 3.672-1.08 4.176-2.592 7.056-0.72 1.44-1.224 2.808-1.8 4.608-1.08 3.24-1.008 5.04-5.04 6.48-2.52 0.864-5.544 0.648-8.496 3.456-1.872 1.872-2.016 2.88-2.952 4.968-0.36 0.72-0.864 1.584-1.728 2.664-5.76 6.984-9.864 12.888-15.984 18.144-9.36 8.136-17.496 16.272-21.96 22.536-2.736 3.888-4.032 7.056-3.24 9.144 0.72 1.872-1.8 4.32-3.168 5.832-0.504 0.576-2.016 1.152-3.024 0.792zm0-234.72c8.712 5.112 17.064 11.88 28.152 24.12 5.112 5.616 9.504 6.048 14.76 8.208 2.448 0.936 1.296 3.168-2.88 2.304-1.728-0.36-4.248-1.152-7.056-2.376 0.864 1.368 4.464 5.04 7.2 6.84 5.256 3.528 8.496 4.104 12.312 9.216 2.304 2.952 2.016 7.416 7.344 10.08 1.512 0.72 2.232 0.36 2.16-1.512-0.144-2.952-0.144-5.976-0.432-8.928-0.288-3.456-1.152-7.416-2.232-10.008-1.08-2.664-1.296-4.248-1.08-4.968 0.72-2.808 4.824 4.752 5.04 5.184 2.952 6.408 3.456 15.48 3.6 23.616 0.216 9.864 1.512 19.008 3.888 28.656 1.872 7.632 4.608 14.904 8.352 21.456 5.328 9.504 12.888 16.128 21.024 23.184 6.192 5.328 12.744 11.232 16.056 17.712 4.536 8.856 4.68 22.032 2.52 31.68-1.44 6.408-4.176 12.096-6.336 18.144-0.72 2.088-1.44 4.032-1.944 5.976-3.816 14.04-12.672 21.024-25.704 28.512-4.464 2.52-6.048 6.768-5.976 9.864 0.072 4.032 1.368 3.672 3.024 3.96 2.16 0.36 4.608 2.952 5.616 4.68 3.24-5.4 11.448-5.76 17.28-5.616 5.04 0.144 4.608-1.008 4.392-5.76 0-3.672 2.088-3.672 5.256-5.544 1.8-1.08 5.112-1.512 2.736-5.4-2.232-3.6-0.648-3.816 0.72-2.88 3.168 2.16 3.384 1.512 3.6 4.896 0.072 1.512 0.576 2.52 2.952 1.8 1.008-0.288 2.736-1.152 3.888-1.728 1.584-0.792 0.648-4.32 0.576-6.696-0.144-5.904-0.792-7.92 0.936-13.68 1.08-3.528 2.16-6.84 3.528-10.224 4.824-12.168 5.472-23.832 9.504-35.856 1.656-4.968 5.328-11.88 9.288-16.56 2.016-2.376 3.816-4.464 3.384-7.2-0.72-4.32-2.592-6.264-2.448-11.016 0.144-4.896-2.592-8.208-5.976-9.216-1.224-0.36-2.808-0.936-4.752-1.872-6.84-3.312-9.504-7.2-13.464-13.464-1.872-2.88-2.952-14.976-1.08-18.288 2.808-4.968 0.504-4.248-0.936-8.28-0.576-1.656-1.368-3.888-0.936-5.76 0.792-3.528 2.376-1.8 2.736 1.728 0.36 4.32 4.392 6.192 7.776 9.288 3.24 2.88 3.96 5.544 3.96 10.152 3.744-3.384 3.528-7.272 0.504-11.232-4.896-6.336-5.616-10.224-5.688-14.112-0.072-2.52-0.792-13.176-1.656-15.192-1.584-3.456-0.072-3.312 1.512-1.656 1.296 1.296 2.304 4.464 2.376 6.336 0.072 1.8-0.072 3.672 0.864 5.472 1.368 2.52 3.672 4.104 7.632 3.024-3.384-1.944-4.464-4.824-4.464-7.704-0.144-5.76 2.304-11.448 3.744-16.992 1.44-5.616 2.592-10.872-0.648-15.984-0.648-1.008-1.08-2.232-0.36-4.248s1.512-2.88 2.304 0.144c0.648 2.304 2.592 2.664 4.68 3.744s4.392 2.808 6.12 5.04c3.24 4.176 4.104 9.432 3.528 14.4-0.432 3.456-1.944 7.416-2.304 13.752-0.144 3.672 0.576 9.144 3.744 12.744 4.104 4.68 8.352 9.72 10.44 15.12 2.448 6.12 2.016 11.808-6.048 15.768 11.448 3.168 13.032-8.352 11.736-14.904-0.792-3.96 2.232-3.312 2.88-0.648 0.576 2.592 0.504 6.408 0.288 7.56-1.8 9.504-2.448 19.224 11.16 17.64-4.176-1.584-5.832-5.04-6.264-8.928-0.504-4.032 1.728-9.072 1.944-13.392 0.216-3.816-0.144-8.136-2.232-9.864-3.672-3.024-5.184-5.76-6.336-11.592-0.504-2.88 0.36-4.32 2.088-2.016 2.88 3.672 3.528 14.112 14.976 9.072-9.072-1.872-9.936-11.376-10.8-19.08-0.792-7.056-2.304-15.264-6.336-21.168-1.512-2.232-3.672-3.888-5.76-5.76-2.088-1.944-4.032-4.032-6.408-5.4-6.408-3.6-11.952-4.32-16.776-8.568-5.4-4.752-6.696-10.656-10.44-15.912-8.352-11.808-19.728-20.088-29.232-31.896-9.792-12.096-20.448-26.352-25.992-40.824-1.368-3.6-6.48-14.976-10.584-23.688-4.464-9.576-9.72-19.08-14.616-28.368-2.088-3.96-3.384-6.264-4.104-2.52-0.504 2.448-0.648 5.112-1.008 7.56-0.432 2.808-2.304 2.232-2.664 0-0.216-1.728-0.216-4.536-0.216-7.632 0-8.28 0-12.96-2.016-19.44-1.8-5.688-4.752-11.52-4.536-19.584 0.072-1.512-0.504-1.44-1.368-0.792-2.16 1.584-4.032 3.528-5.544 5.688-0.576 0.72-1.44 1.8-2.088 1.224-1.44-1.296 0-4.896 0.792-6.12 2.232-3.456 5.904-6.984 6.336-7.416 2.16-2.088 2.88-4.68 1.44-7.272-2.016-3.6-2.88-5.112-2.952-7.632-0.144-3.528 2.664-6.192 3.312-1.08 0.648 4.968 4.752 8.928 9.72 9.216 2.664 0.144 5.184-1.08 6.984-4.392-7.632 2.016-14.04-6.696-10.512-14.76 1.8-4.104 2.376-7.992 2.52-10.656 0.216-4.248 2.376-4.104 2.664-0.864 0.144 1.656-0.288 3.456-0.144 5.184 0.792-1.008 1.872-3.096 2.736-5.4 1.8-4.536 3.096-8.928 2.16-13.752-1.08-5.112-3.312-7.056-3.024-10.512 0.36-4.032 2.736-5.4 3.6 1.368 0.72 5.4 7.2 7.704 12.384 3.024-5.472-1.944-6.984-3.24-7.632-9-0.72-6.192 0.072-15.048 0.936-17.856 0.936-3.096 1.368-11.016 0.72-18-0.144-1.872-1.872-15.264-5.976-12.96-0.936 0.504-2.448 1.368-4.104 2.16-2.736 1.296-6.048 2.016-8.784 0.144-2.232-1.584-2.016-3.384 2.952-2.664 1.152 0.144 6.984-2.52 7.92-3.312 1.656-1.368 3.456-3.24 5.544-5.256 5.688-5.544 14.544-15.264 16.848-35.928 0.576-4.968-2.664-2.088-4.32 0.072-6.264 8.496-16.56 17.352-25.992 22.464-3.744 2.016-8.712 3.024-11.016 5.04-2.376 2.088-3.168 4.464-4.392 5.976-2.16 2.664-3.816 2.952-2.952-3.312 0.648-4.68 5.04-4.896 1.584-9.936-1.008-1.44-0.144-4.032-1.8-6.192-1.368-1.584-3.024-2.376-4.896-3.6-3.6-2.304-7.272-4.176-10.368-4.176-5.832 0-10.08 1.368-14.544 2.592-1.44 0.432-2.808 0.864-4.104 1.296v68.4c8.136-1.512 16.848-6.912 19.944-10.584 0.864-1.08 2.016-4.392 4.032-2.88 0.936 0.648 0.216 2.304-0.72 3.888-4.968 8.136-11.448 12.168-20.952 13.824-0.936 0.144-1.656 0.216-2.304 0.288v246.96zm0-324.72c-4.104 1.224-9.144 3.384-12.312 4.104-2.448 0.576-4.248 0.432-3.456-1.584 2.016-5.256 8.712-15.984 14.04-18.36 1.44-0.648 0.936 1.008 0.576 2.16-0.576 1.656-0.144 3.456 1.152 2.52v11.16zm0 4.824v68.4c-2.952 0.504-5.904 0.504-8.424-0.288-3.6-1.08-9.144-3.744-12.888-4.32-2.088-0.288-7.2 1.008-10.152 1.08-4.752 0-9.936 0.216-12.816-1.512-2.304-1.368-4.104-1.008-5.472-0.288-1.44 0.648-1.512 2.304 0.144 2.88 1.08 0.36 1.08 1.512-0.36 2.16-2.16 1.008-3.96 3.24-5.112 4.392-2.016 1.944-4.968 0.072-6.912-0.072-1.224-0.144-3.312 1.152-4.896 0.36-5.256-2.88-3.96-8.136-1.224-10.944 1.584-1.656 3.888-3.024 6.264-3.888 5.256-1.944 5.976 1.8 10.944 1.368 4.104-0.432 7.632-4.32 3.384-5.04-1.44-0.216-2.88 0.432-6.336-0.792-3.96-1.368-7.992-0.36-12.816 2.16-1.368 0.72-3.096 2.16-4.824 3.384v-9h0.072c5.616-0.144 9.504-3.312 10.08-5.976 0.36-1.728-0.864-1.8-2.376-1.728-3.96 0.216-4.032 1.944-6.12 3.312-0.576 0.36-1.152 0.648-1.656 0.792v-5.832c0.648-0.576 1.368-1.224 2.16-1.8 1.44-1.152 5.832-0.792 7.2-0.936 5.976-0.504 10.728-4.176 16.128-9 7.272-6.624 14.688-8.784 20.736-12.312 1.728-1.008 1.512-2.304 1.512-2.88 0-0.864-1.008-0.576-2.376-0.216-1.152 0.288-6.12 2.952-4.032-1.008 3.96-7.488 9.792-5.904 16.632-7.992 5.4-1.656 9.288-3.096 13.536-4.464zm0 72.936c-2.52 0.216-3.24 0.288-3.744 4.032-0.432 3.672-3.312 8.424-6.408 10.44-1.728 1.08-3.744 0.432-7.272-1.512-1.296 4.752 3.384 7.416 7.056 6.552 2.232-0.504 4.824-2.592 7.056-0.864 1.224 0.864 0.288 1.944-1.08 1.944-3.744 0.072-4.968 1.656-8.784 4.32-1.584 1.08-3.384 2.088-4.896 3.672-2.52 2.808-5.256 5.832-6.624 6.768-2.592 1.656-4.968 1.872-7.272 1.296-1.8-0.36-3.672 0.648-5.04 1.944 5.256-1.728 4.824 2.448 9.576 2.808 1.656 0.144 4.536-1.296 7.488-2.664 1.8-0.864 4.104-1.8 6.12-1.728 1.368 0 2.448 0.432 2.664 1.152 0.432 1.08-0.72 2.304-3.168 2.016-2.016-0.144-6.12 2.592-7.848 4.32-2.088 2.16-3.096 0.864-6.408 1.368-4.824 0.648-12.024 6.624-14.616 11.232-0.936 1.728-1.728 3.528-2.088 5.328 1.728-0.936 3.024-1.296 4.248-2.88 1.512-1.944 3.312-0.144 1.656 2.232-3.384 4.968-12.672 6.624-17.568 11.736-2.376 2.448-4.248 5.256-4.536 7.632 4.104-1.728 7.128-2.664 11.304-3.96 1.08-0.36 2.016-1.08 3.168-1.8 2.736-1.584 3.816 1.8 1.08 3.456-2.952 1.728-7.56 2.232-10.08 3.672-3.888 2.232-5.688 5.76-7.488 9.504-2.088 4.248-2.448 9.072-3.816 13.752-1.152 3.96-0.72 5.544 0.288 6.624 4.248 4.752 8.208 5.4 10.728 12.096 1.44 3.888-0.936 4.968-2.736 0.936-0.648-1.584-3.096-4.032-4.32-5.184-1.944-1.872-4.536-3.744-8.136-5.4v52.992c2.592 2.232 4.68 3.672 8.64 3.888 2.736 0.072 6.984-0.072 9-0.576 1.944-0.504 4.104-0.936 7.056-0.792 2.88 0.216 4.104 1.512 3.888 2.592-0.288 1.152-1.224 1.152-2.16 1.08-4.536-0.504-10.08 1.44-14.544 2.376-3.888 0.792-6.984 2.304-9.72 6.552-2.664 4.176-2.664 10.08-0.216 11.736-0.432-7.2 3.672-12.024 9-11.952 3.24 0 5.976-0.36 7.2-1.584 4.032-4.32 4.464-0.288 2.448 1.728-1.08 1.08-3.24 2.16-4.68 2.808-3.168 1.44-2.88 4.536-1.008 6.192 3.456 3.024 4.392 7.488 1.584 13.896 4.824-0.864 6.552-11.088 5.904-13.32-1.008-3.888 0.864-3.888 2.16-1.944 0.72 1.152 1.08 2.808 1.296 4.536 0.648 3.744 0.072 5.4-0.936 7.488-0.864 1.728-0.432 2.664 0.288 3.528 2.952 3.24 4.392 6.624 6.912 10.224 4.176 6.048 9.864 12.312 15.264 16.776 6.984 5.688 14.472 8.424 22.104 12.744 0.648 0.36 1.368 0.72 2.016 1.152v-246.96zm0 446.83v34.848c-0.288-0.144-0.504-0.36-0.648-0.648-0.504-1.08 0.144-2.592 0-4.104-0.216-3.744-1.584-3.384-4.464-3.456-2.952-0.072-4.536 2.736-1.584 3.456 0.432 0.144 0.864 0.36 1.008 1.152 0.432 2.088-2.304 1.944-3.312 2.232-1.44 0.36-3.528 1.8-3.528 4.68 0.072 3.384-2.52 3.672-6.12 3.168-4.248-0.576-9.504 0.648-14.688 3.744 0.936-5.76-11.952-8.928-0.576-18.216 3.96-3.168 13.68-7.2 21.168-11.376 4.32-2.448 7.776-6.264 9.072-9.576 0.864-2.16 2.232-4.104 3.672-5.904zm-71.496-342.94v-15.048c1.152 1.296 2.232 2.88 2.376 4.248 0.072 0.36-0.216 1.584-0.576 2.808-0.792 2.592-1.296 5.328-1.8 7.992zm0-57.96c2.448-0.432 3.672-2.304 3.888-4.464 0.288-2.52-1.296-5.04-1.944-8.28-0.864-3.528 1.08-9.576 4.032-11.736 3.744-2.664 5.112-1.296 4.176-0.144-6.48 7.632-6.336 11.952-0.864 20.52 1.44 2.232 2.52 4.68 1.368 9.864 2.52-1.512 3.312-4.392 3.384-7.56 0.072-4.68-3.528-8.424-4.032-12.096-0.36-2.88 1.656-5.832 4.68-8.712 0.864-0.792 1.584-1.728 2.304-2.448 1.872-1.872 2.376-2.232 2.304-4.752 0-0.36-0.072-2.304 1.512-1.728 0.864 0.36 0.576 2.376 0.288 4.536 2.448-1.728 3.96-4.248 3.816-6.552-0.288-3.096-1.224-6.12-2.592-9.288-1.152-2.88-3.24-2.232-4.032 0.576-0.792 2.664 0.72 5.76-1.512 7.704-1.584 1.368-1.512 1.656-3.528 1.8-1.224 0.072-0.648-1.368 0.576-3.6 1.152-2.16 0-3.888-2.016-5.112-2.376-1.512-6.408-1.296-4.968 0.864 0.648 1.008-1.152 2.664-3.384 4.968-1.224 1.296-2.376 2.808-3.456 4.536v4.896c0.576-0.576 1.224-1.008 2.16-1.512 2.088-1.152 2.304 0.216 0.648 1.944-0.936 1.152-2.016 2.808-2.808 4.608v11.52c1.224 2.088 1.584 2.52 1.296 5.04-0.144 1.152-0.576 2.232-1.296 3.096v1.512zm0-78.264v5.832c-2.448 0.72-3.888-0.864-1.8-3.744 0.504-0.648 1.08-1.368 1.8-2.088zm0 9.432v9c-0.576 0.432-1.08 0.792-1.656 1.08-1.584 1.008-3.24 1.944-4.752 0.36-0.432-0.504-0.864-1.08-1.296-1.512-1.368-1.368 0.288-6.264 1.368-7.488 1.728-2.088 4.176-1.368 6.336-1.44zm0 37.728v4.896c-0.864 0.792-1.584 1.656-2.448 2.808-0.144-2.52 0.936-5.256 2.448-7.704zm0 9.936v11.52c-0.144-0.288-0.36-0.576-0.576-0.936-1.656-2.952-1.008-7.128 0.576-10.584zm0 19.656v1.512c-0.576 0.072-1.296 0.144-2.016 0.072 0.864-0.432 1.512-0.936 2.016-1.584zm0 44.424c-0.432-0.576-0.864-1.008-1.224-1.44-2.16-2.592-4.896-4.824-7.416-7.128-7.776-6.912-16.56-12.672-23.976-19.944-2.232-2.232-5.472-5.904-6.336-9.216-1.152-4.968-1.224-4.032-6.408-5.76-3.816-1.224-6.624-3.312-8.712-4.824-1.8-1.368-2.808-2.016-4.896-0.36-1.44 1.152-2.592 2.016-1.512 4.752 0.432 1.08 3.312 3.168 4.032 4.824 1.08 2.16-1.368 2.376-3.168 1.368-2.376-1.296-3.744-3.24-4.536-4.824-0.36-0.72-1.152-3.024-2.088-3.24-1.584-0.432-4.608 0.072-9.216 0.864-8.784 1.512-22.536 5.688-33.048 6.048-3.672 0.144-7.992-1.224-11.952-2.592-3.6-1.296-12.312-4.896-16.128-3.096-2.016 1.008-3.384 3.168-4.464 5.184-1.944 3.528-1.512 3.168 1.512 5.256 2.016 1.368 3.24 4.032 4.248 6.84 0.648 1.944 2.952 2.016 5.4-0.216 0.504-0.432 1.656-1.728 3.168-0.36 1.872 1.728 2.952 0.792 4.248 0 3.744-2.448 2.448 1.8 1.728 3.312-0.504 1.08-1.584 1.656-1.872 1.872-2.448 1.8-2.016 4.464 1.584 3.24 3.816-1.224 5.256-4.032 8.784-5.832 5.04-2.592 15.192-2.448 20.736-2.592 4.392-0.144 9-0.432 13.464-0.072 3.024 0.288 5.832 0.864 8.784 1.296 5.328 0.792 5.04-0.72 1.512-2.16-1.8-0.72-4.464-1.512-4.68-2.016-0.648-1.08-0.36-1.584 0.576-1.728 0.72-0.072 1.728 0.216 2.952 0.72 3.528 1.44 5.184 0.288 7.848 3.96 4.464 6.12 8.64 10.296 14.976 13.464 2.016 1.008 5.904 2.664 5.904 5.472 0 1.8-5.472-2.088-3.096 2.16 1.296 2.304 4.104 5.472 6.408 8.28 2.736 3.528 3.672 6.048 5.544 6.84 8.784 3.888 23.328 8.208 30.312 12.312 0.36-1.8 0.648-3.744 1.008-5.616v-15.048zm0 25.992v52.992l-0.144-0.144c-1.512-1.296-2.88-2.664-4.032-4.104-4.752-5.616-7.56-9.72-13.248-14.904-6.048-5.544-12.528-9.504-18-13.248-5.76-3.888-10.296-8.64-15.48-13.104-0.432-0.432-2.304-1.944-1.224-2.808 0.72-0.576 2.52 0.36 2.88 0.648 3.96 3.384 3.888-1.728-0.432-3.744-2.448-1.08-4.896-1.152-7.2-1.152-9.576-0.288-13.752-3.888-19.152-7.56-1.512-1.08-3.672-2.952-5.472-3.96-2.448-1.296-5.544-1.584-7.416-1.368s-2.088 2.088-0.792 2.376c3.168 0.72 3.024 1.512 0.576 2.376-1.44 0.576-4.104 1.512-6.696 2.304-7.488 2.448-15.12 4.824-22.32 7.992-6.264 2.808-11.304 6.336-14.616 12.312-1.152 2.16-2.52 2.952-3.528 3.168-3.528 0.792-1.512-3.168-0.648-4.752 0.648-1.224 0.576-2.304 0.288-3.24-0.36-1.08-1.8-4.392-3.168-1.8-0.432 0.864 0.216 3.168-1.152 4.104-1.08 0.792-4.32-0.36-5.184 0.792-1.368 1.8-2.52 0.936-3.6-0.576-2.088-3.024-4.752-3.312-7.992-3.96 0.144-2.304-0.072-5.4 0.864-7.488 0.36-0.864 0.936-1.512 1.656-2.088 4.752-3.816 16.056-1.44 20.664-2.232 11.088-1.8 23.976-12.312 35.208-17.424 2.88-1.296 5.832-2.52 8.784-3.888 2.016-0.864 3.384-0.936 4.248 1.584 0.432 1.296 1.872 1.872 3.6 2.664 7.56 3.456 9.144 1.08 6.336-1.008-1.872-1.368-3.96-1.8-5.832-3.096-1.584-1.08-1.584-1.512 0.36-3.96 2.304-3.024 4.824-3.672 8.568-2.88 2.664 0.648 4.968 0.648 7.632 0.864 2.304 0.072 3.672 0.936 6.048 3.024 3.456 2.88 5.184 6.192 9.36 8.136 4.032 1.944 9.288 3.384 14.4 5.112 11.664 3.744 22.608 9.072 33.984 13.32 0.648 0.216 1.296 0.504 1.872 0.72z"
            fill="#fff" />
        <path
            d="m424.8 517.25c-0.288-6.984 2.448-7.2 2.88-3.744 0.216 1.728-0.144 3.96 1.944 6.768 1.152 1.656 2.448 3.24 2.808 4.68 0.288 1.44-0.432 2.52-1.152 3.456-1.368 1.944-2.736 4.824-3.024 7.2-0.288 1.728-0.72 2.592-2.736 2.952-1.584 0.36-3.6 0.072-5.328 0.432-2.376 0.576-2.592 2.376-4.248 3.96-1.728 1.584-4.104 2.232-2.88-1.512 1.368-4.032 3.456-5.976 6.624-7.128 5.04-1.8 3.96-0.144 6.048-5.472 1.08-2.736 2.376-2.52 1.44-5.688-0.864-2.736-2.232-3.456-2.376-5.904z" />
        <path
            d="m515.02 518.69c0.144 3.024 0.936 3.24-1.728 5.4-2.88 2.304-2.16 3.744-2.808 6.696-0.936 4.176-3.024 0.648-2.736-1.872 0.432-3.312 1.8-4.752 3.168-7.488 0.936-1.944 0.072-4.752-0.144-7.704-0.288-4.536 0.072-3.456-4.536-5.976-0.72-0.36-1.944-1.368-2.664-2.304-1.944-2.448-2.736-5.472 0.36-3.312 2.16 1.44 5.112 3.024 8.136 4.608 3.24 1.728 2.664 3.168 2.592 6.048-0.072 1.944 0.288 3.528 0.36 5.904z" />
        <path
            d="m367.85 73.728c3.384-0.216 3.96-1.944 0.36-2.448-8.856-1.08-11.664 3.24-17.784 8.64-1.8 1.584-3.672 4.608-6.192 5.328-0.864 0.288-2.952 0.36-3.816 0.2161-2.232-0.4321-1.728 1.3679-0.432 2.3039 1.872 1.224 5.04-0.144 7.2 0 2.88 0.216 2.376 0.936 3.168 2.664 7.92 16.416 29.016 7.848 30.6-6.84 0.144-1.08 1.08-1.224 2.232-1.152 4.32 0.36 7.992-1.512 7.992-6.552 0-3.24-2.232-2.232-2.808 0-0.72 3.312-4.68 3.24-6.84 1.296-2.016-1.9439-3.744-3.384-4.896-3.744-3.24-1.008-3.528 1.08-1.656 1.8001 1.008 0.3599 2.736 1.6559 2.88 2.4479 0.36 1.584-0.504 1.44-1.656 1.152-5.688-1.152-10.728-1.656-17.208 1.944-2.088 1.152-4.104 1.296-2.232-0.936 3.384-3.96 5.328-5.688 11.088-6.12z" />
        <path
            d="m359.64 86.184c-0.72-1.152-0.432-1.8 1.08-1.9439 2.232-0.1441 2.16 0.7199 2.52 2.5199 0.792 4.248-1.8 2.448-3.6-0.576z"
            fill="#fff" />
        <path
            d="m356.33 88.416c4.248 7.056 15.192 5.544 17.064-2.232 0.288-1.224 0.216-3.456 1.872-3.744 2.808-0.432 2.448 1.08 2.088 2.952-1.296 6.408-5.832 10.44-12.672 11.088-6.048 0.576-9.144-2.16-11.664-7.056-1.296-2.448-0.432-3.384 0.288-3.6 1.512-0.504 2.088 1.08 3.024 2.592z"
            fill="#fff" />
        <path
            d="m408.6 82.512c1.584-3.024 5.688-4.176 8.784-5.688 5.976-2.952 10.656-7.2 15.552-12.096 4.824-4.824 8.352-11.16 12.312-16.128 3.096-3.888 2.448-0.432 1.224 2.952-2.304 6.48-9.864 16.776-14.04 21.96-4.392 5.328-7.488 7.416-14.256 8.496-2.88 0.432-5.184 0.36-5.184 2.736 0 1.656-1.368 3.672-3.384 3.168-2.304-0.504-1.728-3.96-1.008-5.4z" />
        <path
            d="m514.66 268.99v-11.952c0.576-1.368 1.08-2.592 1.512-3.672 0.792-2.16 1.656-2.16 2.448 0.648 1.944 7.272 2.52 16.56 4.824 22.968 1.224 3.528 1.296 4.032 0.144 3.096-3.168-2.448-6.696-6.984-8.928-11.088zm0-26.136v-19.224c0.432-0.144 0.504 0.792 0.72 1.944 0.936 5.256 1.44 10.08-0.216 15.624-0.144 0.576-0.288 1.152-0.504 1.656zm0-35.928v-16.632c0.216 0.36 0.288 0.936 0.432 1.8 0.504 5.544 0.36 10.44-0.432 14.832zm0-31.968v-25.056c0.504-0.648 0.648-0.432 0.864 1.656 1.296 10.224 1.152 17.064-0.864 23.4zm0-25.056v25.056c-1.368 4.392-3.6 8.64-6.84 13.68v-28.008c1.656-2.736 3.6-5.832 5.904-9.144 0.432-0.648 0.72-1.224 0.936-1.584zm0 40.392v16.632c-1.08 6.48-3.456 11.88-6.84 16.992v-25.704c1.656-2.592 3.384-4.968 4.824-6.84 0.864-1.152 1.584-1.944 2.016-1.08zm0 33.336c-0.216 0.144-0.648 0.72-1.296 1.872-1.584 2.736-4.032 6.12-5.544 10.296v15.048c0.072 0.36 0.216 0.648 0.288 1.008 1.368 3.6 1.08 3.6 2.664 0.36 1.584-3.168 2.88-6.048 3.888-9.36v-19.224zm0 33.408v11.952c-0.288-0.648-0.576-1.224-0.864-1.8-1.44-3.096-0.36-6.912 0.864-10.152zm-6.84-105.62c4.608-9.576 4.752-27.432 1.224-36.72-0.576-1.512-0.936-2.304-1.224-2.376v39.096zm0-39.096v39.096c-0.144 0.144-0.216 0.36-0.288 0.504-2.232 4.248-5.328 8.856-7.272 11.664-0.288 0.504-0.576 0.936-0.792 1.296v-34.128c1.944-5.04 4.536-10.008 6.912-15.912 0.72-1.728 1.008-2.664 1.44-2.52zm0 48.312c-2.52 4.104-4.464 7.56-5.976 10.584-1.008 1.872-1.8 3.6-2.376 5.472v24.048c0.144-0.288 0.36-0.576 0.648-0.936 3.024-4.248 5.544-7.848 7.704-11.16v-28.008zm0 37.584v25.704c-1.08 1.512-2.304 3.096-3.528 4.608-2.52 2.952-1.512 2.808-2.592-0.792-1.656-5.616-2.52-12.672 0.504-19.584 1.152-2.736 3.312-6.48 5.616-9.936zm0 37.584v15.048c-1.728-4.968-1.8-9.288-0.72-12.96 0.216-0.72 0.432-1.44 0.72-2.088zm-8.352-116.42c0.936-2.592 1.656-5.328 2.088-7.56 1.008-4.752 1.296-9.432 0.216-14.184-0.504-2.232-1.296-4.68-2.304-7.056v28.8zm0-28.8v28.8c-0.648 1.872-1.44 3.6-2.232 5.04-1.8 3.168-1.8 2.232-2.592-0.504-1.152-3.6-2.736-7.848-3.96-10.8-2.592-6.336-1.44-11.88-0.144-17.208 1.008-4.176 0.864-8.28 1.152-12.456 0.144-2.088-1.224-7.272 2.016-2.952 2.088 2.808 4.176 6.408 5.76 10.08zm0 40.176v34.128c-1.296 1.944-1.08 1.584-1.728-1.872-0.432-2.376-1.368-10.944-1.296-18.072 0.072-5.328 1.296-9.792 3.024-14.184zm0 45.936v24.048c-1.08 1.44-1.008 1.08-1.296-1.8-1.008-10.728-0.576-16.776 1.296-22.248zm-34.344 475.06v-20.952c2.16-0.36 4.32-0.576 5.904-0.576 3.528-0.144 2.952 0.648 2.592 3.528-0.936 6.984-3.528 13.68-8.496 18zm0-463.75v-11.736c2.016-1.44 1.8-0.216 1.656 2.52-0.216 3.456-0.792 6.48-1.656 9.216zm0-18.288v-17.064c2.592-1.8 5.328-3.6 7.704-5.76 2.88-2.664 3.528-2.304 3.024 1.008-1.728 11.592-5.976 17.712-10.728 21.816zm0-24.336c4.032-2.808 7.992-5.472 9.432-6.912 6.84-6.84 8.568-17.208 9.576-27.576 0.36-3.384-0.864-1.728-2.88-0.216-7.272 5.616-12.456 9.936-16.128 14.04v20.664zm0-28.08v-24.624c0.072-0.576 0.216-1.224 0.288-1.8 0.792-3.816 1.656-3.672 3.24-0.504 1.728 3.312 5.76 6.552 8.856 8.64 3.744 2.448 3.672 4.176 2.376 6.192-3.168 4.824-9.936 7.2-14.04 11.304-0.288 0.288-0.504 0.576-0.72 0.792zm0-35.136v-8.928c0.36 1.872 0.504 3.672 0.504 5.328s0.36 3.312-0.504 3.6zm0-23.184c0.216 0.288 0.432 0.648 0.72 1.08 2.016 2.736 3.96 6.48 4.392 15.048 0.144 2.88 0.432 6.336 2.304 9.1441 3.168 4.6079 7.704 9.0719 10.08 12.6 1.584 2.304 2.448 2.376 2.736-0.504 1.44-13.248 0.648-33.912-18.864-38.952-0.648-0.1439-1.08-0.216-1.368-0.216v1.8zm0-6.912v-10.08c3.384 2.952 6.552 6.696 8.352 10.728 0.936 1.944 0.072 2.664-1.8 1.368-2.016-1.296-4.392-1.8-6.552-2.016zm0-10.08v10.08c-1.44-0.072-2.736-0.072-3.888 0-1.224 0.072-1.728-0.864-2.016-2.16-0.792-4.176-3.6-7.992-5.544-10.512v-3.456c0.36 0 0.792 0.072 1.296 0.144 2.736 0.648 6.552 2.88 10.152 5.904zm0 15.192v1.8c-0.72-1.152-0.936-1.8 0-1.8zm0 16.056c-1.44-7.704-5.544-16.416-10.728-18.504-0.216-0.072-0.504-0.144-0.72-0.216v23.472c4.032 1.656 8.424 3.312 10.152 3.96 0.576 0.216 1.008 0.288 1.296 0.216v-8.928zm0 19.44v24.624c-1.296 1.296-1.368 1.44-1.44-2.016-0.072-7.632 0.216-15.48 1.44-22.608zm0 32.04v20.664c-1.8 1.224-3.6 2.52-5.112 3.744-2.952 2.232-3.24 4.392-3.168-1.008 0.144-10.296 2.016-16.56 8.28-23.4zm0 27.936c-1.944 1.368-3.816 2.736-5.472 4.32-2.448 2.52-4.464 5.544-5.976 8.64v11.736h0.072c3.6-2.448 7.632-4.464 11.376-7.632v-17.064zm0 23.616v11.736c-2.304 7.056-6.48 12.024-11.448 16.92v-19.008c3.312-3.096 7.056-6.192 10.44-8.928 0.36-0.288 0.72-0.504 1.008-0.72zm0 454.54v20.952c-2.88 2.448-6.48 4.104-11.016 4.68h-0.432v-14.04c0.432-1.152 0.72-2.304 0.936-3.6 0.792-3.744 2.088-5.544 6.12-6.912 1.368-0.504 2.88-0.864 4.392-1.08zm-11.448-377.35v-15.12c0.864-1.224 1.872-2.448 3.168-3.816 2.736-2.88 2.664-1.296 2.304 2.016-1.224 10.08-1.008 15.84 1.296 23.904 0.648 2.232-0.288 3.168-2.376-0.072-1.224-1.944-2.952-4.104-4.176-6.552-0.072-0.144-0.144-0.288-0.216-0.36zm0-23.76v-17.928c0.792-0.864 1.584-1.656 2.448-2.448 3.24-2.736 3.168-3.312 3.528 0.936 0.576 6.408 0.144 9.648-2.52 13.824-0.72 1.152-2.088 3.384-3.456 5.616zm0-180.29c0.576 0.288 1.224 0.432 1.368 0.144 0.216-0.504 0.144-1.584-0.36-2.448-0.288-0.504-0.648-0.792-1.008-0.864v3.168zm0-13.464v3.456c-0.288-0.432-0.648-0.864-0.936-1.224-1.152-1.584-0.72-2.376 0.936-2.232zm0 10.296v3.168c-0.36-0.144-0.792-0.432-1.008-0.648-1.008-0.936-0.072-2.736 1.008-2.52zm0 8.28v23.472c-2.16-0.864-4.176-1.728-5.544-2.376v-8.28c1.8-3.744 3.744-8.64 3.888-11.232 0.072-1.584 0.576-1.944 1.656-1.584zm0 111.1v11.736c-4.248 2.952-3.672 3.24-2.88-2.52 0.432-2.808 1.368-6.048 2.88-9.216zm0 20.304v19.008c-1.656 1.656-3.384 3.312-5.184 5.04-0.144 0.144-0.216 0.288-0.36 0.36v-17.136c0.936-2.016 2.232-3.96 4.032-5.76l1.512-1.512zm0 25.848v17.928c-1.008 1.656-2.016 3.312-2.952 4.464-1.368 1.872-1.584 4.536-2.592 2.808v-16.272c1.224-3.096 3.096-6.192 5.544-8.928zm0 26.568c-2.952 4.392-3.096 8.496 0 15.12v-15.12zm0 404.06v14.04c-1.944 0.288-4.032 0.432-5.544 0.216v-5.688c0.072-0.072 0.144-0.216 0.288-0.288 2.52-2.592 4.176-5.184 5.256-8.28zm-5.544 0.432c0.936-2.16 1.656-4.392 2.16-6.336 0.576-2.088-0.288-4.248-2.16-5.328v11.664zm-17.28-590.4c2.016-0.936 2.808 0.288 2.088 1.368-0.504 0.72-1.8 0.648-2.52 0.432-2.016-0.504-0.792-1.296 0.432-1.8zm17.28 14.904v8.28c-0.864-0.432-1.512-0.792-1.8-1.008-0.72-0.648-1.512-1.152-0.072-3.672 0.576-0.936 1.224-2.16 1.872-3.6zm0 125.86v17.136c-2.304 2.232-1.944 1.656-2.16-1.512-0.432-5.04-0.144-10.584 2.16-15.624zm0 27.504v16.272c-0.216-0.432-0.504-1.08-0.864-2.016-1.44-3.744-1.224-9 0.864-14.256zm0 410.47v11.664c-2.016 4.536-4.896 8.64-8.784 8.784-3.024 0.144-5.256-0.792-6.48-2.592-1.44-1.944-0.504-2.736 1.224-3.96 3.672-2.52 7.92-4.752 10.656-10.296 1.008-2.088-0.216-5.04 2.88-3.816 0.216 0.072 0.36 0.144 0.504 0.216zm0 19.8c-3.744 3.888-2.664 5.328 0 5.688v-5.688zm-27.72-589.68v-6.408c1.872-0.072 3.6 0.144 4.68 0.864 1.8 1.224 0.936 2.376-0.432 3.24-1.224 0.72-2.736 1.584-4.248 2.304zm0-10.656v-6.48c1.152 0.936 2.232 2.016 3.312 3.096 3.888 3.96 1.8 3.528-1.872 3.384h-1.44zm0-12.312c3.168 1.8 6.768 4.464 8.928 7.2 0.72 0.864 1.152 1.656 2.16 1.584s3.528-0.072 5.184-0.072c1.152 0.072 1.872 0 2.664-1.008 1.656-2.232 2.088-3.672 5.184-5.904 1.152-0.792 0-2.808-0.288-3.096-2.664-2.736-9-4.608-15.768-4.68-2.808 0-5.544 0.288-8.064 0.936v5.04zm0-5.04v5.04c-1.44-0.72-2.736-1.296-3.888-1.728-2.304-0.792-1.8-1.368-0.144-2.088 1.224-0.504 2.592-0.936 4.032-1.224zm0 10.872v6.48c-4.968 0-9.648 1.152-13.752 4.104-0.72 0.576-2.232 1.008-3.528 0.288-2.88-1.6559-7.128-4.536-9.432-5.4-1.296-0.504-1.8-0.936-0.648-2.304 3.456-3.672 9.36-7.56 15.912-7.704 4.392-0.072 8.136 1.8 11.448 4.536zm0 10.728c-4.248 0.216-9.504 1.944-11.808 3.456-2.16 1.44-2.592 4.968-0.432 6.48 1.584 1.152 5.472-0.576 7.344-1.296 1.368-0.576 3.168-1.368 4.896-2.232v-6.408zm-94.104 589.03v-6.48c3.096-2.664 3.384-3.816 5.04-7.56 1.368-2.952 2.88-4.608 6.048-5.832 3.384-1.368 8.856-2.808 12.312-2.016 1.656 0.36 1.8 1.08 1.224 3.24-2.952 10.872-8.496 19.008-19.728 18.936-1.656 0-3.456-0.072-4.896-0.288zm0-13.464c1.152-1.728 2.16-3.6 2.88-5.4 0.864-2.16 0.576-5.616-1.512-6.768-0.576-0.288-1.008-0.432-1.368-0.432v12.6zm0-12.6v12.6c-2.088 3.096-4.896 5.688-7.992 6.12-2.736 0.432-4.248-0.576-6.192-2.376-1.8-1.656 0.216-2.808 2.016-3.816 3.888-2.088 6.84-3.312 10.224-8.568 0.936-1.584 0.648-3.888 1.944-3.96zm0 19.584v6.48c-3.528-0.504-5.328-1.944-0.36-6.192 0.144-0.072 0.216-0.216 0.36-0.288zm-201.31-368.71v-8.64c1.944-0.432 3.744-1.296 5.472-2.592 2.016-1.512 4.32-2.088 6.552-1.44 2.448 0.648 3.744 2.016 5.616 3.6 2.232 1.872 0.432 3.456-1.152 4.896-4.248 3.672-10.8 5.112-16.488 4.176zm0-12.168c3.456-0.792 7.128-3.024 8.208-6.192 1.008-2.952-2.52-1.008-3.096-0.864-1.656 0.504-3.456 0.72-5.112 0.72v6.336zm9.36-83.736c1.008 1.008 3.456 1.8 4.824 2.016 2.952 0.504 6.336 0 9.288-0.072 1.152 0 2.016 0.504 1.872 1.656-0.072 0.792-0.72 1.944-1.656 2.88-2.088 1.8-10.944 2.592-13.896 1.44-2.232-0.864-3.456-2.592-3.6-6.912-0.072-3.24 2.16-2.016 3.168-1.008zm-2.52 11.448c3.96 1.224 6.84 0.144 11.52-0.216 4.104-0.288 6.408-0.72 8.856 1.872 2.016 2.088 7.2 5.328 2.448 8.064-3.96 2.304-10.728 3.672-15.264 3.312-2.448-0.216-4.68-1.44-6.624-3.816-1.872-2.16-4.032-4.536-4.824-6.768-1.584-4.104 0.864-3.384 3.888-2.448zm-6.84 65.952v6.336c-1.8 0.432-3.6 0.504-4.896 0.216-2.304-0.648-3.816-3.24-3.384-5.616 0.36-2.664 1.728-2.448 3.672-1.728 1.368 0.504 2.952 0.792 4.608 0.792zm0 9.864v8.64c-1.008-0.216-1.944-0.432-2.88-0.72-2.376-0.864-5.112-2.52-6.12-4.896-1.008-2.232 0-3.024 4.896-2.664 1.368 0.072 2.808-0.072 4.104-0.36z"
            fill="#ffd918" />
    </g>
</svg>