<?xml version="1.0" encoding="UTF-8" standalone="no"?>
<!-- Creator: CorelDRAW -->
<svg xmlns:dc="http://purl.org/dc/elements/1.1/" xmlns:cc="http://web.resource.org/cc/" xmlns:rdf="http://www.w3.org/1999/02/22-rdf-syntax-ns#" xmlns:svg="http://www.w3.org/2000/svg" xmlns="http://www.w3.org/2000/svg" xmlns:sodipodi="http://sodipodi.sourceforge.net/DTD/sodipodi-0.dtd" xmlns:inkscape="http://www.inkscape.org/namespaces/inkscape" xml:space="preserve" width="744" height="1166.6671" style="shape-rendering:geometricPrecision; text-rendering:geometricPrecision; image-rendering:optimizeQuality; fill-rule:evenodd; clip-rule:evenodd" viewBox="0 0 210 297" id="svg2" sodipodi:version="0.32" inkscape:version="0.45.1" sodipodi:docname="POL Radom COA.svg" inkscape:output_extension="org.inkscape.output.svg.inkscape" sodipodi:docbase="C:\Users\Mistrz\Desktop" version="1.0"><metadata id="metadata23"><rdf:RDF><cc:Work rdf:about=""><dc:format>image/svg+xml</dc:format><dc:type rdf:resource="http://purl.org/dc/dcmitype/StillImage"/></cc:Work></rdf:RDF></metadata><sodipodi:namedview inkscape:window-height="480" inkscape:window-width="640" inkscape:pageshadow="2" inkscape:pageopacity="0.0" guidetolerance="10.0" gridtolerance="10.0" objecttolerance="10.0" borderopacity="1.0" bordercolor="#666666" pagecolor="#ffffff" id="base"/>
 <defs id="defs4">
  <style type="text/css" id="style6">
   
    .fil0 {fill:#0A0B0C}
    .fil3 {fill:#1F1A17}
    .fil4 {fill:#DA251D}
    .fil1 {fill:white}
    .fil5 {fill:#C0A062}
    .fil2 {fill:#D2351C}
   
  </style>
 </defs>
 <g id="Warstwa_x0020_1" transform="translate(2.0670615e-4,-1.9919749e-4)">
  <metadata id="CorelCorpID_0Corel-Layer"/>
  <path id="path10" class="fil0" d="M 209.987,64.7757 L 209.9998,212.3187 C 209.8935,246.907 187.8455,269.3819 155.9507,285.5972 C 147.3591,290.2656 142.2551,291.8595 134.8262,294.8515 L 134.803,294.8631 L 134.7681,294.8748 C 123.9464,298.839 112.4978,304.8974 106.3426,311.5115 L 104.8196,313.1508 L 103.2966,311.4999 C 97.0515,304.6795 86.4917,299.123 76.3127,295.0259 L 76.3127,295.0143 L 76.3011,295.0143 C 69.3879,292.1803 61.5437,289.7626 53.4909,285.7368 C 21.6506,269.9064 -0.0155,246.7146 -0.0002,212.3303 L 0.0114,64.7733 L 209.9874,64.7759 L 209.987,64.7757 z " style="fill:#0a0b0c"/>
  <path id="path10_0" class="fil1" d="M 67.0289,287.031 C 67.9077,287.3656 68.7829,287.6943 69.6537,288.0204 L 70.0585,233.5327 L 70.0586,233.5327 L 70.0666,232.0552 C 70.5007,225.9678 72.5292,219.9119 75.2337,214.4698 C 78.0923,208.718 81.5958,203.2089 86.015,198.5362 C 91.1357,193.1215 97.3914,188.4046 105.0535,187.6305 L 105.0957,187.6284 L 105.1289,187.6305 C 111.171,188.3356 116.2461,191.6372 120.6379,195.6052 C 126.2452,200.6715 130.5818,207.1116 134.0495,213.8115 C 137.1545,219.8107 139.6205,226.67 139.9844,233.4736 L 140.0557,288.3482 C 140.9346,288.0045 141.8001,287.6619 142.6689,287.3084 L 142.7537,233.5881 C 142.2167,226.7281 140.2515,220.1747 137.3724,213.977 C 134.0163,206.7527 129.1053,200.2648 123.2276,194.8977 C 118.1116,190.2262 111.9305,186.6941 105.1825,185.0641 C 97.9432,186.2468 91.0903,189.4378 85.6496,194.4048 C 79.7544,199.7864 74.897,206.3801 71.7332,213.7264 C 69.0612,219.9305 67.2679,226.4932 66.9812,233.2685 L 67.0289,287.031 L 67.0289,287.031 z M 71.4316,233.5383 L 71.0231,288.5328 C 71.8361,288.8372 72.6449,289.1406 73.4487,289.4459 L 73.5554,235.8758 C 73.7077,229.169 75.8488,222.0268 78.9284,216.1031 C 81.8422,210.4986 85.494,205.2173 90.0807,200.8516 C 94.3364,196.8007 99.2055,193.3544 104.9625,191.7879 C 109.8242,193.1653 114.0859,195.747 117.8946,198.9709 C 122.8987,203.2067 126.7591,208.6666 129.7855,214.4555 C 133.1898,220.9672 135.1468,228.2629 135.3052,235.6171 L 135.2606,290.2151 C 136.4536,289.7455 137.5847,289.3085 138.6833,288.8823 L 138.6113,233.5114 C 138.1828,226.7158 135.8044,220.4031 132.7849,214.3755 C 129.4753,207.769 124.9904,201.6104 119.5968,196.5322 C 115.5969,192.7661 110.6186,189.6772 105.078,189.0339 C 97.9418,189.7667 91.7012,194.3111 87.0121,199.4961 C 82.8231,204.1278 79.2485,209.3396 76.5286,214.9647 C 73.7252,220.7625 71.4684,227.0183 71.4316,233.5136 L 71.4317,233.5183 L 71.4316,233.5383 L 71.4316,233.5383 z M 150.6557,168.0674 L 139.848,168.0675 L 139.848,158.5764 L 150.6557,158.576 L 150.6557,168.0674 z M 172.5717,158.5754 L 172.5717,168.067 L 151.3422,168.0673 L 151.3422,158.576 L 172.5717,158.5754 L 172.5717,158.5754 z M 183.9584,158.575 L 183.9584,168.0668 L 173.2582,168.067 L 173.2582,158.5753 L 183.9584,158.575 z M 161.4869,177.877 L 139.848,177.8773 L 139.848,168.7539 L 161.4869,168.7536 L 161.4869,177.877 z M 183.9584,177.8766 L 162.1747,177.877 L 162.1747,168.7536 L 183.9584,168.7532 L 183.9584,177.8766 z M 27.2614,157.8899 L 27.2614,148.4178 L 48.8548,148.4171 L 48.8548,157.8892 L 27.2614,157.8899 L 27.2614,157.8899 z M 27.2614,168.0895 L 27.2614,158.5764 L 37.8166,158.576 L 37.8166,168.0894 L 27.2614,168.0895 L 27.2614,168.0895 z M 70.28,148.4164 L 70.28,157.8886 L 49.5421,157.8892 L 49.5421,148.4171 L 70.28,148.4164 L 70.28,148.4164 z M 48.8682,177.8754 L 27.2614,177.8758 L 27.2614,168.776 L 48.8682,168.7757 L 48.8682,177.8754 L 48.8682,177.8754 z M 70.28,177.8751 L 49.5524,177.8754 L 49.5524,168.7757 L 70.28,168.7755 L 70.28,177.8751 z M 116.5532,157.8899 L 116.5532,148.4182 L 128.0336,148.4178 L 128.0336,157.8886 L 116.5532,157.8899 L 116.5532,157.8899 z M 60.3509,158.5753 L 70.28,158.575 L 70.28,168.0891 L 60.3509,168.0892 L 60.3509,158.5753 z M 59.6637,168.0892 L 38.5039,168.0894 L 38.5039,158.576 L 59.6637,158.5753 L 59.6637,168.0892 L 59.6637,168.0892 z M 162.2457,148.4171 L 183.9577,148.4165 L 183.9577,157.8899 L 162.2457,157.8906 L 162.2457,148.4171 z M 82.4066,157.8899 L 82.4066,148.4191 L 93.8813,148.4188 L 93.8813,157.8886 L 82.4066,157.8899 L 82.4066,157.8899 z M 93.8813,158.5761 L 93.8813,158.5776 L 94.5685,158.5776 L 94.5685,148.4188 L 115.8665,148.4182 L 115.8665,158.5798 L 116.5529,158.5798 L 116.5529,158.5777 L 128.0333,158.5764 L 128.0333,168.0677 L 125.1057,168.0678 L 125.1057,168.0885 L 82.4066,168.0889 L 82.4066,158.5774 L 93.8813,158.5761 L 93.8813,158.5761 z M 151.2001,283.4151 C 148.5626,284.763 146.265,285.8067 144.0422,286.7404 L 144.0475,283.416 L 151.2001,283.4151 z M 172.5559,233.3628 L 151.4669,233.3632 L 151.4669,223.9849 L 172.5559,223.9844 L 172.5559,233.3628 L 172.5559,233.3628 z M 172.5559,252.8955 L 151.4669,252.896 L 151.4669,243.6376 L 172.5559,243.6371 L 172.5559,252.8955 z M 183.9274,242.9504 L 162.174,242.9509 L 162.174,234.0494 L 183.9274,234.049 L 183.9274,242.9504 L 183.9274,242.9504 z M 194.2651,233.3623 L 173.245,233.3628 L 173.245,223.9844 L 194.2651,223.9839 L 194.2651,233.3623 z M 183.9274,214.1426 L 183.9274,223.2977 L 162.174,223.2982 L 162.174,214.143 L 183.9274,214.1426 L 183.9274,214.1426 z M 172.5559,203.9994 L 172.5559,213.4537 L 151.4669,213.4541 L 151.4669,203.9998 L 172.5559,203.9994 z M 194.2651,203.999 L 194.2651,213.4532 L 173.245,213.4536 L 173.245,203.9994 L 194.2651,203.999 L 194.2651,203.999 z M 173.245,193.5417 L 173.245,184.0697 L 194.2651,184.0697 L 194.2651,193.5413 L 173.245,193.5417 z M 151.4669,193.542 L 151.4669,184.0697 L 172.5559,184.0697 L 172.5559,193.5417 L 151.4669,193.542 L 151.4669,193.542 z M 183.9274,194.2279 L 183.9274,203.3114 L 162.174,203.3118 L 162.174,194.2283 L 183.9274,194.2279 L 183.9274,194.2279 z M 128.655,184.0697 L 150.7777,184.0697 L 150.7777,193.542 L 128.655,193.5424 L 128.655,184.0697 z M 139.8445,194.2287 L 161.4862,194.2283 L 161.4862,203.3118 L 139.8445,203.3122 L 139.8445,194.2287 L 139.8445,194.2287 z M 65.6519,283.5222 L 65.6546,286.5037 C 63.2814,285.5852 60.8853,284.6123 58.4825,283.523 L 65.6519,283.5222 L 65.6519,283.5222 z M 37.7604,233.3545 L 16.3352,233.3549 L 16.3352,223.9806 L 37.7604,223.9802 L 37.7604,233.3545 z M 48.8256,262.9892 L 27.2953,262.9899 L 27.2953,253.6144 L 48.8256,253.6144 L 48.8256,262.9892 z M 48.8407,242.9353 L 27.2587,242.9358 L 27.2587,234.0411 L 48.8407,234.0406 L 48.8407,242.9353 z M 59.7873,272.8443 L 39.3624,272.8452 C 39.0562,272.6401 38.7516,272.4342 38.4483,272.2274 L 38.4483,263.676 L 59.7873,263.6753 L 59.7873,272.8443 z M 59.8059,252.9268 L 38.4486,252.9273 L 38.4486,243.6205 L 59.8059,243.62 L 59.8059,252.9268 L 59.8059,252.9268 z M 59.8059,233.3539 L 38.4495,233.3544 L 38.4495,223.9801 L 59.8059,223.9797 L 59.8059,233.3539 L 59.8059,233.3539 z M 48.8252,214.1922 L 48.8252,223.2921 L 27.278,223.2926 L 27.278,214.1927 L 48.8252,214.1922 z M 37.7966,203.9926 L 37.7966,213.506 L 16.3165,213.5064 L 16.3165,203.993 L 37.7966,203.9926 z M 59.8059,203.9922 L 59.8059,213.5056 L 38.4858,213.506 L 38.4858,203.9926 L 59.8059,203.9922 z M 38.4606,193.5888 L 38.4606,184.0697 L 59.8059,184.0697 L 59.8059,193.5884 L 38.4606,193.5888 z M 16.3218,193.5891 L 16.3218,184.0697 L 37.7714,184.0697 L 37.7714,193.5888 L 16.3218,193.5891 L 16.3218,193.5891 z M 48.826,194.275 L 48.826,203.306 L 27.2605,203.3064 L 27.2605,194.2754 L 48.826,194.275 z M 70.2786,203.3056 L 49.5103,203.306 L 49.5103,194.275 L 70.2786,194.2747 L 70.2786,203.3056 z M 123.8324,193.5425 C 118.8497,189.2738 113.2205,185.8773 106.8845,184.0697 L 127.9658,184.0697 L 127.9658,193.5424 L 123.8324,193.5425 z M 132.6876,203.3123 C 130.3289,200.001 127.6475,196.9302 124.6182,194.2289 L 139.1553,194.2287 L 139.1553,203.3122 L 132.6876,203.3123 z M 138.6384,213.4543 C 137.0612,210.1794 135.2448,206.9969 133.1707,204.0002 L 150.7777,203.9998 L 150.7777,213.4541 L 138.6384,213.4543 L 138.6384,213.4543 z M 142.349,223.3431 C 141.4894,220.1927 140.3547,217.1156 138.9657,214.1435 L 161.4862,214.1431 L 161.4862,223.2982 L 142.349,223.2986 L 142.349,223.3431 z M 144.1141,233.3634 C 143.8561,230.1895 143.3186,227.0537 142.5202,223.985 L 150.7777,223.9849 L 150.7777,233.3633 L 144.1141,233.3634 z M 144.1113,242.9513 L 144.1254,234.0499 L 161.4862,234.0494 L 161.4862,242.9509 L 144.1113,242.9513 L 144.1113,242.9513 z M 144.0956,252.8962 L 144.1102,243.6378 L 150.7777,243.6376 L 150.7777,252.8961 L 144.0956,252.8962 z M 144.0798,262.9624 L 144.0945,253.5827 L 161.4862,253.5822 L 161.4862,262.9618 L 144.0798,262.9624 z M 144.0642,272.8095 L 144.0786,263.6489 L 150.7777,263.6487 L 150.7777,272.8091 L 144.0642,272.8095 L 144.0642,272.8095 z M 161.4876,277.918 C 159.0743,279.2933 156.5839,280.6312 154.0203,281.9346 L 153.997,281.9463 L 153.9621,281.9579 C 153.4721,282.2242 152.9944,282.4797 152.5277,282.7258 L 144.0485,282.7268 L 144.0631,273.4959 L 161.4876,273.495 L 161.4876,277.918 L 161.4876,277.918 z M 168.7698,273.4947 C 166.6435,274.875 164.442,276.2176 162.1713,277.5263 L 162.1713,273.495 L 168.7698,273.4947 L 168.7698,273.4947 z M 172.5573,270.9404 C 171.6587,271.5707 170.7442,272.193 169.8159,272.8082 L 151.4669,272.8091 L 151.4669,263.6486 L 172.5573,263.6479 L 172.5573,270.9404 z M 181.8563,263.6476 C 179.1749,266.0157 176.2979,268.2807 173.2437,270.4551 L 173.2437,263.6479 L 181.8563,263.6476 z M 183.9274,261.7614 C 183.4984,262.1644 183.063,262.5639 182.6231,262.9612 L 162.174,262.9618 L 162.174,253.5822 L 183.9274,253.5815 L 183.9274,261.7614 z M 191.5265,253.5813 C 189.4274,256.1998 187.1176,258.7034 184.6166,261.1051 L 184.6166,253.5815 L 191.5265,253.5813 L 191.5265,253.5813 z M 194.3253,249.8404 C 193.6035,250.8755 192.8503,251.8934 192.0673,252.8949 L 173.245,252.8954 L 173.245,243.6371 L 194.2665,243.6365 L 194.2665,249.8404 L 194.3253,249.8404 L 194.3253,249.8404 z M 198.1611,243.6364 C 197.1785,245.448 196.1078,247.2103 194.9529,248.9262 L 194.9529,243.6365 L 198.1611,243.6364 L 198.1611,243.6364 z M 202.3598,234.0485 C 201.3062,237.1425 200.0238,240.1063 198.5266,242.95 L 184.6166,242.9503 L 184.6166,234.0489 L 202.3598,234.0485 z M 204.8883,223.9837 C 204.3447,227.2374 203.5744,230.3603 202.5912,233.3621 L 194.9543,233.3623 L 194.9543,223.9839 L 204.8883,223.9837 z M 205.8193,214.1422 C 205.735,217.3044 205.457,220.3535 204.9965,223.2973 L 184.6166,223.2977 L 184.6166,214.1426 L 205.8193,214.1422 z M 205.8482,203.9988 L 205.8488,212.3067 C 205.8477,212.691 205.8409,213.072 205.8342,213.453 L 194.9543,213.4532 L 194.9543,203.999 L 205.8482,203.9988 z M 205.8474,194.2276 L 205.8481,203.311 L 184.6166,203.3114 L 184.6166,194.2279 L 205.8474,194.2276 L 205.8474,194.2276 z M 205.8465,184.0697 L 205.8473,193.5411 L 194.9543,193.5413 L 194.9543,184.0697 L 205.8465,184.0697 z M 4.1495,193.5893 L 4.1495,184.0697 L 15.6329,184.0697 L 15.6329,193.5891 L 4.1495,193.5893 z M 4.1495,203.3068 L 4.1495,194.2757 L 26.5738,194.2754 L 26.5738,203.3064 L 4.1495,203.3068 z M 4.1604,213.5067 C 4.154,213.116 4.1493,212.7243 4.1495,212.3299 L 4.1495,203.9932 L 15.6275,203.993 L 15.6275,213.5064 L 4.1604,213.5067 L 4.1604,213.5067 z M 4.9519,223.2931 C 4.5093,220.3607 4.2474,217.3287 4.1734,214.1931 L 26.5913,214.1927 L 26.5913,223.2926 L 4.9519,223.2931 L 4.9519,223.2931 z M 7.2834,233.3551 C 6.3261,230.349 5.5802,227.2261 5.0564,223.9808 L 15.6463,223.9806 L 15.6463,233.3549 L 7.2834,233.3551 z M 11.2305,242.9362 C 9.7742,240.0903 8.5297,237.1274 7.5081,234.0416 L 26.5698,234.0411 L 26.5698,242.9358 L 11.2305,242.9362 L 11.2305,242.9362 z M 15.6162,250.2745 C 14.1383,248.1307 12.7924,245.9139 11.584,243.6212 L 15.6162,243.6211 L 15.6162,250.2745 z M 17.5425,252.9279 C 17.1166,252.3687 16.6995,251.8048 16.2923,251.2353 L 16.2999,251.2353 L 16.2999,243.6211 L 37.7591,243.6205 L 37.7591,252.9273 L 17.5425,252.9279 z M 26.6058,262.8576 C 23.4621,259.9415 20.607,256.8655 18.0682,253.6144 L 26.6058,253.6144 L 26.6058,262.8576 z M 37.7588,271.7563 C 34.0777,269.2081 30.6495,266.5193 27.4995,263.6764 L 37.7588,263.676 L 37.7588,271.7563 z M 48.8679,278.6234 C 45.9265,276.9919 43.0994,275.2969 40.3986,273.5316 L 48.8679,273.5312 L 48.8679,278.6234 L 48.8679,278.6234 z M 65.6428,273.5304 L 65.651,282.8385 L 57.0072,282.8394 C 56.4512,282.576 55.8949,282.3058 55.3387,282.0277 L 55.3387,282.0161 L 55.327,282.0161 C 53.3578,281.037 51.4331,280.0331 49.5543,279.0037 L 49.5543,273.5312 L 65.6428,273.5304 z M 65.634,263.6751 L 65.6422,272.844 L 60.4756,272.8442 L 60.4756,263.6753 L 65.634,263.6751 z M 65.6251,253.6144 L 65.6334,262.9887 L 49.5145,262.9892 L 49.5145,253.6144 L 65.6251,253.6144 L 65.6251,253.6144 z M 65.6162,243.6199 L 65.6245,252.9266 L 60.4942,252.9268 L 60.4942,243.62 L 65.6162,243.6199 z M 65.6077,234.0403 L 65.6156,242.9349 L 49.5247,242.9352 L 49.5247,234.0406 L 65.6077,234.0403 z M 66.8506,223.9795 C 66.1593,227.027 65.7331,230.1334 65.607,233.2574 L 65.6071,233.3538 L 60.4942,233.3539 L 60.4942,223.9797 L 66.8506,223.9795 L 66.8506,223.9795 z M 70.0481,214.1918 C 68.7852,217.1307 67.7605,220.1787 67.0114,223.2917 L 49.5091,223.2921 L 49.5091,214.1922 L 70.0481,214.1918 z M 75.5106,203.9919 C 73.5219,207.0055 71.8092,210.2094 70.3479,213.5053 L 60.4942,213.5056 L 60.4942,203.9922 L 75.5106,203.9919 z M 83.7488,194.2744 C 80.7952,196.9554 78.2135,200.0099 75.9706,203.3055 L 70.9669,203.3056 L 70.9669,194.2746 L 83.7488,194.2744 z M 82.4792,184.0697 L 102.6206,184.0697 C 96.0613,185.4268 89.9529,188.8622 84.5218,193.588 L 82.4792,193.588 L 82.4792,184.0697 z M 81.7905,193.5881 L 60.4942,193.5884 L 60.4942,184.0697 L 81.7905,184.0697 L 81.7905,193.5881 z M 70.4625,112.9743 C 70.4584,114.0372 70.1292,115.1279 69.4288,115.9268 C 68.7239,116.7306 67.6503,117.2693 66.161,117.2693 L 31.6513,117.2707 C 30.1619,117.2707 29.0841,116.7306 28.3793,115.9268 C 27.6791,115.1283 27.3501,114.0382 27.3457,112.9757 L 37.7712,112.9754 L 37.7712,112.9785 L 38.4576,112.9785 L 38.4576,112.9753 L 59.7927,112.9747 L 59.7927,112.9798 L 60.4791,112.9798 L 60.4791,112.9747 L 70.4625,112.9743 z M 60.4791,101.9257 L 60.4791,89.0597 L 70.4789,89.0584 L 70.4789,101.9254 L 60.4791,101.9257 L 60.4791,101.9257 z M 43.9781,101.9262 L 43.9781,89.0665 L 54.3057,89.0653 L 54.3057,101.9259 L 43.9781,101.9262 z M 27.3294,101.9268 L 27.3294,89.0611 L 37.7712,89.0598 L 37.7712,101.9264 L 27.3294,101.9268 L 27.3294,101.9268 z M 37.7712,102.6129 L 37.7712,112.2889 L 27.3294,112.2893 L 27.3294,102.6132 L 37.7712,102.6129 z M 48.8599,102.6125 L 48.8599,112.2886 L 38.4576,112.2889 L 38.4576,102.6128 L 48.8599,102.6125 z M 59.7927,102.6122 L 59.7927,112.2882 L 49.5491,112.2886 L 49.5491,102.6125 L 54.3057,102.6123 L 54.3057,102.6132 L 54.9918,102.6132 L 54.9918,102.6123 L 59.7927,102.6122 L 59.7927,102.6122 z M 70.4789,102.6118 L 70.4789,112.2879 L 60.4791,112.2882 L 60.4791,102.6122 L 70.4789,102.6118 z M 41.832,138.3551 L 41.832,147.7307 L 31.0729,147.731 L 31.0729,138.3555 L 41.832,138.3551 z M 65.948,138.3542 L 65.948,147.7299 L 55.5024,147.7303 L 55.5024,138.3546 L 65.948,138.3542 z M 55.5073,127.7439 L 55.5073,117.9548 L 65.948,117.9544 L 65.948,127.7435 L 55.5073,127.7439 z M 31.0729,127.7449 L 31.0729,117.9557 L 41.8133,117.9553 L 41.8133,127.7445 L 31.0729,127.7449 L 31.0729,127.7449 z M 47.7119,127.7443 L 42.5025,127.7445 L 42.5025,117.9553 L 54.8182,117.9548 L 54.8182,127.744 L 50.9208,127.7441 L 50.9208,123.8007 L 47.7119,123.8007 L 47.7119,127.7443 L 47.7119,127.7443 z M 44.8954,137.6686 L 31.0729,137.6691 L 31.0729,128.4313 L 47.7119,128.4307 L 47.7119,131.5362 C 45.8771,132.1905 44.566,133.9202 44.566,135.9514 C 44.566,136.5574 44.6829,137.1367 44.8954,137.6686 L 44.8954,137.6686 z M 53.4373,138.3546 L 54.8151,138.3546 L 54.8151,147.7303 L 42.5193,147.7307 L 42.5193,138.3551 L 45.2383,138.355 C 46.0711,139.7272 47.595,140.6462 49.3375,140.6462 C 51.0802,140.6462 52.6045,139.727 53.4373,138.3546 L 53.4373,138.3546 z M 50.9208,131.5216 L 50.9208,131.5216 L 50.9208,128.4306 L 65.948,128.43 L 65.948,137.6678 L 53.7801,137.6682 C 53.9925,137.1365 54.1091,136.5573 54.1091,135.9514 C 54.1091,133.9047 52.7778,132.1642 50.9208,131.5216 z M 92.5432,101.9292 L 82.4105,101.9295 L 82.4105,91.9777 L 92.5432,91.9774 L 92.5432,101.9292 z M 117.9034,91.9766 L 128.033,91.9763 L 128.033,101.9281 L 117.9034,101.9284 L 117.9034,91.9766 L 117.9034,91.9766 z M 92.5432,78.7769 L 92.5432,91.2924 L 82.4105,91.2927 L 82.4105,78.7782 L 92.5432,78.7769 z M 110.3252,78.7769 L 110.3252,91.2918 L 99.9158,91.2921 L 99.9158,78.7782 L 110.3252,78.7769 L 110.3252,78.7769 z M 128.033,78.7769 L 128.033,91.2913 L 117.9034,91.2916 L 117.9034,78.7782 L 128.033,78.7769 L 128.033,78.7769 z M 105.3506,91.977 L 117.2156,91.9767 L 117.2156,101.9285 L 105.3506,101.9288 L 105.3506,91.977 z M 104.6615,101.9288 L 93.2307,101.9292 L 93.2307,91.9774 L 104.6615,91.9771 L 104.6615,101.9288 z M 86.7128,107.0791 C 85.485,107.0554 84.3493,106.6341 83.5094,105.7277 C 82.7419,104.8981 82.4343,103.721 82.4101,102.6173 L 82.4105,102.6173 L 82.4105,102.6146 L 92.5432,102.6143 L 92.5432,102.6173 L 93.2307,102.6173 L 93.2307,102.6142 L 117.2156,102.6135 L 117.2156,102.6173 L 117.9034,102.6173 L 117.9034,102.6135 L 128.0327,102.6132 C 128.0074,103.7547 127.6406,104.9061 126.8894,105.7736 C 126.1253,106.6565 125.008,107.0289 123.8785,107.0846 L 86.7128,107.0791 L 86.7128,107.0791 z M 105.3327,138.3562 L 123.2914,138.3555 L 123.2914,147.7286 L 105.3327,147.7291 L 105.3327,138.3562 z M 104.6436,147.7291 L 87.1722,147.7296 L 87.1722,138.3569 L 104.6436,138.3562 L 104.6436,147.7291 L 104.6436,147.7291 z M 97.5843,137.6673 L 87.1722,137.6678 L 87.1722,128.4327 L 97.5843,128.4323 L 97.5843,137.6673 L 97.5843,137.6673 z M 112.5333,128.4317 L 123.2914,128.4313 L 123.2914,137.6664 L 112.5333,137.6668 L 112.5333,128.4317 z M 97.6213,117.2675 L 87.1722,117.268 L 87.1722,107.7724 L 97.6213,107.772 L 97.6213,117.2675 z M 112.4975,107.7714 L 123.2914,107.771 L 123.2914,117.2666 L 112.4975,117.267 L 112.4975,107.7714 z M 103.3588,117.2674 L 98.31,117.2675 L 98.31,107.772 L 111.8083,107.7714 L 111.8083,117.267 L 106.5677,117.2672 L 106.5677,112.7876 L 103.3588,112.7876 L 103.3588,117.2674 z M 101.1577,127.743 L 87.1722,127.7435 L 87.1722,117.9571 L 103.3588,117.9565 L 103.3588,120.5231 C 101.524,121.1774 100.2129,122.9071 100.2129,124.9383 C 100.2129,125.9897 100.5643,126.9605 101.1577,127.743 L 101.1577,127.743 z M 108.1718,128.4319 L 111.8441,128.4318 L 111.8441,137.6668 L 98.2741,137.6673 L 98.2741,128.4323 L 101.7976,128.4322 C 102.6425,129.1788 103.7594,129.6331 104.9844,129.6331 C 106.2096,129.6331 107.3268,129.1787 108.1718,128.4319 L 108.1718,128.4319 z M 106.5677,120.5085 L 106.5677,120.5085 L 106.5677,117.9564 L 123.2914,117.9558 L 123.2914,127.7422 L 108.8117,127.7427 C 109.405,126.9602 109.7561,125.9896 109.7561,124.9383 C 109.7561,122.8915 108.4247,121.1511 106.5677,120.5085 L 106.5677,120.5085 z M 157.0779,101.9262 L 157.0779,89.0611 L 167.2778,89.0598 L 167.2778,101.9259 L 157.0779,101.9262 z M 183.9574,89.0598 L 183.9574,101.9254 L 173.3412,101.9257 L 173.3412,89.0611 L 183.9574,89.0598 z M 173.3412,112.2827 L 173.3412,102.6107 L 183.9574,102.6104 L 183.9574,112.2824 L 173.3412,112.2827 z M 139.8098,112.2838 L 139.8098,102.6118 L 150.7388,102.6115 L 150.7388,112.2834 L 139.8098,112.2838 z M 162.2702,102.6111 L 172.6534,102.6108 L 172.6534,112.2828 L 162.2702,112.2831 L 162.2702,102.6111 z M 161.5824,112.2831 L 151.4253,112.2834 L 151.4253,102.6115 L 161.5824,102.6111 L 161.5824,112.2831 L 161.5824,112.2831 z M 150.7388,89.0598 L 150.7388,101.9264 L 139.8098,101.9268 L 139.8098,89.0611 L 150.7388,89.0598 z M 178.9746,147.73 L 167.8498,147.7303 L 167.8498,138.3546 L 178.9746,138.3542 L 178.9746,147.73 z M 144.3749,138.3555 L 156.295,138.355 L 156.295,147.7307 L 144.3749,147.731 L 144.3749,138.3555 L 144.3749,138.3555 z M 4.1499,157.8909 L 4.1499,148.445 L 15.6383,148.4439 L 15.6383,157.8898 L 4.1499,157.8909 z M 4.1499,168.0896 L 4.1499,158.576 L 15.6383,158.5748 L 15.6383,168.0895 L 4.1499,168.0896 z M 4.1499,177.876 L 4.1499,168.776 L 26.5748,168.7758 L 26.5748,177.8756 L 4.1499,177.876 z M 205.8459,178.5611 L 205.8463,183.3805 L 4.1493,183.3805 L 4.1493,178.5624 L 86.8633,178.561 L 86.8633,177.8746 L 70.9656,177.8749 L 70.9656,168.7753 L 125.6308,168.7747 L 125.6308,168.754 L 139.1535,168.7538 L 139.1535,177.8771 L 123.2995,177.8774 L 123.2995,178.5638 L 205.8456,178.5611 L 205.8459,178.5611 z M 205.8451,168.7527 L 205.8459,177.8761 L 184.637,177.8764 L 184.637,168.753 L 205.8451,168.7527 z M 205.8443,158.575 L 205.845,168.0662 L 194.9789,168.0664 L 194.9789,158.5761 L 205.8443,158.575 z M 205.8435,148.4162 L 205.8442,157.8885 L 194.9789,157.8897 L 194.9789,148.4162 L 205.8435,148.4162 z M 156.2951,127.7444 L 144.375,127.7449 L 144.375,117.9557 L 156.2951,117.9553 L 156.2951,127.7444 L 156.2951,127.7444 z M 167.8871,117.9548 L 178.9747,117.9544 L 178.9747,127.7435 L 167.8871,127.744 L 167.8871,117.9548 L 167.8871,117.9548 z M 160.3074,127.7443 L 156.9829,127.7444 L 156.9829,117.9552 L 167.1993,117.9549 L 167.1993,127.744 L 163.5164,127.7442 L 163.5164,123.7966 L 160.3074,123.7966 L 160.3074,127.7443 L 160.3074,127.7443 z M 157.4925,137.6686 L 144.375,137.6691 L 144.375,128.4313 L 160.3074,128.4307 L 160.3074,131.5321 C 158.4726,132.1864 157.1616,133.9161 157.1616,135.9473 C 157.1616,136.5549 157.2789,137.1356 157.4925,137.6686 L 157.4925,137.6686 z M 166.03,138.3547 L 167.1635,138.3546 L 167.1635,147.7303 L 156.9829,147.7306 L 156.9829,138.355 L 157.8363,138.355 C 158.6697,139.7249 160.1923,140.6421 161.933,140.6421 C 163.674,140.6421 165.1967,139.7248 166.03,138.3547 L 166.03,138.3547 z M 163.5164,131.5175 L 163.5164,131.5175 L 163.5164,128.4306 L 178.9747,128.43 L 178.9747,137.6678 L 166.3738,137.6682 C 166.5873,137.1354 166.7046,136.5548 166.7046,135.9473 C 166.7046,133.9005 165.3733,132.1601 163.5164,131.5175 L 163.5164,131.5175 z M 179.6549,117.2621 C 181.1442,117.2621 182.1807,116.7306 182.8855,115.9268 C 183.5869,115.1269 183.9586,114.0344 183.9622,112.9702 L 183.9575,112.9702 L 183.9575,112.9675 L 173.3413,112.9678 L 173.3413,112.9702 L 172.6535,112.9702 L 172.6535,112.9678 L 151.4254,112.9685 L 151.4254,112.9702 L 150.7389,112.9702 L 150.7389,112.9685 L 139.8117,112.9688 C 139.815,114.0334 140.1867,115.1265 140.8884,115.9268 C 141.5932,116.7306 142.6262,117.2722 144.1155,117.2722 L 179.6549,117.2621 L 179.6549,117.2621 z M 161.5591,157.8904 L 139.8471,157.8911 L 139.8471,148.4176 L 161.5591,148.4169 L 161.5591,157.8904 z " style="fill:#ffffff"/>
  <path id="path10_1" class="fil2" d="M 139.124,112.955 L 139.124,88.3732 L 151.4246,88.3718 L 151.4246,88.3732 L 151.426,88.3732 L 151.426,101.9263 L 156.3894,101.9261 L 156.3894,88.3732 L 157.0786,88.3732 L 157.0786,88.3745 L 167.2785,88.3732 L 167.2785,88.3732 L 167.6893,88.3732 L 167.9677,88.3732 L 167.9677,101.9258 L 172.6541,101.9257 L 172.6541,88.3732 L 184.3013,88.3718 L 184.3013,88.3732 L 184.6445,88.3732 L 184.6521,112.9546 C 184.652,114.1735 184.2336,115.4102 183.403,116.3575 C 182.5736,117.3033 181.3203,117.9492 179.6631,117.9511 L 179.6631,117.9543 L 179.6617,117.9543 L 179.6617,147.7298 L 183.9581,147.7297 L 183.9581,147.7297 L 184.6197,147.7297 L 184.6376,147.7297 L 184.6376,168.0665 L 194.2917,168.0663 L 194.2917,147.7352 L 194.6349,147.7352 L 194.6349,147.7325 L 205.844,147.7311 L 205.8376,68.9118 L 4.1506,68.9118 L 4.1506,147.7599 L 16.3268,147.7587 L 16.3268,148.4437 L 16.3254,148.4437 L 16.3254,168.0894 L 26.5755,168.0893 L 26.5755,148.4175 L 26.5724,148.4175 L 26.5724,147.7311 L 30.3873,147.731 L 30.3873,117.9557 L 30.3854,117.9557 L 30.3854,117.8156 C 29.3234,117.5786 28.469,117.0479 27.8635,116.3575 C 27.0383,115.4163 26.6626,114.1896 26.6576,112.9784 L 26.6441,88.3746 L 38.1156,88.3732 L 38.1156,88.3746 L 38.4587,88.3746 L 38.4587,101.9263 L 43.2931,101.9261 L 43.2931,89.0665 L 43.2889,89.0665 L 43.2889,88.3815 L 43.2931,88.3815 L 43.2931,88.3787 L 43.9792,88.3787 L 43.9792,88.3814 L 54.9899,88.3801 L 54.9899,88.3966 L 54.9929,88.3966 L 54.9929,101.9258 L 59.7938,101.9256 L 59.7938,89.0596 L 59.793,89.0596 L 59.793,88.3732 L 70.9899,88.3718 L 70.9899,88.3732 L 71.1664,88.3732 L 71.1527,112.977 C 71.1481,114.1892 70.7723,115.459 69.9467,116.4005 C 69.1981,117.2542 68.0692,117.8287 66.6376,117.9337 L 66.6376,117.9543 L 66.6358,117.9543 L 66.6358,147.7298 L 70.2805,147.7297 L 70.2805,147.7283 L 70.9669,147.7283 L 70.9669,168.0888 L 81.7209,168.0886 L 81.7209,147.7339 L 81.7246,147.7339 L 81.7246,147.7297 L 86.4869,147.7295 L 86.4869,107.7612 C 85.1652,107.6825 83.85,107.2223 82.9831,106.1648 C 82.1601,105.1618 81.7491,103.9171 81.7247,102.6172 L 81.7241,78.0906 L 82.4116,78.0906 L 82.4116,78.0917 L 92.888,78.0903 L 92.888,78.0906 L 93.2318,78.0906 L 93.2318,91.2922 L 99.2304,91.292 L 99.2304,78.0906 L 99.9169,78.0906 L 99.9169,78.0917 L 110.6695,78.0903 L 110.6695,78.0906 L 111.0127,78.0906 L 111.0127,91.2917 L 117.2167,91.2915 L 117.2167,78.0906 L 117.9045,78.0906 L 117.9045,78.0917 L 128.0341,78.0904 L 128.0341,78.0891 L 128.7219,78.0891 L 128.7202,102.6159 C 128.6955,103.8557 128.342,105.1589 127.5085,106.1084 C 126.5977,107.1467 125.3458,107.6775 123.9776,107.7665 L 123.9776,107.7709 L 123.9721,107.7709 L 123.9721,147.7285 L 128.7219,147.7283 L 128.7219,148.4175 L 128.7205,148.4175 L 128.7205,168.0674 L 139.1548,168.0672 L 139.1548,147.7325 L 139.1686,147.7325 L 139.1686,147.7311 L 143.6896,147.7309 L 143.6896,117.9557 L 143.6882,117.9557 L 143.6882,117.9372 C 142.2332,117.8418 141.0866,117.2641 140.3295,116.4005 C 139.4989,115.4532 139.1245,114.1739 139.1244,112.955 L 139.124,112.955 z M 74.8205,289.971 L 74.9282,235.8894 C 75.2398,229.1358 77.2192,222.6738 80.2106,216.6321 C 82.9191,211.1615 86.6736,206.1751 91.0102,201.8766 C 94.8558,198.0649 99.6823,194.6775 104.9554,193.2354 C 109.5631,194.566 113.8005,197.1239 117.3401,200.3441 C 121.9672,204.5538 125.8588,209.6185 128.6281,215.2298 C 131.7609,221.5777 133.7727,228.5094 133.9317,235.6169 L 133.8872,290.7593 C 133.6866,290.8395 133.4845,290.9205 133.2799,291.0029 C 122.8401,294.8272 111.9563,300.3619 104.8428,307.1979 C 97.7982,300.2826 87.6038,295.0997 77.8589,291.1773 C 76.8558,290.7661 75.8426,290.3659 74.8205,289.971 L 74.8205,289.971 z " style="fill:#d2351c"/>
  <path id="path1021" class="fil0" d="M 87.65,225.55 L 82.6103,227.4022 L 86.6162,232.2265 L 86.6162,264.7904 L 80.2413,270.6915 L 80.8443,270.993 C 85.2154,273.0038 88.7893,278.145 89.976,282.2353 L 90.1483,282.8814 L 104.9227,273.0175 L 103.8868,271.3443 L 105.241,270.5041 L 103.4991,268.2656 L 95.9031,272.9818 C 95.3466,271.7949 94.5126,269.5093 91.9943,269.488 L 97.1285,264.2929 L 97.2296,255.541 L 104.1473,254.1511 C 110.1739,261.1653 114.269,269.4313 116.5526,278.9186 L 116.7249,279.5647 L 128.6563,272.1991 L 127.8557,270.3117 L 128.9901,269.4302 L 128.1582,267.2504 L 123.6843,269.4313 C 121.1771,261.0417 118.9008,257.1731 113.0364,251.1607 L 117.9725,249.3405 C 123.9625,247.3068 121.07,223.8383 109.2782,226.1275 L 94.6802,228.9545 L 90.9765,225.5635 L 90.9765,225.5635 L 88.6386,226.5963 L 87.65,225.55 L 87.65,225.55 z " style="fill:#0a0b0c"/>
  <path id="path1021_2" class="fil1" d="M 87.3916,226.627 L 92.5173,232.0543 L 92.7758,232.0112 C 94.9267,231.5711 99.4405,230.3016 103.8027,229.4268 C 105.9838,228.9893 108.1211,228.6476 109.8761,228.5653 C 110.4794,228.537 111.0344,228.5432 111.5257,228.581 C 112.9216,228.6883 114.2557,229.3631 115.2004,230.4256 C 115.8085,231.1094 116.3526,232.0016 116.811,233.045 C 117.6374,234.926 118.1961,237.2359 118.4909,239.5061 C 118.7857,241.7763 118.8005,244.0283 118.5771,245.7087 C 118.4653,246.549 118.3191,247.2446 118.1032,247.7332 C 117.8874,248.2217 117.6317,248.4524 117.4571,248.5085 L 108.8424,251.6529 L 109.4023,252.1698 C 115.2363,257.6947 118.6438,264.8156 120.6877,272.8883 L 120.8169,273.4914 L 121.3769,273.1898 L 126.8042,270.2178 L 127.4503,271.8115 L 117.3279,278.0572 C 114.9586,268.6182 110.7515,260.3474 104.6642,253.3328 L 104.4919,253.1174 L 93.7665,255.2711 L 93.7234,263.972 L 88.21,269.6147 L 88.8561,269.8731 C 92.5123,271.4937 93.8154,273.7603 94.3265,275.602 L 94.4987,276.205 L 102.6828,271.2515 L 103.6304,272.7591 L 90.6652,281.417 C 89.3273,277.3497 86.0964,272.7078 81.835,270.4762 L 87.5639,265.1781 L 87.5639,231.9251 L 84.161,227.833 L 87.3916,226.627 z " style="fill:#ffffff"/>
  <path id="path1021_3" class="fil3" d="M 108.627,231.408 C 107.4761,231.2794 106.1828,231.5055 104.6211,231.7956 L 97.9447,233.0878 L 93.8526,233.9063 L 93.8526,253.1603 L 110.3068,248.9649 L 110.393,248.9391 C 111.1674,248.6907 111.797,248.1151 112.3088,247.1395 C 112.4979,246.7791 112.6666,246.3934 112.8052,246.01 L 113.1067,245.1916 C 113.6518,243.4797 113.8205,242.0541 113.7672,240.2573 C 113.6904,237.6712 112.9592,235.0724 111.6422,233.1309 C 110.8122,232.0745 109.7778,231.5366 108.627,231.408 L 108.627,231.408 z " style="fill:#1f1a17"/>
  <path id="path1021_4" class="fil4" d="M 98.033,248.73 L 111.9996,245.4428 C 113.4784,241.9974 112.939,236.7457 110.8668,233.6909 C 110.1635,232.7957 109.4928,232.462 108.5408,232.3556 C 107.5889,232.2493 106.3854,232.4124 104.8365,232.7002 L 97.965,234.042 L 98.033,248.73 z " style="fill:#da251d"/>
  <path id="path1037" class="fil5" d="M 44.8667,37.185 C 42.0136,27.142 51.5978,16.8325 64.3464,11.5212 C 76.3371,6.5668 91.4037,4.4698 102.9488,5.0947 C 103.4838,10.4944 103.2166,15.5386 99.7394,19.1534 C 100.943,21.4743 102.9937,23.6614 103.2609,26.0268 C 99.0707,22.2769 94.6132,21.4293 93.1424,26.8751 C 92.8303,30.758 96.0397,34.6848 94.7468,39.6397 C 102.2358,38.1671 98.6249,34.3728 100.4972,31.9176 C 103.9296,38.3008 103.2609,49.7267 94.2568,46.1555 C 91.1366,42.9425 89.8881,39.9067 92.7859,37.3188 L 88.5508,26.3837 L 86.2777,37.0057 L 88.5508,39.6397 C 88.8186,43.4776 88.3279,46.4681 86.5899,48.2982 C 78.6108,50.2622 76.1586,41.4694 79.413,35.8462 C 81.196,37.4525 78.3879,41.4694 85.1184,40.5317 C 80.8395,36.9162 89.6652,27.232 81.196,25.7137 C 76.56,25.7592 77.1394,27.9457 75.1335,29.1509 L 75.4457,27.1869 L 77.5851,22.2769 L 71.2111,13.9314 L 68.4473,23.7502 L 72.5484,29.0622 L 73.4842,30.8018 C 68.5366,28.392 64.9257,29.6422 64.6585,33.7477 C 64.8364,36.8281 69.116,40.2648 68.9375,44.0578 C 74.4206,41.4244 70.6761,39.4604 71.5233,37.185 C 76.56,40.1748 77.3179,50.5292 70.8989,50.4404 C 65.8622,49.3696 64.2571,45.4867 65.9958,41.9157 L 60.4233,33.2565 L 60.5126,44.2366 C 63.945,47.0931 61.8949,52.3595 57.3031,55.171 C 53.47,55.7512 50.6169,52.0019 50.0376,48.3422 C 49.5469,45.4411 52.5336,43.0764 51.7313,41.1125 C 54.1386,43.1202 51.2856,47.5845 58.9526,47.137 C 54.3166,44.459 59.4875,37.8983 55.8322,32.7657 C 52.1771,29.3291 48.5218,32.2751 44.8667,37.185 L 44.8667,37.185 L 44.8667,37.185 z M 164.1957,37.6307 C 166.6923,27.9902 157.1081,16.3863 144.5381,11.0743 C 132.7253,6.1206 117.6586,4.8266 106.158,5.0947 C 105.5787,10.4944 106.5144,15.7161 109.9468,19.3323 C 108.1638,21.2511 106.6487,23.3928 105.8015,26.0268 C 109.9918,22.2769 114.4491,21.4293 115.9649,26.8751 C 116.2322,30.758 113.3791,34.0608 114.672,39.0148 C 109.3675,37.8983 111.0611,33.1227 109.6796,32.0069 C 104.197,38.1215 106.158,50.0836 115.1621,46.5125 C 118.3715,44.8167 119.1744,39.9067 116.2771,37.3188 C 117.8815,34.2385 119.3524,30.6242 120.7345,26.83 C 121.0911,30.4899 121.7596,34.2385 123.3646,38.1671 L 121.3138,39.4604 C 119.7981,43.4776 121.3138,45.4867 123.0524,47.3162 C 129.6942,49.101 134.2411,40.2199 131.0315,34.5953 C 129.07,36.1136 131.2544,39.7735 125.0135,39.9067 C 130.4073,36.5593 119.9766,26.9188 127.9113,25.0004 C 132.5024,25.0447 130.0508,27.0525 133.0373,28.347 L 133.3046,25.4023 L 132.0122,22.6345 L 138.8321,14.5565 L 140.2142,23.9291 L 137.4948,26.5619 L 136.1133,29.5528 C 141.0608,27.142 144.4932,28.2139 144.7609,32.32 C 144.8946,36.3817 136.6033,37.3188 140.4371,43.1659 C 134.9539,40.5317 137.6284,37.7645 136.737,35.4885 C 131.9673,38.9697 131.7894,50.6192 138.2078,50.4404 C 143.2452,51.4224 144.8946,46.5125 142.6657,42.6295 C 145.0281,40.3536 146.9447,37.4076 148.5941,33.9709 L 148.6834,44.6822 C 144.4932,47.5395 145.3403,51.5562 151.3135,54.3684 C 154.9688,55.885 158.7132,52.315 159.3369,48.3422 C 159.7827,45.4411 158.2225,44.0578 158.1332,41.9157 C 155.9938,43.0313 158.3561,47.4944 151.5807,46.9594 C 156.2167,44.2816 148.7277,39.1484 152.3385,34.0158 C 155.9938,30.5786 160.5405,32.722 164.1957,37.6307 L 164.1957,37.6307 L 164.1957,37.6307 z M 106.1136,-16.1504 L 103.7064,-16.1067 L 104.3749,-12.893 L 100.1405,-13.4276 L 100.0955,-11.6423 L 104.4199,-11.688 L 104.5086,-7.0462 L 102.7256,-7.0462 C 100.4969,-7.0462 98.6696,-5.2608 98.6696,-3.1181 L 98.6696,-3.1181 C 98.6696,-0.9311 100.4969,0.8098 102.7256,0.8098 L 103.5278,0.8098 L 103.5278,1.6581 C 77.3176,1.9694 58.2393,8.4864 45.0449,20.1355 C 40.5426,26.0268 36.62,24.1971 32.9649,19.1534 L 31.2262,18.2163 L 56.9907,71.8633 C 73.1717,67.9357 87.9711,65.258 102.7256,64.9898 C 118.3715,64.7229 133.9732,67.222 150.957,71.7294 L 179.0838,17.9932 C 174.6714,19.4654 170.9268,27.1869 165.8451,22.4114 C 152.517,7.5489 132.5024,1.0768 107.0051,1.4787 L 107.0051,0.8098 C 109.1446,0.7649 110.8832,-0.976 110.8832,-3.1181 L 110.8832,-3.1181 C 110.8832,-5.2608 109.0553,-7.0462 106.8266,-7.0462 L 105.8907,-7.0462 L 105.8458,-11.5086 L 109.1002,-11.1516 L 109.0109,-13.1606 L 105.9351,-12.8476 L 106.1136,-16.1504 L 106.1136,-16.1504 L 106.1136,-16.1504 z " style="fill:#c0a062"/>
  <path id="path1013" class="fil0" d="M 103.717,153.1 L 104.0615,154.306 L 102.597,153.9614 L 102.597,156.7612 L 104.2769,156.2874 L 104.2769,157.2781 C 104.237,157.301 104.1134,157.3437 104.0615,157.3643 C 102.6199,157.7774 101.5633,159.0869 101.5633,160.6379 C 101.5633,160.6797 101.5643,160.7211 101.5657,160.7624 C 101.3571,160.6254 101.111,160.5518 100.831,160.5518 C 100.7376,160.5518 100.6462,160.5607 100.5577,160.5779 C 100.5675,160.5132 100.5726,160.4471 100.5726,160.3795 C 100.5726,159.6304 99.9494,159.0011 99.1942,159.0011 C 98.995,159.0011 98.805,159.0448 98.6332,159.1231 C 98.606,158.3984 97.9942,157.8381 97.2559,157.8381 C 96.925,157.8381 96.6195,157.9506 96.3806,158.1401 C 96.2106,157.5734 95.6794,157.1489 95.0591,157.1489 C 94.5796,157.1489 94.1534,157.4026 93.9061,157.7796 C 93.6622,157.3983 93.2258,157.1489 92.7331,157.1489 C 92.0844,157.1489 91.5332,157.5815 91.3906,158.1783 C 91.1623,158.0179 90.8814,157.9242 90.5794,157.9242 C 89.8242,157.9242 89.2011,158.5106 89.2011,159.2595 C 89.2011,159.2935 89.202,159.3275 89.2038,159.3614 C 89.0811,159.3233 88.95,159.3026 88.8134,159.3026 C 88.0582,159.3026 87.435,159.9319 87.435,160.681 C 87.435,160.8512 87.4674,161.013 87.526,161.1614 C 87.4819,161.157 87.4371,161.1548 87.392,161.1548 C 86.6368,161.1548 86.0136,161.7842 86.0136,162.5332 C 86.0136,162.7591 86.061,162.9677 86.152,163.1509 C 85.4928,163.2463 84.9798,163.792 84.9798,164.4715 C 84.9798,164.9348 85.2184,165.3522 85.5791,165.6033 C 85.0783,165.8003 84.7214,166.2738 84.7214,166.8405 C 84.7214,167.2966 84.9526,167.7083 85.3039,167.9605 C 84.9286,168.1967 84.6783,168.6059 84.6783,169.0804 C 84.6783,169.5831 84.9593,170.0318 85.3723,170.2726 C 85.0554,170.5152 84.8506,170.891 84.8506,171.3202 C 84.8506,171.8766 85.2075,172.3675 85.7005,172.5828 C 85.4935,172.8248 85.3675,173.1373 85.3675,173.4739 C 85.3675,174.1235 85.8365,174.6507 86.4537,174.7791 C 86.2853,175.0028 86.1859,175.2818 86.1859,175.5845 C 86.1859,176.1819 86.5723,176.6863 87.114,176.8574 C 86.8599,177.1004 86.7028,177.4435 86.7028,177.8244 C 86.7028,178.563 87.2934,179.1597 88.0381,179.1597 C 88.3616,179.1597 88.6641,179.047 88.9028,178.8592 C 88.9606,179.6156 89.2256,180.3703 89.718,180.9257 C 90.2199,181.4919 90.9471,181.8676 91.8286,181.8303 C 91.8699,181.8284 92.0254,181.8777 92.2163,181.7872 C 93.8949,180.9913 94.6691,180.5191 95.1883,180.3227 C 95.7075,180.1262 95.993,180.173 96.9113,180.2796 C 97.1526,180.3076 97.421,180.2067 97.6866,180.1073 C 97.9522,180.0079 98.2236,179.8652 98.505,179.7196 C 99.0678,179.4284 99.6224,179.1247 99.9265,179.0304 C 100.3957,178.885 100.6385,178.9286 100.9603,178.9874 C 101.282,179.0461 101.6893,179.1088 102.2955,179.0304 C 103.3277,178.8969 104.0964,178.3413 105.0523,178.3413 C 105.4055,178.3413 105.8683,178.5447 106.3445,178.7289 C 106.8206,178.9131 107.3161,179.0798 107.809,178.9874 C 109.1288,178.7398 110.1452,179.2014 111.0826,179.6765 C 112.02,180.1517 112.8818,180.6907 113.8393,180.4519 C 115.3846,180.0665 115.9988,180.3981 116.553,180.8395 C 116.8301,181.0603 117.0827,181.3148 117.4144,181.5287 C 117.7462,181.7427 118.1693,181.9258 118.7067,181.9164 C 119.5176,181.9022 120.1554,181.4632 120.6019,180.8826 C 121.0292,180.3271 121.2836,179.6346 121.3292,178.9128 C 121.5526,179.0676 121.8229,179.1597 122.1095,179.1597 C 122.8543,179.1597 123.4879,178.5629 123.4879,177.8244 C 123.4879,177.4415 123.3175,177.0968 123.0499,176.8536 C 123.5963,176.6788 124.0048,176.1775 124.0048,175.5845 C 124.0048,175.2831 123.8991,175.0052 123.7235,174.7819 C 124.3473,174.6585 124.8232,174.1282 124.8232,173.4739 C 124.8232,173.1363 124.6964,172.8229 124.4882,172.5806 C 124.9666,172.3642 125.297,171.8748 125.297,171.3202 C 125.297,170.8993 125.1001,170.5297 124.7936,170.2868 C 125.2201,170.0497 125.5123,169.5931 125.5123,169.0804 C 125.5123,168.5961 125.2516,168.1799 124.8633,167.9461 C 125.2035,167.6927 125.4262,167.288 125.4262,166.8405 C 125.4262,166.2841 125.0821,165.8175 124.5955,165.6143 C 124.9651,165.3645 125.2108,164.9416 125.2108,164.4715 C 125.2108,163.7844 124.6863,163.2342 124.0166,163.148 C 124.118,162.9655 124.1771,162.7579 124.1771,162.5332 C 124.1771,161.7842 123.554,161.1548 122.7987,161.1548 C 122.7535,161.1548 122.7087,161.157 122.6646,161.1614 C 122.7233,161.013 122.7556,160.8512 122.7556,160.681 C 122.7556,159.9319 122.1324,159.3026 121.3773,159.3026 C 121.2414,159.3026 121.1098,159.323 120.9854,159.3607 C 120.9881,159.327 120.9896,159.2933 120.9896,159.2595 C 120.9896,158.5106 120.3664,157.9242 119.6112,157.9242 C 119.3093,157.9242 119.0284,158.018 118.8,158.1783 C 118.6575,157.5815 118.1063,157.1489 117.4575,157.1489 C 116.9649,157.1489 116.5285,157.3983 116.2846,157.7796 C 116.0373,157.4026 115.6111,157.1489 115.1316,157.1489 C 114.5112,157.1489 113.98,157.5734 113.81,158.1401 C 113.5711,157.9506 113.2657,157.8381 112.9348,157.8381 C 112.1965,157.8381 111.5846,158.3984 111.5574,159.1231 C 111.3856,159.0449 111.1957,159.0011 110.9965,159.0011 C 110.2412,159.0011 109.6181,159.6304 109.6181,160.3795 C 109.6181,160.5218 109.6406,160.6582 109.6822,160.7859 C 109.5166,160.7182 109.3346,160.681 109.1443,160.681 C 108.9047,160.681 108.6925,160.7454 108.4914,160.8518 C 108.4958,160.781 108.4982,160.7098 108.4982,160.6379 C 108.4982,159.0749 107.4584,157.7663 105.9999,157.3643 C 106.0277,157.372 105.8023,157.3053 105.7414,157.2781 L 105.7414,156.2874 L 107.3782,156.7612 L 107.3782,154.0045 L 106.0429,154.3491 L 106.4737,153.1 L 103.717,153.1 L 103.717,153.1 z " style="fill:#0a0b0c"/>
  <path id="path1013_5" class="fil5" d="M 110.8,161.701 C 110.7065,161.7857 110.6135,161.8724 110.5211,161.9612 C 110.5161,161.8385 110.4943,161.7206 110.458,161.6093 C 110.5658,161.6534 110.6805,161.6846 110.8,161.701 z M 109.2256,163.3917 C 109.1685,163.4641 109.1119,163.5374 109.0557,163.6116 C 109.0342,163.5321 109.0057,163.4558 108.9708,163.3831 C 109.0275,163.3905 109.0853,163.3943 109.1439,163.3943 C 109.1713,163.3943 109.1985,163.3934 109.2256,163.3917 z M 107.9619,165.2694 C 107.8798,165.413 107.7993,165.5591 107.7205,165.7077 C 107.6829,165.5608 107.6339,165.4186 107.5744,165.2822 C 107.623,165.287 107.6725,165.2896 107.7224,165.2896 C 107.804,165.2896 107.884,165.2825 107.9619,165.2694 z M 106.3687,168.8553 C 106.0994,169.5241 105.811,170.2406 105.6015,170.8202 C 105.4138,171.3395 105.2246,171.8841 105.0884,172.4024 C 104.922,171.7764 104.678,171.1036 104.4685,170.5236 C 104.2667,169.9648 104,169.3466 103.7473,168.7618 C 104.1523,169.0181 104.6283,169.1662 105.138,169.1662 C 105.582,169.1662 106.0004,169.0537 106.3687,168.8553 z M 124.1336,168.2186 C 124.6377,168.2186 125.0382,168.591 125.0382,169.0801 C 125.0382,169.5692 124.6377,169.9846 124.1336,169.9846 C 123.6293,169.9846 123.229,169.5692 123.229,169.0801 C 123.229,168.591 123.6293,168.2186 124.1336,168.2186 z M 124.0153,172.2218 C 123.8665,172.1526 123.7038,172.1095 123.5331,172.0982 C 123.5326,172.0969 123.5318,172.0959 123.5306,172.0952 C 123.2482,171.9451 123.0137,171.6563 123.0137,171.3199 C 123.0137,170.8306 123.4139,170.4585 123.9182,170.4585 C 124.4224,170.4585 124.8228,170.8307 124.8228,171.3199 C 124.8228,171.7862 124.4842,172.186 124.0153,172.2218 L 124.0153,172.2218 z M 123.4444,172.5691 C 123.9486,172.5691 124.349,172.9843 124.349,173.4736 C 124.349,173.9627 123.9486,174.3351 123.4444,174.3351 C 122.9401,174.3351 122.5399,173.9627 122.5399,173.4736 C 122.5399,172.9844 122.9401,172.5691 123.4444,172.5691 z M 122.626,174.7228 C 123.1198,174.7228 123.5306,175.1055 123.5306,175.5842 C 123.5306,176.063 123.1198,176.4457 122.626,176.4457 C 122.1322,176.4457 121.7645,176.063 121.7645,175.5842 C 121.7645,175.1055 122.1322,174.7228 122.626,174.7228 z M 122.1091,176.9626 C 122.6029,176.9626 123.0137,177.3451 123.0137,177.8241 C 123.0137,178.3029 122.6029,178.6856 122.1091,178.6856 C 121.7578,178.6856 121.4714,178.4651 121.3304,178.1763 C 121.2793,178.0714 121.2534,177.9399 121.2476,177.8241 C 121.2476,177.3452 121.6153,176.9626 122.1091,176.9626 z M 107.2134,164.6775 C 107.1312,164.5727 107.0418,164.4742 106.9458,164.3829 C 106.8665,164.2513 106.8179,164.1186 106.8179,163.9543 C 106.8179,163.8019 106.8352,163.6482 106.904,163.5235 C 106.9044,163.5228 106.9087,163.5154 106.9149,163.5048 C 107.0871,163.3958 107.2487,163.2722 107.3979,163.1355 C 107.407,163.1375 107.4164,163.1401 107.4209,163.1359 C 107.9897,162.9559 108.627,163.3303 108.627,163.9543 C 108.627,164.4434 108.2266,164.8157 107.7224,164.8157 C 107.5409,164.8157 107.3578,164.7661 107.2134,164.6775 L 107.2134,164.6775 z M 106.3441,163.9506 C 106.2838,163.9189 106.2223,163.8896 106.1596,163.8626 C 106.2244,163.8411 106.2882,163.8177 106.3512,163.7926 C 106.3465,163.8447 106.3442,163.8975 106.3441,163.9506 z M 107.8773,162.5921 C 107.8808,162.5871 107.8844,162.5822 107.8879,162.5772 C 107.8906,162.5832 107.8934,162.5891 107.8962,162.595 C 107.8898,162.5941 107.8836,162.593 107.8773,162.5921 L 107.8773,162.5921 z M 108.2469,161.9196 C 108.2989,161.7924 108.3434,161.6615 108.3799,161.5272 C 108.4218,161.4537 108.51,161.3528 108.627,161.2837 C 108.7797,161.1935 108.9734,161.1545 109.1439,161.1545 C 109.6482,161.1545 110.0484,161.5268 110.0484,162.016 C 110.0484,162.5051 109.6482,162.9205 109.1439,162.9205 C 108.6396,162.9205 108.2393,162.5051 108.2393,162.016 C 108.2393,161.9791 108.242,161.9481 108.2469,161.9196 z M 110.9961,159.4746 C 111.5002,159.4746 111.9006,159.8899 111.9006,160.3792 C 111.9006,160.8681 111.5002,161.2406 110.9961,161.2406 C 110.4918,161.2406 110.0915,160.8681 110.0915,160.3792 C 110.0915,159.8899 110.4917,159.4746 110.9961,159.4746 z M 112.9344,158.3116 C 113.4385,158.3116 113.8389,158.684 113.8389,159.1731 C 113.8389,159.6622 113.4385,160.0776 112.9344,160.0776 C 112.4301,160.0776 112.0298,159.6622 112.0298,159.1731 C 112.0298,158.684 112.4301,158.3116 112.9344,158.3116 z M 115.1312,157.6224 C 115.6353,157.6224 116.0357,158.0377 116.0357,158.527 C 116.0357,159.0161 115.6353,159.3884 115.1312,159.3884 C 114.6269,159.3884 114.2266,159.016 114.2266,158.527 C 114.2266,158.0377 114.6269,157.6224 115.1312,157.6224 z M 117.4571,157.6224 C 117.9612,157.6224 118.3617,157.9948 118.3617,158.4839 C 118.3617,158.973 117.9613,159.3884 117.4571,159.3884 C 116.9528,159.3884 116.5526,158.973 116.5526,158.4839 C 116.5526,157.9948 116.9529,157.6224 117.4571,157.6224 z M 119.6108,158.3978 C 120.115,158.3978 120.5154,158.7701 120.5154,159.2592 C 120.5154,159.4522 120.4464,159.6367 120.3326,159.7882 C 120.3165,159.807 120.3009,159.8262 120.2858,159.8458 C 120.1173,160.0376 119.873,160.1638 119.6108,160.1638 C 119.1066,160.1638 118.7063,159.7483 118.7063,159.2592 C 118.7063,158.7701 119.1065,158.3978 119.6108,158.3978 L 119.6108,158.3978 z M 121.3769,159.7761 C 121.881,159.7761 122.2814,160.1914 122.2814,160.6807 C 122.2814,161.1698 121.881,161.5421 121.3769,161.5421 C 120.8726,161.5421 120.4723,161.1698 120.4723,160.6807 C 120.4723,160.1914 120.8726,159.7761 121.3769,159.7761 z M 122.7983,161.6283 C 123.3026,161.6283 123.7029,162.0437 123.7029,162.5329 C 123.7029,162.8038 123.5662,163.0492 123.37,163.2123 C 123.2633,163.2489 123.1626,163.2977 123.0697,163.3572 C 123.0694,163.3573 123.0692,163.3575 123.069,163.3576 C 123.0673,163.3587 123.0656,163.3598 123.0639,163.3608 C 123.0639,163.3608 123.0639,163.3609 123.0639,163.3609 C 123.0638,163.361 123.0636,163.3611 123.0634,163.3612 C 123.0467,163.3719 123.0302,163.3829 123.0137,163.3943 C 122.94,163.4132 122.8784,163.3943 122.7983,163.3943 C 122.294,163.3943 121.8938,163.022 121.8938,162.5329 C 121.8938,162.0437 122.294,161.6283 122.7983,161.6283 L 122.7983,161.6283 z M 123.8321,163.6097 C 124.3362,163.6097 124.7366,163.9821 124.7366,164.4712 C 124.7366,164.9603 124.3362,165.3757 123.8321,165.3757 C 123.3278,165.3757 122.9275,164.9603 122.9275,164.4712 C 122.9275,163.982 123.3278,163.6097 123.8321,163.6097 z M 124.0474,165.9788 C 124.5515,165.9788 124.952,166.3511 124.952,166.8402 C 124.952,167.3294 124.5515,167.7448 124.0474,167.7448 C 123.5432,167.7448 123.1429,167.3293 123.1429,166.8402 C 123.1429,166.3511 123.5432,165.9788 124.0474,165.9788 z M 103.1135,173.4736 C 103.7835,173.6926 104.3893,174.0766 104.9657,174.0766 C 105.4986,174.0766 106.019,173.9159 106.4733,173.7751 C 106.9276,173.6344 107.3233,173.5173 107.7224,173.5597 C 108.6852,173.6622 109.1166,173.7657 110.35,174.9381 C 110.5705,175.1477 110.8619,175.2048 111.1253,175.1966 C 111.3887,175.1883 111.6531,175.1204 111.9006,175.0243 C 112.3957,174.832 112.8662,174.5947 113.1928,174.5935 C 113.7032,174.5918 114.0764,174.6893 114.485,174.9381 C 114.8937,175.1869 115.3271,175.5764 115.8634,176.1442 C 116.0399,176.331 116.2849,176.426 116.5095,176.4457 C 116.7342,176.4654 116.9751,176.4117 117.1987,176.3596 C 117.6459,176.2553 118.0684,176.1325 118.4909,176.1442 C 119.3568,176.168 119.9649,176.4747 120.3431,176.9626 C 120.7213,177.4505 120.8845,178.1066 120.86,178.7717 C 120.8355,179.4368 120.5901,180.1347 120.2139,180.6239 C 119.8376,181.1131 119.3244,181.4307 118.6632,181.4423 C 118.2164,181.4501 117.9472,181.3179 117.6725,181.1408 C 117.3978,180.9636 117.1593,180.6947 116.8541,180.4516 C 116.2437,179.9654 115.3546,179.5676 113.7097,179.9778 C 112.9906,180.1571 112.2546,179.7306 111.2976,179.2455 C 110.3405,178.7604 109.1864,178.2817 107.7224,178.5563 C 107.4178,178.6135 106.9839,178.4787 106.5164,178.2979 C 106.0489,178.1171 105.5534,177.8672 105.0519,177.8672 C 103.9217,177.8672 103.1309,178.4857 102.2521,178.5994 C 101.7133,178.669 101.3838,178.5749 101.046,178.5133 C 100.7082,178.4516 100.3401,178.4311 99.7968,178.5994 C 99.3777,178.7293 98.838,179.0477 98.2893,179.3317 C 98.0149,179.4737 97.7476,179.5888 97.5139,179.6762 C 97.2803,179.7637 97.053,179.817 96.954,179.8055 C 96.0264,179.6978 95.6064,179.6681 95.0157,179.8916 C 94.4249,180.1151 93.7107,180.5658 92.0435,181.3561 C 92.0496,181.3532 91.9776,181.3497 91.8282,181.3561 C 91.0857,181.3876 90.5265,181.0561 90.1052,180.5808 C 89.6839,180.1056 89.4173,179.4459 89.373,178.7717 C 89.3286,178.0975 89.4996,177.4378 89.8898,176.9195 C 90.2801,176.4013 90.8714,176.0348 91.7851,175.9719 C 92.1697,175.9454 92.5797,176.2035 93.0342,176.4026 C 93.2615,176.5022 93.4884,176.5867 93.7665,176.5749 C 94.0446,176.5632 94.3439,176.4309 94.628,176.1873 C 95.0791,175.8002 95.3963,175.3462 95.7479,175.0243 C 96.0995,174.7023 96.4641,174.4854 97.0401,174.5074 C 97.5674,174.5275 97.9777,174.7021 98.3323,174.852 C 98.687,175.0018 98.9358,175.1316 99.1938,175.1966 C 99.3965,175.2476 99.6038,175.252 99.7538,175.1535 C 99.9037,175.055 100.0015,174.9109 100.0984,174.7658 C 100.2921,174.4757 100.5595,174.0699 101.2613,173.5597 C 101.8152,173.1574 102.4436,173.2546 103.1135,173.4736 L 103.1135,173.4736 z M 102.2521,174.1628 C 101.2518,174.1628 100.443,174.982 100.443,175.9719 C 100.443,176.9617 101.2518,177.781 102.2521,177.781 C 103.2523,177.781 104.1042,176.9617 104.1042,175.9719 C 104.1042,174.982 103.2523,174.1628 102.2521,174.1628 z M 107.8947,174.1628 C 106.8945,174.1628 106.0856,174.982 106.0856,175.9719 C 106.0856,176.9617 106.8945,177.781 107.8947,177.781 C 108.8949,177.781 109.7469,176.9617 109.7469,175.9719 C 109.7469,174.982 108.8949,174.1628 107.8947,174.1628 z M 96.9971,175.3689 C 95.9968,175.3689 95.1879,176.1881 95.1879,177.178 C 95.1879,178.1679 95.9968,178.944 96.9971,178.944 C 97.9971,178.944 98.8061,178.1679 98.8061,177.178 C 98.8061,176.188 97.9971,175.3689 96.9971,175.3689 z M 113.1928,175.3689 C 112.1926,175.3689 111.3837,176.188 111.3837,177.178 C 111.3837,178.1679 112.1926,178.944 113.1928,178.944 C 114.1931,178.944 115.045,178.1679 115.045,177.178 C 115.045,176.188 114.193,175.3689 113.1928,175.3689 z M 91.8282,176.9195 C 90.8281,176.9195 90.0191,177.6956 90.0191,178.6856 C 90.0191,179.6754 90.8281,180.4947 91.8282,180.4947 C 92.8284,180.4947 93.6373,179.6753 93.6373,178.6856 C 93.6373,177.6957 92.8284,176.9195 91.8282,176.9195 z M 118.4478,176.9195 C 117.4477,176.9195 116.6387,177.6956 116.6387,178.6856 C 116.6387,179.6754 117.4477,180.4947 118.4478,180.4947 C 119.4481,180.4947 120.2569,179.6753 120.2569,178.6856 C 120.2569,177.6956 119.4481,176.9195 118.4478,176.9195 z M 102.177,162.6076 C 102.0901,162.6268 102.006,162.6544 101.9258,162.6894 C 101.9798,162.6106 102.0258,162.5258 102.0627,162.436 C 102.099,162.4946 102.1373,162.5517 102.177,162.6076 z M 101.3438,163.1636 C 101.25,163.2956 101.1788,163.4442 101.1358,163.6033 C 101.0489,163.4882 100.9607,163.3753 100.8714,163.2644 C 101.0396,163.2595 101.1986,163.224 101.3438,163.1636 z M 102.2127,165.2667 C 102.2954,165.2816 102.3805,165.2896 102.4674,165.2896 C 102.5491,165.2896 102.6292,165.2826 102.7071,165.2694 C 102.6248,165.4555 102.562,165.6526 102.5213,165.8577 C 102.4217,165.6561 102.3189,165.4591 102.2127,165.2667 z M 103.8449,163.9981 C 103.8454,163.9835 103.8458,163.969 103.8458,163.9543 C 103.8458,163.9156 103.8439,163.8772 103.8405,163.8395 C 103.9038,163.8614 103.968,163.8816 104.0329,163.9 C 103.9688,163.9302 103.9061,163.9629 103.8449,163.9981 L 103.8449,163.9981 z M 102.4674,163.0497 C 102.5,163.0497 102.5352,163.0559 102.57,163.0641 C 102.7875,163.2745 103.0338,163.4552 103.3022,163.6018 C 103.3489,163.7093 103.372,163.8295 103.372,163.9543 C 103.372,164.4434 102.9717,164.8157 102.4674,164.8157 C 102.1697,164.8157 101.9083,164.6858 101.744,164.4787 C 101.7151,164.4334 101.6859,164.3884 101.6567,164.3437 C 101.5966,164.2278 101.5629,164.096 101.5629,163.9543 C 101.5629,163.4652 101.9633,163.0497 102.4674,163.0497 L 102.4674,163.0497 z M 105.138,164.1266 C 106.3492,164.1266 107.3348,165.1404 107.3348,166.4095 C 107.3348,167.6785 106.3492,168.6924 105.138,168.6924 C 103.9267,168.6924 102.9413,167.6785 102.9413,166.4095 C 102.9413,165.1404 103.9267,164.1266 105.138,164.1266 z M 96.9349,160.0185 C 96.8972,160.0005 96.8594,159.9831 96.8216,159.9659 C 96.5399,159.8103 96.3509,159.5091 96.3509,159.1731 C 96.3509,158.684 96.7512,158.3116 97.2555,158.3116 C 97.7598,158.3116 98.16,158.684 98.16,159.1731 C 98.16,159.6622 97.7598,160.0776 97.2555,160.0776 C 97.1422,160.0776 97.0343,160.0565 96.9349,160.0185 L 96.9349,160.0185 z M 88.0377,176.9626 C 88.5316,176.9626 88.9422,177.3451 88.9422,177.8241 C 88.9422,178.3028 88.5316,178.6856 88.0377,178.6856 C 87.544,178.6856 87.1762,178.3028 87.1762,177.8241 C 87.1762,177.3451 87.544,176.9626 88.0377,176.9626 z M 87.5208,174.7228 C 88.0148,174.7228 88.4253,175.1054 88.4253,175.5842 C 88.4253,176.063 88.0148,176.4457 87.5208,176.4457 C 87.0271,176.4457 86.6593,176.063 86.6593,175.5842 C 86.6593,175.1055 87.0271,174.7228 87.5208,174.7228 z M 86.7455,172.5691 C 87.2498,172.5691 87.65,172.9844 87.65,173.4736 C 87.65,173.9627 87.2498,174.3351 86.7455,174.3351 C 86.2413,174.3351 85.8409,173.9627 85.8409,173.4736 C 85.8409,172.9844 86.2413,172.5691 86.7455,172.5691 z M 86.2286,170.4585 C 86.7329,170.4585 87.1331,170.8306 87.1331,171.3199 C 87.1331,171.7583 86.8653,172.124 86.4386,172.205 C 85.8852,172.3102 85.324,171.915 85.324,171.3199 C 85.324,170.8307 85.7244,170.4585 86.2286,170.4585 z M 86.0563,168.2186 C 86.5606,168.2186 86.9178,168.5909 86.9178,169.0801 C 86.9178,169.5692 86.5605,169.9846 86.0563,169.9846 C 85.5522,169.9846 85.1517,169.5692 85.1517,169.0801 C 85.1517,168.591 85.5521,168.2186 86.0563,168.2186 z M 86.0993,165.9788 C 86.6036,165.9788 87.0039,166.3511 87.0039,166.8402 C 87.0039,167.3293 86.6036,167.7448 86.0993,167.7448 C 85.5952,167.7448 85.1948,167.3293 85.1948,166.8402 C 85.1948,166.3512 85.5952,165.9788 86.0993,165.9788 z M 87.1857,163.4018 C 87.0568,163.3084 86.9105,163.2365 86.7527,163.1912 C 86.5744,163.0284 86.487,162.7923 86.487,162.5329 C 86.487,162.0437 86.8874,161.6283 87.3916,161.6283 C 87.8958,161.6283 88.2961,162.0437 88.2961,162.5329 C 88.2961,163.0219 87.8959,163.3943 87.3916,163.3943 C 87.3292,163.3943 87.2518,163.4057 87.1857,163.4018 z M 86.3578,163.6097 C 86.8621,163.6097 87.2623,163.982 87.2623,164.4712 C 87.2623,164.9603 86.8621,165.3757 86.3578,165.3757 C 85.8535,165.3757 85.4532,164.9603 85.4532,164.4712 C 85.4533,163.982 85.8535,163.6097 86.3578,163.6097 z M 88.813,159.7761 C 89.3173,159.7761 89.6745,160.1914 89.6745,160.6807 C 89.6745,161.1698 89.3173,161.5421 88.813,161.5421 C 88.3089,161.5421 87.9084,161.1698 87.9084,160.6807 C 87.9084,160.1914 88.3089,159.7761 88.813,159.7761 z M 90.579,158.3978 C 91.0833,158.3978 91.4836,158.7701 91.4836,159.2592 C 91.4836,159.7484 91.0833,160.1638 90.579,160.1638 C 90.0867,160.1638 89.6745,159.7414 89.6745,159.2592 C 89.6745,158.7701 90.0747,158.3978 90.579,158.3978 z M 92.7327,157.6224 C 93.237,157.6224 93.6373,157.9948 93.6373,158.4839 C 93.6373,158.973 93.237,159.3884 92.7327,159.3884 C 92.2286,159.3884 91.8282,158.973 91.8282,158.4839 C 91.8282,157.9948 92.2286,157.6224 92.7327,157.6224 z M 95.0587,157.6224 C 95.563,157.6224 95.9633,158.0377 95.9633,158.527 C 95.9633,159.0161 95.563,159.3884 95.0587,159.3884 C 94.5546,159.3884 94.1542,159.0161 94.1542,158.527 C 94.1542,158.0377 94.5546,157.6224 95.0587,157.6224 z M 99.1938,159.4746 C 99.6981,159.4746 100.0984,159.8899 100.0984,160.3792 C 100.0984,160.8681 99.6981,161.2406 99.1938,161.2406 C 98.6895,161.2406 98.2893,160.8681 98.2893,160.3792 C 98.2893,159.8898 98.6895,159.4746 99.1938,159.4746 z M 100.8306,161.0253 C 101.1008,161.0253 101.3114,161.1454 101.4767,161.3268 C 101.5304,161.5379 101.6005,161.7364 101.6921,161.9298 C 101.6683,162.3968 101.3193,162.7913 100.8306,162.7913 C 100.3265,162.7913 99.9261,162.3758 99.9261,161.8867 C 99.9261,161.3976 100.3265,161.0253 100.8306,161.0253 L 100.8306,161.0253 z M 104.3196,153.5735 L 105.7841,153.5735 L 105.3103,154.9949 L 106.904,154.6073 L 106.904,156.1148 L 105.2672,155.6841 L 105.2672,157.364 C 105.2675,157.4881 105.3212,157.5501 105.3534,157.5793 C 105.4622,157.6783 105.7252,157.7543 105.8703,157.7947 C 107.131,158.1422 108.0239,159.2906 108.0239,160.6376 C 108.0239,162.2622 106.7155,163.5666 105.0519,163.5666 C 103.3914,163.5666 102.0367,162.3845 102.0367,160.6376 C 102.0367,159.3009 102.9442,158.1518 104.1904,157.7947 C 104.3511,157.7487 104.5965,157.6666 104.7072,157.5363 C 104.7365,157.5019 104.7503,157.4208 104.7503,157.3209 L 104.7503,155.6841 L 103.0705,156.1579 L 103.0705,154.5642 L 104.7503,154.9518 L 104.3196,153.5735 L 104.3196,153.5735 z " style="fill:#c0a062"/>
  <path id="path1013_6" class="fil2" d="M 90.2651,175.932 C 90.1914,175.9761 90.1208,176.0229 90.0531,176.0726 C 89.8182,175.3458 89.5996,174.6042 89.373,173.99 C 88.3643,171.2565 88.175,168.4537 88.6838,166.1505 C 89.1926,163.8474 90.3986,162.0199 92.1297,161.2401 C 92.9953,160.8503 93.9093,160.7477 94.8434,160.8955 C 94.9854,160.918 95.1317,161.0337 95.2741,161.0678 C 94.3348,160.9354 93.3977,161.0159 92.5173,161.4124 C 90.7025,162.2299 89.4913,164.0755 88.9853,166.3659 C 88.4793,168.6563 88.6859,171.3973 89.6745,174.0761 C 89.8639,174.5895 90.0582,175.2798 90.2651,175.932 z M 102.1228,172.827 C 101.7317,172.8304 101.3215,172.9088 100.9599,173.1716 C 100.2051,173.7202 99.9024,174.2198 99.7107,174.5069 C 99.6148,174.6504 99.5256,174.7455 99.4953,174.7653 C 99.4651,174.7852 99.4581,174.7994 99.323,174.7653 C 99.209,174.7366 98.9331,174.5405 98.5477,174.3777 C 98.1623,174.2148 97.6411,174.056 97.0401,174.0331 C 96.3347,174.0061 95.8473,174.3121 95.4464,174.6792 C 95.0455,175.0463 94.724,175.5011 94.3265,175.8422 C 94.1043,176.0327 93.9365,176.0934 93.7665,176.1006 C 93.5965,176.1078 93.4047,176.0151 93.2065,175.9283 C 92.8102,175.7547 92.3296,175.4572 91.742,175.4976 C 91.3429,175.5251 90.9875,175.6056 90.6743,175.7303 C 90.4765,175.1024 90.3014,174.4788 90.1052,173.9469 C 89.1463,171.3486 88.9756,168.6836 89.4591,166.4952 C 89.9426,164.3067 91.0902,162.5831 92.7327,161.8432 C 94.3753,161.1033 96.2226,161.4333 97.9447,162.6185 C 99.6667,163.8037 101.207,165.8782 102.1659,168.4766 C 102.6437,169.7711 103.483,171.5443 103.6791,172.7915 C 103.6905,172.8643 103.7108,173.0541 103.7261,173.2134 C 103.5702,173.1551 103.408,173.0964 103.2427,173.0424 C 102.8824,172.9246 102.514,172.8236 102.1228,172.827 L 102.1228,172.827 z M 89.5326,176.578 C 89.2822,175.7997 89.0549,174.9897 88.813,174.3346 C 87.7193,171.3708 87.5287,168.3476 88.0807,165.849 C 88.6327,163.3504 89.9031,161.3986 91.7851,160.551 C 92.7261,160.1271 93.7422,160.0027 94.7572,160.1633 C 95.7722,160.3238 96.7887,160.7354 97.7724,161.4124 C 98.7857,162.1098 99.7271,163.1321 100.5722,164.2984 C 101.3678,165.3964 102.1093,166.6517 102.6397,168.0889 C 102.9631,168.9651 103.431,170.032 103.8027,171.061 C 104.1304,171.9681 104.2575,172.7581 104.2763,173.4215 C 104.2534,173.4131 104.2303,173.4045 104.2069,173.3958 C 104.193,173.1802 104.172,172.8662 104.1633,172.798 C 103.9837,171.3898 103.1142,169.5896 102.6397,168.3042 C 102.6098,168.2265 102.5811,168.1203 102.5536,168.0458 C 101.5151,165.2318 99.8122,163.0289 97.9016,161.7139 C 96.9463,161.0565 95.9452,160.6243 94.9295,160.4648 C 93.9138,160.3053 92.9091,160.3807 91.9574,160.8094 C 90.054,161.6667 88.7844,163.6163 88.2531,166.0213 C 87.7217,168.4264 87.9038,171.3052 88.9422,174.1192 C 89.1768,174.755 89.4019,175.618 89.666,176.4201 C 89.6194,176.4711 89.575,176.5238 89.5326,176.578 L 89.5326,176.578 z M 106.6121,173.2095 L 106.6121,173.202 C 106.5943,173.2056 106.5767,173.2096 106.5594,173.2147 C 106.5619,172.6185 106.6904,171.8592 106.9902,171.0179 C 107.3375,170.0433 107.7594,169.0518 108.067,168.2181 C 109.0758,165.4846 110.734,163.3492 112.5467,162.1016 C 113.4531,161.4778 114.3694,161.0433 115.3034,160.8955 C 116.2375,160.7477 117.1946,160.8503 118.0602,161.2401 C 118.1336,161.2732 118.161,161.3758 118.2325,161.4124 C 116.4583,160.6891 114.4415,161.0157 112.6759,162.2308 C 110.856,163.4833 109.271,165.6254 108.2824,168.3042 C 108.0114,169.0386 107.622,169.9388 107.2917,170.8456 C 106.9898,171.6745 106.7933,172.4728 106.7749,173.168 C 106.7492,173.1741 106.7235,173.1805 106.698,173.187 C 106.687,173.1888 106.6763,173.1907 106.6654,173.1926 L 106.6654,173.1954 C 106.6476,173.2 106.6298,173.2047 106.6121,173.2095 L 106.6121,173.2095 z M 107.1707,173.0946 C 107.2197,172.5182 107.4484,171.7701 107.7224,171.0179 C 108.0455,170.131 108.4339,169.2332 108.7131,168.4766 C 109.672,165.8782 111.2554,163.8037 112.9775,162.6185 C 114.6995,161.4333 116.5468,161.1033 118.1894,161.8432 C 119.832,162.5831 120.9795,164.3067 121.463,166.4952 C 121.7645,167.86 121.7373,169.0532 121.5922,170.4149 C 121.4551,171.587 121.2142,172.7966 120.7738,173.99 C 120.5399,174.6237 120.3372,175.3999 120.0977,176.1453 C 119.6857,175.8636 119.1673,175.6873 118.534,175.6699 C 117.9927,175.6549 117.4781,175.8331 117.0695,175.9283 C 116.8652,175.976 116.691,175.9835 116.5526,175.9714 C 116.4142,175.9593 116.3045,175.9443 116.208,175.8422 C 115.6616,175.2638 115.2165,174.838 114.7435,174.55 C 114.2704,174.262 113.7759,174.1172 113.1928,174.1192 C 112.6691,174.1211 112.1825,174.4166 111.7283,174.593 C 111.5012,174.6813 111.2958,174.7169 111.1253,174.7223 C 110.9548,174.7276 110.8234,174.7155 110.6945,174.593 C 109.4268,173.3878 108.7581,173.1911 107.7655,173.0855 C 107.5623,173.0638 107.3641,173.0702 107.1707,173.0946 L 107.1707,173.0946 z M 105.939,173.414 L 105.939,173.4128 C 105.9161,173.4181 105.8931,173.4236 105.8703,173.43 C 105.8889,172.7639 106.0576,171.9295 106.3872,171.0179 C 106.7585,169.9906 107.2274,168.9635 107.5502,168.0889 C 108.0805,166.6517 108.822,165.3964 109.6177,164.2984 C 110.4628,163.1321 111.3611,162.1098 112.3744,161.4124 C 113.3581,160.7354 114.4177,160.3238 115.4326,160.1633 C 116.4477,160.0027 117.4207,160.1271 118.3617,160.551 C 120.2437,161.3986 121.5571,163.3504 122.1091,165.849 C 122.6611,168.3476 122.4706,171.3708 121.3769,174.3346 C 121.1323,174.9973 120.8604,175.817 120.6061,176.6034 C 120.5625,176.5524 120.5171,176.5031 120.4696,176.4553 C 120.7462,175.6361 121.0063,174.773 121.2476,174.1192 C 121.2527,174.1054 121.2426,174.0899 121.2476,174.0761 C 121.742,172.7367 122.0453,171.421 122.1522,170.1133 C 122.2861,168.6786 122.2135,167.2737 121.9368,166.0213 C 121.4055,163.6163 120.1358,161.6667 118.2325,160.8094 C 117.2808,160.3807 116.2761,160.3053 115.2604,160.4648 C 114.2446,160.6243 113.2436,161.0565 112.2883,161.7139 C 110.3777,163.0289 108.6748,165.2318 107.6363,168.0458 C 107.3373,168.8561 106.872,169.8909 106.5164,170.8887 C 106.1911,171.8014 105.9435,172.6679 105.9813,173.401 C 105.9672,173.4054 105.9531,173.4097 105.939,173.414 z " style="fill:#d2351c"/>
  <path id="path737" class="fil1" d="M 105.015,173.394 L 105.1605,173.394 C 105.1478,173.5431 105.1436,173.6859 105.1493,173.8214 C 105.1083,173.8241 105.0674,173.8261 105.0261,173.8268 C 105.032,173.6898 105.0279,173.545 105.015,173.394 L 105.015,173.394 L 105.015,173.394 z M 112.4322,160.4549 C 112.4111,160.4679 112.39,160.481 112.3689,160.4942 C 112.3708,160.4728 112.3722,160.4514 112.373,160.4297 C 112.3925,160.4385 112.4122,160.4469 112.4322,160.4549 z M 114.3308,159.6161 C 114.296,159.6257 114.2613,159.6356 114.2266,159.6458 C 114.237,159.6177 114.2468,159.5893 114.2554,159.5604 C 114.2799,159.5798 114.305,159.5983 114.3308,159.6161 z M 116.3663,159.3196 C 116.3241,159.3204 116.2817,159.3216 116.2392,159.3232 C 116.2619,159.2936 116.2835,159.2631 116.3036,159.2316 C 116.3234,159.2618 116.3443,159.2911 116.3663,159.3196 L 116.3663,159.3196 z M 118.297,159.6722 C 118.267,159.6595 118.237,159.6473 118.2071,159.6354 C 118.2295,159.6206 118.2517,159.6052 118.2732,159.5892 C 118.2803,159.6172 118.2881,159.6449 118.297,159.6722 z M 119.9984,160.6916 C 119.9621,160.6624 119.9254,160.6333 119.8883,160.6047 C 119.9271,160.5954 119.9653,160.5843 120.0027,160.5714 C 119.9997,160.6076 119.9982,160.6442 119.9982,160.681 C 119.9982,160.6845 119.9983,160.688 119.9984,160.6916 L 119.9984,160.6916 z M 121.4421,162.2878 C 121.3802,162.1938 121.3163,162.1014 121.2503,162.0106 C 121.2919,162.0142 121.334,162.0163 121.3766,162.0163 C 121.427,162.0163 121.4768,162.0135 121.526,162.0084 C 121.4885,162.0975 121.4601,162.191 121.4421,162.2878 z M 122.4535,164.45 C 122.3756,164.2057 122.2899,163.9673 122.1958,163.7352 C 122.3233,163.7949 122.4616,163.8362 122.6068,163.8556 C 122.512,164.033 122.4569,164.2346 122.4535,164.45 z M 122.8602,166.1581 C 122.8222,165.9283 122.779,165.7034 122.7305,165.484 C 122.709,165.3867 122.6864,165.2901 122.6628,165.1943 C 122.8094,165.4282 123.024,165.6171 123.2779,165.7309 C 123.1082,165.841 122.965,165.9868 122.8602,166.1581 L 122.8602,166.1581 z M 123.0536,168.2474 C 123.0495,168.0865 123.0431,167.9268 123.0345,167.7684 C 123.1172,167.8585 123.2117,167.938 123.3152,168.004 C 123.2174,168.0736 123.1293,168.1554 123.0536,168.2474 z M 122.9756,170.3434 C 122.9908,170.188 123.004,170.0331 123.0151,169.8786 C 123.0861,169.9772 123.1697,170.0664 123.2635,170.1436 C 123.1587,170.1981 123.0619,170.2654 122.9756,170.3434 L 122.9756,170.3434 z M 122.6603,172.3449 C 122.6852,172.2311 122.7089,172.1172 122.7313,172.0032 C 122.7774,172.0786 122.831,172.1492 122.8909,172.214 C 122.8098,172.2503 122.7325,172.2942 122.6603,172.3449 z M 122.0832,174.3625 C 122.1214,174.2556 122.1584,174.1484 122.1944,174.0409 C 122.2352,174.1255 122.2849,174.2053 122.3423,174.2789 C 122.2521,174.2981 122.1654,174.3262 122.0832,174.3625 z M 121.2991,176.7594 C 121.3538,176.5897 121.4084,176.417 121.4627,176.2444 C 121.527,176.3582 121.6076,176.4616 121.7014,176.5513 C 121.5543,176.5977 121.4186,176.6687 121.2991,176.7594 L 121.2991,176.7594 z M 88.8846,176.7758 C 88.7585,176.6797 88.6152,176.6045 88.461,176.5552 C 88.5609,176.4645 88.6472,176.3596 88.7161,176.2439 C 88.7722,176.4226 88.8285,176.6011 88.8846,176.7758 L 88.8846,176.7758 z M 88.1042,174.3775 C 88.0204,174.3389 87.9322,174.3082 87.8408,174.2866 C 87.8989,174.2133 87.9495,174.1336 87.991,174.049 C 88.0275,174.1586 88.0653,174.2681 88.1042,174.3775 z M 87.514,172.3346 C 87.437,172.2819 87.3543,172.237 87.2674,172.2006 C 87.3316,172.1292 87.3882,172.0511 87.4358,171.9675 C 87.4605,172.0898 87.4866,172.2122 87.514,172.3346 z M 87.1908,170.3622 C 87.1037,170.2802 87.0054,170.2094 86.8984,170.152 C 86.9933,170.0724 87.077,169.9795 87.1473,169.8766 C 87.1593,170.038 87.1739,170.1999 87.1908,170.3622 L 87.1908,170.3622 z M 87.1077,168.2454 C 87.0326,168.15 86.9444,168.0656 86.8456,167.9945 C 86.9506,167.9257 87.046,167.843 87.1289,167.7494 C 87.1192,167.9138 87.1121,168.0792 87.1077,168.2454 z M 87.3033,166.1872 C 87.2006,166.0092 87.057,165.8573 86.8854,165.7423 C 87.1433,165.633 87.3626,165.4468 87.5138,165.2142 C 87.4658,165.3954 87.4212,165.5789 87.3803,165.7641 C 87.3525,165.9041 87.327,166.0452 87.3033,166.1872 L 87.3033,166.1872 z M 87.7359,164.4676 C 87.7352,164.2455 87.6798,164.0378 87.5825,163.8556 C 87.7341,163.8353 87.8782,163.7911 88.0103,163.7271 C 87.9112,163.9676 87.8197,164.2148 87.7359,164.4676 z M 88.7477,162.2911 C 88.7298,162.1932 88.7012,162.0985 88.6632,162.0084 C 88.7124,162.0135 88.7622,162.0163 88.8127,162.0163 C 88.8539,162.0163 88.8946,162.0144 88.9346,162.0109 C 88.8707,162.1024 88.8084,162.1958 88.7477,162.2911 z M 90.1478,160.6937 C 90.1479,160.6895 90.148,160.6852 90.148,160.681 C 90.148,160.6404 90.1462,160.6002 90.1429,160.5605 C 90.1844,160.5752 90.2267,160.5878 90.2694,160.5986 C 90.2285,160.6297 90.1879,160.6614 90.1478,160.6937 z M 91.8902,159.6785 C 91.8998,159.6491 91.9084,159.6193 91.9161,159.5892 C 91.9406,159.6075 91.9659,159.6249 91.9916,159.6416 C 91.9577,159.6536 91.9238,159.6659 91.8902,159.6785 z M 93.8308,159.3093 C 93.8499,159.284 93.8682,159.2582 93.8856,159.2316 C 93.9027,159.2584 93.9209,159.2844 93.9399,159.3098 C 93.9036,159.3092 93.8672,159.3091 93.8308,159.3093 L 93.8308,159.3093 z M 95.8667,159.6103 C 95.8897,159.5943 95.912,159.5777 95.9339,159.5604 C 95.9417,159.5867 95.9505,159.6126 95.9599,159.6383 C 95.9289,159.6287 95.8978,159.6194 95.8667,159.6103 z M 97.7416,160.4609 C 97.7669,160.4512 97.7917,160.4408 97.8163,160.4297 C 97.8173,160.4573 97.8194,160.4846 97.8221,160.5117 C 97.7953,160.4946 97.7684,160.4776 97.7416,160.4609 L 97.7416,160.4609 z M 99.3851,161.7018 C 99.4127,161.6981 99.4399,161.6937 99.4669,161.6885 C 99.463,161.7143 99.4599,161.7403 99.4575,161.7667 C 99.4334,161.745 99.4093,161.7234 99.3851,161.7018 L 99.3851,161.7018 z M 118.4475,177.3936 C 119.1967,177.3936 119.7828,177.9556 119.7828,178.6859 C 119.7828,179.416 119.1967,180.0211 118.4475,180.0211 C 117.6985,180.0211 117.1123,179.416 117.1123,178.6859 C 117.1123,177.9556 117.6985,177.3936 118.4475,177.3936 z M 113.1925,175.843 C 113.9417,175.843 114.5709,176.448 114.5709,177.1783 C 114.5709,177.9085 113.9417,178.4705 113.1925,178.4705 C 112.4433,178.4705 111.8572,177.9085 111.8572,177.1783 C 111.8572,176.448 112.4433,175.843 113.1925,175.843 z M 107.8944,174.6369 C 108.6434,174.6369 109.2728,175.2419 109.2728,175.9722 C 109.2728,176.7023 108.6434,177.3075 107.8944,177.3075 C 107.1452,177.3075 106.5591,176.7023 106.5591,175.9722 C 106.5591,175.2419 107.1452,174.6369 107.8944,174.6369 z M 102.2518,174.6369 C 103.0009,174.6369 103.6301,175.2419 103.6301,175.9722 C 103.6301,176.7023 103.0009,177.3075 102.2518,177.3075 C 101.5026,177.3075 100.9165,176.7023 100.9165,175.9722 C 100.9165,175.2419 101.5026,174.6369 102.2518,174.6369 z M 96.9968,175.843 C 97.7458,175.843 98.332,176.448 98.332,177.1783 C 98.332,177.9085 97.7458,178.4705 96.9968,178.4705 C 96.2476,178.4705 95.6615,177.9086 95.6615,177.1783 C 95.6615,176.448 96.2475,175.843 96.9968,175.843 z M 91.8279,177.3936 C 92.5771,177.3936 93.1632,177.9556 93.1632,178.6859 C 93.1632,179.416 92.5771,180.0211 91.8279,180.0211 C 91.0789,180.0211 90.4926,179.416 90.4926,178.6859 C 90.4926,177.9556 91.0789,177.3936 91.8279,177.3936 z " style="fill:#ffffff"/>
 </g>
</svg>