<?xml version="1.0" encoding="UTF-8" standalone="no"?>
<!-- Created with Inkscape (http://www.inkscape.org/) -->
<svg xmlns:dc="http://purl.org/dc/elements/1.1/" xmlns:cc="http://creativecommons.org/ns#" xmlns:rdf="http://www.w3.org/1999/02/22-rdf-syntax-ns#" xmlns:svg="http://www.w3.org/2000/svg" xmlns="http://www.w3.org/2000/svg" version="1.0" width="759.54218" height="1002.8953" id="svg2">
  <defs id="defs4">
    <style type="text/css" id="style3059"/>
  </defs>
  <metadata id="metadata7">
    <rdf:RDF>
      <cc:Work rdf:about="">
        <dc:format>image/svg+xml</dc:format>
        <dc:type rdf:resource="http://purl.org/dc/dcmitype/StillImage"/>
        <dc:title/>
      </cc:Work>
    </rdf:RDF>
  </metadata>
  <g transform="translate(5.1268,-5.744)" id="layer1">
    <g id="g4111">
      <path d="m -5.1268,5.744 0.7643,669.9112 c 18.6609,186.80381 181.9176,332.9841 379.0234,332.9841 197.10578,0 360.36253,-146.18028 379.02339,-332.9841 L 754.41535,5.744 -5.1268,5.744 z" id="path5005" style="fill:#fcbd30;fill-opacity:1;fill-rule:nonzero;stroke:none"/>
      <path d="m 24.3637,35.1378 0.705,630.64238 c 17.2118,175.8538 167.7911,313.4652 349.5909,313.4653 181.79985,0 332.37915,-137.6115 349.59095,-313.4653 l 0.6743,-630.64238 -700.56115,0 z" id="path5007" style="fill:#003896;fill-opacity:1;fill-rule:nonzero;stroke:none"/>
      <path d="m 428.8313,235.14965 -48.2321,270.21484 205.12828,13.2626 -16.79928,-191.13365 c -34.0953,-4.87852 -42.0825,-48.48668 -63.8199,-86.57681 l -76.277,-5.76698 z" id="path2717" style="fill:#d42e12;fill-opacity:1;fill-rule:evenodd;stroke:none"/>
      <g transform="matrix(1.022772,0,0,1.022772,779.29017,-25.895674)" id="g2809">
        <path d="m -408.34322,682.94309 c -37.8432,53.67097 -89.219,96.09116 -145.08003,125.51867 141.29085,2.17599 208.04942,-42.03869 230.66094,-211.09959 l -85.58091,85.58092 z" id="path2805" style="fill:#d42e12;fill-opacity:1;fill-rule:evenodd;stroke:#000000;stroke-width:5.31496048;stroke-linecap:butt;stroke-linejoin:miter;stroke-miterlimit:4;stroke-opacity:1;stroke-dasharray:none"/>
        <path d="m -404.26794,703.3195 c 33.56405,-4.88836 -36.63797,63.01352 -74.17013,85.58091 69.21966,-31.35777 92.64555,-80.52423 124.70362,-126.33373 l -50.53349,40.75282 z" id="path2807" style="fill:#000000;fill-opacity:1;fill-rule:evenodd;stroke:#000000;stroke-width:1px;stroke-linecap:butt;stroke-linejoin:miter;stroke-opacity:1"/>
      </g>
      <g transform="matrix(1.022772,0,0,1.022772,779.29017,-25.895674)" id="g2825">
        <path d="m -406.71311,579.43093 c -21.85096,25.26783 -76.11883,52.81451 -131.22407,19.56136 -3.65954,19.71794 44.74546,55.97712 69.27979,54.60877 l 79.87552,-49.71844 23.63663,-33.41731 -41.56787,8.96562 z" id="path2821" style="fill:#d42e12;fill-opacity:1;fill-rule:evenodd;stroke:#000000;stroke-width:5.31496048;stroke-linecap:butt;stroke-linejoin:miter;stroke-miterlimit:4;stroke-opacity:1;stroke-dasharray:none"/>
        <path d="m -418.93895,610.40307 c -21.35714,17.53945 -50.98811,19.85508 -85.58092,13.04091 15.99871,4.19802 30.56703,9.45002 56.23889,6.52045 l 29.34203,-19.56136 z" id="path2823" style="fill:#000000;fill-opacity:1;fill-rule:evenodd;stroke:none"/>
      </g>
      <g transform="matrix(1.022772,0,0,1.022772,779.29017,-25.895674)" id="g2833">
        <path d="m -468.44603,651.33669 c -34.30686,-7.13769 -77.30041,-5.40934 -113.59675,19.68261 -31.24674,19.87197 -62.4413,40.08318 -99.53775,21.93204 24.98302,40.20282 65.33948,61.98332 132.15464,52.86186 l 80.97986,-94.47651 z" id="path2829" style="fill:#d42e12;fill-opacity:1;fill-rule:evenodd;stroke:#000000;stroke-width:5.31496048;stroke-linecap:butt;stroke-linejoin:miter;stroke-miterlimit:4;stroke-opacity:1;stroke-dasharray:none"/>
        <path d="m -489.25335,650.21197 c 6.55751,7.05704 -32.66098,12.5576 -66.3585,34.30397 -27.74311,16.68339 -51.50381,17.4371 -76.48099,23.05677 8.20543,3.5294 19.32321,8.59899 78.73043,-11.80957 34.39234,-14.53427 68.28649,-41.21402 66.3585,-24.18148 l 17.99552,-20.80733 -20.24496,-0.56236 z" id="path2831" style="fill:#000000;fill-opacity:1;fill-rule:evenodd;stroke:none"/>
      </g>
      <g transform="matrix(1.022772,0,0,1.022772,778.45657,-25.895674)" id="g2817">
        <path d="m -388.78187,600.6224 -18.74629,83.13574 c -66.18957,89.50409 -139.26248,108.8366 -215.98993,99.43688 92.53959,-11.21789 142.03697,-166.18151 234.73622,-182.57262 z" id="path2813" style="fill:#d42e12;fill-opacity:1;fill-rule:evenodd;stroke:#000000;stroke-width:5.31496048;stroke-linecap:butt;stroke-linejoin:miter;stroke-miterlimit:4;stroke-opacity:1;stroke-dasharray:none"/>
        <path d="m -398.56255,608.77296 c -7.94813,26.34086 -41.99561,46.16567 -67.72334,78.17402 -27.40073,31.60658 -53.96128,66.99396 -85.50725,79.94691 28.55388,-11.70529 55.72423,-35.86224 82.10846,-67.09434 21.36252,-21.35202 55.66357,-65.51184 60.5264,-49.45872 l 10.59573,-41.56787 z" id="path2815" style="fill:#000000;fill-opacity:1;fill-rule:evenodd;stroke:none"/>
      </g>
      <g transform="matrix(1.022772,0,0,1.022772,779.29017,-25.895674)" id="g2801">
        <path d="m -329.63695,593.48287 c 6.17906,94.84715 -52.04615,170.37301 -129.53784,240.11893 50.26117,-13.75647 97.81198,-36.32159 136.90992,-86.35856 l 25.27567,-139.01622 -32.64775,-14.74415 z" id="path2797" style="fill:#d42e12;fill-opacity:1;fill-rule:evenodd;stroke:#000000;stroke-width:5.31496048;stroke-linecap:butt;stroke-linejoin:miter;stroke-miterlimit:4;stroke-opacity:1;stroke-dasharray:none"/>
        <path d="m -314.8928,640.87477 c -3.46131,43.4931 -30.5752,78.61408 -36.86036,98.99639 15.20436,-18.15726 27.85532,-42.69804 40.01982,-68.45495 l -3.15946,-30.54144 z" id="path2799" style="fill:#000000;fill-opacity:1;fill-rule:evenodd;stroke:none"/>
      </g>
      <path d="m 459.5594,619.67492 c -5.152,66.7614 -15.972,132.89302 -40.4723,197.5046 31.4971,-21.99764 58.3204,-53.34274 83.3729,-88.22951 L 472.5105,602.67657 457.131,615.6277" id="path2793" style="fill:#d42e12;fill-opacity:1;fill-rule:evenodd;stroke:#000000;stroke-width:5.43599272;stroke-linecap:butt;stroke-linejoin:miter;stroke-miterlimit:4;stroke-opacity:1;stroke-dasharray:none"/>
      <path d="m 523.5055,599.43879 c -9.6134,73.82939 -9.6613,138.09333 -30.7589,223.40685 24.3236,-36.92444 64.5685,-57.92757 83.37286,-100.37119 l -32.37776,-121.41676 -20.2362,-1.6189 z" id="path2789" style="fill:#d42e12;fill-opacity:1;fill-rule:evenodd;stroke:#000000;stroke-width:5.43599272;stroke-linecap:butt;stroke-linejoin:miter;stroke-miterlimit:4;stroke-opacity:1;stroke-dasharray:none"/>
      <g transform="matrix(1.022772,0,0,1.022772,779.29017,-25.895674)" id="g2777">
        <path d="m -226.34692,586.08587 31.65691,56.19102 c -0.41536,45.28954 19.9785,107.23209 68.06236,65.6881 4.63894,23.36927 -28.69741,58.62291 -69.64521,43.52825 -49.8093,-34.83771 -30.30476,-102.26176 -45.1111,-142.45611 l 15.03704,-22.95126 z" id="path2773" style="fill:#d42e12;fill-opacity:1;fill-rule:evenodd;stroke:#000000;stroke-width:5.31496048;stroke-linecap:butt;stroke-linejoin:miter;stroke-miterlimit:4;stroke-opacity:1;stroke-dasharray:none"/>
        <path d="m -224.76408,606.66287 c 10.28406,31.68027 7.46447,134.36231 55.3996,135.3333 -38.91832,-6.2541 -39.97233,-100.43376 -38.77972,-109.21635 l -16.61988,-26.11695 z" id="path2775" style="fill:#000000;fill-opacity:1;fill-rule:evenodd;stroke:none"/>
      </g>
      <g transform="matrix(1.022772,0,0,1.022772,779.29017,-25.895674)" id="g2761">
        <path d="m -219.61983,515.25353 43.92397,30.07407 c -18.20275,19.79292 -11.91178,82.44275 32.05262,80.72512 -20.29909,35.39681 -84.94906,18.25555 -82.70368,-36.40544 l 6.72709,-74.39375 z" id="path2757" style="fill:#d42e12;fill-opacity:1;fill-rule:evenodd;stroke:#000000;stroke-width:5.31496048;stroke-linecap:butt;stroke-linejoin:miter;stroke-miterlimit:4;stroke-opacity:1;stroke-dasharray:none"/>
        <path d="m -208.93562,530.68628 c 5.26877,4.92849 -6.36437,68.59599 7.91423,79.9337 6.47221,-12.40926 -8.27926,-47.98413 3.95711,-71.22805 l -11.87134,-8.70565 z" id="path2759" style="fill:#000000;fill-opacity:1;fill-rule:evenodd;stroke:none"/>
      </g>
      <g transform="matrix(-1.181669,-2.643161e-4,-0.06346149,1.18213,167.0213,1.781626)" id="g2781">
        <path d="m -305.85005,455.05905 c 70.34204,116.79826 -12.35522,144.04204 -6.98642,187.85714 -30.85107,-60.66729 -32.49756,-123.05249 6.98642,-187.85714 z" id="path2783" style="fill:#d42e12;fill-opacity:1;fill-rule:evenodd;stroke:#000000;stroke-width:6.02362204;stroke-linecap:butt;stroke-linejoin:miter;stroke-miterlimit:4;stroke-opacity:1;stroke-dasharray:none"/>
        <path d="m -304.32929,459.92241 c 1.8171,42.03033 -10.51057,77.99879 -9.26708,121.10971" id="path2785" style="fill:none;stroke:#000000;stroke-width:5.31496048;stroke-linecap:round;stroke-linejoin:miter;stroke-miterlimit:4;stroke-opacity:1;stroke-dasharray:none"/>
      </g>
      <g transform="matrix(0.855914,-0.05431657,0.05769456,0.909144,760.64417,8.087736)" id="g2605">
        <path d="m -305.85005,455.05905 c 30.63349,59.03619 55.82174,118.66425 -6.98642,187.85714 -30.85107,-60.66729 -32.49756,-123.05249 6.98642,-187.85714 z" id="path2607" style="fill:#d42e12;fill-opacity:1;fill-rule:evenodd;stroke:#000000;stroke-width:6.96999407;stroke-linecap:butt;stroke-linejoin:miter;stroke-miterlimit:4;stroke-opacity:1;stroke-dasharray:none"/>
        <path d="m -305.07378,455.05905 c 5.00741,41.91854 7.88481,83.83707 4.65762,125.75561" id="path2609" style="fill:none;stroke:#000000;stroke-width:6.96999407;stroke-linecap:round;stroke-linejoin:miter;stroke-miterlimit:4;stroke-opacity:1;stroke-dasharray:none"/>
        <path d="m -308.95512,609.53662 -3.10508,11.64403" id="path2611" style="fill:none;stroke:#000000;stroke-width:5.31496048;stroke-linecap:round;stroke-linejoin:miter;stroke-miterlimit:4;stroke-opacity:1;stroke-dasharray:none"/>
      </g>
      <g transform="matrix(0.617235,-0.232349,0.233094,0.632304,640.33627,45.509986)" id="g2724">
        <path d="m -329.55953,280.79032 c 37.11548,6.44526 28.57971,47.17939 27.22857,77.93003 -23.98571,-21.26841 -53.25242,-46.26216 -27.22857,-77.93003 z" id="path2726" style="fill:#d42e12;fill-opacity:1;fill-rule:evenodd;stroke:#000000;stroke-width:9.24124146;stroke-linecap:butt;stroke-linejoin:miter;stroke-miterlimit:4;stroke-opacity:1;stroke-dasharray:none"/>
        <path d="m -335.73641,291.84846 c 12.46051,-5.05637 19.22999,37.65635 25.61688,38.42533 -0.67414,-13.76139 -17.95361,-34.82836 -9.50929,-46.38209 -6.51684,-4.46314 -12.17164,-3.58163 -16.10759,7.95676 z" id="path2728" style="fill:#040000;fill-opacity:1;fill-rule:evenodd;stroke:#000000;stroke-width:1px;stroke-linecap:butt;stroke-linejoin:miter;stroke-opacity:1"/>
      </g>
      <path d="m 466.7528,304.26836 c 31.9466,-5.95238 37.4774,30.34984 45.7664,56.20629 -25.8626,-10.30589 -57.1273,-22.08863 -45.7664,-56.20629 z" id="path2732" style="fill:#d42e12;fill-opacity:1;fill-rule:evenodd;stroke:#000000;stroke-width:3.6239953;stroke-linecap:butt;stroke-linejoin:miter;stroke-miterlimit:4;stroke-opacity:1;stroke-dasharray:none"/>
      <g transform="matrix(0.617235,-0.232349,0.233094,0.632304,639.45207,17.216426)" id="g2588">
        <path d="m -329.55953,280.79032 c 37.11548,6.44526 28.57971,47.17939 27.22857,77.93003 -23.98571,-21.26841 -53.25242,-46.26216 -27.22857,-77.93003 z" id="path2590" style="fill:#d42e12;fill-opacity:1;fill-rule:evenodd;stroke:#000000;stroke-width:9.24124146;stroke-linecap:butt;stroke-linejoin:miter;stroke-miterlimit:4;stroke-opacity:1;stroke-dasharray:none"/>
        <path d="m -335.73641,291.84846 c 12.46051,-5.05637 19.22999,37.65635 25.61688,38.42533 -0.67414,-13.76139 -17.95361,-34.82836 -9.50929,-46.38209 -6.51684,-4.46314 -12.17164,-3.58163 -16.10759,7.95676 z" id="path2592" style="fill:#040000;fill-opacity:1;fill-rule:evenodd;stroke:#000000;stroke-width:1px;stroke-linecap:butt;stroke-linejoin:miter;stroke-opacity:1"/>
      </g>
      <g transform="matrix(0.808132,-0.125109,0.125109,0.808132,706.10187,0.170756)" id="g2582">
        <path d="m -329.55953,280.79032 c 37.11548,6.44526 28.57971,47.17939 27.22857,77.93003 -23.98571,-21.26841 -53.25242,-46.26216 -27.22857,-77.93003 z" id="path2584" style="fill:#d42e12;fill-opacity:1;fill-rule:evenodd;stroke:#000000;stroke-width:7.53375149;stroke-linecap:butt;stroke-linejoin:miter;stroke-miterlimit:4;stroke-opacity:1;stroke-dasharray:none"/>
        <path d="m -335.73641,291.84846 c 12.46051,-5.05637 19.22999,37.65635 25.61688,38.42533 -0.67414,-13.76139 -17.95361,-34.82836 -9.50929,-46.38209 -6.51684,-4.46314 -12.17164,-3.58163 -16.10759,7.95676 z" id="path2586" style="fill:#040000;fill-opacity:1;fill-rule:evenodd;stroke:#000000;stroke-width:1px;stroke-linecap:butt;stroke-linejoin:miter;stroke-opacity:1"/>
      </g>
      <path d="m 465.1366,315.29697 c 8.5227,-7.97293 27.0201,25.31268 32.4138,24.00693 -4.7424,-11.18231 -25.1265,-23.36067 -21.8299,-35.48885 -6.6255,-1.71159 -10.9243,0.73731 -10.5839,11.48192 z" id="path2734" style="fill:#000000;fill-opacity:1;fill-rule:evenodd;stroke:none"/>
      <path d="m 254.7896,324.46078 c -1.2492,31.08839 7.824,37.93077 21.425,49.23632 15.7325,-8.83593 19.9683,-27.11842 14.4206,-51.70843 l -35.8456,2.47211 z" id="path2558" style="fill:#d42e12;fill-opacity:1;fill-rule:evenodd;stroke:#000000;stroke-width:4.71119404;stroke-linecap:butt;stroke-linejoin:miter;stroke-miterlimit:4;stroke-opacity:1;stroke-dasharray:none"/>
      <path d="m 273.9485,321.98867 0.824,25.54519" id="path2560" style="fill:none;stroke:#000000;stroke-width:5.43599272;stroke-linecap:round;stroke-linejoin:miter;stroke-miterlimit:4;stroke-opacity:1;stroke-dasharray:none"/>
      <path d="m 317.805,313.97148 c 56.8899,10.47754 93.8194,8.05083 115.3713,-3.4961 21.2915,42.31768 22.4677,77.60699 -16.3152,114.20593 C 367.5892,393.56948 315.691,384.602 317.805,313.97148 z" id="path2566" style="fill:#d42e12;fill-opacity:1;fill-rule:evenodd;stroke:#000000;stroke-width:6.16079187;stroke-linecap:butt;stroke-linejoin:miter;stroke-miterlimit:4;stroke-opacity:1;stroke-dasharray:none"/>
      <path d="m 441.6734,390.05982 c -2.1179,20.25589 -3.6303,40.99617 -3.4961,63.05368 -4.8155,-10.24067 -11.0158,-20.35869 -20.9078,-29.11122 13.362,-12.26785 18.0165,-20.80713 24.4039,-33.94246 z" id="path2572" style="fill:#d42e12;fill-opacity:1;fill-rule:evenodd;stroke:#000000;stroke-width:4.71119404;stroke-linecap:butt;stroke-linejoin:round;stroke-miterlimit:4;stroke-opacity:1;stroke-dasharray:none"/>
      <g transform="matrix(0.999874,-0.107904,0.131057,0.685032,699.99987,14.148916)" id="g2629">
        <path d="m -305.85005,455.05905 c 30.63349,59.03619 55.82174,118.66425 -6.98642,187.85714 -30.85107,-60.66729 -32.49756,-123.05249 6.98642,-187.85714 z" id="path2631" style="fill:#d42e12;fill-opacity:1;fill-rule:evenodd;stroke:#000000;stroke-width:7.36835814;stroke-linecap:butt;stroke-linejoin:miter;stroke-miterlimit:4;stroke-opacity:1;stroke-dasharray:none"/>
        <path d="m -305.07378,455.05905 c 5.00741,41.91854 7.88481,83.83707 4.65762,125.75561" id="path2633" style="fill:none;stroke:#000000;stroke-width:7.36835814;stroke-linecap:round;stroke-linejoin:miter;stroke-miterlimit:4;stroke-opacity:1;stroke-dasharray:none"/>
        <path d="m -308.95512,609.53662 -3.10508,11.64403" id="path2635" style="fill:none;stroke:#000000;stroke-width:5.31496048;stroke-linecap:round;stroke-linejoin:miter;stroke-miterlimit:4;stroke-opacity:1;stroke-dasharray:none"/>
      </g>
      <g transform="matrix(0.929492,0.465497,-0.42711,1.027757,922.99637,182.87801)" id="g2765">
        <path d="m -305.85005,455.05905 c 30.63349,59.03619 55.82174,118.66425 -6.98642,187.85714 -30.85107,-60.66729 -32.49756,-123.05249 6.98642,-187.85714 z" id="path2767" style="fill:#d42e12;fill-opacity:1;fill-rule:evenodd;stroke:#000000;stroke-width:6.02362204;stroke-linecap:butt;stroke-linejoin:miter;stroke-miterlimit:4;stroke-opacity:1;stroke-dasharray:none"/>
        <path d="m -305.07378,455.05905 c 5.00741,41.91854 7.34186,61.80861 4.11467,103.72715" id="path2769" style="fill:none;stroke:#000000;stroke-width:5.31496048;stroke-linecap:round;stroke-linejoin:miter;stroke-miterlimit:4;stroke-opacity:1;stroke-dasharray:none"/>
        <path d="m -303.41769,585.57917 c -0.28781,11.91132 -3.68564,23.76968 -8.64251,35.60148" id="path2771" style="fill:none;stroke:#000000;stroke-width:5.31496048;stroke-linecap:round;stroke-linejoin:miter;stroke-miterlimit:4;stroke-opacity:1;stroke-dasharray:none"/>
      </g>
      <g transform="matrix(1.022066,0.03798395,-0.03798395,1.022066,800.81197,-21.885794)" id="g2600">
        <path d="m -305.85005,455.05905 c 30.63349,59.03619 55.82174,118.66425 -6.98642,187.85714 -30.85107,-60.66729 -32.49756,-123.05249 6.98642,-187.85714 z" id="path2594" style="fill:#d42e12;fill-opacity:1;fill-rule:evenodd;stroke:#000000;stroke-width:6.02362204;stroke-linecap:butt;stroke-linejoin:miter;stroke-miterlimit:4;stroke-opacity:1;stroke-dasharray:none"/>
        <path d="m -305.07378,455.05905 c 5.00741,41.91854 7.88481,83.83707 4.65762,125.75561" id="path2596" style="fill:none;stroke:#000000;stroke-width:5.31496048;stroke-linecap:round;stroke-linejoin:miter;stroke-miterlimit:4;stroke-opacity:1;stroke-dasharray:none"/>
        <path d="m -308.95512,609.53662 -3.10508,11.64403" id="path2598" style="fill:none;stroke:#000000;stroke-width:5.31496048;stroke-linecap:round;stroke-linejoin:miter;stroke-miterlimit:4;stroke-opacity:1;stroke-dasharray:none"/>
      </g>
      <path d="m 323.6318,318.63293 c -6.1161,83.15062 174.292,87.04174 100.2215,209.76601 19.7453,-89.65023 -178.2485,-64.44701 -100.2215,-209.76601 z" id="path2568" style="fill:#d42e12;fill-opacity:1;fill-rule:evenodd;stroke:#000000;stroke-width:6.37795258;stroke-linecap:butt;stroke-linejoin:miter;stroke-miterlimit:4;stroke-opacity:1;stroke-dasharray:none"/>
      <g transform="matrix(1.022772,0,0,1.022772,781.94267,26.270566)" id="g2738">
        <g id="g3465">
          <path d="m -329.55953,280.79032 c 37.11548,6.44526 28.57971,47.17939 27.22857,77.93003 -23.98571,-21.26841 -53.25242,-46.26216 -27.22857,-77.93003 z" id="path2740" style="fill:#d42e12;fill-opacity:1;fill-rule:evenodd;stroke:#000000;stroke-width:6.02362204;stroke-linecap:butt;stroke-linejoin:miter;stroke-miterlimit:4;stroke-opacity:1;stroke-dasharray:none"/>
          <path d="m -335.73641,291.84846 c 12.46051,-5.05637 19.22999,37.65635 25.61688,38.42533 -0.67414,-13.76139 -17.95361,-34.82836 -9.50929,-46.38209 -6.51684,-4.46314 -12.17164,-3.58163 -16.10759,7.95676 z" id="path2742" style="fill:#040000;fill-opacity:1;fill-rule:evenodd;stroke:#000000;stroke-width:1px;stroke-linecap:butt;stroke-linejoin:miter;stroke-opacity:1"/>
        </g>
      </g>
      <g transform="matrix(1.022772,0,0,1.022772,780.17427,-28.548194)" id="g2719">
        <path d="m -303.52124,397.61514 c -7.1984,-27.06462 13.75777,-38.96908 32.60331,-52.01004 87.42518,-42.96138 125.67397,-130.62856 169.22667,-213.47401 11.463891,38.86303 7.90427,80.95918 -8.53896,136.62337 -16.42367,42.85469 -18.75952,83.15775 -18.63046,108.67768 -37.59548,-5.61581 -73.68559,-5.44519 -91.59976,37.26092 -16.41087,6.12952 -32.11671,9.43891 -50.45749,23.28807 -10.38678,-15.37929 -20.25844,-32.81905 -32.60331,-40.36599 z" id="path2637" style="fill:#d42e12;fill-opacity:1;fill-rule:evenodd;stroke:#000000;stroke-width:5.88950634;stroke-linecap:butt;stroke-linejoin:miter;stroke-miterlimit:4;stroke-opacity:1;stroke-dasharray:none"/>
        <path d="m -270.91793,437.98113 c 7.0647,-69.11796 36.68461,-102.14759 95.4811,-88.49468 33.24605,-50.83327 53.71566,-104.84774 62.8778,-197.94864" id="path2639" style="fill:none;stroke:#000000;stroke-width:7.08661413;stroke-linecap:butt;stroke-linejoin:miter;stroke-miterlimit:4;stroke-opacity:1;stroke-dasharray:none"/>
        <path d="m -221.13731,349.6261 c -23.98881,16.70348 -10.08128,41.03073 0.67687,64.29069" id="path2641" style="fill:none;stroke:#000000;stroke-width:7.08661413;stroke-linecap:round;stroke-linejoin:miter;stroke-miterlimit:4;stroke-opacity:1;stroke-dasharray:none"/>
      </g>
      <path d="m 289.8112,320.34058 c 4.3777,18.56663 1.1073,48.60541 17.3048,49.44233 18.5622,-15.21955 12.1939,-39.78805 14.8327,-60.97887 l -32.1375,11.53654 z" id="path2562" style="fill:#d42e12;fill-opacity:1;fill-rule:evenodd;stroke:#000000;stroke-width:3.98639488;stroke-linecap:butt;stroke-linejoin:miter;stroke-miterlimit:4;stroke-opacity:1;stroke-dasharray:none"/>
      <path d="m 45.4417,398.43645 c 32.8319,114.31723 244.6138,31.30428 323.35,114.08574 7.4609,7.84744 0.9084,-7.49854 9.557,-1.7957 C 333.4633,422.31354 85.9349,455.67992 45.4417,398.43645 z" id="path2645" style="fill:#d42e12;fill-opacity:1;fill-rule:evenodd;stroke:#000000;stroke-width:5.43599272;stroke-linecap:butt;stroke-linejoin:miter;stroke-miterlimit:4;stroke-opacity:1;stroke-dasharray:none"/>
      <path d="m 331.7894,346.60174 c -19.1165,80.89906 97.6219,92.42253 97.8908,136.3479" id="path2570" style="fill:none;stroke:#000000;stroke-width:5.10983324;stroke-linecap:butt;stroke-linejoin:miter;stroke-miterlimit:4;stroke-opacity:1;stroke-dasharray:none"/>
      <path d="m 303.8199,315.39636 0.824,33.78559" id="path2564" style="fill:none;stroke:#000000;stroke-width:5.43599272;stroke-linecap:round;stroke-linejoin:miter;stroke-miterlimit:4;stroke-opacity:1;stroke-dasharray:none"/>
      <path d="m -374.12111,363.99411 a 31.106699,24.801287 0 1 1 -62.2134,0 31.106699,24.801287 0 1 1 62.2134,0 z" transform="matrix(1.022772,0,0,1.022772,779.29017,-25.895674)" id="path2544" style="fill:#f5f3d5;fill-opacity:1;fill-rule:nonzero;stroke:#000000;stroke-width:5.19662333;stroke-linecap:round;stroke-linejoin:miter;stroke-miterlimit:4;stroke-opacity:1;stroke-dasharray:none;stroke-dashoffset:0"/>
      <path d="m -374.12111,363.99411 a 31.106699,24.801287 0 1 1 -62.2134,0 31.106699,24.801287 0 1 1 62.2134,0 z" transform="matrix(0.636578,0,0,0.636578,621.93407,108.65731)" id="path2546" style="fill:#000000;fill-opacity:1;fill-rule:nonzero;stroke:#000000;stroke-width:3.83385825;stroke-linecap:round;stroke-linejoin:miter;stroke-miterlimit:4;stroke-opacity:1;stroke-dasharray:none;stroke-dashoffset:0"/>
      <path d="m 244.1549,268.79085 c 30.6116,-5.81617 135.7685,-17.43243 198.9799,-7.53711 -6.4041,6.63468 -11.6886,14.16493 -12.0594,25.62619 12.7067,29.45669 -9.4673,40.44706 -37.6856,48.23755 -32.2497,1.99467 -43.65,-16.75131 -71.6254,-16.39894 -0.3465,-8.76412 10.5591,-14.38666 16.7643,-20.96689 -23.207,21.17138 -56.4747,32.13482 -101.9109,26.81387 -17.5755,6.57767 -34.5788,-10.53787 -21.4237,-36.17816 6.4061,-9.45015 18.6858,-16.42032 28.9608,-19.59651 z" id="path2554" style="fill:#d42e12;fill-opacity:1;fill-rule:evenodd;stroke:#000000;stroke-width:5.43599272;stroke-linecap:butt;stroke-linejoin:round;stroke-miterlimit:4;stroke-opacity:1;stroke-dasharray:none"/>
      <path d="m -374.12111,363.99411 a 31.106699,24.801287 0 1 1 -62.2134,0 31.106699,24.801287 0 1 1 62.2134,0 z" transform="matrix(0.139244,0,0,0.168138,409.644,274.72531)" id="path2548" style="fill:#ebd893;fill-opacity:1;fill-rule:nonzero;stroke:#230000;stroke-width:3.83385825;stroke-linecap:round;stroke-linejoin:miter;stroke-miterlimit:4;stroke-opacity:1;stroke-dasharray:none;stroke-dashoffset:0"/>
      <path d="m 228.8331,524.83353 c -14.8221,-9.31468 -22.049,-21.11707 -22.7883,-28.30842 7.1629,9.5112 39.9796,6.19548 62.9862,7.78481 53.9665,0.94015 26.0436,-5.75605 45.954,-5.18987 17.4301,-1.40861 -2.3095,5.8476 38.5576,6.2979 l 34.0535,4.03467 -11.0403,15.56963 -147.7227,-0.18872 z" id="path2643" style="fill:#d42e12;fill-opacity:1;fill-rule:evenodd;stroke:#000000;stroke-width:4.71119404;stroke-linecap:butt;stroke-linejoin:miter;stroke-miterlimit:4;stroke-opacity:1;stroke-dasharray:none"/>
      <path d="m 227.9387,315.79506 c -7.5431,-28.52281 16.6693,-44.5702 37.0004,-49.79066" id="path2556" style="fill:none;stroke:#000000;stroke-width:5.43599272;stroke-linecap:round;stroke-linejoin:miter;stroke-miterlimit:4;stroke-opacity:1;stroke-dasharray:none"/>
      <g transform="matrix(1.022772,0,0,1.022772,779.29017,-25.895674)" id="g2578">
        <path d="m -329.55953,280.79032 c 37.11548,6.44526 28.57971,47.17939 27.22857,77.93003 -23.98571,-21.26841 -53.25242,-46.26216 -27.22857,-77.93003 z" id="path2574" style="fill:#d42e12;fill-opacity:1;fill-rule:evenodd;stroke:#000000;stroke-width:6.02362204;stroke-linecap:butt;stroke-linejoin:miter;stroke-miterlimit:4;stroke-opacity:1;stroke-dasharray:none"/>
        <path d="m -335.73641,291.84846 c 12.46051,-5.05637 19.22999,37.65635 25.61688,38.42533 -0.67414,-13.76139 -17.95361,-34.82836 -9.50929,-46.38209 -6.51684,-4.46314 -12.17164,-3.58163 -16.10759,7.95676 z" id="path2576" style="fill:#040000;fill-opacity:1;fill-rule:evenodd;stroke:#000000;stroke-width:1px;stroke-linecap:butt;stroke-linejoin:miter;stroke-opacity:1"/>
      </g>
      <g transform="matrix(0.632237,-0.143013,0.151908,0.671556,609.25317,41.304676)" id="g2613">
        <path d="m -307.40751,456.84978 c 30.63349,59.03619 57.3792,116.87352 -5.42896,186.06641 -30.85107,-60.66729 -34.05502,-121.26176 5.42896,-186.06641 z" id="path2615" style="fill:#d42e12;fill-opacity:1;fill-rule:evenodd;stroke:#000000;stroke-width:8.13695145;stroke-linecap:butt;stroke-linejoin:miter;stroke-miterlimit:4;stroke-opacity:1;stroke-dasharray:none"/>
        <path d="m -306.2866,460.10679 c 5.00741,41.91854 9.09763,78.78933 5.87044,120.70787" id="path2617" style="fill:none;stroke:#000000;stroke-width:9.22187805;stroke-linecap:round;stroke-linejoin:miter;stroke-miterlimit:4;stroke-opacity:1;stroke-dasharray:none"/>
        <path d="m -308.95512,609.53662 -3.10508,11.64403" id="path2619" style="fill:none;stroke:#000000;stroke-width:5.31496048;stroke-linecap:round;stroke-linejoin:miter;stroke-miterlimit:4;stroke-opacity:1;stroke-dasharray:none"/>
      </g>
      <g transform="matrix(-0.770214,0.02213083,0.05480595,0.689382,264.9482,38.705346)" id="g2621">
        <path d="m -318.68219,448.56092 c 45.03198,58.57397 68.65388,125.16238 5.84572,194.35527 -43.9285,-70.61258 -9.66053,-135.3024 -5.84572,-194.35527 z" id="path2623" style="fill:#d42e12;fill-opacity:1;fill-rule:evenodd;stroke:#000000;stroke-width:8.44511223;stroke-linecap:butt;stroke-linejoin:round;stroke-miterlimit:4;stroke-opacity:1;stroke-dasharray:none"/>
        <path d="m -315.35842,455.38921 c 10.14973,41.75346 14.92053,81.30785 11.69334,123.22639" id="path2625" style="fill:none;stroke:#000000;stroke-width:8.44511223;stroke-linecap:round;stroke-linejoin:miter;stroke-miterlimit:4;stroke-opacity:1;stroke-dasharray:none"/>
        <path d="m -308.95512,609.53662 -3.10508,11.64403" id="path2627" style="fill:none;stroke:#000000;stroke-width:5.31496048;stroke-linecap:round;stroke-linejoin:miter;stroke-miterlimit:4;stroke-opacity:1;stroke-dasharray:none"/>
      </g>
      <g transform="matrix(1.022772,0,0,1.022772,779.29017,-25.895674)" id="g2748">
        <path d="m -220.4443,451.05046 57.05617,32.85053 c 2.57383,18.86501 -8.76654,36.91154 30.25706,57.92066 -82.18436,21.11342 -100.85891,-32.40384 -87.31323,-90.77119 z" id="path2744" style="fill:#d42e12;fill-opacity:1;fill-rule:evenodd;stroke:#000000;stroke-width:4.25196838;stroke-linecap:butt;stroke-linejoin:miter;stroke-miterlimit:4;stroke-opacity:1;stroke-dasharray:none"/>
        <path d="m -217.85084,457.10187 c 9.37225,12.09016 19.74999,22.35214 23.34116,44.95335 4.35047,19.553 18.79657,23.96256 30.25706,32.85053 -12.57305,-11.75857 -24.05622,-24.22793 -24.20565,-44.08886 -0.0191,-8.09142 8.06283,-6.46171 12.96732,-8.64488 l -42.35989,-25.07014 z" id="path2746" style="fill:#000000;fill-opacity:1;fill-rule:evenodd;stroke:none"/>
      </g>
      <g transform="matrix(1.022772,0,0,1.022772,779.29017,-25.895674)" id="g2752">
        <path d="m -194.08853,381.28016 c -13.83772,46.11985 22.79539,80.71821 73.92272,40.21974 2.37935,40.72479 -31.0217,73.46557 -75.18805,52.87614 -42.19695,-22.69675 -28.43411,-78.61709 1.26533,-93.09588 z" id="path2706" style="fill:#d42e12;fill-opacity:1;fill-rule:evenodd;stroke:#000000;stroke-width:5.31496048;stroke-linecap:butt;stroke-linejoin:miter;stroke-miterlimit:4;stroke-opacity:1;stroke-dasharray:none"/>
        <path d="m -196.22247,411.63824 c -13.03195,-14.76061 -9.77414,5.41557 -2.1395,35.45453 -16.65771,0.12881 -6.65625,-44.11412 -20.78368,-30.56425 4.50908,-16.08974 12.89562,-26.9929 23.89221,-34.97324 -3.3755,9.78056 -2.46498,20.3024 -0.96903,30.08296 z" id="path2708" style="fill:#000000;fill-opacity:1;fill-rule:evenodd;stroke:none"/>
        <path d="m -193.16604,452.89997 c 6.95348,3.20901 14.55015,5.13166 22.3119,6.72414 -10.0001,3.25034 -18.00521,2.22568 -22.3119,-6.72414 z" id="path2715" style="fill:#371702;fill-opacity:1;fill-rule:evenodd;stroke:none"/>
      </g>
      <path d="m 545.3605,697.38165 c -7.4264,35.80157 -20.0679,58.56558 -31.5683,84.18228 17.9438,-44.40185 26.0279,-85.10633 26.7117,-123.03564 l 4.8566,38.85336 z" id="path2791" style="fill:#000000;fill-opacity:1;fill-rule:evenodd;stroke:none"/>
      <path d="m 466.8444,681.19275 c 13.2199,21.72061 -10.9754,52.45462 -21.0456,95.51452 20.4903,-29.94253 28.1392,-71.3548 35.6156,-66.3745 l -14.57,-29.14002 z" id="path2795" style="fill:#000000;fill-opacity:1;fill-rule:evenodd;stroke:none"/>
      <path d="m 452.5534,407.17318 c -3.8893,-4.07115 -3.9484,26.87904 -0.4135,24.15875 2.1193,2.19335 2.968,-28.68896 0.4135,-24.15875 z" id="path3628" style="fill:#0c0c02;fill-opacity:1;fill-rule:evenodd;stroke:none"/>
      <path d="m 255.9175,326.43992 c -34.0944,6.04038 -81.4312,4.6194 -123.2521,13.32455 -49.2194,7.29419 -61.0721,47.11395 -46.1474,63.20265 16.1341,-22.54286 35.7551,-14.56932 52.8097,-2.13182 10.7424,6.28346 22.2306,11.82108 39.9737,11.10379 11.9405,-1.81038 19.2248,3.36376 25.5387,9.99341 17.1898,-9.7403 33.061,-3.65833 48.8566,3.33114 9.1317,4.00036 20.6202,5.64395 24.5173,14.87894 6.5616,10.92545 22.045,14.04419 39.8847,15.10129 25.3075,13.26186 62.2074,17.65893 65.5124,47.74629 -1.3011,12.83555 -3.8553,16.00581 -12.2492,18.91141 l -146.535,-0.035 c 12.9943,9.07568 23.888,19.37668 53.2982,18.87645 l 51.0774,-1.11039 c 25.0882,2.71035 34.3552,14.36728 31.0906,31.09061 40.8104,-0.92496 63.5906,-26.2755 63.425,-53.78668 1.06,-39.53727 -32.4912,-48.43234 -56.7627,-65.02385 -45.9673,-21.35374 -62.5877,-50.2538 -58.8501,-84.3888 -8.7618,-0.92216 -12.3714,-9.57251 -15.5453,-18.87643 -2.0947,9.59968 -5.3126,18.75007 -14.4349,25.53871 -19.8157,-12.60527 -23.5758,-29.492 -22.2076,-47.74629 z" id="path2550" style="fill:#fcbd30;fill-opacity:1;fill-rule:evenodd;stroke:#000000;stroke-width:5.43599272;stroke-linecap:butt;stroke-linejoin:miter;stroke-miterlimit:4;stroke-opacity:1;stroke-dasharray:none"/>
      <path d="m 357.5005,113.67145 c 1.5676,3.64459 3.1823,7.68413 4.9629,12.37438 -2.2428,-4.55039 -3.8104,-8.63655 -4.9629,-12.37438 z m 37.9189,-0.32115 c -1.179,3.80516 -2.8812,7.98456 -5.17,12.69553 1.8271,-4.80291 3.5565,-9.02439 5.17,-12.69553 z m -38.1066,0 c -7.4964,-17.216112 -16.2935,-24.439902 -26.0819,-27.789892 -15.1138,-2.33152 -26.2424,1.03854 -33.4164,10.92082 -16.803,34.522252 24.2315,44.289922 33.3711,58.760792 12.072,22.47807 -4.6825,27.18775 -12.9234,31.27326 -4.2014,3.64524 -2.0311,7.95995 3.067,7.22119 16.3187,-1.21788 28.2308,-10.52327 25.4111,-23.09707 -5.0703,-10.85476 -6.2765,-24.81672 -0.5769,-28.14016 9.837,-4.61579 19.7853,18.41782 16.8982,24.88277 0,0 26.6102,0 26.6102,0 -2.8611,-6.46495 5.5676,-32.01785 15.3748,-27.39366 5.7009,3.34353 5.675,19.47449 0.9641,30.65105 -2.4436,14.65152 16.669,24.45869 28.045,21.73869 3.0961,-0.97185 5.6342,-5.49375 -0.5756,-8.26038 -11.7703,-0.85789 -24.326,-9.51323 -11.2414,-29.54518 8.5213,-17.45179 50.988,-17.65964 32.7062,-58.091302 -7.1753,-9.88293 -17.8876,-14.47735 -33.0487,-12.14712 -9.8065,3.32345 -18.9727,11.80008 -26.4768,28.968942 9.0736,-29.451302 -11.9988,-31.092632 -19.086,-49.509157 -6.5051,18.302575 -28.0923,20.059145 -19.0206,49.556407 z" id="path3247" style="fill:#ffb800;fill-opacity:1"/>
      <path d="m 359.0681,112.82003 c -1.5002,-4.82297 -2.1244,-8.84244 -2.1244,-12.30573 7e-4,-9.507402 4.8709,-14.678712 10.2986,-20.426922 3.295,-3.50409 6.6657,-7.15515 9.1843,-11.93086 2.5381,4.73492 5.8823,8.35361 9.1843,11.81691 5.3792,5.72684 10.2507,10.87225 10.2507,20.379002 0,3.48531 -0.6695,7.5514 -2.1496,12.42228 0,0 3.3695,1.24638 3.3695,1.24638 6.6442,-15.234882 14.9117,-24.373872 25.2498,-27.951122 13.8021,-2.05571 23.9582,1.58759 31.046,11.30799 2.9544,6.646902 4.2202,12.094022 4.2202,16.736362 0,13.15069 -10.2429,19.3152 -20.2657,25.26931 -7.014,4.18003 -13.6622,8.19498 -16.6606,14.35821 7e-4,0 0.067,-0.16122 0.067,-0.16122 -4.4079,6.74011 -5.8349,12.06747 -5.8349,16.15363 6e-4,2.69993 0.6422,4.93693 1.4723,6.60545 2.6339,5.32541 8.8444,8.83662 16.5486,9.52682 1.6413,0.78279 2.5853,1.68859 2.5853,2.5672 0,0.0181 0,0.0447 0,0.0654 -0.067,0.8307 -0.9246,1.8019 -1.9359,2.14441 -6.3037,1.41341 -15.1676,-1.31371 -20.682,-6.50639 -2.5368,-2.31146 -5.3054,-6.02208 -5.3054,-10.96031 0,-0.74265 0.068,-1.43479 0.1328,-2.17031 2.2661,-5.39986 3.5313,-11.97941 3.5313,-17.91474 0,-6.71422 -1.6155,-12.48055 -5.2581,-14.63144 6e-4,0 -0.1133,-0.0479 -0.1133,-0.0479 0,-6.5e-4 -0.027,-0.066 -0.027,-0.066 -3.1622,-1.45486 -6.553,-0.64941 -9.5741,2.33153 -5.3138,5.1726 -8.9376,16.29219 -8.9376,23.22007 0,0.62157 0.074,1.12595 0.1204,1.68147 -3.3953,0 -18.8574,0 -22.2081,0 0.026,-0.3684 0.094,-0.71546 0.094,-1.10522 6e-4,-6.25906 -3.879,-15.74379 -8.9771,-20.72733 -3.5578,-3.48402 -7.431,-4.52256 -10.9409,-2.8877 0,0 -0.095,0.0259 -0.095,0.0259 0,0 -0.065,0.0673 -0.065,0.0673 -3.2289,1.91521 -4.6643,6.27913 -4.6643,11.63821 0,5.7197 1.664,12.55372 4.362,18.52983 0.2758,1.0845 0.4163,2.14376 0.4163,3.16287 6e-4,2.8592 -0.946,5.53972 -2.7945,8.00527 -3.9443,5.35973 -11.9302,8.9577 -21.3444,9.67379 -1.9158,0.27388 -3.0023,-0.30107 -3.304,-0.94335 -0.091,-0.14115 -0.091,-0.34964 -0.091,-0.53675 0,-0.71027 0.5542,-1.63486 1.4788,-2.46555 0.4157,-0.20849 2.2836,-1.08581 2.2836,-1.08581 5.2141,-2.42411 12.4165,-5.69964 14.8127,-12.80947 0.5096,-1.61478 0.7906,-3.32214 0.7906,-5.14412 6e-4,-4.22924 -1.4788,-9.05158 -4.4546,-14.61331 7e-4,-6.4e-4 0,-0.0453 0,-0.0453 7e-4,0 -0.047,-0.0278 -0.047,-0.0278 -2.8864,-4.56981 -8.542,-8.58152 -14.5181,-12.80882 -10.7318,-7.61161 -22.504,-15.97234 -22.504,-29.74654 0,-4.20141 1.0851,-8.93633 3.6912,-14.336842 6.5601,-8.97842 16.8497,-12.27337 31.4144,-10.06163 10.781,3.68926 18.4431,11.93151 24.9022,26.702802 7e-4,0 3.3688,-1.21853 3.3701,-1.21983 l 0,0 z m 15.6026,-49.649647 c -2.1425,6.097185 -6.1833,10.363995 -10.0435,14.472165 -5.5591,5.88935 -11.2808,11.91143 -11.2808,22.871752 0,0.46034 0.047,0.92393 0.047,1.36743 -5.7949,-9.259402 -12.7227,-15.007612 -21.5878,-18.028692 0,-0.001 -0.1587,0 -0.1587,0 0,-0.001 -0.1152,-0.11395 -0.1152,-0.11395 -16.1983,-2.47267 -27.7155,1.33896 -35.1989,11.67706 7e-4,-6.5e-4 -0.087,0.1133 -0.087,0.1133 6e-4,0 -0.046,0.16187 -0.046,0.16187 -2.955,6.069342 -4.2286,11.428412 -4.2286,16.225502 0,15.422 13.0905,24.67429 24.1453,32.49956 5.6543,3.97156 11.0056,7.77737 13.5003,11.72432 2.6333,4.93628 3.9722,9.23157 3.9722,12.90335 0,1.40564 -0.2085,2.71872 -0.5743,3.92624 -1.9171,5.65367 -8.0143,8.44102 -12.9506,10.70456 0,0 -2.8417,1.35903 -2.8417,1.35903 0,-6.5e-4 -0.1612,0.12237 -0.1612,0.12237 -2.057,1.84269 -2.7932,3.71063 -2.7932,5.32606 0,0.7912 0.1398,1.4801 0.3677,2.03693 1.0865,2.30562 3.7657,3.45617 6.9739,2.99517 10.4993,-0.78408 19.2498,-4.82297 23.8837,-11.05483 2.3121,-3.08971 3.4439,-6.55366 3.4439,-10.22414 7e-4,-1.31371 -0.1385,-2.63389 -0.4888,-4.01301 0,0 0,-0.18646 0,-0.18646 0,0 -0.067,-0.16186 -0.067,-0.16186 -2.7194,-5.81491 -4.1535,-12.28049 -4.1535,-17.40519 0,-4.08098 0.9252,-7.22249 2.7945,-8.37368 2.0764,-0.90321 4.4079,-0.23503 6.8327,2.17031 5.8356,5.74173 9.025,17.07756 7.5695,20.35374 0,-0.001 -1.2049,2.56591 -1.2049,2.56591 0,0 32.2444,0 32.2444,0 7e-4,0 -1.1525,-2.56591 -1.1525,-2.56591 -1.6607,-3.75983 1.7288,-17.79561 7.4562,-23.38194 2.8139,-2.7472 4.7032,-1.96312 5.4213,-1.66205 2.1703,1.34026 3.4639,5.9554 3.4639,11.67576 0,5.1998 -1.0392,11.26915 -3.3448,16.64182 7e-4,-6.4e-4 -0.072,0.23568 -0.072,0.23568 0,0 -0.047,0.22726 -0.047,0.22726 -0.1146,0.90322 -0.1813,1.84981 -0.1813,2.77504 6e-4,4.95765 2.1904,9.75991 6.4112,13.68614 6.4649,5.99489 16.5745,9.071 24.0314,7.33709 6e-4,-6.5e-4 0.094,-0.0667 0.094,-0.0667 7e-4,0 0.088,0 0.088,0 2.4707,-0.78603 4.3199,-3.0295 4.4818,-5.40052 0.047,-1.50147 -0.463,-4.2273 -4.9176,-6.20984 0,0 -0.3036,-0.14115 -0.3036,-0.14115 0,-6.5e-4 -0.272,-0.0201 -0.272,-0.0201 -6.6734,-0.49014 -11.9127,-3.32281 -14.0383,-7.59802 -2.3302,-4.73103 -0.8754,-11.37469 4.182,-19.15205 0,0 0.047,-0.1159 0.047,-0.1159 7e-4,0 0.04,-0.0932 0.04,-0.0932 2.5873,-5.23931 8.8224,-8.97778 15.3489,-12.85738 13.5074,-8.0998 30.3092,-18.16143 17.4058,-46.734762 6e-4,0 -0.095,-0.20783 -0.095,-0.20783 7e-4,0 -0.1126,-0.1405 -0.1126,-0.1405 -7.9185,-10.92211 -19.5684,-15.23489 -34.7858,-12.85739 0,-6.5e-4 -0.158,0.0272 -0.158,0.0272 0,0 -0.1612,0.0421 -0.1612,0.0421 -8.6074,2.9518 -15.8124,9.23028 -21.9478,19.159172 0.046,-0.48236 0.067,-0.9453 0.067,-1.40759 0,-10.985562 -5.655,-16.989512 -11.196,-22.823832 -3.8324,-4.1153 -7.8441,-8.33548 -10.1562,-14.404829 0,0 -1.7274,-4.549097 -1.7274,-4.549097 0,0 -1.6627,4.568521 -1.6627,4.568521 l 0,0 z" id="path3249" style="fill:#1f1a17"/>
      <path d="m 388.5388,125.34851 c 0,0 3.3312,1.4801 3.3312,1.4801 2.305,-4.80355 4.0382,-8.97647 5.2581,-12.99595 0,0 -3.3222,-1.21852 -3.3222,-1.21852 -1.6614,3.66466 -3.3247,7.84406 -5.2671,12.73437 z" id="path3251" style="fill:#1f1a17"/>
      <path d="m 355.7453,114.24835 c 1.2943,3.97285 2.9725,8.19303 5.0981,12.58026 0,0 3.3027,-1.47946 3.3027,-1.47946 -1.8478,-4.79772 -3.4633,-8.86251 -5.0107,-12.36725 6e-4,-6.4e-4 -3.3908,1.26645 -3.3901,1.26645 z" id="path3253" style="fill:#1f1a17"/>
      <path d="m 519.6831,272.60432 c 0,0 28.3434,-61.50799 28.3434,-61.50799 0,0 -20.5467,-7.47629 -20.5467,-7.47629 -17.0277,33.34839 -67.9451,23.49461 -67.9451,-10.5524 10.9202,-4.4073 7.7301,-20.81605 -4.5491,-21.13718 -13.3844,-0.62999 -16.8036,15.06848 -7.6847,20.74999 -16.1045,23.92971 -53.8906,19.0122 -62.8476,-6.83465 6e-4,-6.5e-4 -16.4081,0 -16.4081,0 -8.9771,25.84685 -46.762,30.765 -62.8742,6.83465 9.1177,-5.68151 5.6809,-21.37933 -7.686,-20.74999 -12.2533,0.32113 -15.5075,16.72988 -4.588,21.13718 0.04,34.04636 -50.85,43.90144 -67.9049,10.5524 6e-4,0 -20.5687,7.47629 -20.5687,7.47629 0,0 28.3719,60.67794 28.3719,60.67794 90.96,-23.60856 191.3781,-21.09574 286.8878,0.83005 z" id="path3255" style="fill:#fcbd30;fill-opacity:1"/>
      <path d="m 449.2446,193.99222 c 0,0 1.359,-2.02981 1.359,-2.02981 0,0 -2.0771,-1.27097 -2.0771,-1.27097 -3.8984,-2.42088 -4.5886,-6.8094 -3.5779,-10.13091 1.3209,-4.15414 4.9849,-6.5517 9.9024,-6.30502 5.6077,0.1405 8.2882,4.08681 8.8631,7.43744 0.6035,3.0664 -0.4137,7.31572 -5.0321,9.20438 0,-6.4e-4 -1.4522,0.58337 -1.4522,0.58337 6e-4,0 0,1.56687 0,1.56687 6e-4,15.71659 10.5245,28.41275 26.7979,32.33187 14.9999,3.62451 34.2944,-0.96473 44.5179,-18.8976 2.7083,0.94207 12.9979,4.68313 16.32,5.90748 -1.9152,4.15479 -25.1094,54.44737 -26.5435,57.53708 -99.6606,-22.61923 -197.8709,-22.92095 -284.2131,-0.89803 -1.4542,-3.09748 -24.5804,-52.48426 -26.4969,-56.63905 3.3688,-1.22565 13.6195,-4.96412 16.2993,-5.90748 10.2715,17.93223 29.518,22.52211 44.4985,18.8976 16.3129,-3.91976 26.8387,-16.61528 26.8387,-32.33187 0,-6.5e-4 0,-1.56687 0,-1.56687 0,0 -1.4542,-0.58337 -1.4542,-0.58337 -4.5899,-1.8893 -5.6077,-6.13733 -5.0515,-9.20438 0.6241,-3.35128 3.2561,-7.29694 8.8372,-7.43744 4.9642,-0.24798 8.6554,2.15088 9.9283,6.30502 1.0392,3.32151 0.3419,7.71068 -3.5572,10.13091 0,-6.5e-4 -2.0777,1.27097 -2.0777,1.27097 6e-4,0 1.3603,2.02981 1.3603,2.02981 7.9865,11.93151 22.1155,18.1161 36.8149,16.17824 13.6195,-1.72744 24.721,-10.12767 29.4772,-21.99313 2.307,-6.5e-4 11.1675,0 13.4058,0 4.777,11.86546 15.9037,20.26634 29.4979,21.99313 14.7059,1.93786 28.8285,-4.24673 36.815,-16.17824 l 0,0 z m -8.7687,-14.81921 c -0.4176,1.4063 -0.6241,2.86051 -0.6241,4.24803 0,3.67113 1.5468,7.10788 4.2467,9.59933 -7.181,9.32546 -18.86,14.13031 -31.0933,12.55567 -12.3944,-1.61349 -22.524,-9.5074 -26.3344,-20.49425 7e-4,0 -0.5497,-1.56751 -0.5497,-1.56751 0,-0.001 -19.7839,0 -19.7839,0 6e-4,-0.001 -0.529,1.56751 -0.529,1.56751 -3.8324,10.98621 -13.9141,18.88141 -26.3564,20.49425 -12.2132,1.57464 -23.8902,-3.22956 -31.046,-12.55567 2.6811,-2.49209 4.2279,-5.9282 4.2279,-9.59933 0,-1.38752 -0.2078,-2.84108 -0.6707,-4.24738 -1.4795,-4.87218 -6.1173,-9.96903 -14.5628,-9.60063 -7.7787,0.25511 -12.2605,5.81555 -13.2524,11.26138 -0.1347,0.8579 -0.2279,1.6886 -0.2279,2.49145 0,4.6909 2.4714,8.81849 6.5329,11.12995 -0.6241,12.7881 -9.4413,23.099 -23.0815,26.3823 -13.7321,3.3215 -31.5083,-1.0858 -40.297,-18.30387 0,-0.001 -0.9252,-1.82132 -0.9252,-1.82132 0,-0.001 -24.9022,9.04381 -24.9022,9.04381 0,0 30.2561,64.71748 30.2561,64.71748 0,-6.5e-4 1.8951,-0.4623 1.8951,-0.4623 86.5999,-22.45606 185.424,-22.18219 285.7353,0.90387 6e-4,-6.5e-4 1.8893,0.38912 1.8893,0.38912 0,-10e-4 30.1939,-65.54817 30.1939,-65.54817 0,0 -24.8808,-9.04381 -24.8808,-9.04381 6e-4,-0.001 -0.9253,1.82132 -0.9253,1.82132 -8.8165,17.21742 -26.5428,21.62537 -40.2775,18.30387 -13.6396,-3.2833 -22.4768,-13.5942 -23.0997,-26.3823 4.0797,-2.31275 6.5323,-6.43905 6.5323,-11.12995 0,-0.8035 -0.094,-1.63291 -0.2363,-2.49145 -0.9712,-5.44583 -5.4918,-11.00627 -13.2899,-11.26138 -8.3802,-0.3684 -13.0186,4.72975 -14.5635,9.59998 l 0,0 z" id="path3257" style="fill:#1f1a17"/>
      <path d="m 397.6117,175.06549 c 0,5.97611 -9.9036,10.87484 -22.1362,10.87484 -12.1594,-10e-4 -22.1343,-4.87153 -22.1343,-10.87484 0,0 0,0 0,0 0,-6.04863 9.927,-10.95901 22.1343,-10.95901 12.2151,-0.001 22.1356,4.87088 22.1356,10.89297 6e-4,0 0,0.0473 6e-4,0.066 l 0,0 z" id="path3259" style="fill:#ffb800;fill-opacity:1"/>
      <path d="m 355.6987,175.06549 c 0,-1.13177 0.5289,-2.14311 1.5662,-3.20626 3.3053,-3.27812 10.4391,-5.42058 18.2164,-5.42058 11.6324,-6.5e-4 19.797,4.52061 19.797,8.5608 6e-4,0 0,0.066 0,0.066 6e-4,0.99126 -0.529,2.07837 -1.5663,3.11561 -3.2755,3.30402 -10.4319,5.42706 -18.2307,5.42706 -11.6557,-6.5e-4 -19.7833,-4.50119 -19.7826,-8.54267 l 0,0 z m 19.7826,-13.27111 c -9.071,0 -17.3372,2.58597 -21.5114,6.71939 -1.9158,1.95665 -2.9356,4.22084 -2.9356,6.55172 0.029,7.38435 10.7803,13.22514 24.447,13.22514 9.1384,-0.001 17.3327,-2.6054 21.5322,-6.78674 1.9178,-1.93527 2.9285,-4.17422 2.9285,-6.45718 0,-6.4e-4 0,-0.0473 0,-0.0473 0,-7.43615 -10.7538,-13.20443 -24.4607,-13.20507 l 0,0 z" id="path3261" style="fill:#1f1a17"/>
      <path d="m 554.1192,195.65297 c 19.57544,-25.08931 32.45353,-55.91971 45.9053,-85.87991 -20.00283,9.37337 -51.8141,-0.44157 -57.2146,59.49825 10.1115,-37.04154 -2.4261,-67.41741 -28.62,-67.50999 -27.5347,1.20428 -33.4629,25.11456 -22.851,58.35158 1.1583,8.83598 9.2381,37.10888 -17.1714,34.34291 10.2513,6.75825 33.1218,14.5641 42.3339,-10.31867 1.1512,-10.50384 -2.4261,-32.4523 8.0066,-32.03663 8.3542,-0.11396 18.3498,16.08565 11.7974,35.34065 0,0 17.8125,8.21246 17.8138,8.21181 l 0,0 z" id="path3267" style="fill:#ffb800;fill-opacity:1"/>
      <path d="m 490.7012,191.72738 c 3.5507,-3.80321 4.6352,-9.27754 4.6352,-14.74475 6e-4,-4.96412 -0.878,-9.94961 -1.5008,-13.68678 6e-4,-6.5e-4 -0.6041,-3.5779 -0.6041,-3.5779 6e-4,0 -0.039,-0.20783 -0.039,-0.20783 -3.2833,-10.20342 -4.8715,-19.24723 -4.8715,-26.93201 0,-7.8052 1.6348,-14.22224 4.9855,-19.00119 4.2966,-6.11532 11.3753,-9.48473 21.0025,-9.85249 8.6773,0 16.1057,3.73782 21.4389,10.71103 5.7294,7.49702 8.5893,18.04877 8.5893,30.16934 6e-4,1.49176 -0.047,2.99259 -0.1153,4.52061 -1.5461,5.65367 -2.6785,12.23387 -3.3215,19.93936 7e-4,-6.4e-4 3.7851,0.74265 3.7851,0.74265 1.8427,-6.88063 2.9758,-13.6214 3.3422,-20.05786 7.1824,-26.81999 22.6639,-30.32925 37.64431,-33.69802 3.71905,-0.83329 7.29565,-1.61608 10.63851,-2.74849 -0.96407,2.14505 -1.93526,4.31406 -1.93526,4.31406 -11.72367,26.24245 -23.84486,53.34215 -40.90036,75.56513 -2.1904,-1.03918 -12.4871,-5.74108 -14.838,-6.82688 1.1771,-3.97156 1.7268,-7.80456 1.7268,-11.40254 0,-7.80649 -2.4649,-14.29021 -5.5339,-18.46378 -2.9816,-4.08681 -6.7401,-6.37042 -10.3647,-6.35164 -2.1023,-0.046 -3.9456,0.60408 -5.4251,2.02915 -3.9463,3.83364 -4.1755,12.07266 -4.1755,20.38742 7e-4,0.66365 0,3.06964 0,3.64523 7e-4,2.79252 -0.045,5.40052 -0.3004,7.50284 -2.889,7.7042 -7.3889,12.57509 -13.3857,14.56022 -6.2571,2.05376 -13.5055,0.6002 -19.5088,-2.00585 3.787,-0.60344 6.7861,-2.10232 9.0315,-4.52903 l 0,0 z m -0.5575,-80.36155 c -3.7844,5.42123 -5.6809,12.55696 -5.6809,21.23236 0,8.07973 1.6407,17.47252 4.9447,27.95046 0.069,0.32114 0.5484,3.39596 0.5484,3.39596 0.6514,3.59732 1.4814,8.40217 1.4814,13.084 0,4.6365 -0.8307,9.11891 -3.5779,12.0733 -2.7258,2.88058 -7.2684,4.06026 -13.5061,3.41733 0,-6.5e-4 -1.2677,3.52933 -1.2677,3.52933 7.5928,5.03211 19.2498,9.18625 29.2913,5.88418 7.2232,-2.35354 12.6023,-8.08168 15.9452,-17.12484 0,0 0.074,-0.20783 0.074,-0.20783 6e-4,0 0.021,-0.23439 0.021,-0.23439 0.3218,-2.76662 0.3205,-6.25063 0.3205,-9.92306 -0.019,-7.3617 -0.047,-16.50068 3.0295,-19.43435 0.6617,-0.71804 1.5675,-1.0107 2.6727,-0.96538 2.3801,-0.0252 5.0567,1.72938 7.2484,4.70385 4.0409,5.58634 6.8994,15.85773 2.7932,28.07025 0,0 -0.5568,1.63485 -0.5568,1.63485 0,0 20.7972,9.55337 20.7972,9.55337 0,-6.5e-4 0.9039,-1.19911 0.9039,-1.19911 17.8875,-22.82448 30.2813,-50.63445 42.28144,-77.57357 0,0 6.002,-13.43298 6.002,-13.43298 10e-4,-6.6e-4 -4.70902,2.21757 -4.70902,2.21757 -4.26874,1.98448 -9.18559,3.11561 -14.37827,4.24803 -13.38961,3.02172 -28.11745,6.32509 -36.88615,26.01389 -0.8773,-10.36269 -3.9204,-19.41492 -9.0444,-26.20101 -6.0953,-7.98649 -14.612,-12.233222 -24.6957,-12.274672 -10.9875,0.503742 -19.0659,4.380762 -24.0514,11.562462 l 0,0 z" id="path3269" style="fill:#1f1a17"/>
      <path d="m 512.7817,122.28016 c 0.027,0 0.074,0 0.074,0 0.047,0 0.065,-0.0201 0.1133,-0.0201 6e-4,0 -0.1878,0.0201 -0.1878,0.0201 z m 0.075,0 c -3.4439,0.34769 -6.305,1.85046 -8.4281,4.47593 -3.1369,4.01948 -4.7051,10.71363 -4.7051,20.24563 0,5.72166 0.551,12.36725 1.6362,20.12648 0.1405,2.057 0.1871,3.96444 0.1871,5.74756 6e-4,8.88324 -1.5941,14.77259 -4.8716,18.00215 -3.3953,3.34222 -8.5141,3.67048 -15.1196,3.13503 0,0 -0.3224,3.83235 -0.3224,3.83235 6.6482,0.5743 13.433,0.461 18.162,-4.22083 4.8042,-4.70967 6.7207,-13.45953 5.8428,-26.77143 0,-6.5e-4 -0.027,-0.0732 -0.027,-0.0732 0,0 0,-0.0945 0,-0.0945 -2.7861,-19.45441 -2.0298,-32.03015 2.2655,-37.50447 1.5002,-1.84204 3.4374,-2.84043 5.8421,-3.04763 0,-6.4e-4 0.087,0 0.087,0 0,-6.4e-4 0.1211,-0.0395 0.1211,-0.0395 4.2202,-0.7912 9.205,1.21787 14.0746,5.65432 7.5974,7.014 15.1404,20.86266 13.7133,34.69059 0,-6.5e-4 3.8259,0.41438 3.8259,0.41438 1.6226,-15.18826 -6.6197,-30.30854 -14.9325,-37.94605 -5.6938,-5.28656 -11.8855,-7.66406 -17.3508,-6.62682 l 0,0 z" id="path3271" style="fill:#1f1a17"/>
      <path d="m 523.4034,191.93457 c -2.0784,5.65433 4.5407,13.27306 14.7901,16.99146 10.2513,3.71645 20.1731,2.1716 22.2968,-3.53193 6e-4,-6.5e-4 0,-0.0272 0,-0.0272 2.0297,-5.62713 -4.5951,-13.22256 -14.7927,-16.98304 -10.25,-3.71516 -20.245,-2.14959 -22.2949,3.55135 7e-4,-6.5e-4 0,0 7e-4,-6.5e-4 l 0,0 z" id="path3273" style="fill:#ffb800;fill-opacity:1"/>
      <path d="m 538.9814,206.70716 c -6.1632,-2.23699 -11.128,-6.0687 -12.9765,-9.96774 -0.663,-1.52155 -0.8313,-2.86115 -0.3898,-4.013 7e-4,-6.4e-4 0,-0.0473 0,-0.0473 1.361,-3.76437 9.5994,-5.58699 19.2479,-2.10362 6.1639,2.31016 11.1474,6.11661 12.9513,10.0163 0.7361,1.50018 0.8501,2.84173 0.4357,4.01818 -1.3597,3.78638 -9.6492,5.58245 -19.2686,2.09714 l 0,0 z m -17.7548,-15.60199 c 0,0 -6e-4,6.5e-4 -6e-4,6.5e-4 -0.8754,2.35742 -0.6883,4.96282 0.5581,7.59672 2.3509,5.05088 8.2196,9.69451 15.6214,12.41387 11.5922,4.24673 22.7131,2.057 25.2317,-4.91816 0.8773,-2.35224 0.6695,-4.93693 -0.5756,-7.61031 -2.3315,-5.05995 -8.1936,-9.67185 -15.6324,-12.37308 -11.6006,-4.22083 -22.682,-2.07772 -25.2026,4.89031 l 0,0 z" id="path3275" style="fill:#1f1a17"/>
      <path d="m 386.6301,148.89038 c 0.4564,-7.57019 2.0492,-14.93252 5.607,-23.46741 7e-4,0 -3.304,-1.33961 -3.304,-1.33961 -5.9282,14.42295 -6.6242,25.55225 -5.7204,39.86125 0,0 3.4853,0.16187 3.4853,0.16187 4.7091,-33.103 27.1386,-55.72094 40.1565,-54.98347 4.0195,0.97249 6.6256,2.61252 7.8719,4.99131 0.6896,1.26645 0.9907,2.74785 0.9907,4.56916 0,2.76663 -0.8036,6.25 -2.419,10.49738 -4.7556,6.83336 -15.4401,22.50398 -17.4984,34.59734 0,-0.001 3.4626,0.60215 3.4626,0.60215 1.9839,-11.40317 12.5564,-26.84394 17.1048,-33.4235 7e-4,0 0.094,-0.18128 0.094,-0.18128 6e-4,0 0.04,-0.18712 0.04,-0.18712 3.1901,-8.12052 3.6245,-13.84802 1.3396,-18.11545 -1.774,-3.37071 -5.1661,-5.58829 -10.3173,-6.83402 0,-0.001 -0.18,-0.0188 -0.18,-0.0188 6e-4,-6.4e-4 -0.093,0 -0.093,0 -13.6401,-0.99321 -32.3409,17.28281 -40.62,43.27017 l 0,0 z" id="path3277" style="fill:#1f1a17"/>
      <path d="m 325.3014,105.61957 c 0,0 -0.1126,6.4e-4 -0.1126,6.4e-4 6e-4,-6.4e-4 -0.1619,0.0188 -0.1619,0.0188 -5.17,1.24573 -8.5407,3.46331 -10.3174,6.83402 -2.2629,4.26615 -1.8485,9.99493 1.3144,18.11545 0,-6.5e-4 0.021,0.0732 0.021,0.0732 6e-4,0 0.026,0.0874 0.026,0.0874 1.8673,3.65042 4.1341,7.11435 6.2772,10.45788 4.1794,6.46559 8.0992,12.50839 9.2989,19.52952 0,0 3.4899,-0.58272 3.4899,-0.58272 -1.3202,-7.75147 -5.6537,-14.39835 -9.8357,-20.86266 -2.0751,-3.27682 -4.294,-6.62552 -6.0221,-10.08234 -1.6413,-4.24998 -2.4448,-7.71197 -2.4448,-10.52522 0,-1.82196 0.2946,-3.30271 0.9906,-4.56916 1.2457,-2.37879 3.8324,-4.01882 7.8939,-4.99131 12.9688,-0.73747 35.4527,21.88175 40.1164,54.98347 6e-4,-0.001 3.4827,-0.16187 3.4827,-0.16187 0.8974,-14.30965 0.2279,-25.43765 -5.7281,-39.86125 0,0 -3.249,1.33961 -3.249,1.33961 3.5047,8.53424 5.0774,15.89787 5.6077,23.46741 -8.307,-25.98865 -27.0259,-44.26273 -40.6473,-43.27081 l 0,0 z" id="path3279" style="fill:#1f1a17"/>
      <path d="m 196.7179,195.65297 c -19.5943,-25.08931 -32.4724,-55.91971 -45.9313,-85.87991 20.0106,9.37337 51.8141,-0.44157 57.214,59.49825 -10.083,-37.04154 2.4248,-67.41741 28.5999,-67.50999 27.5814,1.20428 33.4908,25.11456 22.8724,58.35158 -1.1046,8.83598 -9.2122,37.10888 17.1695,34.34291 -10.2209,6.75825 -33.1205,14.5641 -42.3067,-10.31867 -1.1992,-11.35527 2.426,-32.4523 -8.0319,-32.03663 -8.373,-0.11396 -18.3032,16.08565 -11.791,35.34065 0,0 -17.7949,8.21246 -17.7949,8.21181 l 0,0 z" id="path3281" style="fill:#ffb800;fill-opacity:1"/>
      <path d="m 206.4603,144.6048 c 0,-12.12057 2.8864,-22.67232 8.6068,-30.16934 5.2878,-6.97386 12.7421,-10.71103 21.5334,-10.71103 9.5618,0.36712 16.6224,3.73782 20.9358,9.85249 3.3021,4.7783 4.9648,11.19599 4.9648,19.00119 0,7.68478 -1.5954,16.72923 -4.8716,26.93201 0,0 0,0.15992 0,0.15992 0,-6.5e-4 -0.6021,3.62581 -0.6021,3.62581 -0.6688,3.73653 -1.5215,8.72266 -1.5215,13.68678 0,5.46721 1.0398,10.94154 4.6157,14.7454 2.2189,2.42541 5.2872,3.92559 9.0445,4.52838 -5.9949,2.60605 -13.2439,4.06026 -19.5483,2.00585 -5.9748,-1.98578 -10.4779,-6.85537 -13.3579,-14.56022 -0.235,-2.29138 -0.2816,-4.94406 -0.2816,-7.80456 0,-0.57754 0,-3.04891 0,-3.67178 0,-8.1665 -0.2758,-16.26694 -4.1075,-20.03195 -1.4989,-1.45292 -3.3902,-2.10233 -5.6272,-2.05635 -3.5112,-0.0201 -7.2963,2.26483 -10.2714,6.35164 -3.0275,4.17292 -5.5203,10.65794 -5.5203,18.46378 0,3.59668 0.5568,7.43098 1.7093,11.40254 -2.3315,1.0858 -12.601,5.78899 -14.792,6.82688 -17.1021,-22.22363 -29.2253,-49.32203 -40.9218,-75.51786 0,-6.5e-4 -0.9712,-2.21563 -1.9152,-4.36133 3.3429,1.13112 6.9001,1.9165 10.5906,2.76791 15.029,3.34935 30.4905,6.85991 37.6456,33.6786 0.4151,6.43582 1.5009,13.17723 3.3695,20.05786 0,0 3.8051,-0.74265 3.8051,-0.74265 -0.6695,-7.70615 -1.8433,-14.28504 -3.3228,-19.93936 -0.067,-1.52867 -0.1606,-3.0282 -0.1599,-4.52061 l 0,0 z m 5.4743,-32.52806 c -5.1532,6.78675 -8.1742,15.83962 -9.0729,26.20231 -8.7279,-19.68944 -23.4752,-22.99217 -36.8868,-26.01389 -5.1927,-1.13242 -10.0636,-2.26355 -14.3297,-4.24803 6e-4,0 -4.7576,-2.21757 -4.7576,-2.21757 0,-6.6e-4 6.0298,13.43298 6.0298,13.43298 11.9982,26.93783 24.4134,54.74909 42.2996,77.57357 0,-6.5e-4 0.9259,1.19911 0.9259,1.19911 7e-4,-6.5e-4 20.7481,-9.55337 20.7481,-9.55337 6e-4,0 -0.5303,-1.63485 -0.5303,-1.63485 -4.1528,-12.21315 -1.2936,-22.48391 2.7472,-28.07025 2.191,-2.97447 4.8897,-4.72909 7.1564,-4.70385 1.3118,-0.046 2.1703,0.24799 2.8871,0.96538 2.9757,2.85986 2.9757,11.45044 2.9531,19.08536 -0.025,3.71905 -0.026,7.25033 0.2965,10.27205 7e-4,0 0.027,0.20719 0.027,0.20719 0,0 0.093,0.23503 0.093,0.23503 3.2969,9.04252 8.6955,14.7713 15.8972,17.12484 10.0921,3.30207 21.7679,-0.85207 29.2914,-5.88418 7e-4,0 -1.247,-3.52933 -1.247,-3.52933 -6.2494,0.64228 -10.7525,-0.53675 -13.4984,-3.41733 -2.7472,-2.95568 -3.5792,-7.4368 -3.5792,-12.0733 7e-4,-4.68183 0.8314,-9.48603 1.4536,-13.084 0,0 0.5095,-3.07417 0.5503,-3.39596 3.3293,-10.47794 4.9933,-19.87073 4.9933,-27.95046 6e-4,-8.67671 -1.9178,-15.81113 -5.7029,-21.23171 -5.0107,-7.183 -13.0646,-11.05937 -24.0042,-11.563112 -10.1101,0.0408 -18.6735,4.288822 -24.7403,12.273372 l 0,0 z" id="path3283" style="fill:#1f1a17"/>
      <path d="m 237.9414,123.09209 c 0.028,0.0175 0.072,0 0.093,0.0188 6e-4,-0.001 -0.2066,-0.0188 -0.2066,-0.0188 0.045,0 0.093,0 0.114,0 z m -17.7477,6.75953 c -8.3322,7.68479 -16.085,22.08832 -14.5382,37.00141 6e-4,-6.5e-4 3.8731,-0.41438 3.8731,-0.41438 -1.4069,-13.46147 5.8881,-26.89445 13.2705,-33.67989 5.0101,-4.61514 10.1367,-6.64624 14.4981,-5.83433 0,0 0.094,0.0207 0.094,0.0207 0,-6.6e-4 0.1133,0.0194 0.1133,0.0194 2.6339,0.23374 4.5018,1.17904 6.0033,3.09489 4.125,5.21792 4.8443,17.53792 2.0771,36.62586 0,0 0,0.0945 0,0.0945 0,0 0,0.0732 0,0.0732 -0.8773,13.31061 1.0113,22.06306 5.8608,26.77143 4.7052,4.6624 11.5178,4.79578 18.1375,4.22083 0,0 -0.3425,-3.83235 -0.3425,-3.83235 -6.5795,0.53481 -11.7049,0.20719 -15.0944,-3.13503 -3.2768,-3.22956 -4.8702,-9.11891 -4.8702,-18.00215 6e-4,-1.78377 0.047,-3.69056 0.1599,-5.74756 1.1331,-7.87319 1.7087,-14.49871 1.7087,-20.12648 0,-9.16489 -1.5274,-15.46215 -4.5485,-19.38838 -2.1437,-2.68051 -5.0509,-4.18004 -8.656,-4.52125 -5.607,-0.99257 -11.8861,1.38104 -17.747,6.75953 l 0,0 z" id="path3285" style="fill:#1f1a17"/>
      <path d="m 428.6765,122.44073 c 0,2.86181 -2.4008,5.23995 -5.3532,5.23995 -2.9344,-6.5e-4 -5.2853,-2.37814 -5.2853,-5.2393 6e-4,-2.92784 2.3503,-5.25936 5.2853,-5.25936 2.9524,0 5.3526,2.33152 5.3532,5.25871 z" id="path3287" style="fill:#f0ba00"/>
      <path d="m 520.7695,138.15862 c 0,2.8877 -2.3801,5.28657 -5.3338,5.28657 -2.9084,-6.5e-4 -5.2866,-2.39822 -5.2866,-5.28657 7e-4,-2.88123 2.3782,-5.23864 5.2866,-5.23864 2.9537,-0.001 5.3332,2.35806 5.3338,5.23864 z" id="path3289" style="fill:#f0ba00"/>
      <path d="m 240.4814,138.15862 c 0,2.8877 -2.4066,5.28657 -5.315,5.28657 -2.9538,-6.5e-4 -5.3514,-2.39822 -5.3514,-5.28657 0,-2.88123 2.3976,-5.23864 5.3514,-5.23864 2.9084,-0.001 5.3144,2.35806 5.315,5.23864 z" id="path3291" style="fill:#f0ba00"/>
      <path d="m 331.7955,218.29098 c 0.8967,0.87408 14.0144,14.22742 14.9105,15.14099 -0.8961,0.87344 -13.6693,13.30414 -14.5602,14.1944 -0.8948,-0.93105 -13.6279,-14.41065 -14.5026,-15.28343 0.8909,-0.89674 13.262,-13.17788 14.1523,-14.05196 l 0,0 z m -0.5083,-2.46296 c 0,0 -16.3776,16.17888 -16.3776,16.17888 -0.2707,0.2305 -0.2707,0.67855 0,0.96991 6e-4,0 16.9008,17.12677 16.9008,17.12677 0.1521,0.11913 0.3108,0.19748 0.5018,0.19748 0.1586,-6.5e-4 0.349,-0.0615 0.4856,-0.19748 6e-4,-6.5e-4 16.353,-16.15622 16.353,-16.15622 0.2933,-0.27323 0.2933,-0.69862 0,-0.97055 7e-4,0 -16.8956,-17.13196 -16.8956,-17.13196 -0.1334,-0.11395 -0.2933,-0.19165 -0.4675,-0.19165 -0.2143,-0.001 -0.3885,0.0783 -0.5005,0.17482 l 0,0 z" id="path3431" style="fill:#1f1a17"/>
      <rect width="7.1143322" height="7.1143322" x="395.70538" y="-73.916084" transform="matrix(0.70710678,0.70710678,-0.70710678,0.70710678,0,0)" id="rect3433" style="fill:#1f1a17;stroke:#1f1a17;stroke-width:0.21339637"/>
      <path d="m 242.8459,226.96314 c 0.9661,0.79703 15.141,13.02119 16.1103,13.85836 -0.8216,0.94401 -12.5239,14.3867 -13.3384,15.34754 -0.9687,-0.85401 -14.772,-13.23615 -15.7147,-14.03383 0.8132,-0.96666 12.1277,-14.22742 12.9428,-15.17207 z m -0.7096,-2.41311 c 0,0 -14.9856,17.47641 -14.9856,17.47641 -0.2512,0.25251 -0.2143,0.69862 0.08,0.96667 6e-4,0 18.2579,15.67256 18.2579,15.67256 0.1612,0.10619 0.3256,0.17158 0.516,0.15539 0.158,-0.0136 0.3431,-0.09 0.4675,-0.23697 6e-4,-6.5e-4 14.9635,-17.4518 14.9635,-17.4518 0.2694,-0.29589 0.2344,-0.71998 -0.08,-0.96667 6e-4,0 -18.2528,-15.67839 -18.2528,-15.67839 -0.1424,-0.10295 -0.3081,-0.16705 -0.4817,-0.1528 -0.2136,0.0168 -0.3807,0.11007 -0.4843,0.2156 l 0,0 z" id="path3435" style="fill:#1f1a17"/>
      <rect width="7.1143422" height="7.1143422" x="338.73376" y="22.582003" transform="matrix(0.76308103,0.64630283,-0.64630283,0.76308103,0,0)" id="rect3437" style="fill:#1f1a17;stroke:#1f1a17;stroke-width:0.21339665"/>
      <path d="m 422.275,217.09058 c 0.7776,0.98155 12.0778,15.90435 12.8496,16.92541 -1.0003,0.75041 -15.2595,11.44461 -16.2572,12.21315 -0.7686,-1.03789 -11.6712,-16.03644 -12.4268,-17.01411 0.9977,-0.77502 14.8393,-11.37145 15.8344,-12.12445 l 0,0 z m -0.1891,-2.50829 c 0,0 -18.3135,13.94966 -18.3135,13.94966 -0.2985,0.19424 -0.3555,0.6384 -0.1243,0.96213 6e-4,0 14.5699,19.14882 14.5699,19.14882 0.136,0.13791 0.2823,0.23632 0.472,0.26028 0.158,0.0201 0.3541,-0.0162 0.507,-0.13403 6e-4,0 18.2863,-13.92958 18.2863,-13.92958 0.3257,-0.23309 0.3801,-0.65589 0.1244,-0.96214 6e-4,0 -14.5635,-19.15464 -14.5635,-19.15464 -0.1178,-0.13014 -0.2661,-0.22726 -0.439,-0.24992 -0.213,-0.0278 -0.3956,0.0285 -0.5193,0.10942 l 0,0 z" id="path3439" style="fill:#1f1a17"/>
      <rect width="7.1143408" height="7.1143408" x="436.54477" y="-195.41963" transform="matrix(0.61077952,0.79180072,-0.79180072,0.61077952,0,0)" id="rect3441" style="fill:#1f1a17;stroke:#1f1a17;stroke-width:0.21339662"/>
      <path d="m 506.9403,231.49281 c 0.6274,1.08386 9.655,17.48159 10.2714,18.603 -1.0988,0.59891 -16.7519,9.12215 -17.85,9.73854 -0.6106,-1.13825 -9.2342,-17.55346 -9.8402,-18.62955 1.0987,-0.62286 16.3252,-9.11049 17.4188,-9.71199 l 0,0 z m 0.1748,-2.50893 c 0,0 -20.1356,11.15973 -20.1356,11.15973 -0.3231,0.14892 -0.4441,0.58013 -0.2615,0.93364 6e-4,6.5e-4 11.6524,21.05237 11.6524,21.05237 0.1146,0.15539 0.2454,0.27387 0.4293,0.32567 0.1534,0.0421 0.3528,0.035 0.5212,-0.0596 6e-4,-6.4e-4 20.1064,-11.14418 20.1064,-11.14418 0.3555,-0.18388 0.4707,-0.59373 0.2616,-0.9343 6e-4,6.5e-4 -11.646,-21.05624 -11.646,-21.05624 -0.098,-0.14568 -0.2305,-0.26352 -0.3982,-0.31014 -0.2065,-0.0589 -0.3956,-0.0298 -0.5296,0.033 l 0,0 z" id="path3443" style="fill:#1f1a17"/>
      <rect width="7.114336" height="7.114336" x="456.95862" y="-322.10205" transform="matrix(0.4900666,0.87168499,-0.87168499,0.4900666,0,0)" id="rect3445" style="fill:#1f1a17;stroke:#1f1a17;stroke-width:0.21339647"/>
      <path d="m 191.4799,204.44945 c 2.0498,5.67309 12.0454,7.20306 22.2696,3.53322 10.2235,-3.76631 16.8289,-11.3844 14.7706,-17.03872 0,0 0,0 0,0 -2.0758,-5.67375 -12.0247,-7.24191 -22.2683,-3.50279 -10.2028,3.73782 -16.8289,11.35526 -14.7719,17.00893 0,-6.4e-4 0,0 0,-6.4e-4 l 0,0 z" id="path3263" style="fill:#ffb800;fill-opacity:1"/>
      <path d="m 196.5832,206.43393 c -1.4989,-0.67142 -2.4908,-1.64003 -2.9071,-2.76792 0,-6.5e-4 0,-0.0252 0,-0.0252 -1.4121,-3.83365 3.7592,-10.52521 13.387,-14.01117 6.1826,-2.23699 12.4404,-2.5167 16.3602,-0.7135 1.4801,0.7135 2.472,1.65945 2.9071,2.81194 1.3875,3.81228 -3.7592,10.52327 -13.3864,14.03513 -6.1826,2.21951 -12.441,2.51993 -16.3608,0.67077 l 0,0 z m 8.8865,-21.19092 c -11.6311,4.24608 -18.6995,13.01925 -16.1815,19.99181 6e-4,0 0,0.0201 0,0.0201 0.8521,2.33024 2.6805,4.20012 5.3053,5.39987 5.0807,2.37685 12.5622,2.19685 19.9193,-0.53157 11.657,-4.19946 18.7448,-13.01536 16.2068,-19.98339 -0.8573,-2.33153 -2.7006,-4.19947 -5.3332,-5.47109 -5.0509,-2.35354 -12.5084,-2.12563 -19.9167,0.5743 l 0,0 z" id="path3265" style="fill:#1f1a17"/>
    </g>
  </g>
</svg>