<?xml version="1.0" encoding="UTF-8" standalone="no"?>
<!-- Generator: Adobe Illustrator 13.0.1, SVG Export Plug-In . SVG Version: 6.00 Build 14948)  -->
<svg xmlns:dc="http://purl.org/dc/elements/1.1/" xmlns:cc="http://creativecommons.org/ns#" xmlns:rdf="http://www.w3.org/1999/02/22-rdf-syntax-ns#" xmlns:svg="http://www.w3.org/2000/svg" xmlns="http://www.w3.org/2000/svg" xmlns:sodipodi="http://sodipodi.sourceforge.net/DTD/sodipodi-0.dtd" xmlns:inkscape="http://www.inkscape.org/namespaces/inkscape" version="1.1" id="svg2" x="0px" y="0px" width="442.642px" height="518px" viewBox="121.693 0 442.642 518" enable-background="new 121.693 0 442.642 518" xml:space="preserve" inkscape:version="0.47 r22583" sodipodi:docname="POL_Gdynia_COA.svg"><metadata id="metadata50"><rdf:RDF><cc:Work rdf:about=""><dc:format>image/svg+xml</dc:format><dc:type rdf:resource="http://purl.org/dc/dcmitype/StillImage"/></cc:Work></rdf:RDF></metadata><defs id="defs48"><inkscape:perspective sodipodi:type="inkscape:persp3d" inkscape:vp_x="0 : 259 : 1" inkscape:vp_y="0 : 1000 : 0" inkscape:vp_z="442.642 : 259 : 1" inkscape:persp3d-origin="221.321 : 172.66667 : 1" id="perspective52"/>
	
	
	
	
	
	
	

	
	
	
	
	
	
	
</defs><sodipodi:namedview pagecolor="#ffffff" bordercolor="#666666" borderopacity="1" objecttolerance="10" gridtolerance="10" guidetolerance="10" inkscape:pageopacity="0" inkscape:pageshadow="2" inkscape:window-width="1280" inkscape:window-height="708" id="namedview46" showgrid="false" inkscape:zoom="0.88340441" inkscape:cx="492.91125" inkscape:cy="309.95822" inkscape:window-x="-8" inkscape:window-y="-8" inkscape:window-maximized="1" inkscape:current-layer="svg2"/>
<g id="g11" transform="matrix(61.986054,0,0,61.986054,-214.27153,-484.53755)">
	<path id="_156457552" d="M12.561,7.83v4.761c0,1.967-1.604,3.571-3.57,3.571c-1.967,0-3.571-1.604-3.571-3.571V7.83   H12.561L12.561,7.83z" fill="#E02A2C"/>
</g>
<g id="g28" transform="matrix(61.986054,0,0,61.986054,-214.27153,-484.53755)">
	<path id="path30" fill="#FFFFFF" d="M8.996,7.859c0.28,0,0.512,0.237,0.512,0.529c0,0.212-0.123,0.4-0.294,0.484l0.019,1.156   c0.342-0.025,1.286,0.193,1.661,0.474l-0.346,0.533c-0.403-0.43-1.262-0.924-1.571-0.578c-0.275-0.282-0.963,0.03-1.566,0.573   l-0.342-0.514c0.503-0.247,1.101-0.459,1.661-0.469l0.028-1.185C8.597,8.773,8.483,8.595,8.483,8.387   C8.483,8.096,8.711,7.859,8.996,7.859L8.996,7.859z"/>
</g>
<path d="M344.223,165.448l-1.114,41.035c-0.312,0.62-0.931,0.62-1.488,0l-1.115-40.663  c-5.269-4.959-13.079-6.385-22.377-5.021l1.115,352.02c18.72,2.417,28.886,2.417,47.604,0.062l1.24-352.701  C358.355,158.568,349.863,159.87,344.223,165.448z" id="path7" fill="#FFFFFF"/>

<g id="g2930"><path id="path9" d="M398.152,233.439c-1.107,4.986-0.158,9.834,4.353,12.646c-4.592,3.333-9.773,5.841-14.103,9.536  c-2.503-1.195-4.953-2.419-7.214-3.587C384.183,244.013,391.175,238.075,398.152,233.439z" fill="#F5E12A"/><path d="m 252.618,270.523 0.87,-2.156 c -0.72,-1.818 -1.032,-4.762 -2.245,-5.225 -3.652,4.225 -6.881,2.445 -8.795,-1.197 -3.75,5.638 -5.802,4.803 -7.146,-0.098 -2.219,4.029 -5.458,4.313 -6.499,-0.537 h 21.181 c 0.787,-0.352 0.365,-0.607 0,-0.987 h -23.663 c -2.983,-0.973 -3.416,-3.802 -2.014,-7.964 3.962,-13.062 12.083,-24.5 24.096,-31.153 10.022,-5.391 21.315,-7.479 33.328,-7.694 15.593,25.289 20.2,51.358 -2.562,73.46 l -33.899,-1.75 c -5.984,-0.371 -17.359,-1.929 -18.86,-9.412 h 23.574 c 0.787,-0.352 0.364,-0.607 0,-0.987 h -23.465 c 0.76,-2.568 4.156,-2.39 5.268,-1.019 2.534,-3.744 4.428,-7.479 7.131,-0.953 2.626,-4.815 4.627,-4.612 7.13,-0.332 1.007,-3.228 3.809,-2.72 6.57,-1.996 l 0,0 z" id="path14" style="fill:#f5e12a"/><path d="m 268.04,226.125 c 5,0 9.117,4.286 9.117,9.491 0,5.512 -4.117,9.798 -9.117,9.798 -5,0 -9.118,-4.287 -9.118,-9.798 0,-5.205 4.118,-9.491 9.118,-9.491 l 0,0 z" id="path16" style="fill:#e02a2c"/><path d="m 284.915,213.59 c 27.667,0.451 54.005,11.781 75.306,26.259 l 7.604,4.649 c 4.264,-17.739 15.712,-28.292 31.929,-34.077 -5.347,6.518 -7.159,13.831 -0.092,19.123 l -0.036,0.093 c -8.741,4.767 -16.992,11.763 -20.836,21.141 -4.697,-2.488 -8.214,-4.543 -9.06,-5.228 -1.512,-1.169 -2.844,0.937 -1.623,2.174 12.864,7.134 26.219,15.833 40.988,18.355 1.863,0.142 1.938,-2.396 0.229,-2.756 -6.433,-1.046 -12.448,-3.777 -18.333,-6.486 4.115,-2.836 8.448,-5.338 12.563,-8.175 l 0.005,0.014 c 0.214,2.526 3.516,12.739 6.948,14.275 2.593,1.158 6.766,0.316 10.147,0.477 12.525,0.271 19.874,-9.4 10.421,-17.417 -7.265,-5.525 -13.356,-11.518 -23.494,-15.894 l 0.823,-2.855 c 8.056,1.236 11.79,-1.328 15.813,-8.66 10.063,3.67 14.745,0.703 21.758,-7.328 8.393,6.661 15.466,1.828 21.94,-4.188 l 2.285,1.618 c -5.459,9.125 -10.135,18.689 -14.535,28.36 -2.356,6.761 -1.651,14.028 -2.56,21.032 -3.274,29.507 -47.339,28.268 -72.222,28.55 -24.288,-0.328 -48.576,-0.524 -72.858,-0.666 l 8.317,5.899 c -1.065,2.507 -2.134,5.013 -3.2,7.519 -0.033,0.104 -0.067,0.205 -0.104,0.308 -4.085,-3.661 -8.373,-7.233 -11.816,-11.522 -0.986,-1.649 -2.97,-0.201 -2.264,1.408 3.979,4.702 8.484,8.998 13.241,12.92 -0.728,2.813 -0.98,5.394 -0.703,8.784 l -2.194,1.618 c -13.935,-10.287 -21.176,-14.794 -18.375,-25.41 l -8.059,-0.365 c 21.798,-20.889 16.241,-49.959 2.047,-73.549 l 0,0 z" id="path18" style="fill:#f5e12a"/><path d="m 426.194,220.466 c 4.828,7.323 11.049,13.81 14.859,21.761 0.581,1.793 -1.773,2.519 -2.513,0.861 -3.953,-7.602 -9.793,-14.01 -14.551,-21.104 -1.011,-1.563 1.065,-2.928 2.205,-1.518 l 0,0 z" id="path20" style="fill:#e02a2c"/><path d="m 447.572,214.574 c 0.539,8.938 0.78,17.903 0.901,26.858 -0.005,1.908 -2.451,1.791 -2.646,0 -0.396,-8.789 -0.075,-17.646 -0.861,-26.417 -0.3,-1.872 2.132,-2.185 2.606,-0.441 z" id="path22" style="fill:#e02a2c"/><path d="m 326.371,223.763 c 0.459,1.052 1.766,3.546 3.337,6.513 2.532,-1 4.965,-1.897 6.755,-2.485 1.799,-0.553 2.373,1.897 0.796,2.626 -1.673,0.55 -3.912,1.371 -6.259,2.292 1.963,3.697 4.079,7.688 5.465,10.527 3.21,-1.868 6.479,-3.635 9.769,-5.361 -0.478,-1.593 -0.897,-2.999 -1.223,-4.076 -0.549,-1.802 1.816,-2.491 2.523,-0.818 0.298,0.993 0.678,2.261 1.098,3.664 0.997,-0.5 1.839,-0.901 2.428,-1.157 1.749,-0.716 2.517,1.673 1.015,2.541 -0.623,0.271 -1.548,0.716 -2.649,1.271 0.866,2.911 1.716,5.827 2.529,8.752 2.778,-1.353 5.635,-2.54 8.531,-3.614 -0.146,-0.545 -0.286,-0.993 -0.421,-1.308 -0.746,-1.722 1.526,-2.691 2.419,-1.108 0.169,0.395 0.341,0.94 0.518,1.592 0.34,-0.097 0.655,-0.177 0.939,-0.24 1.838,-0.375 2.189,2.119 0.549,2.69 -0.263,0.058 -0.554,0.131 -0.867,0.222 0.811,3.729 1.278,7.522 1.979,11.271 0.443,1.837 -1.954,2.362 -2.563,0.656 -0.653,-3.696 -1.223,-7.405 -1.939,-11.09 -2.876,1.061 -5.665,2.278 -8.429,3.592 0.216,0.841 0.381,1.536 0.476,2.024 0.36,1.858 -2.063,2.271 -2.596,0.538 -0.063,-0.335 -0.168,-0.782 -0.3,-1.317 -0.448,0.259 -0.74,0.462 -0.828,0.583 -1.148,1.54 -2.968,-0.124 -2.106,-1.647 0.269,-0.372 1.087,-0.935 2.236,-1.586 -0.808,-2.934 -1.664,-5.854 -2.524,-8.772 -3.169,1.668 -6.313,3.383 -9.419,5.167 0.183,0.439 0.311,0.789 0.366,1.029 0.54,1.546 -2.261,2.253 -2.651,0.382 -2.159,1.278 -3.15,-1.579 -1.122,-2.488 -1.354,-2.761 -3.604,-7.002 -5.659,-10.872 -0.009,-0.016 -0.017,-0.033 -0.024,-0.048 -3.036,1.277 -6.108,2.508 -8.981,4.131 1.155,2.595 1.975,4.794 2.141,6.09 0.242,1.884 -2.193,2.111 -2.615,0.355 -2.877,-8.863 -7.673,-17.117 -12.319,-25.169 -0.97,-1.591 1.142,-2.897 2.244,-1.453 3.333,5.799 6.511,11.693 9.415,17.719 2.833,-1.59 5.832,-2.859 8.829,-4.101 -1.523,-2.879 -2.782,-5.291 -3.262,-6.386 -0.769,-1.716 1.496,-2.706 2.399,-1.131 l 0,0 z" id="path24" style="fill:#e02a2c"/><g id="g3231">
		<g id="g34" transform="matrix(61.986054,0,0,61.986054,-214.27153,-484.53755)">
			<path id="path36" d="m 7.675,11.601 c -0.014,0.02 0.005,0.074 0.019,0.089 0.014,0.02 0.066,-0.025 0.066,-0.025 0,0 -0.08,-0.064 -0.085,-0.064 z" style="fill:#f5e12a"/>
		</g>
	</g></g>

<g id="g2909" transform="translate(-7.6416,108.174)"><path style="fill:#f5e12a" d="m 295.5876,233.439 c 1.107,4.986 0.158,9.834 -4.353,12.646 4.592,3.333 9.773,5.841 14.103,9.536 2.503,-1.195 4.953,-2.419 7.214,-3.587 -2.995,-8.021 -9.987,-13.959 -16.964,-18.595 z" id="path2878"/><path id="path2882" d="m 441.1216,270.523 -0.87,-2.156 c 0.72,-1.818 1.032,-4.762 2.245,-5.225 3.652,4.225 6.881,2.445 8.795,-1.197 3.75,5.638 5.802,4.803 7.146,-0.098 2.219,4.029 5.458,4.313 6.499,-0.537 l -21.181,0 c -0.787,-0.352 -0.365,-0.607 0,-0.987 l 23.663,0 c 2.983,-0.973 3.416,-3.802 2.014,-7.964 -3.962,-13.062 -12.083,-24.5 -24.096,-31.153 -10.022,-5.391 -21.315,-7.479 -33.328,-7.694 -15.593,25.289 -20.2,51.358 2.562,73.46 l 33.899,-1.75 c 5.984,-0.371 17.359,-1.929 18.86,-9.412 l -23.574,0 c -0.787,-0.352 -0.364,-0.607 0,-0.987 l 23.465,0 c -0.76,-2.568 -4.156,-2.39 -5.268,-1.019 -2.534,-3.744 -4.428,-7.479 -7.131,-0.953 -2.626,-4.815 -4.627,-4.612 -7.13,-0.332 -1.007,-3.228 -3.809,-2.72 -6.57,-1.996 l 0,0 z" style="fill:#f5e12a"/><path id="path2884" d="m 425.6996,226.125 c -5,0 -9.117,4.286 -9.117,9.491 0,5.512 4.117,9.798 9.117,9.798 5,0 9.118,-4.287 9.118,-9.798 0,-5.205 -4.118,-9.491 -9.118,-9.491 l 0,0 z" style="fill:#e02a2c"/><path id="path2886" d="m 408.8246,213.59 c -27.667,0.451 -54.005,11.781 -75.306,26.259 l -7.604,4.649 c -4.264,-17.739 -15.712,-28.292 -31.929,-34.077 5.347,6.518 7.159,13.831 0.092,19.123 l 0.036,0.093 c 8.741,4.767 16.992,11.763 20.836,21.141 4.697,-2.488 8.214,-4.543 9.06,-5.228 1.512,-1.169 2.844,0.937 1.623,2.174 -12.864,7.134 -26.219,15.833 -40.988,18.355 -1.863,0.142 -1.938,-2.396 -0.229,-2.756 6.433,-1.046 12.448,-3.777 18.333,-6.486 -4.115,-2.836 -8.448,-5.338 -12.563,-8.175 l -0.005,0.014 c -0.214,2.526 -3.516,12.739 -6.948,14.275 -2.593,1.158 -6.766,0.316 -10.147,0.477 -12.525,0.271 -19.874,-9.4 -10.421,-17.417 7.265,-5.525 13.356,-11.518 23.494,-15.894 l -0.823,-2.855 c -8.056,1.236 -11.79,-1.328 -15.813,-8.66 -10.063,3.67 -14.745,0.703 -21.758,-7.328 -8.393,6.661 -15.466,1.828 -21.94,-4.188 l -2.285,1.618 c 5.459,9.125 10.135,18.689 14.535,28.36 2.356,6.761 1.651,14.028 2.56,21.032 3.274,29.507 47.339,28.268 72.222,28.55 24.288,-0.328 48.576,-0.524 72.858,-0.666 l -8.317,5.899 c 1.065,2.507 2.134,5.013 3.2,7.519 0.033,0.104 0.067,0.205 0.104,0.308 4.085,-3.661 8.373,-7.233 11.816,-11.522 0.986,-1.649 2.97,-0.201 2.264,1.408 -3.979,4.702 -8.484,8.998 -13.241,12.92 0.728,2.813 0.98,5.394 0.703,8.784 l 2.194,1.618 c 13.935,-10.287 21.176,-14.794 18.375,-25.41 l 8.059,-0.365 c -21.798,-20.889 -16.241,-49.959 -2.047,-73.549 l 0,0 z" style="fill:#f5e12a"/><path id="path2888" d="m 267.5456,220.466 c -4.828,7.323 -11.049,13.81 -14.859,21.761 -0.581,1.793 1.773,2.519 2.513,0.861 3.953,-7.602 9.793,-14.01 14.551,-21.104 1.011,-1.563 -1.065,-2.928 -2.205,-1.518 l 0,0 z" style="fill:#e02a2c"/><path id="path2890" d="m 246.1676,214.574 c -0.539,8.938 -0.78,17.903 -0.901,26.858 0.005,1.908 2.451,1.791 2.646,0 0.396,-8.789 0.075,-17.646 0.861,-26.417 0.3,-1.872 -2.132,-2.185 -2.606,-0.441 z" style="fill:#e02a2c"/><path id="path2892" d="m 367.3686,223.763 c -0.459,1.052 -1.766,3.546 -3.337,6.513 -2.532,-1 -4.965,-1.897 -6.755,-2.485 -1.799,-0.553 -2.373,1.897 -0.796,2.626 1.673,0.55 3.912,1.371 6.259,2.292 -1.963,3.697 -4.079,7.688 -5.465,10.527 -3.21,-1.868 -6.479,-3.635 -9.769,-5.361 0.478,-1.593 0.897,-2.999 1.223,-4.076 0.549,-1.802 -1.816,-2.491 -2.523,-0.818 -0.298,0.993 -0.678,2.261 -1.098,3.664 -0.997,-0.5 -1.839,-0.901 -2.428,-1.157 -1.749,-0.716 -2.517,1.673 -1.015,2.541 0.623,0.271 1.548,0.716 2.649,1.271 -0.866,2.911 -1.716,5.827 -2.529,8.752 -2.778,-1.353 -5.635,-2.54 -8.531,-3.614 0.146,-0.545 0.286,-0.993 0.421,-1.308 0.746,-1.722 -1.526,-2.691 -2.419,-1.108 -0.169,0.395 -0.341,0.94 -0.518,1.592 -0.34,-0.097 -0.655,-0.177 -0.939,-0.24 -1.838,-0.375 -2.189,2.119 -0.549,2.69 0.263,0.058 0.554,0.131 0.867,0.222 -0.811,3.729 -1.278,7.522 -1.979,11.271 -0.443,1.837 1.954,2.362 2.563,0.656 0.653,-3.696 1.223,-7.405 1.939,-11.09 2.876,1.061 5.665,2.278 8.429,3.592 -0.216,0.841 -0.381,1.536 -0.476,2.024 -0.36,1.858 2.063,2.271 2.596,0.538 0.063,-0.335 0.168,-0.782 0.3,-1.317 0.448,0.259 0.74,0.462 0.828,0.583 1.148,1.54 2.968,-0.124 2.106,-1.647 -0.269,-0.372 -1.087,-0.935 -2.236,-1.586 0.808,-2.934 1.664,-5.854 2.524,-8.772 3.169,1.668 6.313,3.383 9.419,5.167 -0.183,0.439 -0.311,0.789 -0.366,1.029 -0.54,1.546 2.261,2.253 2.651,0.382 2.159,1.278 3.15,-1.579 1.122,-2.488 1.354,-2.761 3.604,-7.002 5.659,-10.872 0.009,-0.016 0.017,-0.033 0.024,-0.048 3.036,1.277 6.108,2.508 8.981,4.131 -1.155,2.595 -1.975,4.794 -2.141,6.09 -0.242,1.884 2.193,2.111 2.615,0.355 2.877,-8.863 7.673,-17.117 12.319,-25.169 0.97,-1.591 -1.142,-2.897 -2.244,-1.453 -3.333,5.799 -6.511,11.693 -9.415,17.719 -2.833,-1.59 -5.832,-2.859 -8.829,-4.101 1.523,-2.879 2.782,-5.291 3.262,-6.386 0.769,-1.716 -1.496,-2.706 -2.399,-1.131 l 0,0 z" style="fill:#e02a2c"/><g transform="matrix(-1,0,0,1,693.7396,0)" id="g2894">
		<g transform="matrix(61.986054,0,0,61.986054,-214.27153,-484.53755)" id="g2896">
			<path d="m 7.675,11.601 c -0.014,0.02 0.005,0.074 0.019,0.089 0.014,0.02 0.066,-0.025 0.066,-0.025 0,0 -0.08,-0.064 -0.085,-0.064 z" id="path2898" style="fill:#f5e12a"/>
		</g>
	</g></g></svg>