<?xml version="1.0" encoding="utf-8"?>
<!-- Svg Vector Icons : http://www.onlinewebfonts.com/icon -->
<!DOCTYPE svg PUBLIC "-//W3C//DTD SVG 1.1//EN" "http://www.w3.org/Graphics/SVG/1.1/DTD/svg11.dtd">
<svg version="1.1" xmlns="http://www.w3.org/2000/svg" xmlns:xlink="http://www.w3.org/1999/xlink" x="0px" y="0px"
  viewBox="0 0 1000 1000" enable-background="new 0 0 1000 1000" xml:space="preserve">
  <metadata> Svg Vector Icons : http://www.onlinewebfonts.com/icon </metadata>
  <g>
    <g transform="translate(0.000000,511.000000) scale(0.100000,-0.100000)">
      <path
        d="M5519.4,4971.4c-109.7-56-5235.7-4430.7-5305.7-4531c-151.7-217-151.7-445.7,0-662.6c74.7-105,5179.7-4461.1,5303.4-4524c105-53.7,163.3-56,249.6-9.3c135.3,70,142.3,121.3,142.3,1185.3v965.9l-1066.3,907.6c-585.6,499.3-1105.9,959-1154.9,1022c-371,469-371,1098.9,0,1567.9c49,63,569.3,522.6,1154.9,1021.9l1066.3,909.9v963.6c0,832.9-4.7,975.3-37.3,1056.9C5811.1,4997.1,5671.1,5046.1,5519.4,4971.4z" />
      <path
        d="M9513.8,4976.1c-37.3-18.7-224-161-410.6-322C4313.2,571,4210.5,482.4,4149.8,361c-81.7-163.3-81.7-338.3,0-501.6c53.7-109.7,319.6-343,2641.2-2321.5C8211.9-3673,9406.5-4688,9446.2-4718.3c39.7-28,114.3-58.3,163.3-65.3c77-9.3,105-2.3,168,51.3c39.7,32.7,84,100.3,98,147c32.7,119,32.7,9269.8,0,9388.8c-30.3,102.7-144.7,205.3-228.7,205.3C9611.8,5006.4,9553.5,4992.4,9513.8,4976.1z" />
    </g>
  </g>
</svg>