<svg xmlns="http://www.w3.org/2000/svg" viewBox="291 174 258 244">
	<g id="Poland">
		<path stroke="#ffffff" stroke-width="2" fill="#ddd" d="M432.646,191.933l0.549,0.424l1.262,0.42l7.326,0.389l9.984,0.52l14.908,0.777
		l9.238,0.486l11.183,0.584l14.353,0.743l6.032,0.326l4.859,0.258l1.782-0.584l0.487-0.39l0.682-1.264l0.646-0.288l0.552,0.062
		l1.553,0.811l0.292,0.034l0.584-0.129l0.26,0.063l0.258,0.287l0.166,0.359l0.128,0.354l0.164,0.294l0.29,0.193l0.877,0.097
		l0.16,0.228l-0.097,0.42l-0.161,0.488v0.45l0.454,0.649H522l0.614-0.261l0.52-0.128l0.453,0.225l1.59,1.361l0.97,0.618l2.074,0.777
		l1.005,0.844l0.261,0.392l0.453,0.905l0.229,0.356l0.259,0.164l0.55,0.161l0.226,0.132l0.423,0.616l0.356,0.875l0.293,0.973
		l0.19,0.938l0.391,2.042v0.973l-0.391,0.682l-0.322,0.259l-0.096,0.263l-0.132,0.19v0.455l0.096,0.389l0.226,0.327l0.263,0.225
		l0.164,0.193l0.063,0.229v0.225l-0.099,0.26l0.035,1.297l0.257,1.072l0.356,1.002l0.264,1.104l0.227,2.301l0.258,0.905l0.617,0.906
		l0,0l0,0l0.063,2.659l0.616,3.017l2.172,6.741l1.233,2.527l0.517,1.362l1.037,4.049l0.453,1.233l0.456,0.616l0.257,0.62
		l0.195,0.614l0.322,0.681l0.453,0.514l0.452,0.363l0.263,0.516l-0.063,1.035l-0.228,0.619l-0.324,0.518l-0.258,0.584l-0.033,0.841
		l0.226,0.714l0.774,1.006l0.293,0.616l0.032,0.321l-0.062,0.517v0.264l0.228,1.2v0.36l-0.064,0.257l-0.289,0.584l-0.065,0.322
		l0.032,0.455l0.098,0.257l0.096,0.229l0.065,0.323l0.259,6.45l-0.356,1.817l-1.036,1.263l-3.438,2.334l-4.31,1.233l-2.268,1.327
		l-2.268,1.911l-3.145,4.83l-1.038,1.265l-0.489,0.745l-1.199,2.459h0.065l0.389,0.327l0.289,0.414l0.096,0.554l-0.189,0.743
		l0.582,0.393l1.85,0.482l0.389-0.161l0.356,0.358l1.586,0.582l0.553,0.065v0.259l-0.196,0.392l0.064,0.063l0.356-0.129l0.324,0.129
		l0.228,0.228l0.261,0.032l0.356-0.423l0.097,0.197l0.261,0.226l0.163,0.192l0.421-0.418l0.096,0.321l-0.064,0.521l-0.097,0.161
		l0.713,1.426l0.491,0.164l1.227-0.032l0.488,0.291l0.164,0.322l0.129,0.356l0.166,0.26l0.225,0.098l0.322,0.229l0.097,0.482
		l0.038,0.49l0.188,0.518l0.357,1.587l0.292,0.713l-0.391,0.29l-0.322,0.521l-0.488,1.165l-0.163,0.78v1.356l-0.16,0.456
		l0.094,0.032h0.034l0.032,0.031v0.196l-0.292,0.163l-0.095,0.906l-0.291,0.356l0.389,0.748l0.49,0.643l-0.293,0.973l-0.486,0.486
		l-0.55,0.324l-0.422,0.517l-0.094,0.29l-0.098,0.455l-0.164,0.971l0.096,0.195l0.166,0.293l0.062,0.257l-0.228,0.131l-0.096,0.132
		l0.096,0.257l0.166,0.293l0.13,0.164l-0.325,0.418l-0.166,0.098l-0.225,0.036v0.321l0.291,0.324l0.033,0.389l-0.163,1.102
		l0.098,0.582l0.226,0.584l0.585,0.973h-0.196h-0.16l0.323,0.646l0.389,0.166l0.356,0.226l0.098,0.552l0.032,0.257l0.166,0.586
		l0.388,0.288l0.454,0.164l0.355,0.26l-0.389,0.842l0.033,0.262l1.037,1.556l0.195,0.484l-0.292,0.132l-0.195,0.289l-0.033,0.422
		l0.167,0.55l-0.49,0.191l-0.454,0.488l-0.356,0.617l-0.128,0.553l0.164,0.873l0.389,0.228h0.487l0.421,0.292l1.426,3.143
		l0.585,0.713l1.297,0.846l1.232,1.229l0.288,0.487l-0.422,0.227l-0.094,0.393l0.389,0.81l0.682,1.038l0.228,0.55l0.286,1.718v0.259
		l-0.094,0.325l0.193,0.166l0.324,0.129l0.321,0.225l0.293,0.421l0.062,0.322l0.031,0.359l0.135,0.518l0.389,0.647l1.751,1.62
		l2.138,1.197l0.325,0.518l-0.325,0.716l-0.776,0.161h-0.845l-0.517,0.23l-0.682-0.392l-0.713,0.094l-0.584,0.456l-0.325,0.716
		l0.034,0.774l0.393,0.52l0.613,0.29l0.716,0.096v0.261l-0.322,0.713l0.357,0.619l0.713,0.418l0.682,0.161l-0.164,0.945l0.193,0.843
		l0.646,1.586l-0.582,1.038l0.257,1.911l0.164,0.549l0.132,0.132l-0.035,0.094l-0.324,0.456l-0.485,0.519L546,359.589l-0.064,0.485
		l0.032,0.779l-0.032,0.515l-0.128,0.422l-0.585,1.326l-1.361,0.584l-4.666,0.064l-0.871,0.29l-0.456,0.228l-0.359,0.356
		l-0.286,0.584l-0.359,1.134l-0.354,0.518l-2.042,2.203l-0.745,0.617l0,0l0,0l0,0l-1.395,1.072l-1.168,0.905l-5.896,6.386
		l-0.774,1.202l-0.945,0.743l-1.036,1.134l-2.788,4.114l-1.069,1.104l-0.132,0.322l-0.193,0.809l-0.128,0.293l-0.229,0.225
		l-0.452,0.164l-0.228,0.163l-0.264,0.292l-1.586,2.885l-0.418,0.455l-0.293,0.129l-0.552,0.129l-0.286,0.262l-0.196,0.354
		l-0.453,1.266l-1.945,2.626l-0.647,1.522l0.488,1.427l0.161,0.584l0.166,1.686l0.094,0.453l0.065,0.229l0.323,0.55l0.552,0.581
		l0.161,0.292l0.098,0.619l0.356,3.627l-0.098,0.584l-0.418,1.199l-0.359,1.396l-0.418,0.845l-0.131,0.484l0.163,0.195l0.129-0.099
		l0.356-0.418l0.392,0.289h-0.034l-0.095,0.032l0.842,0.585l0.741,1.003l0.491,0.358l1.167,0.648l0.323,0.386v0.327l-0.228,0.777
		l-0.034,0.516l0.099,0.358l0.421,0.714l0.097,0.192l-0.292,0.616l-0.515-0.225l-0.584-0.521l-0.454-0.225l-0.292-0.098l-0.485-0.68
		l-0.26-0.261l-0.292-0.032l-0.584,0.195l-0.938-0.066l-0.553,0.066l-0.549-0.066l-0.646-0.42l-0.973-1.07l-0.515-0.163
		l-0.553,0.518l-0.906-0.422l-2.01-0.096l-0.941-0.289l-1.293-1.331l-0.553-0.225l-1.429,0.065l-1.199-0.36l-0.034-0.321
		l-0.063-0.261l0.063-0.26v-0.259l-0.289-0.325l-0.229-0.034l-0.616,0.062h-0.263l-0.287-0.129l-0.848-0.553l-1.811-0.354
		l-0.745-0.517l-0.161-1.266l-0.324-1.395l-0.746-1.197l-0.94-0.874l-1.394-0.681l-0.94-0.877l-0.488-0.257l-0.515,0.094
		l-0.455,0.391l-0.357,0.421l-0.256,0.195l-0.396-0.327l-0.87-1.326l-0.421-0.453l-0.261-0.063l-0.391,0.096l-0.195-0.032
		l-0.259-0.166l-0.487-0.45l-0.257-0.195l-0.49-0.129l-1.847,0.19l-0.843,0.359l-0.394-0.129l-0.971,0.192h-0.42l-2.496-0.713
		l-1.459-0.777l-0.356-0.096l-0.452,0.321l-0.813,1.201l-0.451,0.423l-0.552,0.095l-0.392-0.261l-0.355-0.386l-0.453-0.327
		l-0.391-0.032l-1.038,0.193l-0.392,0.195l-0.515,0.581l0.325,0.357l0.615,0.356l0.324,0.584l-0.227,0.359l-0.486,0.097h-0.552
		l-0.392,0.094l-0.549,0.518l-0.846,1.232l-0.552,0.482l-0.613,0.232l-0.487-0.098l-0.422-0.29l-0.42-0.455l-0.488-0.357
		l-0.389-0.062l-0.453,0.032l-0.584-0.097l-0.42-0.289l-2.301-2.724l-0.391-0.064l-0.971,0.166l-0.553-0.098h-0.225l-0.261,0.163
		l-0.421,0.514l-0.289,0.293l-0.619,0.225l-0.582-0.129l-2.174-1.102l-0.389,0.097v0.681l-1.326,0.067l-1.069-0.395h-0.292
		l-0.26,0.196l-0.098,0.228l-0.061,0.354l-0.135,0.552l-0.19,0.553l-0.132,0.159l-1.977,0.193l-0.389,0.229l-0.553,0.681
		l-0.261,0.195l-0.581-0.064l-0.066-0.063l-0.162,0.193l-0.488,1.102l-0.163,0.452l-0.192,0.423l-0.324,0.387l-0.163,1.395
		l-0.259,0.97l-0.52,0.392l-0.842-0.421l-1.328-1.263l-0.714-0.359l-0.777,0.098l-0.456,0.358l-0.871,0.905l-0.586,0.193
		l-1.199-0.097l-0.648-0.225l-0.324-0.456l0.096-0.514l0.975-1.593l0.13-0.096l0.161-0.033l0.166-0.097l0.062-0.225l-0.032-0.163
		l-0.195-0.228l-0.031-0.098l-0.357-0.257l-0.096-0.132v-0.163l0.193-0.289l0.031-0.161l-0.16-1.915l-0.133-0.647l-0.225-0.745
		l-0.227-0.191l-0.875,0.354l-0.553,0.032l-0.549-0.062l-1.493-0.518l0.067-0.484l-0.033-0.617l0.033-0.196l0.129-0.259h-1.037
		l-0.55-0.13l-0.456-0.358l-0.128-0.289l-0.422-1.266l-0.487-2.008l-0.324-0.812l-0.613-0.387l-0.195-0.195l-0.422-0.777
		l-0.289-0.131l-0.164,0.063l-0.096,0.193l-2.236,2.463l-0.195,0.161l-0.354,0.132l-0.261,0.031h-0.777l-0.487,0.103l-0.422,0.19
		l-0.389,0.356l-0.355,0.584l-0.422,1.298l0.033,0.032l0.097,0.128l0.032,0.196l-0.063,0.26l-0.129,0.097h-0.324h-0.064
		l-0.192,0.777l-0.063,0.487l-0.196,0.322l-0.778,0.326l-0.646,0.13l-0.257-0.033l-0.264-0.128l-0.516-0.359l-0.227-0.097
		l-0.553,0.129l-1.004,0.584l-0.646,0.063l-0.518-0.096l-0.129-0.456l0.098-1.297l-0.064-0.582l-0.131-0.552l-0.032-0.585
		l0.228-0.646l-0.746-0.456l-2.56-0.225l0.097-0.646l-0.064-0.813l-0.357-1.683l-0.13-0.359l-0.292-0.678l-0.13-0.389l-0.159-1.362
		l-0.1-0.323l-0.389-0.293l-0.392,0.064l-0.388,0.192l-0.393,0.036l-0.324-0.197l-0.515-0.616l-0.325-0.288l-0.355-0.098
		l-0.78-0.062l-0.356-0.228l-0.161-0.293l-0.263-1.168l-0.613-1.263l-0.456-1.2v-1.072l0.714-0.811l-0.682-0.353l-0.096-0.521
		l0.063-0.617l-0.161-0.745l-0.391-0.225l-1.005,0.646h-0.584l-1.908-1.07l-1.005-0.358l-1.037,0.134h0.062l0.035,0.032l0.032,0.031
		l0.032,0.065l-0.713,0.616l-0.356,0.063l-0.517-0.423l-0.164-0.257l-0.164-0.617l-0.094-0.225l-0.292-0.23l-0.617-0.129
		l-0.356-0.064l-0.813-0.713l-0.388-0.225l-1.654-0.325l-0.324-0.389l0.164-0.745l-1.491-1.005l-0.78-0.196l0.134,0.912l0.129,0.062
		l0.192-0.062h0.226l0.195,0.289l0.032,0.387l-0.129,0.166l-0.844,0.259l-1.037,0.033l-0.453,0.131l-0.745,0.681l-0.941,0.289
		l-0.938-0.195l-1.686-1.654l-0.29-0.385l-0.195-0.488l-0.164-0.487l-0.164-0.453l-0.29-0.356l-0.228-0.231l-0.062-0.225
		l0.062-0.226l0.228-0.192v-0.037v-0.032v-0.033V375.5l-0.357-0.063l-0.713-0.356l-0.324-0.094l-0.29,0.062l-0.228,0.128
		l-0.26,0.036l-0.392-0.164l-1.262-1.59l-0.064-0.289l0.193-0.391l0.292-0.13l1.23-0.031l0.678-0.264l1.104-0.647l0.518-0.452
		l0.225-0.615l-0.389-0.745l-0.26-0.264l-0.064-0.385l0.064-0.393l0.29-0.745l0.064-0.128v-0.129v-0.1l-0.064-0.094l-0.488-0.647
		l-0.161-0.135l-0.421-0.161l-0.164,0.097l-0.064,0.295l-0.128,0.322l-0.78,1.066l-0.453,0.358l-0.584,0.161l-2.3-0.418l-1.23,0.129
		l-0.745,0.905l-0.131,0.098l-0.129,0.036l-0.131-0.036l-0.129-0.098l-0.228-0.741l-0.549-0.454l-0.584,0.032l-0.29,0.745
		l-0.359-0.262l-0.19-0.416L374,368.016l0.035-0.521l-0.131-0.096l-0.097-0.129l-0.097-0.128l-0.064-0.167l0.488-0.192l-0.553-0.226
		l-1.201,0.033l-0.616-0.161l-0.906-0.585l-0.26-0.263l-0.164-0.356l-0.164-0.518l-0.096-0.455l0.064-0.098l-0.292-0.096
		l-0.777,0.164h-0.356l-0.325-0.164l-0.616-0.515l-0.29-0.164l-2.659-0.748l-0.584,0.068l-1.102-0.682l-0.582-0.066l-0.713,0.423
		v0.553l0.842,1.227l0.292,0.745l0.193,0.848l0.26,0.777l0.485,0.483l0.617,0.358l0.491,0.517l0.257,0.716l0.033,0.972l0.356,0.455
		l0.035,0.515l-0.164,0.359l-0.324-0.129l-0.26-0.423l-0.128-0.226l-0.161-0.097h-0.356l-0.067,0.097v0.484l-0.064,0.164h-0.228
		l-0.485-0.164h-0.228l-0.287,0.228l-0.423,0.586l-0.258,0.225l-0.584,0.16l-0.517-0.032l-0.518,0.065l-0.584,0.486l-0.456,0.714
		l-0.29,0.552l-0.321,0.454l-0.585,0.42l-0.809,1.1l-1.037,0.066l-1.072-0.584l-0.874-0.809l-0.453-0.588l-0.228-0.519l-0.292-1.36
		l-0.287-0.743l-0.78-0.81l-0.321-0.584l-0.359-0.518l-0.646-1.197l-0.356-0.521l-0.584-0.391l-1.134-0.418l-0.453-0.618
		l-0.064-0.358l0.033-0.356l-0.033-0.389l-0.164-0.392l-0.228-0.062h-1.362l-0.287,0.094l-0.195,0.163l-0.196,0.035l-0.319-0.26
		l-0.134-0.228l-0.321-1.038l-0.844-0.163l-0.228-0.713l0.195-0.646l0.515,0.13l-0.032-0.13l-0.129-0.456h0.161l0.228-0.163
		l0.132-0.062l0.389-0.323l0.456-0.264l0.388-0.318l0.193-0.518l0.392-0.132l0.844,0.226l0.453-0.094l0.228-0.327l0.515-0.516
		l0.228-0.423l-0.062,0.032v-0.225l0.032-0.321l0.032-0.197l0.129-0.225l0.064-0.094v-0.134l-0.096-0.322l0.81-0.327l-0.225-0.777
		l-2.204-2.334l-0.78-0.453l-0.841-0.193l-0.941-0.034l-0.324,0.063l-0.193,0.422l-0.196,0.521l-0.321,0.385l-0.421,0.097
		l-0.391-0.192l-0.81-0.616l-1.099-0.098l-1.59,1.555l-1.101,0.193l-0.062-0.128v-0.129v-0.132l0.062-0.128l0.356-0.293l0.065-0.481
		l-0.129-0.553l-0.228-0.552l-0.324-0.649l-0.357-0.321l-0.421-0.064l-1.522,0.584h-0.712l-0.167-0.064l-1.294-2.206l-0.067-0.259
		l-0.062-0.291l-0.648-0.063l-2.139,0.518l-0.257-0.097l-0.196-0.191l-0.356-0.519l-0.29-0.193l-5.152-1.817l-1.072,0.096
		l-0.228,0.296l-0.26,0.418l-0.29,0.292l-0.356-0.131l-0.164-0.325l0.032-0.389l0.064-0.42v-0.389l-0.324-0.781l-0.392-0.32
		l-0.453-0.228l-0.515-0.422l-0.26-0.453l-0.292-0.681l-0.228-0.716l-0.062-0.582l0.193-0.745l0.225-0.418l0.035-0.391l-0.42-0.682
		l-0.681-0.321l-1.587,0.097l-0.228-0.619l-0.128-0.619l-0.293-0.161l-0.321,0.229l-0.225,0.548l0,0l-0.099,0.425l-0.292,0.063
		l-0.354-0.197l-0.324-0.291l-0.228-0.391l-1.297-0.289l-0.485-0.454l-0.065,0.325l-0.131,0.193l-0.389,0.263l-0.131,0.032
		l-0.164,0.063l-0.128,0.098l-0.128,0.128l0,0l0.128,0.456l0.42,0.321l0.389,0.585l0.033,1.168l-0.062,0.226l-0.26,0.29
		l-0.064,0.128l-0.032,0.23v0.16l0.032,0.129l0.032,1.427l-0.062,0.359l-2.949-0.226l-0.94,0.26l-0.549-0.034v-0.743l0.356-0.584
		l0.906-1.038l1.297-3.111l1.166-2.919l0.064-0.456v-0.777l0.035-0.386l0.128-0.295l0.193-0.189l0.164-0.261l0.035-0.518
		l0.033-1.037l0.195-1.134l0.356-1.102l0.453-0.874l-0.096-0.097l-0.1-0.129l0.131-1.2l-0.356-0.811l-0.584-0.68l-0.485-0.845
		l-0.064-0.291l-0.099-0.746v-0.033l-0.26-2.852l0.228-0.518l-0.26-0.581l-0.485-0.487l-0.391-0.324l-0.584-0.293l-1.201-0.353
		l-0.584-0.327l0,0l-0.546-0.389l-1.686-0.582l-0.584-0.617l-0.128-0.713l0.227-0.81l0.516-0.777l0.292-0.847l-0.035-1.1
		l-0.26-1.039l-0.324-0.713l-1.263-1.038l-0.584-0.681l-0.26-1.069l-0.097-1.102l-0.356-0.488l-0.453-0.321l-0.424-0.646
		l-0.062-0.873l0.322-0.714l1.49-1.495l0.49-0.643l0.388-0.745l0.229-0.813l0.096-2.56l0.129-0.392l0.552-1.002l0.097-0.395
		l0.033-0.385l0.064-0.363l0.193-0.353l0.488-0.586l-1.686-1.264l-0.257-0.585l0.16-1.099l0.29-0.774l0.097-0.586l-0.389-0.586
		v-0.257l0.488-0.682v-0.844l-0.391-0.742l-0.713-0.327l-0.745-0.161l-0.874-0.456l-0.584-0.648l0.166-0.774l-0.552-1.231
		l-0.619-1.846l-0.161-1.686l1.33-1.167l0.614-1.005l0.424-1.002l-0.132-0.456l-0.487-0.45l0.193-0.977l0.712-1.522l-0.809-0.647
		l-1.523-1.813l-1.557-0.616l-0.743-1.009l-0.485-0.225l-0.262-0.257l-0.872-1.754l-0.392-0.455l-2.723-2.006l-0.713-0.391
		l-0.842-1.002l-0.52-0.228l-0.585-0.036l-0.549-0.163l-0.453-0.354l-0.29-0.585l0.681-0.648l0.257-0.518l0.131-0.809l-0.062-0.553
		l-0.324-1.49l-0.167-0.421v-0.261l1.265-0.938l1.555-0.81l1.524-1.204l0.778-0.809l0.356-0.777l0.065-0.359l0.777-2.431
		l-0.064-0.617l-0.164-0.616l-0.096-0.681l0.062-0.584l0.195-0.516l0.26-0.39l0.26-0.16l0.193-0.292l0.681-1.327l-0.357-0.327
		l-0.096-0.225l-0.389-0.327l-0.166-0.257l-0.062-0.424v-0.774l-0.033-0.353l-0.716-3.342l-0.259-2.233l-0.552-0.909l-0.257-0.909
		l-0.617-0.973l-0.196-0.904l-0.032-0.975l0.064-1.585l-0.032-0.423l-0.552-1.684l-0.389-0.841l0.093-0.682l-0.032-1.204l0.26-0.032
		l0.453-0.193l0.359-0.325l0.032-0.356l-0.453-0.324l0.26-0.163l0.097-0.129l-0.097-0.164l-0.26-0.161l0.129-0.327l0.26,0.229
		l0.356,0.195l0.325,0.225l0.292,0.841l0.357,0.295l0.713,0.322l0.517,0.552l0.29,0.225l1.134,0.193l1.394,0.488l0.485,0.359
		l0.395,0.578l0.841,1.625l0.292,0.386l0.128-0.128l0.032-0.681l0.132-0.386l0.225-0.262l0.356-0.29v-0.161v-0.166l0.035-0.262
		l-0.258-0.063l-0.681-0.062l-0.292-0.164l-0.81-1.945l0.161-0.973l0.648-1.879l0.292,0.259l0.258-0.064l0.289-0.161h0.392
		l-0.193-1.102l0.097-0.877l0.164-0.777l0.097-0.81h-0.164l-0.065,0.521l-0.19,0.353l-0.619,0.617l0.164,0.292l-0.226-0.099
		l-0.195-0.129l-0.128-0.161l-0.132-0.23l0.132-0.129l0.225-0.321l0.164-0.164l-0.356-0.743l-0.617-0.359l-2.852-0.291l-0.392-0.455
		l0.325-0.843l-0.097-0.096l0,0v-0.032l-0.064-0.166l-0.26,0.418l-0.192,0.064l-0.226-0.129l-0.292-0.064l-0.228,0.096l-0.161,0.231
		l-0.166,0.289l-0.228,0.29l0.78,0.164l0.42,0.196l0.228,0.287l-0.131,0.518l-0.263,0.389l-0.322,0.131l-0.225-0.164l-0.716,0.455
		l-0.357,0.129l-0.356,0.032v0.292l0.356,0.13l-0.032,0.095l-0.324,0.064l-0.26-0.032l-0.391-0.193l-0.29-0.032l-0.421-0.295
		l-1.233-1.777l-0.613-0.292h-0.065l-0.228-0.681l-0.452-0.552l0.26-0.062l0.228-0.164l0.453-1.168l0.418,0.195l0.292,0.225
		l0.78,0.292l2.56,0.193l1.038-0.193l1.005-0.549l1.847-1.361l6.806-3.048l5.897-1.555l7.162-3.013l4.632-1.233l5.09-1.393
		l4.988-2.268l4.152-0.518l2.852-0.973l-0.324,0.327l-1.263,0.584l0.55,0.389l2.268-0.389v-0.293h-0.164v-0.324h1.233v-0.228
		l-0.035-0.032h-0.064l-0.064-0.062l0.035-0.715l-0.582-0.032l-1.396,0.453l0.874-0.453l1.07-0.681l1.589-1.879l-0.324,0.643
		l-0.584,0.616l-0.228,0.327l0.228-0.096l0.488-0.097l0.391-0.166l0.356-0.418l0.906-0.423l0.325-0.386l-0.325-0.649h-0.515
		l-0.228,0.261l-0.392,0.389l1.102-1.879l2.981-3.86v0.293l-0.164,0.418l0.263,0.099l0.418-0.164l0.325-0.353l0.164-0.617
		l-0.164-0.164l-0.357,0.164l-0.388,0.354l0.515-1.07l0.909-0.909l1.782-1.098l5.38-0.777l2.106-0.842l1.102-0.198l0.97-0.354
		l2.464-2.724l7.778-3.661l9.754-1.85l4.375-1.49l6.908-0.649h4.246l0.585,0.231l0.938,0.809l0.356,0.193l0.552,0.129l8.815,5.285
		l1.619,2.106l0.264,0.483l0.26,0.682l0.031,0.618l-0.455,0.228l-0.129-0.166l-0.129-0.321l-0.162-0.322l-0.453-0.325l-0.325-0.843
		l-0.421-0.55l-1.233-2.078l-0.257-0.128l-0.908-0.193l-0.229-0.097l-0.256-0.418l-0.714-0.262l-1.558-1.038l-1.521-0.743
		l-0.228-0.359l-0.844-0.648l-0.228-0.095l-0.319,0.129l-0.166,0.228l-0.356,1.266l-0.032,0.29v0.646l0.128,0.164l0.617,0.292
		l0.129,0.164l0.324,0.552l0.357,0.841v0.322l-0.097,0.291v0.287l0.292,0.327l-0.164,0.875l0.29,0.354l0.488-0.097l0.421-0.546
		l-0.164,0.741l0.193,0.582l0.324,0.488l0.649,2.011l0.191,0.418l-0.095,1.008l0.032,1.748l0.161,1.654l0.361,0.748l0.389,0.128
		l0.777,0.585l0.39,0.128l0.355,0.032l0.422,0.129l0.356,0.263l0.166,0.389l0.418,0.618l4.342,1.395l0.973,0.064l0.811-0.455
		l0.228,0.225l0.289,0.166l0.716,0.225l9.688-1.458l2.139-1.038l1.006-0.228l0.809-0.354l1.59-1.657L432.646,191.933" />
	</g>
</svg>