<?xml version="1.0" encoding="utf-8"?>
<!-- Svg Vector Icons : http://www.onlinewebfonts.com/icon -->
<!DOCTYPE svg PUBLIC "-//W3C//DTD SVG 1.1//EN" "http://www.w3.org/Graphics/SVG/1.1/DTD/svg11.dtd">
<svg version="1.1" xmlns="http://www.w3.org/2000/svg" xmlns:xlink="http://www.w3.org/1999/xlink" x="0px" y="0px" viewBox="0 0 1000 1000" enable-background="new 0 0 1000 1000" xml:space="preserve">
<metadata> Svg Vector Icons : http://www.onlinewebfonts.com/icon </metadata>
<g><path d="M623.6,25.7c-31.9-8.4-64.5-13.4-97.5-15c-1.8-0.1-3.5-0.5-5.3-0.7c-13.9,0-27.8,0-41.7,0c-9.6,0.9-19.2,1.6-28.8,2.6c-73.5,7.4-142,29.9-204.8,68.8c-111.7,69.3-185,167.6-219.6,294.5c-8.7,32-13.5,64.7-15.2,97.9c-0.1,2.1-0.5,4.2-0.8,6.2c0,13.3,0,26.6,0,39.9c0.8,9.8,1.6,19.5,2.5,29.3c7.6,76.6,31.8,147.7,73.3,212.5C150.3,862.1,239.5,931,353.3,967.4c60.4,19.3,122.5,26.3,185.7,20.8c136.3-12,248.9-70.5,337.2-174.7c56.6-66.8,91.7-144,106.6-230.4C1026,332.3,870,90.2,623.6,25.7z M499,935.4c-239.6,0-434.6-195.5-434.5-435.7C64.5,258.9,259.8,64.3,501.2,64.4c239.5,0.2,434.3,195.5,434.3,435.5C935.5,740.8,740.4,935.4,499,935.4z"/><path d="M710.7,326.7c-12.5-12.5-25.1-25.1-38.4-38.4c-57.5,57.5-115,115-172.8,172.8c-57.5-57.5-115-115-172.2-172.2c-12.9,13-25.5,25.7-38.8,39c57.2,57.2,114.8,114.8,173,173C404,558.4,346.5,616,289.7,672.7c12.5,12.6,25.2,25.3,38.3,38.5c57.1-57.1,114.6-114.6,172.4-172.4c57.5,57.5,115,115,172.1,172.1c13-12.9,25.7-25.5,39.1-38.7c-57.4-57.4-115-115-173.3-173.2C595.9,441.4,653.5,383.9,710.7,326.7z"/></g>
</svg>