<svg xmlns="http://www.w3.org/2000/svg" height="498.56" width="420.24" version="1.0">
  <path stroke-linejoin="round" d="M362.42 59.888c-.1.015-.2.076-.28.125-.2.132-.35.369-.35.624 0 0 .57 207.73.57 214.28 0 75.57 66.35 136.88 148.1 136.88 75.95 0 138.58-52.92 147.09-121.03l.48-230.13c0-.411-.32-.752-.73-.752H362.55c-.04 0-.09-.005-.13 0z" stroke="#000" stroke-linecap="round" stroke-width="2.519" fill="#ff0018" style="fill:#e10000;fill-opacity:1" transform="translate(-507.135 -82.46) scale(1.4066)"/>
  <path stroke-linejoin="round" d="M185.54517 191.489416c5.527938 5.921786 10.943348 12.012364 11.829506 24.137256v26.894192h-26.992654c-10.40884.365716-17.568434-5.120024-24.05286-11.829506v47.26176c7.089264-9.536748 15.388204-11.731044 24.05286-11.829506h26.992654v26.950456c.35165 10.40884-5.13409 17.596566-11.829506 24.080992h47.247694c-9.522682-7.075198-11.716978-15.430402-11.81544-24.080992v-26.950456h26.58474c9.958728.309452 17.638764 5.218486 24.446708 11.829506v-47.26176c-5.921786 5.542004-12.012364 10.957414-24.137256 11.829506h-26.894192v-26.598806c.309452-9.958728 5.20442-17.624698 11.81544-24.432642H185.54517zm0 137.818668c5.527938 5.921786 10.943348 12.012364 11.829506 24.12319v26.908258h-26.992654c-10.40884.35165-17.568434-5.120024-24.05286-11.829506v47.26176c7.089264-9.536748 15.388204-11.731044 24.05286-11.829506h26.992654v26.950456c.35165 10.394774-5.13409 17.596566-11.829506 24.080992h47.247694c-9.522682-7.089264-11.716978-15.430402-11.81544-24.080992V403.94228h26.58474c9.958728.309452 17.638764 5.20442 24.446708 11.829506v-47.26176c-5.921786 5.542004-12.012364 10.943348-24.137256 11.829506h-26.894192v-26.598806c.309452-9.958728 5.20442-17.624698 11.81544-24.432642H185.54517z" stroke="#323232" stroke-linecap="round" stroke-width="1.06296762" fill="#fff"/>
  <g transform="translate(-528.3929458 704.856218) scale(1.4066)">
    <path d="M603.12-447.11c-4.44 1.07-10.05.01-12.15-3.27.76-1.32 2.74-1.62 4.17-2.05-3.08-.31-6.66-1.64-6.47-4.18.71-3.78 3.38-3.59 6.48-2.98-.68-1.59-.86-2.51-.18-4.11 3.89-.71 6.95-.29 9.95 1.21-1.05-5.78-.88-10.49 2.41-14.08 2.27.54 4.1 1.46 4.41 3.51-.4-3.09 1.16-5.88 2.77-7.85 1.51 1.46 2.66 3.03 2.82 4.94l-3.23 8.1M437.59-447.91l1.99.43c4.44 1.07 9.58.38 11.68-2.9-.76-1.32-3.05-1.76-4.48-2.18 3.08-.32 6.98-1.51 6.78-4.05-.7-3.78-3.56-3.91-6.48-2.98.68-1.59.77-2.93.09-4.52-3.89-.71-6.99-.26-9.99 1.24 1.06-5.77.83-10.61-2.47-14.2-2.26.53-4.22 1.8-4.52 3.85.39-3.09-.86-5.72-2.47-7.69-1.51 1.46-2.66 3.03-2.81 4.94l3.28 9.38" stroke="#000" stroke-width="1.333" fill="none"/>
    <path d="m424.54-475.69 3.06 8.33 10.61 20.05c4.01.59 8.36 1.52 12.45-2.81-.13-1.54-2.07-1.78-4.09-2.48 3.55-.19 6.8-1.46 6.65-4.18-.55-2.8-3.17-3.33-6.74-2.47.67-1.53.83-3.15.18-4.43-5.74-.56-8.31.08-9.98 1.79 1.22-6.43.68-11.77-2.22-14.42-2.31-.12-3.29 1.51-4.27 3.16.42-3.08-.85-5.16-2.47-7.34-1.46 1.03-3.06 2.66-3.18 4.8z" fill-rule="evenodd" fill="#ffe402"/>
    <path d="M617.01-475.618c-.15-1.91-1.3-3.49-2.81-4.95-1.61 1.97-3.13 4.16-2.73 7.25-.31-2.05-2-2.87-4.27-3.41-3.29 3.59-3.69 8.21-2.64 13.99-3-1.51-5.93-1.74-9.81-1.03-.68 1.6-.59 2.93.09 4.52-2.92-.93-5.78-.8-6.48 2.99-.2 2.53 2.46 3.86 5.54 4.18-1.43.42-2.48.73-3.24 2.04 2.1 3.29 7.24 3.97 11.68 2.9" stroke="#000" stroke-width=".71092" fill="none"/>
    <path d="m617.38-475.338-3.06 8.33-10.61 20.05c-4.01.59-8.36 1.51-12.45-2.82.13-1.54 2.07-1.77 4.09-2.47-3.55-.2-6.8-1.46-6.65-4.18.55-2.81 3.17-3.33 6.73-2.48-.66-1.53-.82-3.15-.17-4.43 5.74-.56 8.31.09 9.98 1.79-1.22-6.43-.68-11.77 2.22-14.41 2.31-.13 3.29 1.5 4.26 3.15-.41-3.08.86-5.15 2.48-7.33 1.45 1.03 3.06 2.65 3.18 4.8z" fill-rule="evenodd" fill="#ffe402"/>
    <path d="M520.77-448.68c-6.65 2.03-13.3 2.15-17.88 2.19-.38-2.01.84-4.01 2.2-6.02-3.82-.19-6.03-.06-6.73-3.06.55-2.47 2.17-3.58 6.4-3.61-1.5-1.44-2.4-3.12-2.43-5.14 3.94-.83 7.88-.01 11.82.88-1.95-5.22-1.31-10.43-1.33-15.64 2.3-1.21 3.37.83 4.86 1.75-.01-5.49 1.27-8.03 3.48-8.86 2.21.83 3.5 3.37 3.48 8.86 1.49-.92 2.56-2.96 4.86-1.75-.02 5.21.62 10.42-1.33 15.64 3.94-.89 7.88-1.71 11.82-.88-.03 2.02-.93 3.7-2.43 5.14 4.23.03 5.85 1.14 6.4 3.61-.7 3-2.91 2.87-6.73 3.06 1.36 2.01 2.59 4.01 2.21 6.02-4.59-.04-12.01-.05-18.67-2.19z" stroke="#000" stroke-width="1.333" fill="none"/>
    <path d="M520.84-448.86c-6.37 1.96-12.72 2.08-17.11 2.12-.37-1.94.8-3.88 2.11-5.82-3.66-.19-5.77-.05-6.45-2.96.53-2.38 2.09-3.45 6.13-3.48-1.44-1.39-2.29-3.01-2.32-4.97 3.77-.8 7.53-.01 11.3.85-1.86-5.04-1.25-10.08-1.26-15.11 2.19-1.17 3.22.8 4.65 1.69-.02-5.31 1.21-7.76 3.32-8.56 2.12.8 3.35 3.25 3.33 8.56 1.43-.89 2.45-2.86 4.65-1.69-.01 5.03.6 10.07-1.27 15.11 3.77-.86 7.54-1.65 11.31-.85-.03 1.96-.89 3.58-2.32 4.97 4.04.03 5.59 1.1 6.12 3.48-.67 2.91-2.78 2.77-6.44 2.96 1.31 1.94 2.48 3.88 2.11 5.82-4.39-.04-11.49-.05-17.86-2.12z" fill-rule="evenodd" fill="#ffe301"/>
    <path d="M520.77-448.68c-6.65 2.03-13.3 2.15-17.88 2.19-.38-2.01.84-4.01 2.2-6.02-3.82-.19-6.03-.06-6.73-3.06.55-2.47 2.17-3.58 6.4-3.61-1.5-1.44-2.4-3.12-2.43-5.14 3.94-.83 7.88-.01 11.82.88-1.95-5.22-1.31-10.43-1.33-15.64 2.3-1.21 3.37.83 4.86 1.75-.01-5.49 1.27-8.03 3.48-8.86 2.21.83 3.5 3.37 3.48 8.86 1.49-.92 2.56-2.96 4.86-1.75-.02 5.21.62 10.42-1.33 15.64 3.94-.89 7.88-1.71 11.82-.88-.03 2.02-.93 3.7-2.43 5.14 4.23.03 5.85 1.14 6.4 3.61-.7 3-2.91 2.87-6.73 3.06 1.36 2.01 2.59 4.01 2.21 6.02-4.59-.04-12.01-.05-18.67-2.19z" stroke="#000" stroke-width="1.3997" fill="none" transform="matrix(.94874 0 0 .95598 -20.807 -10.965)"/>
    <path d="M473.3347416-440.0661828c-6.0434738 1.8737208-12.0679728 1.9884384-16.2329414 2.0266776-.3510338-1.8546012.758992-3.7092024 2.0018414-5.5638036-3.4723884-.1816362-5.4742298-.047799-6.119373-2.8297008.5028322-2.2752324 1.9828666-3.298131 5.8157762-3.3268104-1.3661856-1.3288122-2.1726146-2.8774998-2.2010768-4.7512206 3.5767498-.764784 7.1440122-.0095598 10.720762.812583-1.7646564-4.8181392-1.185925-9.6362784-1.1954124-14.4448578 2.0777406-1.1184966 3.0549428.764784 4.411641 1.6156062-.0189748-5.0762538 1.1479754-7.4184048 3.1498168-8.1831888 2.0113288.764784 3.178279 3.106935 3.1593042 8.1831888 1.3566982-.8508222 2.324413-2.7341028 4.411641-1.6156062-.0094874 4.8085794.569244 9.6267186-1.2048998 14.4448578 3.5767498-.8221428 7.1534996-1.577367 10.7302494-.812583-.0284622 1.8737208-.8443786 3.4224084-2.2010768 4.7512206 3.8329096.0286794 5.3034566 1.051578 5.8062888 3.3268104-.6356558 2.7819018-2.6374972 2.6480646-6.1098856 2.8297008 1.2428494 1.8546012 2.3528752 3.7092024 2.0018414 5.5638036-4.1649686-.0382392-10.9010226-.047799-16.9444964-2.0266776z" fill-rule="evenodd" fill="#ffe301"/>
    <path d="M520.77-448.68c-6.65 2.03-13.3 2.15-17.88 2.19-.38-2.01.84-4.01 2.2-6.02-3.82-.19-6.03-.06-6.73-3.06.55-2.47 2.17-3.58 6.4-3.61-1.5-1.44-2.4-3.12-2.43-5.14 3.94-.83 7.88-.01 11.82.88-1.95-5.22-1.31-10.43-1.33-15.64 2.3-1.21 3.37.83 4.86 1.75-.01-5.49 1.27-8.03 3.48-8.86 2.21.83 3.5 3.37 3.48 8.86 1.49-.92 2.56-2.96 4.86-1.75-.02 5.21.62 10.42-1.33 15.64 3.94-.89 7.88-1.71 11.82-.88-.03 2.02-.93 3.7-2.43 5.14 4.23.03 5.85 1.14 6.4 3.61-.7 3-2.91 2.87-6.73 3.06 1.36 2.01 2.59 4.01 2.21 6.02-4.59-.04-12.01-.05-18.67-2.19z" stroke="#000" stroke-width="1.3997" fill="none" transform="matrix(.94874 0 0 .95598 73.34 -10.965)"/>
    <path d="M567.4817416-440.0661828c-6.0434738 1.8737208-12.0679728 1.9884384-16.2329414 2.0266776-.3510338-1.8546012.758992-3.7092024 2.0018414-5.5638036-3.4723884-.1816362-5.4742298-.047799-6.119373-2.8297008.5028322-2.2752324 1.9828666-3.298131 5.8157762-3.3268104-1.3661856-1.3288122-2.1726146-2.8774998-2.2010768-4.7512206 3.5767498-.764784 7.1440122-.0095598 10.720762.812583-1.7646564-4.8181392-1.185925-9.6362784-1.1954124-14.4448578 2.0777406-1.1184966 3.0549428.764784 4.411641 1.6156062-.0189748-5.0762538 1.1479754-7.4184048 3.1498168-8.1831888 2.0113288.764784 3.178279 3.106935 3.1593042 8.1831888 1.3566982-.8508222 2.324413-2.7341028 4.411641-1.6156062-.0094874 4.8085794.569244 9.6267186-1.2048998 14.4448578 3.5767498-.8221428 7.1534996-1.577367 10.7302494-.812583-.0284622 1.8737208-.8443786 3.4224084-2.2010768 4.7512206 3.8329096.0286794 5.3034566 1.051578 5.8062888 3.3268104-.6356558 2.7819018-2.6374972 2.6480646-6.1098856 2.8297008 1.2428494 1.8546012 2.3528752 3.7092024 2.0018414 5.5638036-4.1649686-.0382392-10.9010226-.047799-16.9444964-2.0266776z" fill-rule="evenodd" fill="#ffe301"/>
    <path d="M520.42-470.68c-1.04 2.68-.68 14.04-9.87 14.84 2.62 1.58 4.95 3.06 6.36 4.24.92 2.88 1.17 5.65-.36 8.12-9.54 16.8-30.57 14.17-39.57 3.89 1.46-2.69 4.13-4.52 6.82-6.81-5.6-2.11-7.9-9.09-9.55-13.68-1.64 4.8-2.99 11.1-9.64 13.42 2.66 2.11 5.31 4.21 6.36 6.71-4.88 4.53-11.7 11.26-19.08 10.6-11.04-.05-19.24-18.2-8.83-26.14-9.45-1.5-11.41-7.81-15.54-12.72l22.96 78.44c23.41-4.02 47.21-6.03 70.48-5.95 23.27-.08 47.08 1.93 70.48 5.95l22.97-78.44c-4.14 4.91-6.1 11.22-15.55 12.72 10.41 7.94 2.21 26.09-8.83 26.14-7.38.66-14.2-6.07-19.08-10.6 1.05-2.5 3.71-4.6 6.36-6.71-6.64-2.32-8-8.62-9.63-13.42-1.66 4.59-3.95 11.57-9.56 13.68 2.69 2.29 5.36 4.12 6.82 6.81-8.99 10.28-30.02 12.91-39.57-3.89-1.52-2.47-1.28-5.24-.35-8.12 1.4-1.18 3.73-2.66 6.36-4.24-9.2-.8-8.83-12.16-10.96-14.84z" fill-rule="evenodd" stroke="#000" stroke-width="1.0076" fill="#ffe200"/>
    <rect ry="6.0732" stroke-linejoin="round" rx="5.946" transform="matrix(.99645 -.08424 .12769 .99181 0 0)" height="12.146" width="25.568" stroke="#000" stroke-linecap="round" y="-372.44" x="517.71" stroke-width="1.2601" fill="none"/>
    <rect stroke-linejoin="round" transform="matrix(-.99645 -.08424 -.12769 .99181 0 0)" rx="5.946" ry="6.0732" height="12.146" width="25.568" stroke="#000" stroke-linecap="round" y="-460.44" x="-518.44" stroke-width="1.2601" fill="none"/>
    <path d="M507.66-409.86c-.08 0-.16 0 0 0z" stroke="#000" stroke-width=".71092" fill="none"/>
    <path d="m507.91-409.61 12.99-7.74 13 7.74-13.5 7.25-12.49-7.25zM444.95-411.11l12.5 6-7.75 9.24M596.85-411.11l-12.49 6 7.75 9.24" stroke="#000" stroke-width="1.2595" fill="none"/>
    <path d="M589.86-390.12c-46.79 14.88-95.69 13.55-139.41.25 45.06-7.45 92.44-7.66 139.41-.25z" fill-rule="evenodd" stroke="#000" stroke-width="1.2595" fill="#ffe200"/>
    <path d="M449.42-394.72c48.26-7.28 95.66-7.79 142.04 0M443.77-415.21c51.94-7.6 103.4-7.48 154.4 0" stroke="#000" stroke-width="1.0076" fill="none"/>
    <path d="M442.35-419.81c52.06-8.07 104.82-7.46 157.23-.35" stroke="#000" stroke-width="1.0076" fill="none"/>
    <path d="M436.95-457.49c-3.23 4.77-5.29 29.76 14.44 33.19 9.24.52 16.76-4.28 21.82-11.68 5.05 5.2 11.22 9.89 22.13 9.53 12.26-.36 21.11-5.8 25.2-15.37 4.08 9.57 12.93 15.01 25.19 15.37 10.91.36 17.08-4.33 22.13-9.53 5.06 7.4 12.58 12.2 21.82 11.68 21.25-4.03 17.67-26.61 14.44-33.19" stroke="#000" stroke-width="1.0076" fill="none"/>
  </g>
  <path stroke-linejoin="round" d="M525.77-455.42a3.803 4.5161 0 1 1 0-.04" transform="matrix(1.62926 0 0 1.34282 -645.8989032 675.472344)" stroke="#000" stroke-linecap="round" stroke-width=".71864" fill="none"/>
  <path stroke-linejoin="round" d="M525.77-455.42a3.803 4.5161 0 1 1 0-.04" transform="matrix(1.62926 0 0 1.34282 -580.369629 688.244272)" stroke="#000" stroke-linecap="round" stroke-width=".71864" fill="none"/>
  <path stroke-linejoin="round" d="M525.77-455.42a3.803 4.5161 0 1 1 0-.04" transform="matrix(1.62926 0 0 1.34282 -711.8557838 688.244272)" stroke="#000" stroke-linecap="round" stroke-width=".71864" fill="none"/>
</svg>