<?xml version="1.0" encoding="UTF-8" standalone="no"?>
<svg xmlns:dc="http://purl.org/dc/elements/1.1/" xmlns:cc="http://web.resource.org/cc/" xmlns:rdf="http://www.w3.org/1999/02/22-rdf-syntax-ns#" xmlns:svg="http://www.w3.org/2000/svg" xmlns="http://www.w3.org/2000/svg" xmlns:sodipodi="http://sodipodi.sourceforge.net/DTD/sodipodi-0.dtd" xmlns:inkscape="http://www.inkscape.org/namespaces/inkscape" width="478.074" height="611.344" id="svg2" sodipodi:version="0.32" inkscape:version="0.45.1" sodipodi:docname="POL_Łódź_COA.svg" inkscape:output_extension="org.inkscape.output.svg.inkscape" sodipodi:docbase="C:\Users\Mistrz\Desktop">
  <metadata id="metadata73">
    <rdf:RDF>
      <cc:Work rdf:about="">
        <dc:format>image/svg+xml</dc:format>
        <dc:type rdf:resource="http://purl.org/dc/dcmitype/StillImage"/>
      </cc:Work>
    </rdf:RDF>
  </metadata>
  <sodipodi:namedview inkscape:window-height="480" inkscape:window-width="640" inkscape:pageshadow="2" inkscape:pageopacity="0.0" guidetolerance="10.0" gridtolerance="10.0" objecttolerance="10.0" borderopacity="1.0" bordercolor="#666666" pagecolor="#ffffff" id="base"/>
  <defs id="defs4">
    <marker id="ArrowEnd" viewBox="0 0 10 10" refX="0" refY="5" markerUnits="strokeWidth" markerWidth="4" markerHeight="3" orient="auto">
      <path d="M 0 0 L 10 5 L 0 10 z" id="path7"/>
    </marker>
    <marker id="ArrowStart" viewBox="0 0 10 10" refX="10" refY="5" markerUnits="strokeWidth" markerWidth="4" markerHeight="3" orient="auto">
      <path d="M 10 0 L 0 5 L 10 10 z" id="path10"/>
    </marker>
  </defs>
  <g id="g12">
    <path style="stroke:none;fill-rule:evenodd;fill:#e42312;fill-opacity:1" d="M 0 0.00402832L 478.074 0.00402832L 478.074 521.726C 477.836 556.027 456.074 574.648 408.339 574.344L 307.808 574.535C 271.711 574.722 248.546 586.609 239.597 611.344C 227.89 586.805 204.644 574.535 169.859 574.535L 70.0434 574.621C 28.7656 574.59 0.3008 561.984 0.0155983 521.722L 0.0155983 0" id="path14"/>
    <path style="stroke:none;fill-rule:evenodd;fill:#bd9f56;fill-opacity:1" d="M 206.398 292.047C 197.003 292.047 189.339 284.387 189.339 274.988C 189.339 272.48 189.886 270.094 190.867 267.945L 105.078 268.297L 40.9922 130.238L 29.3672 107.859L 22.1016 111.019L 33.2422 137.535L 34.6953 142.64L 98.9884 279.5L 180.253 278.539C 181.996 291.394 193.066 301.359 206.39 301.359C 219.925 301.359 231.14 291.074 232.605 277.918L 357.566 276.441L 449.617 136.801L 456.632 125.816L 449.976 120.707L 432.105 144.816L 350.972 267.277L 221.863 267.808C 222.879 269.988 223.449 272.422 223.449 274.98C 223.449 284.375 215.789 292.039 206.39 292.039" id="path16"/>
    <path style="stroke:none;fill-rule:evenodd;fill:#8a743c;fill-opacity:1" d="M 432.117 144.816L 350.984 267.277L 221.875 267.808C 222.89 269.988 223.461 272.422 223.461 274.98C 223.461 284.375 215.8 292.039 206.402 292.039C 197.007 292.039 189.343 284.379 189.343 274.98C 189.343 272.472 189.89 270.086 190.871 267.937L 105.082 268.289L 40.9961 130.23L 103.121 246.031L 357.308 246.031L 432.121 144.812" id="path18"/>
    <path style="stroke:none;fill-rule:evenodd;fill:#6e5c31;fill-opacity:1" d="M 180.257 278.547C 182 291.402 193.07 301.367 206.394 301.367C 219.929 301.367 231.144 291.082 232.609 277.926L 357.57 276.449L 449.621 136.808C 440 156.277 431.543 195.074 423.218 236.058C 412.367 297.195 382.722 334.66 338.925 354.281C 321.164 362.754 300.734 365.43 279.097 365.469L 157.015 365.469C 93.6294 366.222 61.5004 325.875 52.3754 255.273L 34.6953 142.644L 98.9884 279.504L 180.253 278.543" id="path20"/>
    <path style="stroke:none;fill-rule:evenodd;fill:#705f2f;fill-opacity:1" d="M 180.129 278.781C 181.871 291.586 192.996 301.512 206.289 301.512C 220.183 301.512 231.371 291.269 232.836 278.164C 274.503 277.676 316.175 277.187 357.847 276.695C 387.961 230.941 418.078 185.191 448.191 139.437C 438.886 158.625 430.691 196.226 422.625 235.906C 411.796 296.797 382.222 334.105 338.523 353.652C 320.8 362.09 300.421 364.754 278.832 364.797C 238.23 364.797 197.629 364.797 157.027 364.797C 93.7854 365.547 61.7304 325.363 52.6254 255.047C 46.8364 218.199 41.043 181.351 35.25 144.5C 56.3984 189.578 77.5504 234.66 98.6994 279.738C 125.843 279.422 152.988 279.101 180.132 278.785" id="path22"/>
    <path style="stroke:none;fill-rule:evenodd;fill:#736130;fill-opacity:1" d="M 180.003 279.015C 181.742 291.769 192.925 301.652 206.187 301.652C 220.441 301.652 231.605 291.453 233.062 278.398C 274.75 277.914 316.441 277.426 358.129 276.933C 387.675 231.976 417.218 187.019 446.765 142.062C 437.777 160.972 429.843 197.375 422.031 235.754C 411.226 296.394 381.718 333.554 338.121 353.019C 320.437 361.422 300.105 364.078 278.562 364.117C 238.054 364.117 197.543 364.117 157.035 364.117C 93.9374 364.863 61.9534 324.844 52.8674 254.812C 47.1794 218.66 41.4884 182.504 35.7969 146.347C 56.6644 190.887 77.5314 235.426 98.3984 279.965C 125.597 279.648 152.8 279.332 180 279.015" id="path24"/>
    <path style="stroke:none;fill-rule:evenodd;fill:#756331;fill-opacity:1" d="M 179.879 279.254C 181.613 291.953 192.855 301.801 206.089 301.801C 220.703 301.801 231.839 291.64 233.296 278.644C 275 278.16 316.707 277.672 358.414 277.187C 387.39 233.027 416.367 188.863 445.347 144.699C 436.675 163.332 429.003 198.535 421.445 235.609C 410.664 296.004 381.222 333.012 337.722 352.398C 320.082 360.765 299.793 363.41 278.3 363.449C 237.882 363.449 197.464 363.449 157.046 363.449C 94.0934 364.191 62.1834 324.336 53.1174 254.59C 47.5314 219.129 41.9414 183.668 36.3555 148.207C 56.9414 192.203 77.5274 236.203 98.1134 280.203C 125.371 279.887 152.625 279.57 179.882 279.258" id="path26"/>
    <path style="stroke:none;fill-rule:evenodd;fill:#786532;fill-opacity:1" d="M 179.753 279.488C 181.484 292.137 192.785 301.941 205.988 301.941C 220.961 301.941 232.07 291.824 233.523 278.879C 275.246 278.398 316.968 277.91 358.695 277.43C 387.101 234.062 415.511 190.695 443.921 147.328C 435.566 165.683 428.156 199.687 420.851 235.461C 410.097 295.609 380.722 332.465 337.32 351.769C 319.718 360.105 299.476 362.738 278.035 362.777C 237.711 362.777 197.386 362.777 157.058 362.777C 94.2464 363.515 62.4104 323.824 53.3674 254.367C 47.8824 219.601 42.3944 184.832 36.9102 150.062C 57.2144 193.519 77.5154 236.98 97.8204 280.437C 125.132 280.125 152.445 279.808 179.757 279.492" id="path28"/>
    <path style="stroke:none;fill-rule:evenodd;fill:#7a6735;fill-opacity:1" d="M 179.625 279.726C 181.351 292.324 192.711 302.086 205.882 302.086C 221.211 302.086 232.296 292.008 233.75 279.117C 275.488 278.637 317.23 278.152 358.972 277.672C 386.812 235.101 414.652 192.527 442.492 149.953C 434.457 168.031 427.304 200.836 420.257 235.304C 409.527 295.203 380.218 331.91 336.918 351.137C 319.355 359.437 299.16 362.058 277.765 362.097C 237.535 362.097 197.3 362.097 157.066 362.097C 94.3984 362.836 62.6324 323.304 53.6094 254.133C 48.2264 220.062 42.8434 185.984 37.457 151.91C 57.4764 194.828 77.5004 237.746 97.5194 280.664C 124.886 280.351 152.257 280.039 179.625 279.722" id="path30"/>
    <path style="stroke:none;fill-rule:evenodd;fill:#7d6937;fill-opacity:1" d="M 179.5 279.965C 181.222 292.508 192.636 302.234 205.777 302.234C 221.464 302.234 232.527 292.199 233.972 279.363C 275.73 278.883 317.488 278.402 359.246 277.926C 386.515 236.148 413.789 194.371 441.058 152.594C 433.339 170.39 426.449 202 419.656 235.168C 408.949 294.82 379.711 331.371 336.507 350.519C 318.988 358.785 298.836 361.398 277.492 361.437C 237.351 361.437 197.211 361.437 157.07 361.437C 94.5464 362.172 62.8514 322.804 53.8514 253.918C 48.5704 220.539 43.2894 187.16 38.0039 153.777C 57.7424 196.156 77.4804 238.531 97.2224 280.91C 124.648 280.601 152.074 280.285 179.496 279.976" id="path32"/>
    <path style="stroke:none;fill-rule:evenodd;fill:#7f6b38;fill-opacity:1" d="M 179.375 280.199C 181.093 292.691 192.566 302.375 205.679 302.375C 221.726 302.375 232.761 292.383 234.207 279.597C 275.98 279.121 317.757 278.644 359.535 278.164C 386.234 237.183 412.937 196.199 439.64 155.219C 432.238 172.738 425.609 203.148 419.07 235.012C 408.39 294.418 379.214 330.816 336.113 349.887C 318.632 358.121 298.527 360.719 277.234 360.758C 237.187 360.758 197.136 360.758 157.086 360.758C 94.7074 361.488 63.0864 322.285 54.1054 253.683C 48.9254 221 43.7464 188.312 38.5664 155.625C 58.0234 197.461 77.4804 239.301 96.9374 281.137C 124.418 280.828 151.898 280.515 179.379 280.207" id="path34"/>
    <path style="stroke:none;fill-rule:evenodd;fill:#826d39;fill-opacity:1" d="M 179.25 280.437C 180.964 292.875 192.492 302.519 205.578 302.519C 221.984 302.519 232.992 292.566 234.433 279.836C 276.226 279.363 318.019 278.887 359.812 278.41C 385.945 238.222 412.078 198.035 438.211 157.847C 431.125 175.09 424.757 204.297 418.472 234.859C 407.816 294.015 378.711 330.265 335.707 349.254C 318.265 357.453 298.207 360.039 276.964 360.078C 237.011 360.078 197.05 360.078 157.093 360.078C 94.8594 360.804 63.3124 321.765 54.3514 253.449C 49.2774 221.457 44.1954 189.465 39.1172 157.472C 58.2894 198.769 77.4644 240.066 96.6404 281.363C 124.175 281.054 151.714 280.746 179.25 280.437" id="path36"/>
    <path style="stroke:none;fill-rule:evenodd;fill:#85703a;fill-opacity:1" d="M 179.125 280.672C 180.836 293.058 192.425 302.664 205.476 302.664C 222.242 302.664 233.226 292.754 234.664 280.074C 276.472 279.601 318.285 279.129 360.097 278.652C 385.66 239.262 411.226 199.867 436.793 160.472C 430.023 177.437 423.918 205.449 417.886 234.707C 407.253 293.617 378.214 329.715 335.312 348.625C 317.914 356.789 297.902 359.367 276.703 359.406C 236.839 359.406 196.976 359.406 157.109 359.406C 95.0154 360.133 63.5434 321.254 54.6014 253.222C 49.6254 221.926 44.6484 190.625 39.6719 159.328C 58.5624 200.082 77.4574 240.84 96.3514 281.597C 123.941 281.289 151.535 280.98 179.129 280.672" id="path38"/>
    <path style="stroke:none;fill-rule:evenodd;fill:#87723c;fill-opacity:1" d="M 178.996 280.906C 180.699 293.242 192.347 302.804 205.371 302.804C 222.496 302.804 233.453 292.937 234.886 280.312C 276.711 279.844 318.543 279.371 360.371 278.898C 385.367 240.301 410.363 201.703 435.359 163.105C 428.906 179.793 423.062 206.605 417.289 234.558C 406.679 293.222 377.711 329.168 334.902 347.996C 317.543 356.125 297.578 358.691 276.429 358.73C 236.66 358.73 196.886 358.73 157.113 358.73C 95.1644 359.453 63.7614 320.738 54.8434 252.992C 49.9684 222.39 45.0974 191.781 40.2187 161.18C 58.8284 201.394 77.4414 241.609 96.0504 281.824C 123.699 281.519 151.347 281.211 178.996 280.902" id="path40"/>
    <path style="stroke:none;fill-rule:evenodd;fill:#8a743e;fill-opacity:1" d="M 178.871 281.144C 180.57 293.426 192.277 302.949 205.269 302.949C 222.75 302.949 233.687 293.121 235.117 280.551C 276.961 280.082 318.808 279.613 360.652 279.14C 385.078 241.34 409.503 203.535 433.933 165.73C 427.796 182.137 422.214 207.754 416.695 234.406C 406.113 292.82 377.207 328.617 334.5 347.367C 317.179 355.461 297.261 358.019 276.16 358.058C 236.48 358.058 196.8 358.058 157.117 358.058C 95.3124 358.777 63.9804 320.226 55.0824 252.765C 50.3124 222.855 45.5394 192.945 40.7656 163.031C 59.0934 202.707 77.4214 242.379 95.7504 282.054C 123.453 281.75 151.16 281.445 178.863 281.137" id="path42"/>
    <path style="stroke:none;fill-rule:evenodd;fill:#8f7840;fill-opacity:1" d="M 178.746 281.383C 180.441 293.613 192.207 303.097 205.168 303.097C 223.011 303.097 233.918 293.312 235.343 280.793C 277.203 280.324 319.07 279.859 360.933 279.39C 384.789 242.383 408.648 205.375 432.507 168.367C 426.687 184.496 421.367 208.914 416.101 234.262C 405.543 292.43 376.707 328.074 334.097 346.742C 316.82 354.804 296.945 357.347 275.894 357.387C 236.308 357.387 196.718 357.387 157.129 357.387C 95.4684 358.101 64.2114 319.715 55.3324 252.543C 50.6644 223.324 45.9924 194.109 41.3203 164.89C 59.3674 204.023 77.4144 243.16 95.4614 282.293C 123.222 281.988 150.984 281.683 178.742 281.383" id="path44"/>
    <path style="stroke:none;fill-rule:evenodd;fill:#947c44;fill-opacity:1" d="M 178.621 281.617C 180.312 293.797 192.136 303.238 205.066 303.238C 223.265 303.238 234.148 293.496 235.574 281.031C 277.453 280.566 319.336 280.101 361.214 279.633C 384.503 243.422 407.793 207.207 431.082 170.996C 425.578 186.847 420.519 210.062 415.507 234.113C 404.972 292.035 376.203 327.523 333.695 346.117C 316.457 354.144 296.629 356.68 275.629 356.719C 236.136 356.719 196.636 356.719 157.14 356.719C 95.6214 357.43 64.4374 319.207 55.5824 252.32C 51.0154 223.797 46.4454 195.273 41.8754 166.75C 59.6404 205.344 77.4024 243.937 95.1684 282.531C 122.984 282.23 150.8 281.926 178.617 281.621" id="path46"/>
    <path style="stroke:none;fill-rule:evenodd;fill:#998046;fill-opacity:1" d="M 178.492 281.851C 180.179 293.98 192.058 303.383 204.961 303.383C 223.519 303.383 234.379 293.68 235.796 281.269C 277.691 280.808 319.593 280.344 361.492 279.879C 384.211 244.461 406.933 209.043 429.652 173.625C 424.464 189.199 419.668 211.215 414.914 233.965C 404.402 291.637 375.703 326.976 333.293 345.488C 316.093 353.48 296.312 356.004 275.359 356.043C 235.957 356.043 196.554 356.043 157.148 356.043C 95.7734 356.754 64.6644 318.691 55.8244 252.09C 51.3594 224.262 46.8904 196.43 42.4254 168.601C 59.9064 206.656 77.3904 244.707 94.8714 282.762C 122.742 282.461 150.617 282.16 178.488 281.855" id="path48"/>
    <path style="stroke:none;fill-rule:evenodd;fill:#9e8448;fill-opacity:1" d="M 178.367 282.09C 180.05 294.164 191.988 303.527 204.859 303.527C 223.777 303.527 234.609 293.867 236.027 281.508C 277.941 281.047 319.859 280.582 361.773 280.121C 383.921 245.5 406.074 210.875 428.226 176.254C 423.355 191.551 418.82 212.367 414.32 233.812C 403.836 291.238 375.199 326.426 332.89 344.859C 315.734 352.816 295.996 355.332 275.093 355.367C 235.785 355.367 196.472 355.367 157.16 355.367C 95.9294 356.074 64.8904 318.176 56.0744 251.859C 51.7114 224.722 47.3474 197.59 42.9804 170.453C 60.1794 207.965 77.3794 245.48 94.5824 282.992C 122.511 282.691 150.437 282.39 178.367 282.09" id="path50"/>
    <path style="stroke:none;fill-rule:evenodd;fill:#a3884b;fill-opacity:1" d="M 178.242 282.328C 179.921 294.351 191.918 303.672 204.757 303.672C 224.035 303.672 234.839 294.054 236.253 281.746C 278.187 281.289 320.117 280.828 362.054 280.367C 383.636 246.543 405.218 212.711 426.804 178.883C 422.253 193.898 417.976 213.519 413.73 233.66C 403.269 290.84 374.703 325.875 332.492 344.226C 315.375 352.152 295.687 354.652 274.832 354.691C 235.613 354.691 196.394 354.691 157.175 354.691C 96.0864 355.394 65.1214 317.66 56.3284 251.629C 52.0664 225.187 47.8044 198.746 43.5394 172.304C 60.4574 209.277 77.3754 246.25 94.2934 283.222C 122.277 282.926 150.261 282.625 178.246 282.328" id="path52"/>
    <path style="stroke:none;fill-rule:evenodd;fill:#a88c4d;fill-opacity:1" d="M 178.117 282.562C 179.793 294.535 191.847 303.816 204.656 303.816C 224.293 303.816 235.074 294.238 236.484 281.988C 278.433 281.531 320.382 281.074 362.336 280.613C 383.347 247.582 404.363 214.547 425.379 181.515C 421.144 196.254 417.129 214.676 413.136 233.515C 402.699 290.445 374.199 325.332 332.086 343.605C 315.007 351.496 295.367 353.988 274.562 354.023C 235.437 354.023 196.308 354.023 157.179 354.023C 96.2344 354.722 65.3434 317.152 56.5664 251.41C 52.4064 225.664 48.2464 199.914 44.0864 174.164C 60.7224 210.594 77.3594 247.027 93.9924 283.461C 122.031 283.164 150.074 282.867 178.117 282.566" id="path54"/>
    <path style="stroke:none;fill-rule:evenodd;fill:#ae9150;fill-opacity:1" d="M 177.992 282.801C 179.664 294.719 191.773 303.961 204.554 303.961C 224.546 303.961 235.304 294.426 236.711 282.226C 278.675 281.773 320.644 281.316 362.613 280.859C 383.058 248.621 403.503 216.383 423.949 184.144C 420.031 198.605 416.277 215.828 412.543 233.363C 402.132 290.047 373.695 324.781 331.683 342.972C 314.644 350.828 295.05 353.308 274.293 353.347C 235.257 353.347 196.222 353.347 157.187 353.347C 96.3864 354.043 65.5664 316.637 56.8124 251.18C 52.7534 226.125 48.6954 201.07 44.6364 176.015C 60.9884 211.906 77.3434 247.797 93.6994 283.691C 121.796 283.394 149.894 283.097 177.992 282.801" id="path56"/>
    <path style="stroke:none;fill-rule:evenodd;fill:#b39652;fill-opacity:1" d="M 177.863 283.035C 179.531 294.902 191.699 304.101 204.449 304.101C 224.8 304.101 235.531 294.609 236.937 282.461C 278.921 282.008 320.906 281.554 362.894 281.097C 382.769 249.656 402.648 218.211 422.523 186.769C 418.921 200.953 415.429 216.976 411.949 233.211C 401.562 289.648 373.195 324.23 331.281 342.344C 314.285 350.164 294.734 352.637 274.027 352.672C 235.086 352.672 196.14 352.672 157.199 352.672C 96.5434 353.367 65.7964 316.121 57.0624 250.949C 53.1094 226.59 49.1484 202.226 45.1914 177.867C 61.2614 213.219 77.3364 248.57 93.4064 283.922C 121.558 283.629 149.711 283.332 177.863 283.035" id="path58"/>
    <path style="stroke:none;fill-rule:evenodd;fill:#b89b54;fill-opacity:1" d="M 177.738 283.273C 179.402 295.09 191.629 304.25 204.347 304.25C 225.058 304.25 235.765 294.797 237.164 282.707C 279.168 282.258 321.168 281.804 363.171 281.351C 382.476 250.707 401.785 220.054 421.093 189.406C 417.808 203.308 414.578 218.137 411.351 233.066C 400.988 289.254 372.691 323.683 330.875 341.722C 313.918 349.508 294.414 351.969 273.757 352.004C 234.91 352.004 196.058 352.004 157.203 352.004C 96.6874 352.695 66.0154 315.613 57.3004 250.726C 53.4494 227.062 49.5934 203.394 45.7384 179.726C 61.5274 214.535 77.3164 249.347 93.1094 284.16C 121.316 283.867 149.527 283.574 177.734 283.277" id="path60"/>
    <path style="stroke:none;fill-rule:evenodd;fill:#bd9f57;fill-opacity:1" d="M 177.613 283.508C 179.273 295.269 191.558 304.39 204.246 304.39C 225.316 304.39 235.996 294.98 237.394 282.941L 363.457 281.59L 419.671 192.031L 410.761 232.914C 400.421 288.855 372.191 323.133 330.476 341.09C 313.558 348.844 294.101 351.289 273.492 351.328L 157.214 351.328C 96.8434 352.015 66.2424 315.097 57.5504 250.496L 46.2934 181.578L 92.8164 284.39L 177.613 283.512" id="path62"/>
    <path style="stroke:none;fill-rule:evenodd;fill:#bd9f56;fill-opacity:1" d="M 328.64 116.597L 170.007 310.867C 140.828 345.558 132.445 341.066 109.636 360.043L 53.9614 426.062L 90.8514 455.699L 143.843 389.344C 163.519 359.703 153.007 356 184.761 317.601L 338.535 125.164L 349.394 134.566L 358.343 123.914L 326.257 98.035L 317.836 107.238L 328.632 116.59" id="path64"/>
    <path style="stroke:none;fill-rule:evenodd;fill:#705e33;fill-opacity:1" d="M 170.003 310.867C 159.136 324.183 148.078 339.551 136.839 356.93C 133.472 361.59 130.195 370.379 126.734 374.859L 82.6444 429.933L 129.605 376.203C 136.05 369.043 140.293 367.008 146.464 360.539C 154.898 352.89 163.316 345.301 171.765 334.633C 175.089 329.777 179.3 324.203 184.757 317.601L 338.531 125.164L 349.39 134.566L 354.074 129.09L 338.89 116.097L 170.207 325.992C 161.211 338.07 150.164 351.426 133.437 368.312C 146.699 346.703 161.89 325.09 176.117 303.476L 169.992 310.863" id="path66"/>
    <path style="stroke:none;fill-rule:evenodd;fill:#705e33;fill-opacity:1" d="M 317.839 107.242L 328.687 116.637L 332.203 112.242L 321.472 103.273L 317.839 107.242" id="path68"/>
    <path style="stroke:none;fill-rule:evenodd;fill:#705e33;fill-opacity:1" d="M 49.4574 174.195L 40.9805 174.195L 40.5781 171.648L 48.2464 171.648L 49.4574 174.195zM 65.0194 207.312L 46.6174 207.312L 46.2114 204.765L 63.8714 204.765L 65.0234 207.312L 65.0194 207.312zM 80.1834 239.414L 51.6214 239.414L 51.2304 236.867L 78.9724 236.867L 80.1834 239.414zM 93.5894 267.945L 55.9024 267.945L 56.3674 270.492L 94.6794 270.492L 93.5894 267.945zM 424.945 174.195L 436.992 174.195L 437.652 171.648L 426.691 171.648L 424.941 174.195L 424.945 174.195zM 403.183 207.312L 429.211 207.312L 429.773 204.765L 404.894 204.765L 403.179 207.312L 403.183 207.312zM 381.988 239.414L 422.636 239.414L 423.086 236.867L 383.648 236.867L 381.984 239.414L 381.988 239.414zM 361.476 270.496L 414.269 270.496L 415.195 267.949L 363.129 267.949L 361.48 270.496L 361.476 270.496zM 224.14 300.558L 400.191 300.558L 398.636 303.105L 216.261 303.105C 219.386 302.457 221.711 301.609 224.14 300.558zM 145.328 335.715C 146.339 334.918 147.379 334.074 148.445 333.168L 82.7424 333.168L 84.8474 335.715L 145.324 335.715L 145.328 335.715zM 172.789 333.168C 172.179 334.035 171.597 334.887 171.039 335.715L 369.582 335.715L 372.66 333.168L 172.789 333.168zM 178.421 300.558L 177.988 301.09L 176.347 303.101L 65.6914 303.101L 64.7384 300.554L 178.429 300.554" id="path70"/>
  </g>
</svg>